M48
; DRILL file {KiCad (6.0.6-0)} date Wednesday, August 03, 2022 at 09:40:11 AM
; FORMAT={-:-/ absolute / inch / decimal}
; #@! TF.CreationDate,2022-08-03T09:40:11-07:00
; #@! TF.GenerationSoftware,Kicad,Pcbnew,(6.0.6-0)
; #@! TF.FileFunction,Plated,1,2,PTH
FMAT,2
INCH
; #@! TA.AperFunction,Plated,PTH,ViaDrill
T1C0.0157
; #@! TA.AperFunction,Plated,PTH,ComponentDrill
T2C0.0276
; #@! TA.AperFunction,Plated,PTH,ComponentDrill
T3C0.0350
; #@! TA.AperFunction,Plated,PTH,ComponentDrill
T4C0.0520
; #@! TA.AperFunction,Plated,PTH,ComponentDrill
T5C0.1250
%
G90
G05
T1
X4.0039Y-5.563
X4.13Y-2.932
X4.134Y-4.602
X4.136Y-4.283
X4.1417Y-3.9724
X4.1964Y-4.1784
X4.2Y-4.44
X4.202Y-4.502
X4.2402Y-4.2795
X4.28Y-4.836
X4.2929Y-3.8111
X4.3583Y-5.5591
X4.3961Y-3.8141
X4.42Y-3.954
X4.428Y-4.95
X4.454Y-4.758
X4.456Y-3.425
X4.4606Y-5.126
X4.4606Y-5.4213
X4.514Y-4.804
X4.5351Y-5.0686
X4.6Y-4.544
X4.602Y-4.656
X4.65Y-4.95
X4.7549Y-4.2619
X4.76Y-5.556
X4.774Y-4.87
X4.786Y-4.325
X4.8177Y-4.2972
X4.818Y-3.72
X4.838Y-4.836
X4.848Y-3.814
X4.85Y-4.325
X4.88Y-5.121
X4.9128Y-4.325
X4.92Y-4.836
X4.9435Y-4.2972
X4.974Y-3.706
X4.976Y-4.328
X4.9781Y-4.8697
X5.006Y-4.298
X5.0154Y-3.8425
X5.069Y-4.269
X5.0894Y-5.4201
X5.0984Y-4.9724
X5.1417Y-4.9771
X5.1417Y-5.0551
X5.142Y-4.774
X5.154Y-4.648
X5.156Y-4.54
X5.17Y-4.356
X5.224Y-3.92
X5.224Y-3.9986
X5.2402Y-3.9594
X5.2677Y-3.5276
X5.268Y-3.638
X5.28Y-3.425
X5.288Y-5.0512
X5.2916Y-4.977
X5.326Y-4.958
X5.348Y-3.928
X5.452Y-3.932
X5.4676Y-2.9774
X5.475Y-2.8334
X5.488Y-3.759
X5.54Y-2.8065
X5.54Y-3.04
X5.551Y-4.381
X5.552Y-4.062
X5.552Y-4.122
X5.552Y-4.442
X5.5914Y-4.804
X5.615Y-4.281
X5.6165Y-4.7385
T3
X4.89Y-5.61
X4.89Y-5.71
X4.99Y-5.61
X4.99Y-5.71
X5.09Y-5.61
X5.09Y-5.71
T4
X4.4972Y-2.8132
X4.4972Y-5.6582
X5.2502Y-2.8132
X5.2502Y-5.6582
T5
X4.8732Y-3.1602
X4.8732Y-5.3352
X5.5632Y-3.1602
T2
G00X4.7185Y-2.7789
M15
G01X4.7185Y-2.7553
M16
G05
G00X5.0295Y-2.7789
M15
G01X5.0295Y-2.7553
M16
G05
T0
M30
