%TF.GenerationSoftware,KiCad,Pcbnew,(6.0.6)*%
%TF.CreationDate,2022-08-04T23:16:21-07:00*%
%TF.ProjectId,Smart Floor Register,536d6172-7420-4466-9c6f-6f7220526567,rev?*%
%TF.SameCoordinates,Original*%
%TF.FileFunction,Legend,Top*%
%TF.FilePolarity,Positive*%
%FSLAX46Y46*%
G04 Gerber Fmt 4.6, Leading zero omitted, Abs format (unit mm)*
G04 Created by KiCad (PCBNEW (6.0.6)) date 2022-08-04 23:16:21*
%MOMM*%
%LPD*%
G01*
G04 APERTURE LIST*
%ADD10C,0.150000*%
%ADD11C,0.120000*%
%ADD12C,0.127000*%
%ADD13C,0.200000*%
G04 APERTURE END LIST*
D10*
%TO.C,U3*%
X130769293Y-125900380D02*
X130769293Y-126709904D01*
X130816912Y-126805142D01*
X130864531Y-126852761D01*
X130959769Y-126900380D01*
X131150245Y-126900380D01*
X131245483Y-126852761D01*
X131293102Y-126805142D01*
X131340721Y-126709904D01*
X131340721Y-125900380D01*
X131721674Y-125900380D02*
X132340721Y-125900380D01*
X132007388Y-126281333D01*
X132150245Y-126281333D01*
X132245483Y-126328952D01*
X132293102Y-126376571D01*
X132340721Y-126471809D01*
X132340721Y-126709904D01*
X132293102Y-126805142D01*
X132245483Y-126852761D01*
X132150245Y-126900380D01*
X131864531Y-126900380D01*
X131769293Y-126852761D01*
X131721674Y-126805142D01*
%TO.C,U2*%
X114906993Y-125900380D02*
X114906993Y-126709904D01*
X114954612Y-126805142D01*
X115002231Y-126852761D01*
X115097469Y-126900380D01*
X115287945Y-126900380D01*
X115383183Y-126852761D01*
X115430802Y-126805142D01*
X115478421Y-126709904D01*
X115478421Y-125900380D01*
X115906993Y-125995619D02*
X115954612Y-125948000D01*
X116049850Y-125900380D01*
X116287945Y-125900380D01*
X116383183Y-125948000D01*
X116430802Y-125995619D01*
X116478421Y-126090857D01*
X116478421Y-126186095D01*
X116430802Y-126328952D01*
X115859374Y-126900380D01*
X116478421Y-126900380D01*
%TO.C,SW4*%
X102247866Y-144651361D02*
X102390723Y-144698980D01*
X102628819Y-144698980D01*
X102724057Y-144651361D01*
X102771676Y-144603742D01*
X102819295Y-144508504D01*
X102819295Y-144413266D01*
X102771676Y-144318028D01*
X102724057Y-144270409D01*
X102628819Y-144222790D01*
X102438342Y-144175171D01*
X102343104Y-144127552D01*
X102295485Y-144079933D01*
X102247866Y-143984695D01*
X102247866Y-143889457D01*
X102295485Y-143794219D01*
X102343104Y-143746600D01*
X102438342Y-143698980D01*
X102676438Y-143698980D01*
X102819295Y-143746600D01*
X103152628Y-143698980D02*
X103390723Y-144698980D01*
X103581200Y-143984695D01*
X103771676Y-144698980D01*
X104009771Y-143698980D01*
X104819295Y-144032314D02*
X104819295Y-144698980D01*
X104581200Y-143651361D02*
X104343104Y-144365647D01*
X104962152Y-144365647D01*
%TO.C,SW3*%
X117291566Y-144549761D02*
X117434423Y-144597380D01*
X117672519Y-144597380D01*
X117767757Y-144549761D01*
X117815376Y-144502142D01*
X117862995Y-144406904D01*
X117862995Y-144311666D01*
X117815376Y-144216428D01*
X117767757Y-144168809D01*
X117672519Y-144121190D01*
X117482042Y-144073571D01*
X117386804Y-144025952D01*
X117339185Y-143978333D01*
X117291566Y-143883095D01*
X117291566Y-143787857D01*
X117339185Y-143692619D01*
X117386804Y-143645000D01*
X117482042Y-143597380D01*
X117720138Y-143597380D01*
X117862995Y-143645000D01*
X118196328Y-143597380D02*
X118434423Y-144597380D01*
X118624900Y-143883095D01*
X118815376Y-144597380D01*
X119053471Y-143597380D01*
X119339185Y-143597380D02*
X119958233Y-143597380D01*
X119624900Y-143978333D01*
X119767757Y-143978333D01*
X119862995Y-144025952D01*
X119910614Y-144073571D01*
X119958233Y-144168809D01*
X119958233Y-144406904D01*
X119910614Y-144502142D01*
X119862995Y-144549761D01*
X119767757Y-144597380D01*
X119482042Y-144597380D01*
X119386804Y-144549761D01*
X119339185Y-144502142D01*
%TO.C,SW2*%
X107320966Y-144625961D02*
X107463823Y-144673580D01*
X107701919Y-144673580D01*
X107797157Y-144625961D01*
X107844776Y-144578342D01*
X107892395Y-144483104D01*
X107892395Y-144387866D01*
X107844776Y-144292628D01*
X107797157Y-144245009D01*
X107701919Y-144197390D01*
X107511442Y-144149771D01*
X107416204Y-144102152D01*
X107368585Y-144054533D01*
X107320966Y-143959295D01*
X107320966Y-143864057D01*
X107368585Y-143768819D01*
X107416204Y-143721200D01*
X107511442Y-143673580D01*
X107749538Y-143673580D01*
X107892395Y-143721200D01*
X108225728Y-143673580D02*
X108463823Y-144673580D01*
X108654300Y-143959295D01*
X108844776Y-144673580D01*
X109082871Y-143673580D01*
X109416204Y-143768819D02*
X109463823Y-143721200D01*
X109559061Y-143673580D01*
X109797157Y-143673580D01*
X109892395Y-143721200D01*
X109940014Y-143768819D01*
X109987633Y-143864057D01*
X109987633Y-143959295D01*
X109940014Y-144102152D01*
X109368585Y-144673580D01*
X109987633Y-144673580D01*
%TO.C,SW1*%
X136029866Y-144600561D02*
X136172723Y-144648180D01*
X136410819Y-144648180D01*
X136506057Y-144600561D01*
X136553676Y-144552942D01*
X136601295Y-144457704D01*
X136601295Y-144362466D01*
X136553676Y-144267228D01*
X136506057Y-144219609D01*
X136410819Y-144171990D01*
X136220342Y-144124371D01*
X136125104Y-144076752D01*
X136077485Y-144029133D01*
X136029866Y-143933895D01*
X136029866Y-143838657D01*
X136077485Y-143743419D01*
X136125104Y-143695800D01*
X136220342Y-143648180D01*
X136458438Y-143648180D01*
X136601295Y-143695800D01*
X136934628Y-143648180D02*
X137172723Y-144648180D01*
X137363200Y-143933895D01*
X137553676Y-144648180D01*
X137791771Y-143648180D01*
X138696533Y-144648180D02*
X138125104Y-144648180D01*
X138410819Y-144648180D02*
X138410819Y-143648180D01*
X138315580Y-143791038D01*
X138220342Y-143886276D01*
X138125104Y-143933895D01*
%TO.C,R4*%
X121092933Y-121991380D02*
X120759600Y-121515190D01*
X120521504Y-121991380D02*
X120521504Y-120991380D01*
X120902457Y-120991380D01*
X120997695Y-121039000D01*
X121045314Y-121086619D01*
X121092933Y-121181857D01*
X121092933Y-121324714D01*
X121045314Y-121419952D01*
X120997695Y-121467571D01*
X120902457Y-121515190D01*
X120521504Y-121515190D01*
X121950076Y-121324714D02*
X121950076Y-121991380D01*
X121711980Y-120943761D02*
X121473885Y-121658047D01*
X122092933Y-121658047D01*
%TO.C,TP8*%
X116619495Y-135139180D02*
X117190923Y-135139180D01*
X116905209Y-136139180D02*
X116905209Y-135139180D01*
X117524257Y-136139180D02*
X117524257Y-135139180D01*
X117905209Y-135139180D01*
X118000447Y-135186800D01*
X118048066Y-135234419D01*
X118095685Y-135329657D01*
X118095685Y-135472514D01*
X118048066Y-135567752D01*
X118000447Y-135615371D01*
X117905209Y-135662990D01*
X117524257Y-135662990D01*
X118667114Y-135567752D02*
X118571876Y-135520133D01*
X118524257Y-135472514D01*
X118476638Y-135377276D01*
X118476638Y-135329657D01*
X118524257Y-135234419D01*
X118571876Y-135186800D01*
X118667114Y-135139180D01*
X118857590Y-135139180D01*
X118952828Y-135186800D01*
X119000447Y-135234419D01*
X119048066Y-135329657D01*
X119048066Y-135377276D01*
X119000447Y-135472514D01*
X118952828Y-135520133D01*
X118857590Y-135567752D01*
X118667114Y-135567752D01*
X118571876Y-135615371D01*
X118524257Y-135662990D01*
X118476638Y-135758228D01*
X118476638Y-135948704D01*
X118524257Y-136043942D01*
X118571876Y-136091561D01*
X118667114Y-136139180D01*
X118857590Y-136139180D01*
X118952828Y-136091561D01*
X119000447Y-136043942D01*
X119048066Y-135948704D01*
X119048066Y-135758228D01*
X119000447Y-135662990D01*
X118952828Y-135615371D01*
X118857590Y-135567752D01*
%TO.C,R12*%
X120654842Y-126487180D02*
X120321509Y-126010990D01*
X120083414Y-126487180D02*
X120083414Y-125487180D01*
X120464366Y-125487180D01*
X120559604Y-125534800D01*
X120607223Y-125582419D01*
X120654842Y-125677657D01*
X120654842Y-125820514D01*
X120607223Y-125915752D01*
X120559604Y-125963371D01*
X120464366Y-126010990D01*
X120083414Y-126010990D01*
X121607223Y-126487180D02*
X121035795Y-126487180D01*
X121321509Y-126487180D02*
X121321509Y-125487180D01*
X121226271Y-125630038D01*
X121131033Y-125725276D01*
X121035795Y-125772895D01*
X121988176Y-125582419D02*
X122035795Y-125534800D01*
X122131033Y-125487180D01*
X122369128Y-125487180D01*
X122464366Y-125534800D01*
X122511985Y-125582419D01*
X122559604Y-125677657D01*
X122559604Y-125772895D01*
X122511985Y-125915752D01*
X121940557Y-126487180D01*
X122559604Y-126487180D01*
%TO.C,R7*%
X128611333Y-130500380D02*
X128278000Y-130024190D01*
X128039904Y-130500380D02*
X128039904Y-129500380D01*
X128420857Y-129500380D01*
X128516095Y-129548000D01*
X128563714Y-129595619D01*
X128611333Y-129690857D01*
X128611333Y-129833714D01*
X128563714Y-129928952D01*
X128516095Y-129976571D01*
X128420857Y-130024190D01*
X128039904Y-130024190D01*
X128944666Y-129500380D02*
X129611333Y-129500380D01*
X129182761Y-130500380D01*
%TO.C,R8*%
X120483333Y-117038380D02*
X120150000Y-116562190D01*
X119911904Y-117038380D02*
X119911904Y-116038380D01*
X120292857Y-116038380D01*
X120388095Y-116086000D01*
X120435714Y-116133619D01*
X120483333Y-116228857D01*
X120483333Y-116371714D01*
X120435714Y-116466952D01*
X120388095Y-116514571D01*
X120292857Y-116562190D01*
X119911904Y-116562190D01*
X121054761Y-116466952D02*
X120959523Y-116419333D01*
X120911904Y-116371714D01*
X120864285Y-116276476D01*
X120864285Y-116228857D01*
X120911904Y-116133619D01*
X120959523Y-116086000D01*
X121054761Y-116038380D01*
X121245238Y-116038380D01*
X121340476Y-116086000D01*
X121388095Y-116133619D01*
X121435714Y-116228857D01*
X121435714Y-116276476D01*
X121388095Y-116371714D01*
X121340476Y-116419333D01*
X121245238Y-116466952D01*
X121054761Y-116466952D01*
X120959523Y-116514571D01*
X120911904Y-116562190D01*
X120864285Y-116657428D01*
X120864285Y-116847904D01*
X120911904Y-116943142D01*
X120959523Y-116990761D01*
X121054761Y-117038380D01*
X121245238Y-117038380D01*
X121340476Y-116990761D01*
X121388095Y-116943142D01*
X121435714Y-116847904D01*
X121435714Y-116657428D01*
X121388095Y-116562190D01*
X121340476Y-116514571D01*
X121245238Y-116466952D01*
%TO.C,TP13*%
X106567504Y-128433580D02*
X107138933Y-128433580D01*
X106853219Y-129433580D02*
X106853219Y-128433580D01*
X107472266Y-129433580D02*
X107472266Y-128433580D01*
X107853219Y-128433580D01*
X107948457Y-128481200D01*
X107996076Y-128528819D01*
X108043695Y-128624057D01*
X108043695Y-128766914D01*
X107996076Y-128862152D01*
X107948457Y-128909771D01*
X107853219Y-128957390D01*
X107472266Y-128957390D01*
X108996076Y-129433580D02*
X108424647Y-129433580D01*
X108710361Y-129433580D02*
X108710361Y-128433580D01*
X108615123Y-128576438D01*
X108519885Y-128671676D01*
X108424647Y-128719295D01*
X109329409Y-128433580D02*
X109948457Y-128433580D01*
X109615123Y-128814533D01*
X109757980Y-128814533D01*
X109853219Y-128862152D01*
X109900838Y-128909771D01*
X109948457Y-129005009D01*
X109948457Y-129243104D01*
X109900838Y-129338342D01*
X109853219Y-129385961D01*
X109757980Y-129433580D01*
X109472266Y-129433580D01*
X109377028Y-129385961D01*
X109329409Y-129338342D01*
%TO.C,R16*%
X127960380Y-76512657D02*
X127484190Y-76845990D01*
X127960380Y-77084085D02*
X126960380Y-77084085D01*
X126960380Y-76703133D01*
X127008000Y-76607895D01*
X127055619Y-76560276D01*
X127150857Y-76512657D01*
X127293714Y-76512657D01*
X127388952Y-76560276D01*
X127436571Y-76607895D01*
X127484190Y-76703133D01*
X127484190Y-77084085D01*
X127960380Y-75560276D02*
X127960380Y-76131704D01*
X127960380Y-75845990D02*
X126960380Y-75845990D01*
X127103238Y-75941228D01*
X127198476Y-76036466D01*
X127246095Y-76131704D01*
X126960380Y-74703133D02*
X126960380Y-74893609D01*
X127008000Y-74988847D01*
X127055619Y-75036466D01*
X127198476Y-75131704D01*
X127388952Y-75179323D01*
X127769904Y-75179323D01*
X127865142Y-75131704D01*
X127912761Y-75084085D01*
X127960380Y-74988847D01*
X127960380Y-74798371D01*
X127912761Y-74703133D01*
X127865142Y-74655514D01*
X127769904Y-74607895D01*
X127531809Y-74607895D01*
X127436571Y-74655514D01*
X127388952Y-74703133D01*
X127341333Y-74798371D01*
X127341333Y-74988847D01*
X127388952Y-75084085D01*
X127436571Y-75131704D01*
X127531809Y-75179323D01*
%TO.C,R13*%
X125778940Y-121762780D02*
X125445607Y-121286590D01*
X125207512Y-121762780D02*
X125207512Y-120762780D01*
X125588464Y-120762780D01*
X125683702Y-120810400D01*
X125731321Y-120858019D01*
X125778940Y-120953257D01*
X125778940Y-121096114D01*
X125731321Y-121191352D01*
X125683702Y-121238971D01*
X125588464Y-121286590D01*
X125207512Y-121286590D01*
X126731321Y-121762780D02*
X126159893Y-121762780D01*
X126445607Y-121762780D02*
X126445607Y-120762780D01*
X126350369Y-120905638D01*
X126255131Y-121000876D01*
X126159893Y-121048495D01*
X127064655Y-120762780D02*
X127683702Y-120762780D01*
X127350369Y-121143733D01*
X127493226Y-121143733D01*
X127588464Y-121191352D01*
X127636083Y-121238971D01*
X127683702Y-121334209D01*
X127683702Y-121572304D01*
X127636083Y-121667542D01*
X127588464Y-121715161D01*
X127493226Y-121762780D01*
X127207512Y-121762780D01*
X127112274Y-121715161D01*
X127064655Y-121667542D01*
%TO.C,TP11*%
X121858304Y-138568180D02*
X122429733Y-138568180D01*
X122144019Y-139568180D02*
X122144019Y-138568180D01*
X122763066Y-139568180D02*
X122763066Y-138568180D01*
X123144019Y-138568180D01*
X123239257Y-138615800D01*
X123286876Y-138663419D01*
X123334495Y-138758657D01*
X123334495Y-138901514D01*
X123286876Y-138996752D01*
X123239257Y-139044371D01*
X123144019Y-139091990D01*
X122763066Y-139091990D01*
X124286876Y-139568180D02*
X123715447Y-139568180D01*
X124001161Y-139568180D02*
X124001161Y-138568180D01*
X123905923Y-138711038D01*
X123810685Y-138806276D01*
X123715447Y-138853895D01*
X125239257Y-139568180D02*
X124667828Y-139568180D01*
X124953542Y-139568180D02*
X124953542Y-138568180D01*
X124858304Y-138711038D01*
X124763066Y-138806276D01*
X124667828Y-138853895D01*
%TO.C,S1*%
X109578532Y-70430183D02*
X109721494Y-70477837D01*
X109959763Y-70477837D01*
X110055071Y-70430183D01*
X110102725Y-70382529D01*
X110150379Y-70287221D01*
X110150379Y-70191913D01*
X110102725Y-70096605D01*
X110055071Y-70048951D01*
X109959763Y-70001298D01*
X109769148Y-69953644D01*
X109673840Y-69905990D01*
X109626186Y-69858336D01*
X109578532Y-69763028D01*
X109578532Y-69667720D01*
X109626186Y-69572412D01*
X109673840Y-69524759D01*
X109769148Y-69477105D01*
X110007417Y-69477105D01*
X110150379Y-69524759D01*
X111103457Y-70477837D02*
X110531610Y-70477837D01*
X110817534Y-70477837D02*
X110817534Y-69477105D01*
X110722226Y-69620066D01*
X110626918Y-69715374D01*
X110531610Y-69763028D01*
%TO.C,C5*%
X144408142Y-71794666D02*
X144455761Y-71842285D01*
X144503380Y-71985142D01*
X144503380Y-72080380D01*
X144455761Y-72223238D01*
X144360523Y-72318476D01*
X144265285Y-72366095D01*
X144074809Y-72413714D01*
X143931952Y-72413714D01*
X143741476Y-72366095D01*
X143646238Y-72318476D01*
X143551000Y-72223238D01*
X143503380Y-72080380D01*
X143503380Y-71985142D01*
X143551000Y-71842285D01*
X143598619Y-71794666D01*
X143503380Y-70889904D02*
X143503380Y-71366095D01*
X143979571Y-71413714D01*
X143931952Y-71366095D01*
X143884333Y-71270857D01*
X143884333Y-71032761D01*
X143931952Y-70937523D01*
X143979571Y-70889904D01*
X144074809Y-70842285D01*
X144312904Y-70842285D01*
X144408142Y-70889904D01*
X144455761Y-70937523D01*
X144503380Y-71032761D01*
X144503380Y-71270857D01*
X144455761Y-71366095D01*
X144408142Y-71413714D01*
%TO.C,TP2*%
X127516095Y-113625380D02*
X128087523Y-113625380D01*
X127801809Y-114625380D02*
X127801809Y-113625380D01*
X128420857Y-114625380D02*
X128420857Y-113625380D01*
X128801809Y-113625380D01*
X128897047Y-113673000D01*
X128944666Y-113720619D01*
X128992285Y-113815857D01*
X128992285Y-113958714D01*
X128944666Y-114053952D01*
X128897047Y-114101571D01*
X128801809Y-114149190D01*
X128420857Y-114149190D01*
X129373238Y-113720619D02*
X129420857Y-113673000D01*
X129516095Y-113625380D01*
X129754190Y-113625380D01*
X129849428Y-113673000D01*
X129897047Y-113720619D01*
X129944666Y-113815857D01*
X129944666Y-113911095D01*
X129897047Y-114053952D01*
X129325619Y-114625380D01*
X129944666Y-114625380D01*
%TO.C,C2*%
X126706433Y-85169202D02*
X126658814Y-85216821D01*
X126515957Y-85264440D01*
X126420719Y-85264440D01*
X126277861Y-85216821D01*
X126182623Y-85121583D01*
X126135004Y-85026345D01*
X126087385Y-84835869D01*
X126087385Y-84693012D01*
X126135004Y-84502536D01*
X126182623Y-84407298D01*
X126277861Y-84312060D01*
X126420719Y-84264440D01*
X126515957Y-84264440D01*
X126658814Y-84312060D01*
X126706433Y-84359679D01*
X127087385Y-84359679D02*
X127135004Y-84312060D01*
X127230242Y-84264440D01*
X127468338Y-84264440D01*
X127563576Y-84312060D01*
X127611195Y-84359679D01*
X127658814Y-84454917D01*
X127658814Y-84550155D01*
X127611195Y-84693012D01*
X127039766Y-85264440D01*
X127658814Y-85264440D01*
%TO.C,R11*%
X136523140Y-126410980D02*
X136189807Y-125934790D01*
X135951712Y-126410980D02*
X135951712Y-125410980D01*
X136332664Y-125410980D01*
X136427902Y-125458600D01*
X136475521Y-125506219D01*
X136523140Y-125601457D01*
X136523140Y-125744314D01*
X136475521Y-125839552D01*
X136427902Y-125887171D01*
X136332664Y-125934790D01*
X135951712Y-125934790D01*
X137475521Y-126410980D02*
X136904093Y-126410980D01*
X137189807Y-126410980D02*
X137189807Y-125410980D01*
X137094569Y-125553838D01*
X136999331Y-125649076D01*
X136904093Y-125696695D01*
X138427902Y-126410980D02*
X137856474Y-126410980D01*
X138142188Y-126410980D02*
X138142188Y-125410980D01*
X138046950Y-125553838D01*
X137951712Y-125649076D01*
X137856474Y-125696695D01*
%TO.C,R22*%
X120594380Y-76512657D02*
X120118190Y-76845990D01*
X120594380Y-77084085D02*
X119594380Y-77084085D01*
X119594380Y-76703133D01*
X119642000Y-76607895D01*
X119689619Y-76560276D01*
X119784857Y-76512657D01*
X119927714Y-76512657D01*
X120022952Y-76560276D01*
X120070571Y-76607895D01*
X120118190Y-76703133D01*
X120118190Y-77084085D01*
X119689619Y-76131704D02*
X119642000Y-76084085D01*
X119594380Y-75988847D01*
X119594380Y-75750752D01*
X119642000Y-75655514D01*
X119689619Y-75607895D01*
X119784857Y-75560276D01*
X119880095Y-75560276D01*
X120022952Y-75607895D01*
X120594380Y-76179323D01*
X120594380Y-75560276D01*
X119689619Y-75179323D02*
X119642000Y-75131704D01*
X119594380Y-75036466D01*
X119594380Y-74798371D01*
X119642000Y-74703133D01*
X119689619Y-74655514D01*
X119784857Y-74607895D01*
X119880095Y-74607895D01*
X120022952Y-74655514D01*
X120594380Y-75226942D01*
X120594380Y-74607895D01*
%TO.C,L1*%
X136055380Y-71794666D02*
X136055380Y-72270857D01*
X135055380Y-72270857D01*
X136055380Y-70937523D02*
X136055380Y-71508952D01*
X136055380Y-71223238D02*
X135055380Y-71223238D01*
X135198238Y-71318476D01*
X135293476Y-71413714D01*
X135341095Y-71508952D01*
%TO.C,C4*%
X136993333Y-94431142D02*
X136945714Y-94478761D01*
X136802857Y-94526380D01*
X136707619Y-94526380D01*
X136564761Y-94478761D01*
X136469523Y-94383523D01*
X136421904Y-94288285D01*
X136374285Y-94097809D01*
X136374285Y-93954952D01*
X136421904Y-93764476D01*
X136469523Y-93669238D01*
X136564761Y-93574000D01*
X136707619Y-93526380D01*
X136802857Y-93526380D01*
X136945714Y-93574000D01*
X136993333Y-93621619D01*
X137850476Y-93859714D02*
X137850476Y-94526380D01*
X137612380Y-93478761D02*
X137374285Y-94193047D01*
X137993333Y-94193047D01*
%TO.C,A4*%
X141830514Y-100953866D02*
X142306704Y-100953866D01*
X141735276Y-101239580D02*
X142068609Y-100239580D01*
X142401942Y-101239580D01*
X143163847Y-100572914D02*
X143163847Y-101239580D01*
X142925752Y-100191961D02*
X142687657Y-100906247D01*
X143306704Y-100906247D01*
%TO.C,R9*%
X123480533Y-115768380D02*
X123147200Y-115292190D01*
X122909104Y-115768380D02*
X122909104Y-114768380D01*
X123290057Y-114768380D01*
X123385295Y-114816000D01*
X123432914Y-114863619D01*
X123480533Y-114958857D01*
X123480533Y-115101714D01*
X123432914Y-115196952D01*
X123385295Y-115244571D01*
X123290057Y-115292190D01*
X122909104Y-115292190D01*
X123956723Y-115768380D02*
X124147200Y-115768380D01*
X124242438Y-115720761D01*
X124290057Y-115673142D01*
X124385295Y-115530285D01*
X124432914Y-115339809D01*
X124432914Y-114958857D01*
X124385295Y-114863619D01*
X124337676Y-114816000D01*
X124242438Y-114768380D01*
X124051961Y-114768380D01*
X123956723Y-114816000D01*
X123909104Y-114863619D01*
X123861485Y-114958857D01*
X123861485Y-115196952D01*
X123909104Y-115292190D01*
X123956723Y-115339809D01*
X124051961Y-115387428D01*
X124242438Y-115387428D01*
X124337676Y-115339809D01*
X124385295Y-115292190D01*
X124432914Y-115196952D01*
%TO.C,D1*%
X118641904Y-130500380D02*
X118641904Y-129500380D01*
X118880000Y-129500380D01*
X119022857Y-129548000D01*
X119118095Y-129643238D01*
X119165714Y-129738476D01*
X119213333Y-129928952D01*
X119213333Y-130071809D01*
X119165714Y-130262285D01*
X119118095Y-130357523D01*
X119022857Y-130452761D01*
X118880000Y-130500380D01*
X118641904Y-130500380D01*
X120165714Y-130500380D02*
X119594285Y-130500380D01*
X119880000Y-130500380D02*
X119880000Y-129500380D01*
X119784761Y-129643238D01*
X119689523Y-129738476D01*
X119594285Y-129786095D01*
%TO.C,TP1*%
X110836495Y-91852380D02*
X111407923Y-91852380D01*
X111122209Y-92852380D02*
X111122209Y-91852380D01*
X111741257Y-92852380D02*
X111741257Y-91852380D01*
X112122209Y-91852380D01*
X112217447Y-91900000D01*
X112265066Y-91947619D01*
X112312685Y-92042857D01*
X112312685Y-92185714D01*
X112265066Y-92280952D01*
X112217447Y-92328571D01*
X112122209Y-92376190D01*
X111741257Y-92376190D01*
X113265066Y-92852380D02*
X112693638Y-92852380D01*
X112979352Y-92852380D02*
X112979352Y-91852380D01*
X112884114Y-91995238D01*
X112788876Y-92090476D01*
X112693638Y-92138095D01*
%TO.C,A1*%
X106338714Y-103688889D02*
X106814904Y-103688889D01*
X106243476Y-103974603D02*
X106576809Y-102974603D01*
X106910142Y-103974603D01*
X107767285Y-103974603D02*
X107195857Y-103974603D01*
X107481571Y-103974603D02*
X107481571Y-102974603D01*
X107386333Y-103117461D01*
X107291095Y-103212699D01*
X107195857Y-103260318D01*
%TO.C,TP6*%
X129929095Y-72934580D02*
X130500523Y-72934580D01*
X130214809Y-73934580D02*
X130214809Y-72934580D01*
X130833857Y-73934580D02*
X130833857Y-72934580D01*
X131214809Y-72934580D01*
X131310047Y-72982200D01*
X131357666Y-73029819D01*
X131405285Y-73125057D01*
X131405285Y-73267914D01*
X131357666Y-73363152D01*
X131310047Y-73410771D01*
X131214809Y-73458390D01*
X130833857Y-73458390D01*
X132262428Y-72934580D02*
X132071952Y-72934580D01*
X131976714Y-72982200D01*
X131929095Y-73029819D01*
X131833857Y-73172676D01*
X131786238Y-73363152D01*
X131786238Y-73744104D01*
X131833857Y-73839342D01*
X131881476Y-73886961D01*
X131976714Y-73934580D01*
X132167190Y-73934580D01*
X132262428Y-73886961D01*
X132310047Y-73839342D01*
X132357666Y-73744104D01*
X132357666Y-73506009D01*
X132310047Y-73410771D01*
X132262428Y-73363152D01*
X132167190Y-73315533D01*
X131976714Y-73315533D01*
X131881476Y-73363152D01*
X131833857Y-73410771D01*
X131786238Y-73506009D01*
%TO.C,U4*%
X109588395Y-95464380D02*
X109588395Y-96273904D01*
X109636014Y-96369142D01*
X109683633Y-96416761D01*
X109778871Y-96464380D01*
X109969347Y-96464380D01*
X110064585Y-96416761D01*
X110112204Y-96369142D01*
X110159823Y-96273904D01*
X110159823Y-95464380D01*
X111064585Y-95797714D02*
X111064585Y-96464380D01*
X110826490Y-95416761D02*
X110588395Y-96131047D01*
X111207442Y-96131047D01*
X110350300Y-98004380D02*
X110350300Y-98242476D01*
X110112204Y-98147238D02*
X110350300Y-98242476D01*
X110588395Y-98147238D01*
X110207442Y-98432952D02*
X110350300Y-98242476D01*
X110493157Y-98432952D01*
%TO.C,TP7*%
X117638095Y-92552380D02*
X118209523Y-92552380D01*
X117923809Y-93552380D02*
X117923809Y-92552380D01*
X118542857Y-93552380D02*
X118542857Y-92552380D01*
X118923809Y-92552380D01*
X119019047Y-92600000D01*
X119066666Y-92647619D01*
X119114285Y-92742857D01*
X119114285Y-92885714D01*
X119066666Y-92980952D01*
X119019047Y-93028571D01*
X118923809Y-93076190D01*
X118542857Y-93076190D01*
X119447619Y-92552380D02*
X120114285Y-92552380D01*
X119685714Y-93552380D01*
%TO.C,J1*%
X104766666Y-99052380D02*
X104766666Y-99766666D01*
X104719047Y-99909523D01*
X104623809Y-100004761D01*
X104480952Y-100052380D01*
X104385714Y-100052380D01*
X105766666Y-100052380D02*
X105195238Y-100052380D01*
X105480952Y-100052380D02*
X105480952Y-99052380D01*
X105385714Y-99195238D01*
X105290476Y-99290476D01*
X105195238Y-99338095D01*
%TO.C,TP3*%
X107238095Y-91852380D02*
X107809523Y-91852380D01*
X107523809Y-92852380D02*
X107523809Y-91852380D01*
X108142857Y-92852380D02*
X108142857Y-91852380D01*
X108523809Y-91852380D01*
X108619047Y-91900000D01*
X108666666Y-91947619D01*
X108714285Y-92042857D01*
X108714285Y-92185714D01*
X108666666Y-92280952D01*
X108619047Y-92328571D01*
X108523809Y-92376190D01*
X108142857Y-92376190D01*
X109047619Y-91852380D02*
X109666666Y-91852380D01*
X109333333Y-92233333D01*
X109476190Y-92233333D01*
X109571428Y-92280952D01*
X109619047Y-92328571D01*
X109666666Y-92423809D01*
X109666666Y-92661904D01*
X109619047Y-92757142D01*
X109571428Y-92804761D01*
X109476190Y-92852380D01*
X109190476Y-92852380D01*
X109095238Y-92804761D01*
X109047619Y-92757142D01*
%TO.C,J3*%
X129300805Y-69884723D02*
X129300805Y-70341997D01*
X129270320Y-70433451D01*
X129209350Y-70494421D01*
X129117896Y-70524906D01*
X129056926Y-70524906D01*
X129544684Y-69884723D02*
X129940988Y-69884723D01*
X129727594Y-70128602D01*
X129819049Y-70128602D01*
X129880018Y-70159087D01*
X129910503Y-70189572D01*
X129940988Y-70250542D01*
X129940988Y-70402966D01*
X129910503Y-70463936D01*
X129880018Y-70494421D01*
X129819049Y-70524906D01*
X129636139Y-70524906D01*
X129575169Y-70494421D01*
X129544684Y-70463936D01*
%TO.C,U6*%
X139065095Y-74128380D02*
X139065095Y-74937904D01*
X139112714Y-75033142D01*
X139160333Y-75080761D01*
X139255571Y-75128380D01*
X139446047Y-75128380D01*
X139541285Y-75080761D01*
X139588904Y-75033142D01*
X139636523Y-74937904D01*
X139636523Y-74128380D01*
X140541285Y-74128380D02*
X140350809Y-74128380D01*
X140255571Y-74176000D01*
X140207952Y-74223619D01*
X140112714Y-74366476D01*
X140065095Y-74556952D01*
X140065095Y-74937904D01*
X140112714Y-75033142D01*
X140160333Y-75080761D01*
X140255571Y-75128380D01*
X140446047Y-75128380D01*
X140541285Y-75080761D01*
X140588904Y-75033142D01*
X140636523Y-74937904D01*
X140636523Y-74699809D01*
X140588904Y-74604571D01*
X140541285Y-74556952D01*
X140446047Y-74509333D01*
X140255571Y-74509333D01*
X140160333Y-74556952D01*
X140112714Y-74604571D01*
X140065095Y-74699809D01*
%TO.C,TP12*%
X134377904Y-113691380D02*
X134949333Y-113691380D01*
X134663619Y-114691380D02*
X134663619Y-113691380D01*
X135282666Y-114691380D02*
X135282666Y-113691380D01*
X135663619Y-113691380D01*
X135758857Y-113739000D01*
X135806476Y-113786619D01*
X135854095Y-113881857D01*
X135854095Y-114024714D01*
X135806476Y-114119952D01*
X135758857Y-114167571D01*
X135663619Y-114215190D01*
X135282666Y-114215190D01*
X136806476Y-114691380D02*
X136235047Y-114691380D01*
X136520761Y-114691380D02*
X136520761Y-113691380D01*
X136425523Y-113834238D01*
X136330285Y-113929476D01*
X136235047Y-113977095D01*
X137187428Y-113786619D02*
X137235047Y-113739000D01*
X137330285Y-113691380D01*
X137568380Y-113691380D01*
X137663619Y-113739000D01*
X137711238Y-113786619D01*
X137758857Y-113881857D01*
X137758857Y-113977095D01*
X137711238Y-114119952D01*
X137139809Y-114691380D01*
X137758857Y-114691380D01*
%TO.C,TP5*%
X107038095Y-77104380D02*
X107609523Y-77104380D01*
X107323809Y-78104380D02*
X107323809Y-77104380D01*
X107942857Y-78104380D02*
X107942857Y-77104380D01*
X108323809Y-77104380D01*
X108419047Y-77152000D01*
X108466666Y-77199619D01*
X108514285Y-77294857D01*
X108514285Y-77437714D01*
X108466666Y-77532952D01*
X108419047Y-77580571D01*
X108323809Y-77628190D01*
X107942857Y-77628190D01*
X109419047Y-77104380D02*
X108942857Y-77104380D01*
X108895238Y-77580571D01*
X108942857Y-77532952D01*
X109038095Y-77485333D01*
X109276190Y-77485333D01*
X109371428Y-77532952D01*
X109419047Y-77580571D01*
X109466666Y-77675809D01*
X109466666Y-77913904D01*
X109419047Y-78009142D01*
X109371428Y-78056761D01*
X109276190Y-78104380D01*
X109038095Y-78104380D01*
X108942857Y-78056761D01*
X108895238Y-78009142D01*
%TO.C,C1*%
X120559433Y-85169202D02*
X120511814Y-85216821D01*
X120368957Y-85264440D01*
X120273719Y-85264440D01*
X120130861Y-85216821D01*
X120035623Y-85121583D01*
X119988004Y-85026345D01*
X119940385Y-84835869D01*
X119940385Y-84693012D01*
X119988004Y-84502536D01*
X120035623Y-84407298D01*
X120130861Y-84312060D01*
X120273719Y-84264440D01*
X120368957Y-84264440D01*
X120511814Y-84312060D01*
X120559433Y-84359679D01*
X121511814Y-85264440D02*
X120940385Y-85264440D01*
X121226100Y-85264440D02*
X121226100Y-84264440D01*
X121130861Y-84407298D01*
X121035623Y-84502536D01*
X120940385Y-84550155D01*
%TO.C,TP16*%
X108751904Y-135342380D02*
X109323333Y-135342380D01*
X109037619Y-136342380D02*
X109037619Y-135342380D01*
X109656666Y-136342380D02*
X109656666Y-135342380D01*
X110037619Y-135342380D01*
X110132857Y-135390000D01*
X110180476Y-135437619D01*
X110228095Y-135532857D01*
X110228095Y-135675714D01*
X110180476Y-135770952D01*
X110132857Y-135818571D01*
X110037619Y-135866190D01*
X109656666Y-135866190D01*
X111180476Y-136342380D02*
X110609047Y-136342380D01*
X110894761Y-136342380D02*
X110894761Y-135342380D01*
X110799523Y-135485238D01*
X110704285Y-135580476D01*
X110609047Y-135628095D01*
X112037619Y-135342380D02*
X111847142Y-135342380D01*
X111751904Y-135390000D01*
X111704285Y-135437619D01*
X111609047Y-135580476D01*
X111561428Y-135770952D01*
X111561428Y-136151904D01*
X111609047Y-136247142D01*
X111656666Y-136294761D01*
X111751904Y-136342380D01*
X111942380Y-136342380D01*
X112037619Y-136294761D01*
X112085238Y-136247142D01*
X112132857Y-136151904D01*
X112132857Y-135913809D01*
X112085238Y-135818571D01*
X112037619Y-135770952D01*
X111942380Y-135723333D01*
X111751904Y-135723333D01*
X111656666Y-135770952D01*
X111609047Y-135818571D01*
X111561428Y-135913809D01*
%TO.C,R2*%
X110374133Y-122016780D02*
X110040800Y-121540590D01*
X109802704Y-122016780D02*
X109802704Y-121016780D01*
X110183657Y-121016780D01*
X110278895Y-121064400D01*
X110326514Y-121112019D01*
X110374133Y-121207257D01*
X110374133Y-121350114D01*
X110326514Y-121445352D01*
X110278895Y-121492971D01*
X110183657Y-121540590D01*
X109802704Y-121540590D01*
X110755085Y-121112019D02*
X110802704Y-121064400D01*
X110897942Y-121016780D01*
X111136038Y-121016780D01*
X111231276Y-121064400D01*
X111278895Y-121112019D01*
X111326514Y-121207257D01*
X111326514Y-121302495D01*
X111278895Y-121445352D01*
X110707466Y-122016780D01*
X111326514Y-122016780D01*
%TO.C,R17*%
X136799392Y-140152380D02*
X136466059Y-139676190D01*
X136227964Y-140152380D02*
X136227964Y-139152380D01*
X136608916Y-139152380D01*
X136704154Y-139200000D01*
X136751773Y-139247619D01*
X136799392Y-139342857D01*
X136799392Y-139485714D01*
X136751773Y-139580952D01*
X136704154Y-139628571D01*
X136608916Y-139676190D01*
X136227964Y-139676190D01*
X137751773Y-140152380D02*
X137180345Y-140152380D01*
X137466059Y-140152380D02*
X137466059Y-139152380D01*
X137370821Y-139295238D01*
X137275583Y-139390476D01*
X137180345Y-139438095D01*
X138085107Y-139152380D02*
X138751773Y-139152380D01*
X138323202Y-140152380D01*
%TO.C,R19*%
X108023143Y-140152380D02*
X107689810Y-139676190D01*
X107451715Y-140152380D02*
X107451715Y-139152380D01*
X107832667Y-139152380D01*
X107927905Y-139200000D01*
X107975524Y-139247619D01*
X108023143Y-139342857D01*
X108023143Y-139485714D01*
X107975524Y-139580952D01*
X107927905Y-139628571D01*
X107832667Y-139676190D01*
X107451715Y-139676190D01*
X108975524Y-140152380D02*
X108404096Y-140152380D01*
X108689810Y-140152380D02*
X108689810Y-139152380D01*
X108594572Y-139295238D01*
X108499334Y-139390476D01*
X108404096Y-139438095D01*
X109451715Y-140152380D02*
X109642191Y-140152380D01*
X109737429Y-140104761D01*
X109785048Y-140057142D01*
X109880286Y-139914285D01*
X109927905Y-139723809D01*
X109927905Y-139342857D01*
X109880286Y-139247619D01*
X109832667Y-139200000D01*
X109737429Y-139152380D01*
X109546953Y-139152380D01*
X109451715Y-139200000D01*
X109404096Y-139247619D01*
X109356477Y-139342857D01*
X109356477Y-139580952D01*
X109404096Y-139676190D01*
X109451715Y-139723809D01*
X109546953Y-139771428D01*
X109737429Y-139771428D01*
X109832667Y-139723809D01*
X109880286Y-139676190D01*
X109927905Y-139580952D01*
%TO.C,R14*%
X136466342Y-121991380D02*
X136133009Y-121515190D01*
X135894914Y-121991380D02*
X135894914Y-120991380D01*
X136275866Y-120991380D01*
X136371104Y-121039000D01*
X136418723Y-121086619D01*
X136466342Y-121181857D01*
X136466342Y-121324714D01*
X136418723Y-121419952D01*
X136371104Y-121467571D01*
X136275866Y-121515190D01*
X135894914Y-121515190D01*
X137418723Y-121991380D02*
X136847295Y-121991380D01*
X137133009Y-121991380D02*
X137133009Y-120991380D01*
X137037771Y-121134238D01*
X136942533Y-121229476D01*
X136847295Y-121277095D01*
X138275866Y-121324714D02*
X138275866Y-121991380D01*
X138037771Y-120943761D02*
X137799676Y-121658047D01*
X138418723Y-121658047D01*
%TO.C,Y1*%
X123494062Y-83335623D02*
X123494062Y-83641160D01*
X123280186Y-82999532D02*
X123494062Y-83335623D01*
X123707938Y-82999532D01*
X124257905Y-83641160D02*
X123891261Y-83641160D01*
X124074583Y-83641160D02*
X124074583Y-82999532D01*
X124013476Y-83091193D01*
X123952368Y-83152300D01*
X123891261Y-83182854D01*
%TO.C,J2*%
X141866666Y-98752380D02*
X141866666Y-99466666D01*
X141819047Y-99609523D01*
X141723809Y-99704761D01*
X141580952Y-99752380D01*
X141485714Y-99752380D01*
X142295238Y-98847619D02*
X142342857Y-98800000D01*
X142438095Y-98752380D01*
X142676190Y-98752380D01*
X142771428Y-98800000D01*
X142819047Y-98847619D01*
X142866666Y-98942857D01*
X142866666Y-99038095D01*
X142819047Y-99180952D01*
X142247619Y-99752380D01*
X142866666Y-99752380D01*
%TO.C,A3*%
X141779714Y-118228666D02*
X142255904Y-118228666D01*
X141684476Y-118514380D02*
X142017809Y-117514380D01*
X142351142Y-118514380D01*
X142589238Y-117514380D02*
X143208285Y-117514380D01*
X142874952Y-117895333D01*
X143017809Y-117895333D01*
X143113047Y-117942952D01*
X143160666Y-117990571D01*
X143208285Y-118085809D01*
X143208285Y-118323904D01*
X143160666Y-118419142D01*
X143113047Y-118466761D01*
X143017809Y-118514380D01*
X142732095Y-118514380D01*
X142636857Y-118466761D01*
X142589238Y-118419142D01*
%TO.C,M2*%
X136072619Y-86058476D02*
X137072619Y-86058476D01*
X136358333Y-86391809D01*
X137072619Y-86725142D01*
X136072619Y-86725142D01*
X136977380Y-87153714D02*
X137025000Y-87201333D01*
X137072619Y-87296571D01*
X137072619Y-87534666D01*
X137025000Y-87629904D01*
X136977380Y-87677523D01*
X136882142Y-87725142D01*
X136786904Y-87725142D01*
X136644047Y-87677523D01*
X136072619Y-87106095D01*
X136072619Y-87725142D01*
%TO.C,J4*%
X126412666Y-140108380D02*
X126412666Y-140822666D01*
X126365047Y-140965523D01*
X126269809Y-141060761D01*
X126126952Y-141108380D01*
X126031714Y-141108380D01*
X127317428Y-140441714D02*
X127317428Y-141108380D01*
X127079333Y-140060761D02*
X126841238Y-140775047D01*
X127460285Y-140775047D01*
%TO.C,M1*%
X110197019Y-86439476D02*
X111197019Y-86439476D01*
X110482733Y-86772809D01*
X111197019Y-87106142D01*
X110197019Y-87106142D01*
X110197019Y-88106142D02*
X110197019Y-87534714D01*
X110197019Y-87820428D02*
X111197019Y-87820428D01*
X111054161Y-87725190D01*
X110958923Y-87629952D01*
X110911304Y-87534714D01*
%TO.C,R21*%
X123410742Y-74239380D02*
X123077409Y-73763190D01*
X122839314Y-74239380D02*
X122839314Y-73239380D01*
X123220266Y-73239380D01*
X123315504Y-73287000D01*
X123363123Y-73334619D01*
X123410742Y-73429857D01*
X123410742Y-73572714D01*
X123363123Y-73667952D01*
X123315504Y-73715571D01*
X123220266Y-73763190D01*
X122839314Y-73763190D01*
X123791695Y-73334619D02*
X123839314Y-73287000D01*
X123934552Y-73239380D01*
X124172647Y-73239380D01*
X124267885Y-73287000D01*
X124315504Y-73334619D01*
X124363123Y-73429857D01*
X124363123Y-73525095D01*
X124315504Y-73667952D01*
X123744076Y-74239380D01*
X124363123Y-74239380D01*
X125315504Y-74239380D02*
X124744076Y-74239380D01*
X125029790Y-74239380D02*
X125029790Y-73239380D01*
X124934552Y-73382238D01*
X124839314Y-73477476D01*
X124744076Y-73525095D01*
%TO.C,R10*%
X134459742Y-119857780D02*
X134126409Y-119381590D01*
X133888314Y-119857780D02*
X133888314Y-118857780D01*
X134269266Y-118857780D01*
X134364504Y-118905400D01*
X134412123Y-118953019D01*
X134459742Y-119048257D01*
X134459742Y-119191114D01*
X134412123Y-119286352D01*
X134364504Y-119333971D01*
X134269266Y-119381590D01*
X133888314Y-119381590D01*
X135412123Y-119857780D02*
X134840695Y-119857780D01*
X135126409Y-119857780D02*
X135126409Y-118857780D01*
X135031171Y-119000638D01*
X134935933Y-119095876D01*
X134840695Y-119143495D01*
X136031171Y-118857780D02*
X136126409Y-118857780D01*
X136221647Y-118905400D01*
X136269266Y-118953019D01*
X136316885Y-119048257D01*
X136364504Y-119238733D01*
X136364504Y-119476828D01*
X136316885Y-119667304D01*
X136269266Y-119762542D01*
X136221647Y-119810161D01*
X136126409Y-119857780D01*
X136031171Y-119857780D01*
X135935933Y-119810161D01*
X135888314Y-119762542D01*
X135840695Y-119667304D01*
X135793076Y-119476828D01*
X135793076Y-119238733D01*
X135840695Y-119048257D01*
X135888314Y-118953019D01*
X135935933Y-118905400D01*
X136031171Y-118857780D01*
%TO.C,R15*%
X134383542Y-117089180D02*
X134050209Y-116612990D01*
X133812114Y-117089180D02*
X133812114Y-116089180D01*
X134193066Y-116089180D01*
X134288304Y-116136800D01*
X134335923Y-116184419D01*
X134383542Y-116279657D01*
X134383542Y-116422514D01*
X134335923Y-116517752D01*
X134288304Y-116565371D01*
X134193066Y-116612990D01*
X133812114Y-116612990D01*
X135335923Y-117089180D02*
X134764495Y-117089180D01*
X135050209Y-117089180D02*
X135050209Y-116089180D01*
X134954971Y-116232038D01*
X134859733Y-116327276D01*
X134764495Y-116374895D01*
X136240685Y-116089180D02*
X135764495Y-116089180D01*
X135716876Y-116565371D01*
X135764495Y-116517752D01*
X135859733Y-116470133D01*
X136097828Y-116470133D01*
X136193066Y-116517752D01*
X136240685Y-116565371D01*
X136288304Y-116660609D01*
X136288304Y-116898704D01*
X136240685Y-116993942D01*
X136193066Y-117041561D01*
X136097828Y-117089180D01*
X135859733Y-117089180D01*
X135764495Y-117041561D01*
X135716876Y-116993942D01*
%TO.C,R3*%
X110424933Y-126436380D02*
X110091600Y-125960190D01*
X109853504Y-126436380D02*
X109853504Y-125436380D01*
X110234457Y-125436380D01*
X110329695Y-125484000D01*
X110377314Y-125531619D01*
X110424933Y-125626857D01*
X110424933Y-125769714D01*
X110377314Y-125864952D01*
X110329695Y-125912571D01*
X110234457Y-125960190D01*
X109853504Y-125960190D01*
X110758266Y-125436380D02*
X111377314Y-125436380D01*
X111043980Y-125817333D01*
X111186838Y-125817333D01*
X111282076Y-125864952D01*
X111329695Y-125912571D01*
X111377314Y-126007809D01*
X111377314Y-126245904D01*
X111329695Y-126341142D01*
X111282076Y-126388761D01*
X111186838Y-126436380D01*
X110901123Y-126436380D01*
X110805885Y-126388761D01*
X110758266Y-126341142D01*
%TO.C,R20*%
X102989142Y-140279380D02*
X102655809Y-139803190D01*
X102417714Y-140279380D02*
X102417714Y-139279380D01*
X102798666Y-139279380D01*
X102893904Y-139327000D01*
X102941523Y-139374619D01*
X102989142Y-139469857D01*
X102989142Y-139612714D01*
X102941523Y-139707952D01*
X102893904Y-139755571D01*
X102798666Y-139803190D01*
X102417714Y-139803190D01*
X103370095Y-139374619D02*
X103417714Y-139327000D01*
X103512952Y-139279380D01*
X103751047Y-139279380D01*
X103846285Y-139327000D01*
X103893904Y-139374619D01*
X103941523Y-139469857D01*
X103941523Y-139565095D01*
X103893904Y-139707952D01*
X103322476Y-140279380D01*
X103941523Y-140279380D01*
X104560571Y-139279380D02*
X104655809Y-139279380D01*
X104751047Y-139327000D01*
X104798666Y-139374619D01*
X104846285Y-139469857D01*
X104893904Y-139660333D01*
X104893904Y-139898428D01*
X104846285Y-140088904D01*
X104798666Y-140184142D01*
X104751047Y-140231761D01*
X104655809Y-140279380D01*
X104560571Y-140279380D01*
X104465333Y-140231761D01*
X104417714Y-140184142D01*
X104370095Y-140088904D01*
X104322476Y-139898428D01*
X104322476Y-139660333D01*
X104370095Y-139469857D01*
X104417714Y-139374619D01*
X104465333Y-139327000D01*
X104560571Y-139279380D01*
%TO.C,TP15*%
X112460304Y-139050780D02*
X113031733Y-139050780D01*
X112746019Y-140050780D02*
X112746019Y-139050780D01*
X113365066Y-140050780D02*
X113365066Y-139050780D01*
X113746019Y-139050780D01*
X113841257Y-139098400D01*
X113888876Y-139146019D01*
X113936495Y-139241257D01*
X113936495Y-139384114D01*
X113888876Y-139479352D01*
X113841257Y-139526971D01*
X113746019Y-139574590D01*
X113365066Y-139574590D01*
X114888876Y-140050780D02*
X114317447Y-140050780D01*
X114603161Y-140050780D02*
X114603161Y-139050780D01*
X114507923Y-139193638D01*
X114412685Y-139288876D01*
X114317447Y-139336495D01*
X115793638Y-139050780D02*
X115317447Y-139050780D01*
X115269828Y-139526971D01*
X115317447Y-139479352D01*
X115412685Y-139431733D01*
X115650780Y-139431733D01*
X115746019Y-139479352D01*
X115793638Y-139526971D01*
X115841257Y-139622209D01*
X115841257Y-139860304D01*
X115793638Y-139955542D01*
X115746019Y-140003161D01*
X115650780Y-140050780D01*
X115412685Y-140050780D01*
X115317447Y-140003161D01*
X115269828Y-139955542D01*
%TO.C,TP17*%
X129761904Y-78252380D02*
X130333333Y-78252380D01*
X130047619Y-79252380D02*
X130047619Y-78252380D01*
X130666666Y-79252380D02*
X130666666Y-78252380D01*
X131047619Y-78252380D01*
X131142857Y-78300000D01*
X131190476Y-78347619D01*
X131238095Y-78442857D01*
X131238095Y-78585714D01*
X131190476Y-78680952D01*
X131142857Y-78728571D01*
X131047619Y-78776190D01*
X130666666Y-78776190D01*
X132190476Y-79252380D02*
X131619047Y-79252380D01*
X131904761Y-79252380D02*
X131904761Y-78252380D01*
X131809523Y-78395238D01*
X131714285Y-78490476D01*
X131619047Y-78538095D01*
X132523809Y-78252380D02*
X133190476Y-78252380D01*
X132761904Y-79252380D01*
%TO.C,TP14*%
X127552904Y-131887380D02*
X128124333Y-131887380D01*
X127838619Y-132887380D02*
X127838619Y-131887380D01*
X128457666Y-132887380D02*
X128457666Y-131887380D01*
X128838619Y-131887380D01*
X128933857Y-131935000D01*
X128981476Y-131982619D01*
X129029095Y-132077857D01*
X129029095Y-132220714D01*
X128981476Y-132315952D01*
X128933857Y-132363571D01*
X128838619Y-132411190D01*
X128457666Y-132411190D01*
X129981476Y-132887380D02*
X129410047Y-132887380D01*
X129695761Y-132887380D02*
X129695761Y-131887380D01*
X129600523Y-132030238D01*
X129505285Y-132125476D01*
X129410047Y-132173095D01*
X130838619Y-132220714D02*
X130838619Y-132887380D01*
X130600523Y-131839761D02*
X130362428Y-132554047D01*
X130981476Y-132554047D01*
%TO.C,R18*%
X118007142Y-140161380D02*
X117673809Y-139685190D01*
X117435714Y-140161380D02*
X117435714Y-139161380D01*
X117816666Y-139161380D01*
X117911904Y-139209000D01*
X117959523Y-139256619D01*
X118007142Y-139351857D01*
X118007142Y-139494714D01*
X117959523Y-139589952D01*
X117911904Y-139637571D01*
X117816666Y-139685190D01*
X117435714Y-139685190D01*
X118959523Y-140161380D02*
X118388095Y-140161380D01*
X118673809Y-140161380D02*
X118673809Y-139161380D01*
X118578571Y-139304238D01*
X118483333Y-139399476D01*
X118388095Y-139447095D01*
X119530952Y-139589952D02*
X119435714Y-139542333D01*
X119388095Y-139494714D01*
X119340476Y-139399476D01*
X119340476Y-139351857D01*
X119388095Y-139256619D01*
X119435714Y-139209000D01*
X119530952Y-139161380D01*
X119721428Y-139161380D01*
X119816666Y-139209000D01*
X119864285Y-139256619D01*
X119911904Y-139351857D01*
X119911904Y-139399476D01*
X119864285Y-139494714D01*
X119816666Y-139542333D01*
X119721428Y-139589952D01*
X119530952Y-139589952D01*
X119435714Y-139637571D01*
X119388095Y-139685190D01*
X119340476Y-139780428D01*
X119340476Y-139970904D01*
X119388095Y-140066142D01*
X119435714Y-140113761D01*
X119530952Y-140161380D01*
X119721428Y-140161380D01*
X119816666Y-140113761D01*
X119864285Y-140066142D01*
X119911904Y-139970904D01*
X119911904Y-139780428D01*
X119864285Y-139685190D01*
X119816666Y-139637571D01*
X119721428Y-139589952D01*
%TO.C,A2*%
X106338714Y-111624666D02*
X106814904Y-111624666D01*
X106243476Y-111910380D02*
X106576809Y-110910380D01*
X106910142Y-111910380D01*
X107195857Y-111005619D02*
X107243476Y-110958000D01*
X107338714Y-110910380D01*
X107576809Y-110910380D01*
X107672047Y-110958000D01*
X107719666Y-111005619D01*
X107767285Y-111100857D01*
X107767285Y-111196095D01*
X107719666Y-111338952D01*
X107148238Y-111910380D01*
X107767285Y-111910380D01*
%TO.C,C3*%
X110323333Y-102879142D02*
X110275714Y-102926761D01*
X110132857Y-102974380D01*
X110037619Y-102974380D01*
X109894761Y-102926761D01*
X109799523Y-102831523D01*
X109751904Y-102736285D01*
X109704285Y-102545809D01*
X109704285Y-102402952D01*
X109751904Y-102212476D01*
X109799523Y-102117238D01*
X109894761Y-102022000D01*
X110037619Y-101974380D01*
X110132857Y-101974380D01*
X110275714Y-102022000D01*
X110323333Y-102069619D01*
X110656666Y-101974380D02*
X111275714Y-101974380D01*
X110942380Y-102355333D01*
X111085238Y-102355333D01*
X111180476Y-102402952D01*
X111228095Y-102450571D01*
X111275714Y-102545809D01*
X111275714Y-102783904D01*
X111228095Y-102879142D01*
X111180476Y-102926761D01*
X111085238Y-102974380D01*
X110799523Y-102974380D01*
X110704285Y-102926761D01*
X110656666Y-102879142D01*
%TO.C,U5*%
X136398095Y-100290380D02*
X136398095Y-101099904D01*
X136445714Y-101195142D01*
X136493333Y-101242761D01*
X136588571Y-101290380D01*
X136779047Y-101290380D01*
X136874285Y-101242761D01*
X136921904Y-101195142D01*
X136969523Y-101099904D01*
X136969523Y-100290380D01*
X137921904Y-100290380D02*
X137445714Y-100290380D01*
X137398095Y-100766571D01*
X137445714Y-100718952D01*
X137540952Y-100671333D01*
X137779047Y-100671333D01*
X137874285Y-100718952D01*
X137921904Y-100766571D01*
X137969523Y-100861809D01*
X137969523Y-101099904D01*
X137921904Y-101195142D01*
X137874285Y-101242761D01*
X137779047Y-101290380D01*
X137540952Y-101290380D01*
X137445714Y-101242761D01*
X137398095Y-101195142D01*
X137160000Y-97496380D02*
X137160000Y-97734476D01*
X136921904Y-97639238D02*
X137160000Y-97734476D01*
X137398095Y-97639238D01*
X137017142Y-97924952D02*
X137160000Y-97734476D01*
X137302857Y-97924952D01*
%TO.C,R5*%
X126280531Y-126436380D02*
X125947198Y-125960190D01*
X125709102Y-126436380D02*
X125709102Y-125436380D01*
X126090055Y-125436380D01*
X126185293Y-125484000D01*
X126232912Y-125531619D01*
X126280531Y-125626857D01*
X126280531Y-125769714D01*
X126232912Y-125864952D01*
X126185293Y-125912571D01*
X126090055Y-125960190D01*
X125709102Y-125960190D01*
X127185293Y-125436380D02*
X126709102Y-125436380D01*
X126661483Y-125912571D01*
X126709102Y-125864952D01*
X126804340Y-125817333D01*
X127042436Y-125817333D01*
X127137674Y-125864952D01*
X127185293Y-125912571D01*
X127232912Y-126007809D01*
X127232912Y-126245904D01*
X127185293Y-126341142D01*
X127137674Y-126388761D01*
X127042436Y-126436380D01*
X126804340Y-126436380D01*
X126709102Y-126388761D01*
X126661483Y-126341142D01*
%TO.C,R6*%
X112966833Y-119832380D02*
X112633500Y-119356190D01*
X112395404Y-119832380D02*
X112395404Y-118832380D01*
X112776357Y-118832380D01*
X112871595Y-118880000D01*
X112919214Y-118927619D01*
X112966833Y-119022857D01*
X112966833Y-119165714D01*
X112919214Y-119260952D01*
X112871595Y-119308571D01*
X112776357Y-119356190D01*
X112395404Y-119356190D01*
X113823976Y-118832380D02*
X113633500Y-118832380D01*
X113538261Y-118880000D01*
X113490642Y-118927619D01*
X113395404Y-119070476D01*
X113347785Y-119260952D01*
X113347785Y-119641904D01*
X113395404Y-119737142D01*
X113443023Y-119784761D01*
X113538261Y-119832380D01*
X113728738Y-119832380D01*
X113823976Y-119784761D01*
X113871595Y-119737142D01*
X113919214Y-119641904D01*
X113919214Y-119403809D01*
X113871595Y-119308571D01*
X113823976Y-119260952D01*
X113728738Y-119213333D01*
X113538261Y-119213333D01*
X113443023Y-119260952D01*
X113395404Y-119308571D01*
X113347785Y-119403809D01*
%TO.C,TP9*%
X133840695Y-74534780D02*
X134412123Y-74534780D01*
X134126409Y-75534780D02*
X134126409Y-74534780D01*
X134745457Y-75534780D02*
X134745457Y-74534780D01*
X135126409Y-74534780D01*
X135221647Y-74582400D01*
X135269266Y-74630019D01*
X135316885Y-74725257D01*
X135316885Y-74868114D01*
X135269266Y-74963352D01*
X135221647Y-75010971D01*
X135126409Y-75058590D01*
X134745457Y-75058590D01*
X135793076Y-75534780D02*
X135983552Y-75534780D01*
X136078790Y-75487161D01*
X136126409Y-75439542D01*
X136221647Y-75296685D01*
X136269266Y-75106209D01*
X136269266Y-74725257D01*
X136221647Y-74630019D01*
X136174028Y-74582400D01*
X136078790Y-74534780D01*
X135888314Y-74534780D01*
X135793076Y-74582400D01*
X135745457Y-74630019D01*
X135697838Y-74725257D01*
X135697838Y-74963352D01*
X135745457Y-75058590D01*
X135793076Y-75106209D01*
X135888314Y-75153828D01*
X136078790Y-75153828D01*
X136174028Y-75106209D01*
X136221647Y-75058590D01*
X136269266Y-74963352D01*
%TO.C,R1*%
X113068433Y-117038380D02*
X112735100Y-116562190D01*
X112497004Y-117038380D02*
X112497004Y-116038380D01*
X112877957Y-116038380D01*
X112973195Y-116086000D01*
X113020814Y-116133619D01*
X113068433Y-116228857D01*
X113068433Y-116371714D01*
X113020814Y-116466952D01*
X112973195Y-116514571D01*
X112877957Y-116562190D01*
X112497004Y-116562190D01*
X114020814Y-117038380D02*
X113449385Y-117038380D01*
X113735100Y-117038380D02*
X113735100Y-116038380D01*
X113639861Y-116181238D01*
X113544623Y-116276476D01*
X113449385Y-116324095D01*
%TO.C,U1*%
X122809095Y-93432380D02*
X122809095Y-94241904D01*
X122856714Y-94337142D01*
X122904333Y-94384761D01*
X122999571Y-94432380D01*
X123190047Y-94432380D01*
X123285285Y-94384761D01*
X123332904Y-94337142D01*
X123380523Y-94241904D01*
X123380523Y-93432380D01*
X124380523Y-94432380D02*
X123809095Y-94432380D01*
X124094809Y-94432380D02*
X124094809Y-93432380D01*
X123999571Y-93575238D01*
X123904333Y-93670476D01*
X123809095Y-93718095D01*
%TO.C,TP10*%
X134228104Y-104074980D02*
X134799533Y-104074980D01*
X134513819Y-105074980D02*
X134513819Y-104074980D01*
X135132866Y-105074980D02*
X135132866Y-104074980D01*
X135513819Y-104074980D01*
X135609057Y-104122600D01*
X135656676Y-104170219D01*
X135704295Y-104265457D01*
X135704295Y-104408314D01*
X135656676Y-104503552D01*
X135609057Y-104551171D01*
X135513819Y-104598790D01*
X135132866Y-104598790D01*
X136656676Y-105074980D02*
X136085247Y-105074980D01*
X136370961Y-105074980D02*
X136370961Y-104074980D01*
X136275723Y-104217838D01*
X136180485Y-104313076D01*
X136085247Y-104360695D01*
X137275723Y-104074980D02*
X137370961Y-104074980D01*
X137466200Y-104122600D01*
X137513819Y-104170219D01*
X137561438Y-104265457D01*
X137609057Y-104455933D01*
X137609057Y-104694028D01*
X137561438Y-104884504D01*
X137513819Y-104979742D01*
X137466200Y-105027361D01*
X137370961Y-105074980D01*
X137275723Y-105074980D01*
X137180485Y-105027361D01*
X137132866Y-104979742D01*
X137085247Y-104884504D01*
X137037628Y-104694028D01*
X137037628Y-104455933D01*
X137085247Y-104265457D01*
X137132866Y-104170219D01*
X137180485Y-104122600D01*
X137275723Y-104074980D01*
%TO.C,TP4*%
X110038095Y-105652380D02*
X110609523Y-105652380D01*
X110323809Y-106652380D02*
X110323809Y-105652380D01*
X110942857Y-106652380D02*
X110942857Y-105652380D01*
X111323809Y-105652380D01*
X111419047Y-105700000D01*
X111466666Y-105747619D01*
X111514285Y-105842857D01*
X111514285Y-105985714D01*
X111466666Y-106080952D01*
X111419047Y-106128571D01*
X111323809Y-106176190D01*
X110942857Y-106176190D01*
X112371428Y-105985714D02*
X112371428Y-106652380D01*
X112133333Y-105604761D02*
X111895238Y-106319047D01*
X112514285Y-106319047D01*
D11*
%TO.C,U3*%
X130053998Y-121970800D02*
X130053998Y-122174361D01*
X133508398Y-121970800D02*
X130053998Y-121970800D01*
X130053998Y-125221639D02*
X130053998Y-125425200D01*
X133508398Y-125425200D02*
X133508398Y-125221639D01*
X133508398Y-122174361D02*
X133508398Y-121970800D01*
X130053998Y-125425200D02*
X133508398Y-125425200D01*
%TO.C,U2*%
X114191698Y-121970800D02*
X114191698Y-122174361D01*
X117646098Y-121970800D02*
X114191698Y-121970800D01*
X114191698Y-125221639D02*
X114191698Y-125425200D01*
X117646098Y-125425200D02*
X117646098Y-125221639D01*
X117646098Y-122174361D02*
X117646098Y-121970800D01*
X114191698Y-125425200D02*
X117646098Y-125425200D01*
%TO.C,SW4*%
X101498400Y-145773841D02*
X101498400Y-146278600D01*
X105664000Y-142719359D02*
X105664000Y-142214600D01*
X105664000Y-142214600D02*
X101498400Y-142214600D01*
X101498400Y-146278600D02*
X105664000Y-146278600D01*
X101498400Y-142214600D02*
X101498400Y-142719359D01*
X105664000Y-146278600D02*
X105664000Y-145773841D01*
%TO.C,SW3*%
X120707700Y-142617759D02*
X120707700Y-142113000D01*
X116542100Y-145672241D02*
X116542100Y-146177000D01*
X116542100Y-146177000D02*
X120707700Y-146177000D01*
X120707700Y-142113000D02*
X116542100Y-142113000D01*
X120707700Y-146177000D02*
X120707700Y-145672241D01*
X116542100Y-142113000D02*
X116542100Y-142617759D01*
%TO.C,SW2*%
X106571500Y-145748441D02*
X106571500Y-146253200D01*
X110737100Y-142693959D02*
X110737100Y-142189200D01*
X110737100Y-142189200D02*
X106571500Y-142189200D01*
X106571500Y-146253200D02*
X110737100Y-146253200D01*
X106571500Y-142189200D02*
X106571500Y-142693959D01*
X110737100Y-146253200D02*
X110737100Y-145748441D01*
%TO.C,SW1*%
X135280400Y-145723041D02*
X135280400Y-146227800D01*
X139446000Y-142668559D02*
X139446000Y-142163800D01*
X139446000Y-142163800D02*
X135280400Y-142163800D01*
X135280400Y-146227800D02*
X139446000Y-146227800D01*
X135280400Y-142163800D02*
X135280400Y-142668559D01*
X139446000Y-146227800D02*
X139446000Y-145723041D01*
%TO.C,R4*%
X121507622Y-123331500D02*
X120998174Y-123331500D01*
X121507622Y-122286500D02*
X120998174Y-122286500D01*
%TO.C,TP8*%
X119161600Y-137566400D02*
G75*
G03*
X119161600Y-137566400I-950000J0D01*
G01*
%TO.C,R12*%
X121507622Y-125109500D02*
X120998174Y-125109500D01*
X121507622Y-124064500D02*
X120998174Y-124064500D01*
%TO.C,R7*%
X126238724Y-130570500D02*
X125729276Y-130570500D01*
X126238724Y-129525500D02*
X125729276Y-129525500D01*
%TO.C,R8*%
X122970936Y-117708000D02*
X124425064Y-117708000D01*
X122970936Y-119528000D02*
X124425064Y-119528000D01*
%TO.C,TP13*%
X109255600Y-130759200D02*
G75*
G03*
X109255600Y-130759200I-950000J0D01*
G01*
%TO.C,R16*%
X126427066Y-75615076D02*
X126427066Y-76124524D01*
X125382066Y-75615076D02*
X125382066Y-76124524D01*
%TO.C,R13*%
X126192474Y-122286500D02*
X126701922Y-122286500D01*
X126192474Y-123331500D02*
X126701922Y-123331500D01*
%TO.C,TP11*%
X121828600Y-137566400D02*
G75*
G03*
X121828600Y-137566400I-950000J0D01*
G01*
D12*
%TO.C,S1*%
X109402000Y-68050000D02*
X100402000Y-68050000D01*
X109402000Y-71650000D02*
X109402000Y-68050000D01*
X100402000Y-71650000D02*
X100402000Y-68050000D01*
D11*
%TO.C,C5*%
X143143500Y-71373276D02*
X143143500Y-71882724D01*
X142098500Y-71373276D02*
X142098500Y-71882724D01*
%TO.C,TP2*%
X127111800Y-114249200D02*
G75*
G03*
X127111800Y-114249200I-950000J0D01*
G01*
%TO.C,C2*%
X127370100Y-87033176D02*
X127370100Y-87542624D01*
X126325100Y-87033176D02*
X126325100Y-87542624D01*
%TO.C,R11*%
X137369922Y-125109500D02*
X136860474Y-125109500D01*
X137369922Y-124064500D02*
X136860474Y-124064500D01*
%TO.C,R22*%
X121172934Y-76124524D02*
X121172934Y-75615076D01*
X122217934Y-76124524D02*
X122217934Y-75615076D01*
%TO.C,L1*%
X137543000Y-71799267D02*
X137543000Y-71456733D01*
X136523000Y-71799267D02*
X136523000Y-71456733D01*
%TO.C,C4*%
X136905276Y-94981500D02*
X137414724Y-94981500D01*
X136905276Y-96026500D02*
X137414724Y-96026500D01*
%TO.C,A4*%
X142951106Y-101874000D02*
G75*
G03*
X142951106Y-101874000I-353553J0D01*
G01*
%TO.C,R9*%
X123900724Y-117108500D02*
X123391276Y-117108500D01*
X123900724Y-116063500D02*
X123391276Y-116063500D01*
%TO.C,D1*%
X123420000Y-130898000D02*
X123420000Y-129198000D01*
X123420000Y-129198000D02*
X120870000Y-129198000D01*
X123420000Y-130898000D02*
X120870000Y-130898000D01*
%TO.C,TP1*%
X112608400Y-94234000D02*
G75*
G03*
X112608400Y-94234000I-950000J0D01*
G01*
%TO.C,A1*%
X105391106Y-101874000D02*
G75*
G03*
X105391106Y-101874000I-353553J0D01*
G01*
%TO.C,TP6*%
X132141000Y-75260200D02*
G75*
G03*
X132141000Y-75260200I-950000J0D01*
G01*
%TO.C,U4*%
X111290100Y-96977200D02*
X109410500Y-96977200D01*
X109410500Y-100126800D02*
X111290100Y-100126800D01*
X109410500Y-98163339D02*
X109410500Y-98940661D01*
%TO.C,TP7*%
X116824800Y-93065600D02*
G75*
G03*
X116824800Y-93065600I-950000J0D01*
G01*
%TO.C,J1*%
X105801553Y-94356302D02*
G75*
G03*
X105801553Y-94356302I-353553J0D01*
G01*
%TO.C,TP3*%
X109916000Y-94234000D02*
G75*
G03*
X109916000Y-94234000I-950000J0D01*
G01*
D12*
%TO.C,J3*%
X127874200Y-67969300D02*
X127174200Y-67969300D01*
X127874200Y-70889300D02*
X127874200Y-72419300D01*
X119674200Y-72419300D02*
X120294200Y-72419300D01*
X120374200Y-67969300D02*
X119674200Y-67969300D01*
X125074200Y-67969300D02*
X122474200Y-67969300D01*
X127874200Y-72419300D02*
X127254200Y-72419300D01*
X119674200Y-70889300D02*
X119674200Y-72419300D01*
D13*
X122574200Y-73369300D02*
G75*
G03*
X122574200Y-73369300I-100000J0D01*
G01*
D11*
%TO.C,U6*%
X140190220Y-70599300D02*
X139463780Y-70599300D01*
X141503400Y-72656700D02*
X141503400Y-70599300D01*
X138150600Y-70599300D02*
X138150600Y-72656700D01*
%TO.C,TP12*%
X140142000Y-114276000D02*
G75*
G03*
X140142000Y-114276000I-950000J0D01*
G01*
%TO.C,TP5*%
X109250000Y-79300000D02*
G75*
G03*
X109250000Y-79300000I-950000J0D01*
G01*
%TO.C,C1*%
X121274100Y-87033176D02*
X121274100Y-87542624D01*
X120229100Y-87033176D02*
X120229100Y-87542624D01*
%TO.C,TP16*%
X113827600Y-137566400D02*
G75*
G03*
X113827600Y-137566400I-950000J0D01*
G01*
%TO.C,R2*%
X110839622Y-123407700D02*
X110330174Y-123407700D01*
X110839622Y-122362700D02*
X110330174Y-122362700D01*
%TO.C,R17*%
X137696974Y-141746500D02*
X137187526Y-141746500D01*
X137696974Y-140701500D02*
X137187526Y-140701500D01*
%TO.C,R19*%
X108411277Y-140673500D02*
X108920725Y-140673500D01*
X108411277Y-141718500D02*
X108920725Y-141718500D01*
%TO.C,R14*%
X137369922Y-123458500D02*
X136860474Y-123458500D01*
X137369922Y-122413500D02*
X136860474Y-122413500D01*
D12*
%TO.C,Y1*%
X125549600Y-90274400D02*
X125549600Y-84274400D01*
X122049600Y-90274400D02*
X122049600Y-84274400D01*
D13*
X123899600Y-91084400D02*
G75*
G03*
X123899600Y-91084400I-100000J0D01*
G01*
D11*
%TO.C,J2*%
X142885553Y-93966777D02*
G75*
G03*
X142885553Y-93966777I-353553J0D01*
G01*
%TO.C,A3*%
X142989106Y-110017475D02*
G75*
G03*
X142989106Y-110017475I-353553J0D01*
G01*
D13*
%TO.C,M2*%
X137922000Y-90868000D02*
X135382000Y-90868000D01*
X135382000Y-90868000D02*
X135382000Y-83248000D01*
X137922000Y-90868000D02*
X137922000Y-83248000D01*
X135382000Y-83248000D02*
X137922000Y-83248000D01*
X131472000Y-82598000D02*
G75*
G03*
X131472000Y-82598000I-100000J0D01*
G01*
D11*
%TO.C,J4*%
X123182610Y-144907000D02*
X122555000Y-144907000D01*
X130937000Y-157480000D02*
X130937000Y-144907000D01*
X125722610Y-144907000D02*
X125229390Y-144907000D01*
X128262610Y-144907000D02*
X127769390Y-144907000D01*
X122555000Y-144907000D02*
X122555000Y-157480000D01*
X122555000Y-157480000D02*
X130937000Y-157480000D01*
X130937000Y-144907000D02*
X130309390Y-144907000D01*
X124587000Y-140589000D02*
G75*
G03*
X124587000Y-140589000I-381000J0D01*
G01*
D13*
%TO.C,M1*%
X109372400Y-83278500D02*
X111912400Y-83278500D01*
X111912400Y-83278500D02*
X111912400Y-90898500D01*
X109372400Y-83278500D02*
X109372400Y-90898500D01*
X111912400Y-90898500D02*
X109372400Y-90898500D01*
X116022400Y-91548500D02*
G75*
G03*
X116022400Y-91548500I-100000J0D01*
G01*
D11*
%TO.C,R21*%
X124322500Y-75615076D02*
X124322500Y-76124524D01*
X123277500Y-75615076D02*
X123277500Y-76124524D01*
%TO.C,R10*%
X132080724Y-119902500D02*
X131571276Y-119902500D01*
X132080724Y-118857500D02*
X131571276Y-118857500D01*
%TO.C,R15*%
X132080724Y-117108500D02*
X131571276Y-117108500D01*
X132080724Y-116063500D02*
X131571276Y-116063500D01*
%TO.C,R3*%
X110330174Y-124064500D02*
X110839622Y-124064500D01*
X110330174Y-125109500D02*
X110839622Y-125109500D01*
%TO.C,R20*%
X103377276Y-140701500D02*
X103886724Y-140701500D01*
X103377276Y-141746500D02*
X103886724Y-141746500D01*
%TO.C,TP15*%
X116494600Y-137566400D02*
G75*
G03*
X116494600Y-137566400I-950000J0D01*
G01*
%TO.C,TP17*%
X132322000Y-80835000D02*
G75*
G03*
X132322000Y-80835000I-950000J0D01*
G01*
%TO.C,TP14*%
X126941000Y-132460000D02*
G75*
G03*
X126941000Y-132460000I-950000J0D01*
G01*
%TO.C,R18*%
X118395276Y-140616500D02*
X118904724Y-140616500D01*
X118395276Y-141661500D02*
X118904724Y-141661500D01*
%TO.C,A2*%
X105391106Y-110017475D02*
G75*
G03*
X105391106Y-110017475I-353553J0D01*
G01*
%TO.C,C3*%
X110744724Y-101614500D02*
X110235276Y-101614500D01*
X110744724Y-100569500D02*
X110235276Y-100569500D01*
%TO.C,U5*%
X136220200Y-99618800D02*
X138099800Y-99618800D01*
X138099800Y-96469200D02*
X136220200Y-96469200D01*
X138099800Y-98432661D02*
X138099800Y-97655339D01*
%TO.C,R5*%
X126192474Y-124064500D02*
X126701922Y-124064500D01*
X126192474Y-125109500D02*
X126701922Y-125109500D01*
%TO.C,R6*%
X115672776Y-118857500D02*
X116182224Y-118857500D01*
X115672776Y-119902500D02*
X116182224Y-119902500D01*
%TO.C,TP9*%
X136052600Y-76860400D02*
G75*
G03*
X136052600Y-76860400I-950000J0D01*
G01*
%TO.C,R1*%
X115670876Y-116063500D02*
X116180324Y-116063500D01*
X115670876Y-117108500D02*
X116180324Y-117108500D01*
D10*
%TO.C,U1*%
X116396000Y-110553000D02*
X116396000Y-109878000D01*
X130746000Y-96203000D02*
X130746000Y-96878000D01*
X130746000Y-96203000D02*
X130071000Y-96203000D01*
X116396000Y-96203000D02*
X117071000Y-96203000D01*
X116396000Y-96203000D02*
X116396000Y-96878000D01*
X130746000Y-110553000D02*
X130746000Y-109978000D01*
X130746000Y-109978000D02*
X132021000Y-109978000D01*
X130746000Y-110553000D02*
X130071000Y-110553000D01*
X116396000Y-110553000D02*
X117071000Y-110553000D01*
D11*
%TO.C,TP10*%
X139964200Y-104622600D02*
G75*
G03*
X139964200Y-104622600I-950000J0D01*
G01*
%TO.C,TP4*%
X109650000Y-106200000D02*
G75*
G03*
X109650000Y-106200000I-950000J0D01*
G01*
%TD*%
M02*
