%TF.GenerationSoftware,KiCad,Pcbnew,(6.0.6)*%
%TF.CreationDate,2022-08-04T23:16:20-07:00*%
%TF.ProjectId,Smart Floor Register,536d6172-7420-4466-9c6f-6f7220526567,rev?*%
%TF.SameCoordinates,Original*%
%TF.FileFunction,Copper,L2,Bot*%
%TF.FilePolarity,Positive*%
%FSLAX46Y46*%
G04 Gerber Fmt 4.6, Leading zero omitted, Abs format (unit mm)*
G04 Created by KiCad (PCBNEW (6.0.6)) date 2022-08-04 23:16:20*
%MOMM*%
%LPD*%
G01*
G04 APERTURE LIST*
%TA.AperFunction,ComponentPad*%
%ADD10C,1.828800*%
%TD*%
%TA.AperFunction,ComponentPad*%
%ADD11C,3.175000*%
%TD*%
%TA.AperFunction,ComponentPad*%
%ADD12O,1.208000X2.416000*%
%TD*%
%TA.AperFunction,ComponentPad*%
%ADD13C,1.397000*%
%TD*%
%TA.AperFunction,ViaPad*%
%ADD14C,0.800000*%
%TD*%
%TA.AperFunction,Conductor*%
%ADD15C,0.250000*%
%TD*%
G04 APERTURE END LIST*
D10*
%TO.P,BT2,1,+*%
%TO.N,Net-(BT1-Pad1)*%
X133355900Y-143718438D03*
X114229700Y-71455438D03*
%TO.P,BT2,2,-*%
%TO.N,Earth*%
X133355900Y-71455438D03*
X114229700Y-143718438D03*
D11*
%TO.P,BT2,6*%
%TO.N,N/C*%
X123780100Y-80269238D03*
%TO.P,BT2,7*%
X123780100Y-135514238D03*
%TO.P,BT2,8*%
X141306100Y-80269238D03*
%TD*%
D12*
%TO.P,J3,6,Shield*%
%TO.N,Earth*%
X127724200Y-69419300D03*
X119824200Y-69419300D03*
%TD*%
D13*
%TO.P,J4,1,MISO*%
%TO.N,MISO*%
X124206000Y-142494000D03*
%TO.P,J4,2,VCC*%
%TO.N,VCC*%
X124206000Y-145034000D03*
%TO.P,J4,3,SCK*%
%TO.N,SCK*%
X126746000Y-142494000D03*
%TO.P,J4,4,MOSI*%
%TO.N,MOSI*%
X126746000Y-145034000D03*
%TO.P,J4,5,~{RST}*%
%TO.N,~{RESET}*%
X129286000Y-142494000D03*
%TO.P,J4,6,GND*%
%TO.N,Earth*%
X129286000Y-145034000D03*
%TD*%
D14*
%TO.N,Earth*%
X140208000Y-141605000D03*
X125552200Y-98831400D03*
X131368800Y-92151200D03*
X118491000Y-84556600D03*
%TO.N,ThermopileB*%
X115570000Y-135585200D03*
%TO.N,ThermopileA*%
X112826800Y-135585200D03*
%TO.N,Earth*%
X105943400Y-139827000D03*
X111175800Y-141147800D03*
%TO.N,ThermopileC*%
X119989600Y-135890000D03*
%TO.N,ThermopileD*%
X121513600Y-135915400D03*
%TO.N,VCC*%
X118059200Y-120408100D03*
X118084600Y-121920000D03*
X132572500Y-130022600D03*
%TO.N,Earth*%
X115046020Y-124743274D03*
X107137200Y-109778800D03*
X106426000Y-101828600D03*
X110312200Y-98526600D03*
%TO.N,Net-(BT1-Pad1)*%
X135128000Y-79324200D03*
X137337800Y-79375000D03*
X142671800Y-120294400D03*
%TO.N,VCC*%
X113385600Y-115417600D03*
X117373400Y-109550200D03*
%TO.N,Earth*%
X129032000Y-125984000D03*
%TO.N,VCC*%
X135712200Y-117830600D03*
X135174427Y-122390500D03*
%TO.N,Earth*%
X120853200Y-131368800D03*
X120294400Y-109270800D03*
X128778000Y-109499400D03*
X141122400Y-107619800D03*
X140157200Y-94030800D03*
X140157200Y-97510600D03*
X142595600Y-74371200D03*
%TO.N,+5V*%
X135229600Y-96139000D03*
X113258600Y-87096600D03*
X140792200Y-71170800D03*
X133985000Y-87045800D03*
%TO.N,SDA*%
X122318726Y-97192500D03*
X138506200Y-99872800D03*
%TO.N,SCL*%
X135864600Y-99847400D03*
X123393200Y-97205800D03*
X111658400Y-96393000D03*
%TO.N,SDA*%
X109016800Y-96342200D03*
%TO.N,FanActivate*%
X118524747Y-112742702D03*
%TO.N,ServoActivate*%
X117525800Y-112776000D03*
X103682800Y-138785600D03*
%TO.N,FanActivate*%
X108686600Y-138607800D03*
%TO.N,~{PEN}*%
X131267200Y-110210600D03*
%TO.N,Net-(A3-Pad2)*%
X133959600Y-126568200D03*
%TO.N,~{PEN}*%
X120675400Y-141173200D03*
%TO.N,~{RESET}*%
X135305800Y-141224000D03*
X127177800Y-97764600D03*
%TO.N,SCK*%
X132979958Y-101301000D03*
%TO.N,MOSI*%
X132850715Y-100309889D03*
%TO.N,MISO*%
X132765800Y-99314000D03*
%TO.N,ThermopileD*%
X129209800Y-121640600D03*
%TO.N,Shifted Ground*%
X140970000Y-103149400D03*
X142144500Y-117043200D03*
X105079800Y-116992400D03*
X105054400Y-108864400D03*
%TO.N,Net-(A1-Pad2)*%
X106756200Y-104673400D03*
X115138700Y-122758200D03*
%TO.N,Net-(A2-Pad2)*%
X106654600Y-112776000D03*
X113182400Y-125653800D03*
%TO.N,Net-(A3-Pad2)*%
X140995400Y-112826800D03*
%TO.N,Net-(A4-Pad3)*%
X141147800Y-106172000D03*
X133934200Y-125501400D03*
%TO.N,ThermistorC*%
X129489200Y-119405400D03*
%TO.N,ThermistorD*%
X129463800Y-116636800D03*
%TO.N,ThermopileC*%
X128092200Y-122072400D03*
%TO.N,ThermopileA*%
X119557800Y-120599200D03*
%TO.N,ThermopileB*%
X120015000Y-121742200D03*
%TO.N,ThermistorB*%
X117805200Y-119380000D03*
%TO.N,ThermistorD*%
X127158239Y-109265934D03*
%TO.N,ThermistorC*%
X126555776Y-108468410D03*
%TO.N,ThermopileD*%
X125940909Y-107680411D03*
%TO.N,ThermopileC*%
X125385047Y-106849735D03*
%TO.N,ThermopileB*%
X122484497Y-107224719D03*
%TO.N,ThermopileA*%
X121744253Y-107896317D03*
%TO.N,ThermistorB*%
X121043024Y-108608555D03*
%TD*%
D15*
%TO.N,VCC*%
X135174427Y-122390500D02*
X134605304Y-122390500D01*
X132298000Y-129748100D02*
X132572500Y-130022600D01*
X134605304Y-122390500D02*
X132298000Y-124697804D01*
X132298000Y-124697804D02*
X132298000Y-129748100D01*
%TO.N,ThermopileC*%
X125385047Y-106849735D02*
X124764800Y-107469982D01*
X124764800Y-107469982D02*
X124764800Y-118745000D01*
X124764800Y-118745000D02*
X128092200Y-122072400D01*
%TO.N,ThermopileD*%
X125577600Y-117754400D02*
X129209800Y-121386600D01*
X129209800Y-121386600D02*
X129209800Y-121640600D01*
X125940909Y-107680411D02*
X125577600Y-108043720D01*
X125577600Y-108043720D02*
X125577600Y-117754400D01*
%TO.N,ThermistorC*%
X126555776Y-108468410D02*
X126390400Y-108633786D01*
X127851598Y-119392002D02*
X129475802Y-119392002D01*
X126390400Y-108633786D02*
X126390400Y-117930804D01*
X126390400Y-117930804D02*
X127851598Y-119392002D01*
X129475802Y-119392002D02*
X129489200Y-119405400D01*
%TO.N,ThermopileB*%
X122484497Y-107224719D02*
X123164600Y-107904822D01*
X123164600Y-107904822D02*
X123164600Y-118491000D01*
X123164600Y-118491000D02*
X120015000Y-121640600D01*
X120015000Y-121640600D02*
X120015000Y-121742200D01*
%TO.N,ThermopileA*%
X121744253Y-107896317D02*
X122362142Y-108514206D01*
X122362142Y-108514206D02*
X122362142Y-117770854D01*
X122362142Y-117770854D02*
X119557800Y-120575196D01*
X119557800Y-120575196D02*
X119557800Y-120599200D01*
%TO.N,ThermistorB*%
X121043024Y-108608555D02*
X121589800Y-109155331D01*
X121589800Y-109155331D02*
X121589800Y-117906800D01*
X121589800Y-117906800D02*
X120116600Y-119380000D01*
X120116600Y-119380000D02*
X117805200Y-119380000D01*
%TO.N,ThermopileC*%
X125965800Y-125975404D02*
X128092200Y-123849004D01*
X119989600Y-135890000D02*
X119989600Y-134213600D01*
X119989600Y-134213600D02*
X125965800Y-128237400D01*
X125965800Y-128237400D02*
X125965800Y-125975404D01*
X128092200Y-123849004D02*
X128092200Y-122072400D01*
%TO.N,ThermopileB*%
X115570000Y-135585200D02*
X115570000Y-133275196D01*
X115570000Y-133275196D02*
X120015000Y-128830196D01*
X120015000Y-128830196D02*
X120015000Y-121742200D01*
%TO.N,ThermopileA*%
X112826800Y-135585200D02*
X112826800Y-135382000D01*
X112826800Y-135382000D02*
X118948200Y-129260600D01*
X118948200Y-129260600D02*
X118948200Y-121208800D01*
X118948200Y-121208800D02*
X119557800Y-120599200D01*
%TO.N,ThermopileD*%
X126415800Y-126161800D02*
X129209800Y-123367800D01*
X121513600Y-135915400D02*
X121513600Y-134340600D01*
X121513600Y-134340600D02*
X126415800Y-129438400D01*
X126415800Y-129438400D02*
X126415800Y-126161800D01*
X129209800Y-123367800D02*
X129209800Y-121640600D01*
%TO.N,VCC*%
X118084600Y-121920000D02*
X118084600Y-120433500D01*
X118084600Y-120433500D02*
X118059200Y-120408100D01*
%TO.N,~{RESET}*%
X127177800Y-97764600D02*
X127914400Y-98501200D01*
X127914400Y-98501200D02*
X133146800Y-98501200D01*
X131848000Y-120846089D02*
X131848000Y-138650392D01*
X133146800Y-98501200D02*
X134154958Y-99509358D01*
X134154958Y-99509358D02*
X134154958Y-102569600D01*
X134154958Y-102569600D02*
X133879958Y-102844600D01*
X133879958Y-102844600D02*
X133879958Y-113204042D01*
X133879958Y-113204042D02*
X132664200Y-114419800D01*
X132242800Y-119454784D02*
X132242800Y-120451289D01*
X132664200Y-114419800D02*
X132664200Y-119033384D01*
X132664200Y-119033384D02*
X132242800Y-119454784D01*
X132242800Y-120451289D02*
X131848000Y-120846089D01*
X131848000Y-138650392D02*
X131855200Y-138657592D01*
%TO.N,MOSI*%
X127965200Y-141911196D02*
X127965200Y-143814800D01*
X131398000Y-138478396D02*
X127965200Y-141911196D01*
X131398000Y-120659693D02*
X131398000Y-138478396D01*
X131792800Y-120264893D02*
X131398000Y-120659693D01*
X131792800Y-119268388D02*
X131792800Y-120264893D01*
X132214200Y-118846988D02*
X131792800Y-119268388D01*
X132214200Y-114116396D02*
X132214200Y-118846988D01*
X133429958Y-112900638D02*
X132214200Y-114116396D01*
X133429958Y-102383642D02*
X133429958Y-112900638D01*
X133704958Y-100964358D02*
X133704958Y-102108642D01*
X127965200Y-143814800D02*
X126746000Y-145034000D01*
X133704958Y-102108642D02*
X133429958Y-102383642D01*
X133050489Y-100309889D02*
X133704958Y-100964358D01*
X132850715Y-100309889D02*
X133050489Y-100309889D01*
%TO.N,SCK*%
X132979958Y-101301000D02*
X132979958Y-112714242D01*
X132979958Y-112714242D02*
X131764200Y-113930000D01*
X131764200Y-113930000D02*
X131764200Y-118660592D01*
X131764200Y-118660592D02*
X131342800Y-119081992D01*
X131342800Y-119081992D02*
X131342800Y-120078497D01*
X131342800Y-120078497D02*
X130948000Y-120473297D01*
X130948000Y-120473297D02*
X130948000Y-138292000D01*
X130948000Y-138292000D02*
X126746000Y-142494000D01*
%TO.N,MISO*%
X131314200Y-118474196D02*
X131314200Y-113743604D01*
X131314200Y-113743604D02*
X132529958Y-112527846D01*
X132529958Y-112527846D02*
X132529958Y-102761158D01*
X130498000Y-138105604D02*
X130498000Y-120286901D01*
X130881249Y-118907147D02*
X131314200Y-118474196D01*
X132529958Y-102761158D02*
X132105400Y-102336600D01*
X130892800Y-119892101D02*
X130892800Y-118918699D01*
X132105400Y-102336600D02*
X132105400Y-99974400D01*
X127659004Y-140944600D02*
X130498000Y-138105604D01*
X132105400Y-99974400D02*
X132765800Y-99314000D01*
X130892800Y-118918699D02*
X130881249Y-118907147D01*
X130498000Y-120286901D02*
X130892800Y-119892101D01*
X125755400Y-140944600D02*
X127659004Y-140944600D01*
X124206000Y-142494000D02*
X125755400Y-140944600D01*
%TO.N,~{PEN}*%
X120675400Y-141173200D02*
X121354000Y-140494600D01*
X121354000Y-140494600D02*
X127472608Y-140494600D01*
X127472608Y-140494600D02*
X130048000Y-137919208D01*
X130048000Y-137919208D02*
X130048000Y-120100505D01*
X130048000Y-120100505D02*
X130429000Y-119719505D01*
X130429000Y-119719505D02*
X130429000Y-111048800D01*
X130429000Y-111048800D02*
X131267200Y-110210600D01*
%TO.N,ThermistorD*%
X127685800Y-116636800D02*
X127158239Y-116109239D01*
X129463800Y-116636800D02*
X127685800Y-116636800D01*
X127158239Y-116109239D02*
X127158239Y-109265934D01*
%TO.N,Net-(A1-Pad2)*%
X109677200Y-124053600D02*
X108508800Y-122885200D01*
X115138700Y-123738995D02*
X114824095Y-124053600D01*
X115138700Y-122758200D02*
X115138700Y-123738995D01*
X108508800Y-106426000D02*
X106756200Y-104673400D01*
X114824095Y-124053600D02*
X109677200Y-124053600D01*
X108508800Y-122885200D02*
X108508800Y-106426000D01*
%TO.N,Net-(BT1-Pad1)*%
X135128000Y-79324200D02*
X127812800Y-79324200D01*
X117830600Y-76479400D02*
X114229700Y-72878500D01*
X127812800Y-79324200D02*
X124968000Y-76479400D01*
X124968000Y-76479400D02*
X117830600Y-76479400D01*
X114229700Y-72878500D02*
X114229700Y-71455438D01*
X142951200Y-105003600D02*
X142951200Y-87274400D01*
X142951200Y-87274400D02*
X139319000Y-83642200D01*
X142951200Y-114985800D02*
X142951200Y-105003600D01*
X139319000Y-83642200D02*
X137337800Y-81661000D01*
X137337800Y-81661000D02*
X137337800Y-79375000D01*
X142671800Y-120294400D02*
X142951200Y-120015000D01*
X142951200Y-120015000D02*
X142951200Y-114985800D01*
%TO.N,Shifted Ground*%
X142144500Y-117043200D02*
X142189200Y-116998500D01*
X142297400Y-104476800D02*
X140970000Y-103149400D01*
X142189200Y-116998500D02*
X142189200Y-113294701D01*
X142297400Y-113186501D02*
X142297400Y-104476800D01*
X142189200Y-113294701D02*
X142297400Y-113186501D01*
%TO.N,Net-(A4-Pad3)*%
X133934200Y-125501400D02*
X138963400Y-125501400D01*
X138963400Y-125501400D02*
X141420000Y-123044800D01*
X141420000Y-123044800D02*
X141420000Y-113427505D01*
X141420000Y-113427505D02*
X141847400Y-113000105D01*
X141847400Y-106871600D02*
X141147800Y-106172000D01*
X141847400Y-113000105D02*
X141847400Y-106871600D01*
%TO.N,Net-(A3-Pad2)*%
X133959600Y-126568200D02*
X133502400Y-126568200D01*
X133502400Y-126568200D02*
X133121400Y-126187200D01*
X133121400Y-126187200D02*
X133121400Y-124510800D01*
X133121400Y-124510800D02*
X133604000Y-124028200D01*
X133604000Y-124028200D02*
X139800204Y-124028200D01*
X139800204Y-124028200D02*
X140970000Y-122858404D01*
X140970000Y-122858404D02*
X140970000Y-112852200D01*
X140970000Y-112852200D02*
X140995400Y-112826800D01*
%TO.N,VCC*%
X117373400Y-109550200D02*
X113385600Y-113538000D01*
X113385600Y-113538000D02*
X113385600Y-115417600D01*
X135712200Y-121852727D02*
X135712200Y-117830600D01*
X135174427Y-122390500D02*
X135712200Y-121852727D01*
%TO.N,+5V*%
X140792200Y-71170800D02*
X136194800Y-75768200D01*
X136194800Y-75768200D02*
X136194800Y-82067400D01*
X136194800Y-82067400D02*
X135648700Y-82613500D01*
X135229600Y-96139000D02*
X133985000Y-94894400D01*
X133985000Y-94894400D02*
X133985000Y-87045800D01*
X113258600Y-87096600D02*
X113258600Y-84836000D01*
X135648700Y-82613500D02*
X133985000Y-84277200D01*
X113258600Y-84836000D02*
X115481100Y-82613500D01*
X115481100Y-82613500D02*
X135648700Y-82613500D01*
X133985000Y-84277200D02*
X133985000Y-87045800D01*
%TO.N,SDA*%
X122318726Y-97192500D02*
X123335226Y-96176000D01*
X123335226Y-96176000D02*
X133361600Y-96176000D01*
X133361600Y-96176000D02*
X137058400Y-99872800D01*
X137058400Y-99872800D02*
X138506200Y-99872800D01*
X122318726Y-97192500D02*
X122305426Y-97205800D01*
X122305426Y-97205800D02*
X113496505Y-97205800D01*
X113496505Y-97205800D02*
X111958705Y-95668000D01*
X111958705Y-95668000D02*
X109691000Y-95668000D01*
X109691000Y-95668000D02*
X109016800Y-96342200D01*
%TO.N,SCL*%
X113182400Y-97917000D02*
X111658400Y-96393000D01*
X123393200Y-97205800D02*
X122682000Y-97917000D01*
X122682000Y-97917000D02*
X113182400Y-97917000D01*
X123393200Y-97205800D02*
X123698000Y-96901000D01*
X132918200Y-96901000D02*
X135864600Y-99847400D01*
X123698000Y-96901000D02*
X132918200Y-96901000D01*
%TO.N,FanActivate*%
X116313200Y-115013905D02*
X116313200Y-130042796D01*
X118524747Y-112742702D02*
X118524747Y-112802358D01*
X118524747Y-112802358D02*
X116313200Y-115013905D01*
X116313200Y-130042796D02*
X108686600Y-137669396D01*
X108686600Y-137669396D02*
X108686600Y-138607800D01*
%TO.N,ServoActivate*%
X115863200Y-114438600D02*
X117525800Y-112776000D01*
X115863200Y-121245800D02*
X115863200Y-114438600D01*
X108508800Y-137210800D02*
X115863200Y-129856400D01*
X115863200Y-129856400D02*
X115863200Y-121245800D01*
X106934000Y-138785600D02*
X108508800Y-137210800D01*
X103682800Y-138785600D02*
X106934000Y-138785600D01*
%TO.N,Net-(A2-Pad2)*%
X113182400Y-125653800D02*
X108534200Y-125653800D01*
X108534200Y-125653800D02*
X106654600Y-123774200D01*
X106654600Y-123774200D02*
X106654600Y-112776000D01*
%TO.N,~{RESET}*%
X132739392Y-138657592D02*
X135305800Y-141224000D01*
X131855200Y-138657592D02*
X132739392Y-138657592D01*
X131855200Y-138657592D02*
X129286000Y-141226792D01*
X129286000Y-141226792D02*
X129286000Y-142494000D01*
%TO.N,Shifted Ground*%
X105054400Y-116967000D02*
X105079800Y-116992400D01*
X105054400Y-108864400D02*
X105054400Y-116967000D01*
%TD*%
%TA.AperFunction,Conductor*%
%TO.N,Earth*%
G36*
X118670531Y-68506502D02*
G01*
X118717024Y-68560158D01*
X118726074Y-68636651D01*
X118713341Y-68701851D01*
X118712267Y-68710694D01*
X118712200Y-68713428D01*
X118712200Y-69147185D01*
X118716675Y-69162424D01*
X118718065Y-69163629D01*
X118725748Y-69165300D01*
X119952200Y-69165300D01*
X120020321Y-69185302D01*
X120066814Y-69238958D01*
X120078200Y-69291300D01*
X120078200Y-71087817D01*
X120082173Y-71101348D01*
X120091599Y-71102703D01*
X120182046Y-71080905D01*
X120193341Y-71077016D01*
X120375585Y-70994154D01*
X120385927Y-70988207D01*
X120549223Y-70872373D01*
X120558251Y-70864580D01*
X120696693Y-70719962D01*
X120704097Y-70710587D01*
X120812684Y-70542414D01*
X120818185Y-70531801D01*
X120893015Y-70346126D01*
X120896407Y-70334676D01*
X120935057Y-70136759D01*
X120935317Y-70134623D01*
X120935605Y-70133953D01*
X120935927Y-70132306D01*
X120936284Y-70132376D01*
X120963392Y-70069413D01*
X121022265Y-70029733D01*
X121096972Y-70029250D01*
X121211301Y-70063932D01*
X121399200Y-70082438D01*
X121587099Y-70063932D01*
X121767777Y-70009123D01*
X121773232Y-70006207D01*
X121773235Y-70006206D01*
X121928832Y-69923038D01*
X121928833Y-69923037D01*
X121934291Y-69920120D01*
X122080241Y-69800341D01*
X122200020Y-69654391D01*
X122289023Y-69487877D01*
X122343832Y-69307199D01*
X122355838Y-69185302D01*
X122358315Y-69160154D01*
X122359453Y-69151605D01*
X122359549Y-69151035D01*
X122362776Y-69131852D01*
X122362929Y-69119300D01*
X122358973Y-69091676D01*
X122357700Y-69073814D01*
X122357700Y-68774256D01*
X122377702Y-68706135D01*
X122404988Y-68675867D01*
X122607183Y-68514111D01*
X122672872Y-68487175D01*
X122685895Y-68486500D01*
X124862505Y-68486500D01*
X124930626Y-68506502D01*
X124941217Y-68514111D01*
X125143412Y-68675868D01*
X125184110Y-68734042D01*
X125190700Y-68774257D01*
X125190700Y-69069933D01*
X125189200Y-69089318D01*
X125186890Y-69104151D01*
X125186890Y-69104155D01*
X125185509Y-69113024D01*
X125186330Y-69119300D01*
X125186062Y-69119300D01*
X125204568Y-69307199D01*
X125259377Y-69487877D01*
X125348380Y-69654391D01*
X125468159Y-69800341D01*
X125614109Y-69920120D01*
X125619567Y-69923037D01*
X125619568Y-69923038D01*
X125775165Y-70006206D01*
X125775168Y-70006207D01*
X125780623Y-70009123D01*
X125961301Y-70063932D01*
X126149200Y-70082438D01*
X126337099Y-70063932D01*
X126436597Y-70033749D01*
X126455935Y-70027883D01*
X126526928Y-70027249D01*
X126586995Y-70065098D01*
X126617941Y-70136490D01*
X126626725Y-70228554D01*
X126628984Y-70240288D01*
X126685341Y-70432391D01*
X126689771Y-70443466D01*
X126781438Y-70621449D01*
X126787888Y-70631495D01*
X126911552Y-70788928D01*
X126919789Y-70797577D01*
X127070990Y-70928782D01*
X127080716Y-70935719D01*
X127253992Y-71035962D01*
X127264862Y-71040939D01*
X127453970Y-71106609D01*
X127455674Y-71107024D01*
X127466208Y-71105522D01*
X127470200Y-71091957D01*
X127470200Y-71087817D01*
X127978200Y-71087817D01*
X127982173Y-71101348D01*
X127991599Y-71102703D01*
X128082046Y-71080905D01*
X128093341Y-71077016D01*
X128275585Y-70994154D01*
X128285927Y-70988207D01*
X128449223Y-70872373D01*
X128458251Y-70864580D01*
X128596693Y-70719962D01*
X128604097Y-70710587D01*
X128712684Y-70542414D01*
X128718185Y-70531801D01*
X128793015Y-70346126D01*
X128796407Y-70334676D01*
X128805939Y-70285865D01*
X132551123Y-70285865D01*
X132557868Y-70298196D01*
X133343088Y-71083416D01*
X133357032Y-71091030D01*
X133358865Y-71090899D01*
X133365480Y-71086648D01*
X134155143Y-70296985D01*
X134162164Y-70284128D01*
X134154391Y-70273461D01*
X134149801Y-70269836D01*
X134141215Y-70264131D01*
X133945499Y-70156091D01*
X133936100Y-70151866D01*
X133725366Y-70077241D01*
X133715395Y-70074607D01*
X133495307Y-70035403D01*
X133485055Y-70034434D01*
X133261508Y-70031703D01*
X133251224Y-70032423D01*
X133030241Y-70066237D01*
X133020222Y-70068624D01*
X132807722Y-70138080D01*
X132798220Y-70142075D01*
X132599928Y-70245299D01*
X132591203Y-70250793D01*
X132559576Y-70274540D01*
X132551123Y-70285865D01*
X128805939Y-70285865D01*
X128835059Y-70136752D01*
X128836133Y-70127906D01*
X128836200Y-70125172D01*
X128836200Y-69691415D01*
X128831725Y-69676176D01*
X128830335Y-69674971D01*
X128822652Y-69673300D01*
X127996315Y-69673300D01*
X127981076Y-69677775D01*
X127979871Y-69679165D01*
X127978200Y-69686848D01*
X127978200Y-71087817D01*
X127470200Y-71087817D01*
X127470200Y-69291300D01*
X127490202Y-69223179D01*
X127543858Y-69176686D01*
X127596200Y-69165300D01*
X128818085Y-69165300D01*
X128833324Y-69160825D01*
X128834529Y-69159435D01*
X128836200Y-69151752D01*
X128836200Y-68765278D01*
X128835915Y-68759301D01*
X128823051Y-68624467D01*
X128836492Y-68554755D01*
X128885490Y-68503376D01*
X128948481Y-68486500D01*
X146471900Y-68486500D01*
X146540021Y-68506502D01*
X146586514Y-68560158D01*
X146597900Y-68612500D01*
X146597900Y-77343500D01*
X146577898Y-77411621D01*
X146524242Y-77458114D01*
X146471900Y-77469500D01*
X144115023Y-77469500D01*
X144114253Y-77469498D01*
X144113437Y-77469493D01*
X144036679Y-77469024D01*
X144014318Y-77475415D01*
X144008247Y-77477150D01*
X143991485Y-77480728D01*
X143962213Y-77484920D01*
X143954045Y-77488634D01*
X143954044Y-77488634D01*
X143938838Y-77495548D01*
X143921314Y-77501996D01*
X143896629Y-77509051D01*
X143889035Y-77513843D01*
X143889032Y-77513844D01*
X143871620Y-77524830D01*
X143856537Y-77532969D01*
X143829618Y-77545208D01*
X143822816Y-77551069D01*
X143810165Y-77561970D01*
X143795161Y-77573073D01*
X143773442Y-77586776D01*
X143767503Y-77593501D01*
X143767499Y-77593504D01*
X143753868Y-77608938D01*
X143741676Y-77620982D01*
X143726073Y-77634427D01*
X143726071Y-77634430D01*
X143719273Y-77640287D01*
X143714393Y-77647816D01*
X143714392Y-77647817D01*
X143705306Y-77661835D01*
X143694015Y-77676709D01*
X143682969Y-77689217D01*
X143677022Y-77695951D01*
X143670712Y-77709391D01*
X143664458Y-77722711D01*
X143656137Y-77737691D01*
X143644929Y-77754983D01*
X143644927Y-77754988D01*
X143640048Y-77762515D01*
X143637478Y-77771108D01*
X143637476Y-77771113D01*
X143632689Y-77787120D01*
X143626028Y-77804564D01*
X143618933Y-77819676D01*
X143615119Y-77827800D01*
X143613738Y-77836667D01*
X143613738Y-77836668D01*
X143610570Y-77857015D01*
X143606787Y-77873732D01*
X143600885Y-77893466D01*
X143600884Y-77893472D01*
X143598314Y-77902066D01*
X143598259Y-77911037D01*
X143598259Y-77911038D01*
X143598104Y-77936497D01*
X143598071Y-77937289D01*
X143597900Y-77938386D01*
X143597900Y-77969377D01*
X143597898Y-77970147D01*
X143597424Y-78047721D01*
X143597808Y-78049065D01*
X143597900Y-78050410D01*
X143597900Y-79770036D01*
X143577898Y-79838157D01*
X143524242Y-79884650D01*
X143453968Y-79894754D01*
X143389388Y-79865260D01*
X143351004Y-79805534D01*
X143348518Y-79795587D01*
X143338364Y-79746556D01*
X143329606Y-79704265D01*
X143234209Y-79434871D01*
X143192050Y-79353189D01*
X143105098Y-79184723D01*
X143105098Y-79184722D01*
X143103133Y-79180916D01*
X142982821Y-79009729D01*
X142941271Y-78950610D01*
X142941270Y-78950609D01*
X142938804Y-78947100D01*
X142744264Y-78737749D01*
X142699421Y-78701045D01*
X142626615Y-78641455D01*
X142523111Y-78556738D01*
X142279438Y-78407415D01*
X142256451Y-78397324D01*
X142148596Y-78349979D01*
X142017754Y-78292543D01*
X141742901Y-78214250D01*
X141459966Y-78173982D01*
X141310049Y-78173197D01*
X141178471Y-78172508D01*
X141178465Y-78172508D01*
X141174184Y-78172486D01*
X141169940Y-78173045D01*
X141169936Y-78173045D01*
X141058081Y-78187771D01*
X140890842Y-78209788D01*
X140886702Y-78210921D01*
X140886700Y-78210921D01*
X140870240Y-78215424D01*
X140615185Y-78285200D01*
X140352312Y-78397324D01*
X140348631Y-78399527D01*
X140110771Y-78541883D01*
X140110767Y-78541886D01*
X140107089Y-78544087D01*
X140103746Y-78546765D01*
X140103742Y-78546768D01*
X140021696Y-78612500D01*
X139884053Y-78722773D01*
X139881109Y-78725875D01*
X139881105Y-78725879D01*
X139690280Y-78926966D01*
X139687330Y-78930075D01*
X139520562Y-79162158D01*
X139386834Y-79414726D01*
X139288621Y-79683106D01*
X139227740Y-79962332D01*
X139205317Y-80247238D01*
X139221768Y-80532550D01*
X139222593Y-80536755D01*
X139222594Y-80536763D01*
X139233748Y-80593615D01*
X139276788Y-80812990D01*
X139278175Y-80817040D01*
X139278176Y-80817045D01*
X139367971Y-81079313D01*
X139369360Y-81083369D01*
X139497769Y-81338682D01*
X139659640Y-81574206D01*
X139662521Y-81577372D01*
X139837071Y-81769200D01*
X139851978Y-81785583D01*
X139855266Y-81788332D01*
X140067931Y-81966148D01*
X140067936Y-81966152D01*
X140071223Y-81968900D01*
X140138814Y-82011300D01*
X140309679Y-82118484D01*
X140309683Y-82118486D01*
X140313319Y-82120767D01*
X140573786Y-82238372D01*
X140577905Y-82239592D01*
X140843690Y-82318322D01*
X140843695Y-82318323D01*
X140847803Y-82319540D01*
X140852037Y-82320188D01*
X140852042Y-82320189D01*
X141126059Y-82362119D01*
X141126061Y-82362119D01*
X141130301Y-82362768D01*
X141275788Y-82365054D01*
X141411762Y-82367190D01*
X141411768Y-82367190D01*
X141416053Y-82367257D01*
X141699769Y-82332923D01*
X141976201Y-82260403D01*
X141980161Y-82258763D01*
X141980166Y-82258761D01*
X142122148Y-82199950D01*
X142240233Y-82151037D01*
X142245383Y-82148028D01*
X142483282Y-82009011D01*
X142483283Y-82009011D01*
X142486980Y-82006850D01*
X142505297Y-81992488D01*
X142708503Y-81833153D01*
X142711875Y-81830509D01*
X142910758Y-81625279D01*
X143079947Y-81394955D01*
X143216312Y-81143801D01*
X143317331Y-80876464D01*
X143349080Y-80737839D01*
X143383785Y-80675903D01*
X143446466Y-80642562D01*
X143517222Y-80648401D01*
X143573589Y-80691568D01*
X143597670Y-80758355D01*
X143597900Y-80765968D01*
X143597900Y-86719453D01*
X143577898Y-86787574D01*
X143524242Y-86834067D01*
X143453968Y-86844171D01*
X143391587Y-86816540D01*
X143382598Y-86809104D01*
X143373816Y-86801112D01*
X139738778Y-83166073D01*
X139738770Y-83166065D01*
X139738766Y-83166062D01*
X138875164Y-82302460D01*
X138008205Y-81435500D01*
X137974179Y-81373188D01*
X137971300Y-81346405D01*
X137971300Y-80077524D01*
X137991302Y-80009403D01*
X138003658Y-79993221D01*
X138076840Y-79911944D01*
X138153489Y-79779184D01*
X138169023Y-79752279D01*
X138169024Y-79752278D01*
X138172327Y-79746556D01*
X138231342Y-79564928D01*
X138251304Y-79375000D01*
X138231342Y-79185072D01*
X138172327Y-79003444D01*
X138076840Y-78838056D01*
X137975836Y-78725879D01*
X137953475Y-78701045D01*
X137953474Y-78701044D01*
X137949053Y-78696134D01*
X137794552Y-78583882D01*
X137788524Y-78581198D01*
X137788522Y-78581197D01*
X137626119Y-78508891D01*
X137626118Y-78508891D01*
X137620088Y-78506206D01*
X137525431Y-78486086D01*
X137439744Y-78467872D01*
X137439739Y-78467872D01*
X137433287Y-78466500D01*
X137242313Y-78466500D01*
X137235861Y-78467872D01*
X137235856Y-78467872D01*
X137150169Y-78486086D01*
X137055512Y-78506206D01*
X137049482Y-78508891D01*
X137049481Y-78508891D01*
X137005549Y-78528451D01*
X136935182Y-78537885D01*
X136870885Y-78507779D01*
X136833071Y-78447690D01*
X136828300Y-78413344D01*
X136828300Y-76082794D01*
X136848302Y-76014673D01*
X136865205Y-75993699D01*
X140742699Y-72116205D01*
X140805011Y-72082179D01*
X140831794Y-72079300D01*
X140887687Y-72079300D01*
X140894139Y-72077928D01*
X140894144Y-72077928D01*
X140981088Y-72059447D01*
X141074488Y-72039594D01*
X141080519Y-72036909D01*
X141242922Y-71964603D01*
X141242924Y-71964602D01*
X141248952Y-71961918D01*
X141403453Y-71849666D01*
X141423447Y-71827460D01*
X141526821Y-71712652D01*
X141526822Y-71712651D01*
X141531240Y-71707744D01*
X141626727Y-71542356D01*
X141685742Y-71360728D01*
X141705704Y-71170800D01*
X141685742Y-70980872D01*
X141626727Y-70799244D01*
X141619610Y-70786916D01*
X141575541Y-70710587D01*
X141531240Y-70633856D01*
X141439350Y-70531801D01*
X141407875Y-70496845D01*
X141407874Y-70496844D01*
X141403453Y-70491934D01*
X141283648Y-70404890D01*
X141254294Y-70383563D01*
X141254293Y-70383562D01*
X141248952Y-70379682D01*
X141242924Y-70376998D01*
X141242922Y-70376997D01*
X141080519Y-70304691D01*
X141080518Y-70304691D01*
X141074488Y-70302006D01*
X140981087Y-70282153D01*
X140894144Y-70263672D01*
X140894139Y-70263672D01*
X140887687Y-70262300D01*
X140696713Y-70262300D01*
X140690261Y-70263672D01*
X140690256Y-70263672D01*
X140603313Y-70282153D01*
X140509912Y-70302006D01*
X140503882Y-70304691D01*
X140503881Y-70304691D01*
X140341478Y-70376997D01*
X140341476Y-70376998D01*
X140335448Y-70379682D01*
X140330107Y-70383562D01*
X140330106Y-70383563D01*
X140300752Y-70404890D01*
X140180947Y-70491934D01*
X140176526Y-70496844D01*
X140176525Y-70496845D01*
X140145051Y-70531801D01*
X140053160Y-70633856D01*
X140008859Y-70710587D01*
X139964791Y-70786916D01*
X139957673Y-70799244D01*
X139898658Y-70980872D01*
X139897968Y-70987433D01*
X139897968Y-70987435D01*
X139881293Y-71146092D01*
X139854280Y-71211749D01*
X139845078Y-71222017D01*
X135802547Y-75264548D01*
X135794261Y-75272088D01*
X135787782Y-75276200D01*
X135782357Y-75281977D01*
X135741157Y-75325851D01*
X135738402Y-75328693D01*
X135718665Y-75348430D01*
X135716185Y-75351627D01*
X135708482Y-75360647D01*
X135678214Y-75392879D01*
X135674395Y-75399825D01*
X135674393Y-75399828D01*
X135668452Y-75410634D01*
X135657601Y-75427153D01*
X135645186Y-75443159D01*
X135642041Y-75450428D01*
X135642038Y-75450432D01*
X135627626Y-75483737D01*
X135622409Y-75494387D01*
X135601105Y-75533140D01*
X135599134Y-75540815D01*
X135599134Y-75540816D01*
X135596067Y-75552762D01*
X135589663Y-75571466D01*
X135581619Y-75590055D01*
X135580380Y-75597878D01*
X135580377Y-75597888D01*
X135574701Y-75633724D01*
X135572295Y-75645344D01*
X135561300Y-75688170D01*
X135561300Y-75708424D01*
X135559749Y-75728134D01*
X135556580Y-75748143D01*
X135557326Y-75756035D01*
X135560741Y-75792161D01*
X135561300Y-75804019D01*
X135561300Y-78331907D01*
X135541298Y-78400028D01*
X135487642Y-78446521D01*
X135417368Y-78456625D01*
X135409103Y-78455154D01*
X135229944Y-78417072D01*
X135229939Y-78417072D01*
X135223487Y-78415700D01*
X135032513Y-78415700D01*
X135026061Y-78417072D01*
X135026056Y-78417072D01*
X134939113Y-78435553D01*
X134845712Y-78455406D01*
X134839682Y-78458091D01*
X134839681Y-78458091D01*
X134677278Y-78530397D01*
X134677276Y-78530398D01*
X134671248Y-78533082D01*
X134665907Y-78536962D01*
X134665906Y-78536963D01*
X134656101Y-78544087D01*
X134516747Y-78645334D01*
X134512332Y-78650237D01*
X134507420Y-78654660D01*
X134506295Y-78653411D01*
X134452986Y-78686251D01*
X134419800Y-78690700D01*
X128127394Y-78690700D01*
X128059273Y-78670698D01*
X128038299Y-78653795D01*
X125471652Y-76087147D01*
X125464112Y-76078861D01*
X125460000Y-76072382D01*
X125410348Y-76025756D01*
X125407507Y-76023002D01*
X125387770Y-76003265D01*
X125384573Y-76000785D01*
X125375551Y-75993080D01*
X125349100Y-75968241D01*
X125343321Y-75962814D01*
X125336375Y-75958995D01*
X125336372Y-75958993D01*
X125325566Y-75953052D01*
X125309047Y-75942201D01*
X125308583Y-75941841D01*
X125293041Y-75929786D01*
X125285772Y-75926641D01*
X125285768Y-75926638D01*
X125252463Y-75912226D01*
X125241813Y-75907009D01*
X125203060Y-75885705D01*
X125183437Y-75880667D01*
X125164734Y-75874263D01*
X125153420Y-75869367D01*
X125153419Y-75869367D01*
X125146145Y-75866219D01*
X125138322Y-75864980D01*
X125138312Y-75864977D01*
X125102476Y-75859301D01*
X125090856Y-75856895D01*
X125055711Y-75847872D01*
X125055710Y-75847872D01*
X125048030Y-75845900D01*
X125027776Y-75845900D01*
X125008065Y-75844349D01*
X124995886Y-75842420D01*
X124988057Y-75841180D01*
X124980165Y-75841926D01*
X124944039Y-75845341D01*
X124932181Y-75845900D01*
X118145194Y-75845900D01*
X118077073Y-75825898D01*
X118056099Y-75808995D01*
X115047445Y-72800340D01*
X115013419Y-72738028D01*
X115018484Y-72667212D01*
X115049030Y-72627372D01*
X132548796Y-72627372D01*
X132554077Y-72634426D01*
X132734737Y-72739996D01*
X132744020Y-72744443D01*
X132952872Y-72824196D01*
X132962774Y-72827073D01*
X133181829Y-72871640D01*
X133192082Y-72872863D01*
X133415481Y-72881055D01*
X133425767Y-72880588D01*
X133647516Y-72852181D01*
X133657602Y-72850038D01*
X133871729Y-72785796D01*
X133881324Y-72782036D01*
X134082084Y-72683684D01*
X134090934Y-72678409D01*
X134151321Y-72635335D01*
X134159721Y-72624635D01*
X134152734Y-72611482D01*
X133368712Y-71827460D01*
X133354768Y-71819846D01*
X133352935Y-71819977D01*
X133346320Y-71824228D01*
X132555556Y-72614992D01*
X132548796Y-72627372D01*
X115049030Y-72627372D01*
X115063371Y-72608667D01*
X115147059Y-72548973D01*
X115147069Y-72548965D01*
X115151270Y-72545968D01*
X115317007Y-72380809D01*
X115453544Y-72190798D01*
X115507227Y-72082179D01*
X115554919Y-71985680D01*
X115554920Y-71985678D01*
X115557213Y-71981038D01*
X115588759Y-71877208D01*
X115623728Y-71762115D01*
X115623729Y-71762109D01*
X115625232Y-71757163D01*
X115652758Y-71548079D01*
X115655335Y-71528507D01*
X115655335Y-71528501D01*
X115655772Y-71525185D01*
X115657477Y-71455438D01*
X115655034Y-71425723D01*
X131929348Y-71425723D01*
X131942217Y-71648907D01*
X131943653Y-71659128D01*
X131992801Y-71877208D01*
X131995880Y-71887037D01*
X132079991Y-72094177D01*
X132084634Y-72103368D01*
X132175526Y-72251692D01*
X132185982Y-72261152D01*
X132194760Y-72257368D01*
X132983878Y-71468250D01*
X132990256Y-71456570D01*
X133720308Y-71456570D01*
X133720439Y-71458403D01*
X133724690Y-71465018D01*
X134512521Y-72252849D01*
X134524531Y-72259408D01*
X134536270Y-72250440D01*
X134576295Y-72194739D01*
X134581606Y-72185900D01*
X134680653Y-71985495D01*
X134684451Y-71975902D01*
X134749439Y-71762001D01*
X134751616Y-71751931D01*
X134781034Y-71528482D01*
X134781553Y-71521808D01*
X134783093Y-71458803D01*
X134782899Y-71452084D01*
X134764434Y-71227478D01*
X134762751Y-71217316D01*
X134708288Y-71000489D01*
X134704967Y-70990734D01*
X134615827Y-70785728D01*
X134610949Y-70776630D01*
X134535538Y-70660063D01*
X134524852Y-70650859D01*
X134515285Y-70655263D01*
X133727922Y-71442626D01*
X133720308Y-71456570D01*
X132990256Y-71456570D01*
X132991492Y-71454306D01*
X132991361Y-71452473D01*
X132987110Y-71445858D01*
X132199403Y-70658151D01*
X132187867Y-70651851D01*
X132175585Y-70661474D01*
X132117802Y-70746181D01*
X132112716Y-70755134D01*
X132018589Y-70957912D01*
X132015030Y-70967587D01*
X131955288Y-71183010D01*
X131953357Y-71193130D01*
X131929600Y-71415434D01*
X131929348Y-71425723D01*
X115655034Y-71425723D01*
X115649151Y-71354165D01*
X115638729Y-71227396D01*
X115638728Y-71227390D01*
X115638305Y-71222245D01*
X115604539Y-71087817D01*
X115582563Y-71000325D01*
X115582562Y-71000321D01*
X115581304Y-70995314D01*
X115577878Y-70987435D01*
X115490065Y-70785478D01*
X115490063Y-70785475D01*
X115488005Y-70780741D01*
X115360913Y-70584287D01*
X115350607Y-70572960D01*
X115281347Y-70496845D01*
X115203442Y-70411228D01*
X115199391Y-70408029D01*
X115199387Y-70408025D01*
X115023875Y-70269414D01*
X115023871Y-70269412D01*
X115019820Y-70266212D01*
X115012734Y-70262300D01*
X114942820Y-70223706D01*
X114814979Y-70153134D01*
X114810110Y-70151410D01*
X114810106Y-70151408D01*
X114599295Y-70076756D01*
X114599291Y-70076755D01*
X114594420Y-70075030D01*
X114589327Y-70074123D01*
X114589324Y-70074122D01*
X114584833Y-70073322D01*
X118712200Y-70073322D01*
X118712485Y-70079299D01*
X118726725Y-70228554D01*
X118728984Y-70240288D01*
X118785341Y-70432391D01*
X118789771Y-70443466D01*
X118881438Y-70621449D01*
X118887888Y-70631495D01*
X119011552Y-70788928D01*
X119019789Y-70797577D01*
X119170990Y-70928782D01*
X119180716Y-70935719D01*
X119353992Y-71035962D01*
X119364862Y-71040939D01*
X119553970Y-71106609D01*
X119555674Y-71107024D01*
X119566208Y-71105522D01*
X119570200Y-71091957D01*
X119570200Y-69691415D01*
X119565725Y-69676176D01*
X119564335Y-69674971D01*
X119556652Y-69673300D01*
X118730315Y-69673300D01*
X118715076Y-69677775D01*
X118713871Y-69679165D01*
X118712200Y-69686848D01*
X118712200Y-70073322D01*
X114584833Y-70073322D01*
X114475055Y-70053768D01*
X114364066Y-70033998D01*
X114276341Y-70032926D01*
X114135273Y-70031202D01*
X114135271Y-70031202D01*
X114130103Y-70031139D01*
X113898816Y-70066531D01*
X113744698Y-70116904D01*
X113681333Y-70137615D01*
X113681331Y-70137616D01*
X113676414Y-70139223D01*
X113671828Y-70141610D01*
X113671824Y-70141612D01*
X113539772Y-70210355D01*
X113468872Y-70247263D01*
X113281761Y-70387749D01*
X113120109Y-70556909D01*
X113117195Y-70561181D01*
X113117194Y-70561182D01*
X113101433Y-70584287D01*
X112988255Y-70750199D01*
X112889741Y-70962429D01*
X112888359Y-70967411D01*
X112888359Y-70967412D01*
X112886367Y-70974594D01*
X112827213Y-71187899D01*
X112802349Y-71420554D01*
X112802646Y-71425706D01*
X112802646Y-71425710D01*
X112809010Y-71536071D01*
X112815818Y-71654146D01*
X112816955Y-71659192D01*
X112816956Y-71659198D01*
X112826608Y-71702026D01*
X112867258Y-71882402D01*
X112921675Y-72016416D01*
X112931644Y-72040966D01*
X112955286Y-72099191D01*
X113077541Y-72298691D01*
X113230737Y-72475546D01*
X113410761Y-72625004D01*
X113415217Y-72627608D01*
X113415220Y-72627610D01*
X113496341Y-72675014D01*
X113525939Y-72692309D01*
X113533239Y-72696575D01*
X113581962Y-72748214D01*
X113594719Y-72815183D01*
X113593998Y-72818409D01*
X113594247Y-72826330D01*
X113596138Y-72886486D01*
X113596200Y-72890445D01*
X113596200Y-72918356D01*
X113596697Y-72922290D01*
X113596697Y-72922291D01*
X113596705Y-72922356D01*
X113597638Y-72934193D01*
X113599027Y-72978389D01*
X113604678Y-72997839D01*
X113608687Y-73017200D01*
X113611226Y-73037297D01*
X113614145Y-73044668D01*
X113614145Y-73044670D01*
X113627504Y-73078412D01*
X113631349Y-73089642D01*
X113643682Y-73132093D01*
X113647715Y-73138912D01*
X113647717Y-73138917D01*
X113653993Y-73149528D01*
X113662688Y-73167276D01*
X113670148Y-73186117D01*
X113674810Y-73192533D01*
X113674810Y-73192534D01*
X113696136Y-73221887D01*
X113702652Y-73231807D01*
X113725158Y-73269862D01*
X113739479Y-73284183D01*
X113752319Y-73299216D01*
X113764228Y-73315607D01*
X113770334Y-73320658D01*
X113798305Y-73343798D01*
X113807084Y-73351788D01*
X117326943Y-76871647D01*
X117334487Y-76879937D01*
X117338600Y-76886418D01*
X117344377Y-76891843D01*
X117388267Y-76933058D01*
X117391109Y-76935813D01*
X117410831Y-76955535D01*
X117413955Y-76957958D01*
X117413959Y-76957962D01*
X117414024Y-76958012D01*
X117423045Y-76965717D01*
X117455279Y-76995986D01*
X117462227Y-76999805D01*
X117462229Y-76999807D01*
X117473032Y-77005746D01*
X117489559Y-77016602D01*
X117499298Y-77024157D01*
X117499300Y-77024158D01*
X117505560Y-77029014D01*
X117546140Y-77046574D01*
X117556788Y-77051791D01*
X117595540Y-77073095D01*
X117603216Y-77075066D01*
X117603219Y-77075067D01*
X117615162Y-77078133D01*
X117633867Y-77084537D01*
X117652455Y-77092581D01*
X117660278Y-77093820D01*
X117660288Y-77093823D01*
X117696124Y-77099499D01*
X117707744Y-77101905D01*
X117742889Y-77110928D01*
X117750570Y-77112900D01*
X117770824Y-77112900D01*
X117790534Y-77114451D01*
X117810543Y-77117620D01*
X117818435Y-77116874D01*
X117854561Y-77113459D01*
X117866419Y-77112900D01*
X124653406Y-77112900D01*
X124721527Y-77132902D01*
X124742501Y-77149805D01*
X126037047Y-78444352D01*
X127309148Y-79716453D01*
X127316688Y-79724739D01*
X127320800Y-79731218D01*
X127326577Y-79736643D01*
X127370451Y-79777843D01*
X127373293Y-79780598D01*
X127393030Y-79800335D01*
X127396227Y-79802815D01*
X127405247Y-79810518D01*
X127437479Y-79840786D01*
X127444425Y-79844605D01*
X127444428Y-79844607D01*
X127455234Y-79850548D01*
X127471753Y-79861399D01*
X127487759Y-79873814D01*
X127495028Y-79876959D01*
X127495032Y-79876962D01*
X127528337Y-79891374D01*
X127538987Y-79896591D01*
X127577740Y-79917895D01*
X127585415Y-79919866D01*
X127585416Y-79919866D01*
X127597362Y-79922933D01*
X127616067Y-79929337D01*
X127634655Y-79937381D01*
X127642478Y-79938620D01*
X127642488Y-79938623D01*
X127678324Y-79944299D01*
X127689944Y-79946705D01*
X127725089Y-79955728D01*
X127732770Y-79957700D01*
X127753024Y-79957700D01*
X127772734Y-79959251D01*
X127792743Y-79962420D01*
X127800635Y-79961674D01*
X127836761Y-79958259D01*
X127848619Y-79957700D01*
X134419800Y-79957700D01*
X134487921Y-79977702D01*
X134507147Y-79994043D01*
X134507420Y-79993740D01*
X134512332Y-79998163D01*
X134516747Y-80003066D01*
X134671248Y-80115318D01*
X134677276Y-80118002D01*
X134677278Y-80118003D01*
X134839681Y-80190309D01*
X134845712Y-80192994D01*
X134939112Y-80212847D01*
X135026056Y-80231328D01*
X135026061Y-80231328D01*
X135032513Y-80232700D01*
X135223487Y-80232700D01*
X135229939Y-80231328D01*
X135229944Y-80231328D01*
X135409103Y-80193246D01*
X135479894Y-80198648D01*
X135536526Y-80241465D01*
X135561020Y-80308103D01*
X135561300Y-80316493D01*
X135561300Y-81752805D01*
X135541298Y-81820926D01*
X135524395Y-81841901D01*
X135423199Y-81943096D01*
X135360887Y-81977121D01*
X135334104Y-81980000D01*
X125338568Y-81980000D01*
X125270447Y-81959998D01*
X125223954Y-81906342D01*
X125213850Y-81836068D01*
X125248084Y-81766315D01*
X125381776Y-81628356D01*
X125384758Y-81625279D01*
X125553947Y-81394955D01*
X125690312Y-81143801D01*
X125791331Y-80876464D01*
X125855132Y-80597891D01*
X125880537Y-80313236D01*
X125880998Y-80269238D01*
X125875894Y-80194366D01*
X125861852Y-79988390D01*
X125861851Y-79988384D01*
X125861560Y-79984113D01*
X125856183Y-79958146D01*
X125823501Y-79800335D01*
X125803606Y-79704265D01*
X125708209Y-79434871D01*
X125666050Y-79353189D01*
X125579098Y-79184723D01*
X125579098Y-79184722D01*
X125577133Y-79180916D01*
X125456821Y-79009729D01*
X125415271Y-78950610D01*
X125415270Y-78950609D01*
X125412804Y-78947100D01*
X125218264Y-78737749D01*
X125173421Y-78701045D01*
X125100615Y-78641455D01*
X124997111Y-78556738D01*
X124753438Y-78407415D01*
X124730451Y-78397324D01*
X124622596Y-78349979D01*
X124491754Y-78292543D01*
X124216901Y-78214250D01*
X123933966Y-78173982D01*
X123784049Y-78173197D01*
X123652471Y-78172508D01*
X123652465Y-78172508D01*
X123648184Y-78172486D01*
X123643940Y-78173045D01*
X123643936Y-78173045D01*
X123532081Y-78187771D01*
X123364842Y-78209788D01*
X123360702Y-78210921D01*
X123360700Y-78210921D01*
X123344240Y-78215424D01*
X123089185Y-78285200D01*
X122826312Y-78397324D01*
X122822631Y-78399527D01*
X122584771Y-78541883D01*
X122584767Y-78541886D01*
X122581089Y-78544087D01*
X122577746Y-78546765D01*
X122577742Y-78546768D01*
X122495696Y-78612500D01*
X122358053Y-78722773D01*
X122355109Y-78725875D01*
X122355105Y-78725879D01*
X122164280Y-78926966D01*
X122161330Y-78930075D01*
X121994562Y-79162158D01*
X121860834Y-79414726D01*
X121762621Y-79683106D01*
X121701740Y-79962332D01*
X121679317Y-80247238D01*
X121695768Y-80532550D01*
X121696593Y-80536755D01*
X121696594Y-80536763D01*
X121707748Y-80593615D01*
X121750788Y-80812990D01*
X121752175Y-80817040D01*
X121752176Y-80817045D01*
X121841971Y-81079313D01*
X121843360Y-81083369D01*
X121971769Y-81338682D01*
X122133640Y-81574206D01*
X122136519Y-81577371D01*
X122136527Y-81577380D01*
X122311070Y-81769200D01*
X122342122Y-81833046D01*
X122333727Y-81903545D01*
X122288551Y-81958313D01*
X122217877Y-81980000D01*
X115559868Y-81980000D01*
X115548685Y-81979473D01*
X115541192Y-81977798D01*
X115533266Y-81978047D01*
X115533265Y-81978047D01*
X115473102Y-81979938D01*
X115469144Y-81980000D01*
X115441244Y-81980000D01*
X115437254Y-81980504D01*
X115425420Y-81981436D01*
X115381211Y-81982826D01*
X115373595Y-81985039D01*
X115373593Y-81985039D01*
X115361752Y-81988479D01*
X115342393Y-81992488D01*
X115341083Y-81992654D01*
X115322303Y-81995026D01*
X115314937Y-81997942D01*
X115314931Y-81997944D01*
X115281198Y-82011300D01*
X115269968Y-82015145D01*
X115235117Y-82025270D01*
X115227507Y-82027481D01*
X115220684Y-82031516D01*
X115210066Y-82037795D01*
X115192313Y-82046492D01*
X115184668Y-82049519D01*
X115173483Y-82053948D01*
X115167068Y-82058609D01*
X115137712Y-82079937D01*
X115127795Y-82086451D01*
X115089738Y-82108958D01*
X115075417Y-82123279D01*
X115060384Y-82136119D01*
X115043993Y-82148028D01*
X115038942Y-82154134D01*
X115015802Y-82182105D01*
X115007812Y-82190884D01*
X112866347Y-84332348D01*
X112858061Y-84339888D01*
X112851582Y-84344000D01*
X112846157Y-84349777D01*
X112804957Y-84393651D01*
X112802202Y-84396493D01*
X112782465Y-84416230D01*
X112779985Y-84419427D01*
X112772282Y-84428447D01*
X112742014Y-84460679D01*
X112738195Y-84467625D01*
X112738193Y-84467628D01*
X112732252Y-84478434D01*
X112721401Y-84494953D01*
X112708986Y-84510959D01*
X112705841Y-84518228D01*
X112705838Y-84518232D01*
X112691426Y-84551537D01*
X112686209Y-84562187D01*
X112664905Y-84600940D01*
X112662934Y-84608615D01*
X112662934Y-84608616D01*
X112659867Y-84620562D01*
X112653463Y-84639266D01*
X112645419Y-84657855D01*
X112644180Y-84665678D01*
X112644177Y-84665688D01*
X112638501Y-84701524D01*
X112636095Y-84713144D01*
X112625100Y-84755970D01*
X112625100Y-84776224D01*
X112623549Y-84795934D01*
X112620380Y-84815943D01*
X112621126Y-84823835D01*
X112624541Y-84859961D01*
X112625100Y-84871819D01*
X112625100Y-86394076D01*
X112605098Y-86462197D01*
X112592742Y-86478379D01*
X112519560Y-86559656D01*
X112424073Y-86725044D01*
X112365058Y-86906672D01*
X112345096Y-87096600D01*
X112345786Y-87103165D01*
X112360379Y-87242006D01*
X112365058Y-87286528D01*
X112424073Y-87468156D01*
X112519560Y-87633544D01*
X112647347Y-87775466D01*
X112801848Y-87887718D01*
X112807876Y-87890402D01*
X112807878Y-87890403D01*
X112970281Y-87962709D01*
X112976312Y-87965394D01*
X113069712Y-87985247D01*
X113156656Y-88003728D01*
X113156661Y-88003728D01*
X113163113Y-88005100D01*
X113354087Y-88005100D01*
X113360539Y-88003728D01*
X113360544Y-88003728D01*
X113447488Y-87985247D01*
X113540888Y-87965394D01*
X113546919Y-87962709D01*
X113709322Y-87890403D01*
X113709324Y-87890402D01*
X113715352Y-87887718D01*
X113869853Y-87775466D01*
X113997640Y-87633544D01*
X114093127Y-87468156D01*
X114152142Y-87286528D01*
X114156822Y-87242006D01*
X114171414Y-87103165D01*
X114172104Y-87096600D01*
X114152142Y-86906672D01*
X114093127Y-86725044D01*
X113997640Y-86559656D01*
X113924463Y-86478385D01*
X113893747Y-86414379D01*
X113892100Y-86394076D01*
X113892100Y-85150594D01*
X113912102Y-85082473D01*
X113929005Y-85061499D01*
X115706599Y-83283905D01*
X115768911Y-83249879D01*
X115795694Y-83247000D01*
X133815105Y-83247000D01*
X133883226Y-83267002D01*
X133929719Y-83320658D01*
X133939823Y-83390932D01*
X133910329Y-83455512D01*
X133904200Y-83462095D01*
X133592747Y-83773548D01*
X133584461Y-83781088D01*
X133577982Y-83785200D01*
X133572557Y-83790977D01*
X133531357Y-83834851D01*
X133528602Y-83837693D01*
X133508865Y-83857430D01*
X133506385Y-83860627D01*
X133498682Y-83869647D01*
X133468414Y-83901879D01*
X133464595Y-83908825D01*
X133464593Y-83908828D01*
X133458652Y-83919634D01*
X133447801Y-83936153D01*
X133435386Y-83952159D01*
X133432241Y-83959428D01*
X133432238Y-83959432D01*
X133417826Y-83992737D01*
X133412609Y-84003387D01*
X133391305Y-84042140D01*
X133389334Y-84049815D01*
X133389334Y-84049816D01*
X133386267Y-84061762D01*
X133379863Y-84080466D01*
X133371819Y-84099055D01*
X133370580Y-84106878D01*
X133370577Y-84106888D01*
X133364901Y-84142724D01*
X133362495Y-84154344D01*
X133351500Y-84197170D01*
X133351500Y-84217424D01*
X133349949Y-84237134D01*
X133346780Y-84257143D01*
X133347526Y-84265035D01*
X133350941Y-84301161D01*
X133351500Y-84313019D01*
X133351500Y-86343276D01*
X133331498Y-86411397D01*
X133319142Y-86427579D01*
X133245960Y-86508856D01*
X133150473Y-86674244D01*
X133091458Y-86855872D01*
X133090768Y-86862433D01*
X133090768Y-86862435D01*
X133086119Y-86906672D01*
X133071496Y-87045800D01*
X133072186Y-87052365D01*
X133078833Y-87115603D01*
X133091458Y-87235728D01*
X133150473Y-87417356D01*
X133245960Y-87582744D01*
X133319137Y-87664015D01*
X133349853Y-87728021D01*
X133351500Y-87748324D01*
X133351500Y-94815633D01*
X133350973Y-94826816D01*
X133349298Y-94834309D01*
X133349547Y-94842235D01*
X133349547Y-94842236D01*
X133351438Y-94902386D01*
X133351500Y-94906345D01*
X133351500Y-94934256D01*
X133351997Y-94938190D01*
X133351997Y-94938191D01*
X133352005Y-94938256D01*
X133352938Y-94950093D01*
X133354327Y-94994289D01*
X133359978Y-95013739D01*
X133363987Y-95033100D01*
X133364801Y-95039539D01*
X133366526Y-95053197D01*
X133369445Y-95060568D01*
X133369445Y-95060570D01*
X133382804Y-95094312D01*
X133386649Y-95105542D01*
X133396771Y-95140383D01*
X133398982Y-95147993D01*
X133403015Y-95154812D01*
X133403017Y-95154817D01*
X133409293Y-95165428D01*
X133417988Y-95183176D01*
X133425448Y-95202017D01*
X133430110Y-95208433D01*
X133430110Y-95208434D01*
X133451436Y-95237787D01*
X133457952Y-95247707D01*
X133470842Y-95269502D01*
X133480458Y-95285762D01*
X133494779Y-95300083D01*
X133507619Y-95315116D01*
X133519528Y-95331507D01*
X133520935Y-95332671D01*
X133551759Y-95393602D01*
X133544469Y-95464224D01*
X133500156Y-95519693D01*
X133427857Y-95542500D01*
X133421376Y-95542500D01*
X133401665Y-95540949D01*
X133389486Y-95539020D01*
X133381657Y-95537780D01*
X133352386Y-95540547D01*
X133337639Y-95541941D01*
X133325781Y-95542500D01*
X123413993Y-95542500D01*
X123402810Y-95541973D01*
X123395317Y-95540298D01*
X123387391Y-95540547D01*
X123387390Y-95540547D01*
X123327240Y-95542438D01*
X123323281Y-95542500D01*
X123295370Y-95542500D01*
X123291436Y-95542997D01*
X123291435Y-95542997D01*
X123291370Y-95543005D01*
X123279533Y-95543938D01*
X123247716Y-95544938D01*
X123243255Y-95545078D01*
X123235336Y-95545327D01*
X123217680Y-95550456D01*
X123215884Y-95550978D01*
X123196532Y-95554986D01*
X123189461Y-95555880D01*
X123176429Y-95557526D01*
X123169060Y-95560443D01*
X123169058Y-95560444D01*
X123135323Y-95573800D01*
X123124095Y-95577645D01*
X123081633Y-95589982D01*
X123074810Y-95594017D01*
X123074808Y-95594018D01*
X123064198Y-95600293D01*
X123046450Y-95608988D01*
X123027609Y-95616448D01*
X123021193Y-95621110D01*
X123021192Y-95621110D01*
X122991839Y-95642436D01*
X122981919Y-95648952D01*
X122950691Y-95667420D01*
X122950688Y-95667422D01*
X122943864Y-95671458D01*
X122929543Y-95685779D01*
X122914510Y-95698619D01*
X122898119Y-95710528D01*
X122893069Y-95716632D01*
X122893064Y-95716637D01*
X122869933Y-95744598D01*
X122861943Y-95753379D01*
X122368225Y-96247096D01*
X122305913Y-96281121D01*
X122279130Y-96284000D01*
X122223239Y-96284000D01*
X122216787Y-96285372D01*
X122216782Y-96285372D01*
X122140908Y-96301500D01*
X122036438Y-96323706D01*
X122030408Y-96326391D01*
X122030407Y-96326391D01*
X121868004Y-96398697D01*
X121868002Y-96398698D01*
X121861974Y-96401382D01*
X121856633Y-96405262D01*
X121856632Y-96405263D01*
X121806569Y-96441636D01*
X121707473Y-96513634D01*
X121692186Y-96530612D01*
X121631743Y-96567850D01*
X121598552Y-96572300D01*
X113811099Y-96572300D01*
X113742978Y-96552298D01*
X113722004Y-96535395D01*
X112462357Y-95275747D01*
X112454817Y-95267461D01*
X112450705Y-95260982D01*
X112436569Y-95247707D01*
X112401054Y-95214357D01*
X112398212Y-95211602D01*
X112378475Y-95191865D01*
X112375278Y-95189385D01*
X112366256Y-95181680D01*
X112348949Y-95165428D01*
X112334026Y-95151414D01*
X112327080Y-95147595D01*
X112327077Y-95147593D01*
X112316271Y-95141652D01*
X112299752Y-95130801D01*
X112299288Y-95130441D01*
X112283746Y-95118386D01*
X112276477Y-95115241D01*
X112276473Y-95115238D01*
X112243168Y-95100826D01*
X112232518Y-95095609D01*
X112193765Y-95074305D01*
X112174142Y-95069267D01*
X112155439Y-95062863D01*
X112144125Y-95057967D01*
X112144124Y-95057967D01*
X112136850Y-95054819D01*
X112129027Y-95053580D01*
X112129017Y-95053577D01*
X112093181Y-95047901D01*
X112081561Y-95045495D01*
X112046416Y-95036472D01*
X112046415Y-95036472D01*
X112038735Y-95034500D01*
X112018481Y-95034500D01*
X111998770Y-95032949D01*
X111986591Y-95031020D01*
X111978762Y-95029780D01*
X111943641Y-95033100D01*
X111934744Y-95033941D01*
X111922886Y-95034500D01*
X109769768Y-95034500D01*
X109758585Y-95033973D01*
X109751092Y-95032298D01*
X109743166Y-95032547D01*
X109743165Y-95032547D01*
X109683002Y-95034438D01*
X109679044Y-95034500D01*
X109651144Y-95034500D01*
X109647154Y-95035004D01*
X109635320Y-95035936D01*
X109591111Y-95037326D01*
X109583497Y-95039538D01*
X109583492Y-95039539D01*
X109571659Y-95042977D01*
X109552296Y-95046988D01*
X109532203Y-95049526D01*
X109524836Y-95052443D01*
X109524831Y-95052444D01*
X109491092Y-95065802D01*
X109479865Y-95069646D01*
X109437407Y-95081982D01*
X109430581Y-95086019D01*
X109419972Y-95092293D01*
X109402224Y-95100988D01*
X109383383Y-95108448D01*
X109376967Y-95113110D01*
X109376966Y-95113110D01*
X109347613Y-95134436D01*
X109337693Y-95140952D01*
X109306465Y-95159420D01*
X109306462Y-95159422D01*
X109299638Y-95163458D01*
X109285317Y-95177779D01*
X109270284Y-95190619D01*
X109253893Y-95202528D01*
X109248840Y-95208636D01*
X109225708Y-95236598D01*
X109217718Y-95245378D01*
X109066301Y-95396795D01*
X109003989Y-95430821D01*
X108977206Y-95433700D01*
X108921313Y-95433700D01*
X108914861Y-95435072D01*
X108914856Y-95435072D01*
X108827913Y-95453553D01*
X108734512Y-95473406D01*
X108728482Y-95476091D01*
X108728481Y-95476091D01*
X108566078Y-95548397D01*
X108566076Y-95548398D01*
X108560048Y-95551082D01*
X108554707Y-95554962D01*
X108554706Y-95554963D01*
X108523487Y-95577645D01*
X108405547Y-95663334D01*
X108401126Y-95668244D01*
X108401125Y-95668245D01*
X108332377Y-95744598D01*
X108277760Y-95805256D01*
X108274459Y-95810974D01*
X108194728Y-95949072D01*
X108182273Y-95970644D01*
X108123258Y-96152272D01*
X108103296Y-96342200D01*
X108123258Y-96532128D01*
X108182273Y-96713756D01*
X108277760Y-96879144D01*
X108282178Y-96884051D01*
X108282179Y-96884052D01*
X108391179Y-97005109D01*
X108405547Y-97021066D01*
X108560048Y-97133318D01*
X108566076Y-97136002D01*
X108566078Y-97136003D01*
X108728481Y-97208309D01*
X108734512Y-97210994D01*
X108827912Y-97230847D01*
X108914856Y-97249328D01*
X108914861Y-97249328D01*
X108921313Y-97250700D01*
X109112287Y-97250700D01*
X109118739Y-97249328D01*
X109118744Y-97249328D01*
X109205688Y-97230847D01*
X109299088Y-97210994D01*
X109305119Y-97208309D01*
X109467522Y-97136003D01*
X109467524Y-97136002D01*
X109473552Y-97133318D01*
X109628053Y-97021066D01*
X109642421Y-97005109D01*
X109751421Y-96884052D01*
X109751422Y-96884051D01*
X109755840Y-96879144D01*
X109851327Y-96713756D01*
X109910342Y-96532128D01*
X109912610Y-96510556D01*
X109922723Y-96414329D01*
X109949736Y-96348673D01*
X110007958Y-96308043D01*
X110048033Y-96301500D01*
X110621828Y-96301500D01*
X110689949Y-96321502D01*
X110736442Y-96375158D01*
X110747138Y-96414330D01*
X110760179Y-96538406D01*
X110764858Y-96582928D01*
X110823873Y-96764556D01*
X110919360Y-96929944D01*
X110923778Y-96934851D01*
X110923779Y-96934852D01*
X111004903Y-97024949D01*
X111047147Y-97071866D01*
X111201648Y-97184118D01*
X111207676Y-97186802D01*
X111207678Y-97186803D01*
X111351194Y-97250700D01*
X111376112Y-97261794D01*
X111469512Y-97281647D01*
X111556456Y-97300128D01*
X111556461Y-97300128D01*
X111562913Y-97301500D01*
X111618806Y-97301500D01*
X111686927Y-97321502D01*
X111707901Y-97338405D01*
X112678743Y-98309247D01*
X112686287Y-98317537D01*
X112690400Y-98324018D01*
X112696177Y-98329443D01*
X112740067Y-98370658D01*
X112742909Y-98373413D01*
X112762630Y-98393134D01*
X112765825Y-98395612D01*
X112774847Y-98403318D01*
X112807079Y-98433586D01*
X112814028Y-98437406D01*
X112824832Y-98443346D01*
X112841356Y-98454199D01*
X112857359Y-98466613D01*
X112897943Y-98484176D01*
X112908573Y-98489383D01*
X112947340Y-98510695D01*
X112955017Y-98512666D01*
X112955022Y-98512668D01*
X112966958Y-98515732D01*
X112985666Y-98522137D01*
X113004255Y-98530181D01*
X113012080Y-98531420D01*
X113012082Y-98531421D01*
X113047919Y-98537097D01*
X113059540Y-98539504D01*
X113091359Y-98547673D01*
X113102370Y-98550500D01*
X113122631Y-98550500D01*
X113142340Y-98552051D01*
X113162343Y-98555219D01*
X113170235Y-98554473D01*
X113175462Y-98553979D01*
X113206354Y-98551059D01*
X113218211Y-98550500D01*
X122603233Y-98550500D01*
X122614416Y-98551027D01*
X122621909Y-98552702D01*
X122629835Y-98552453D01*
X122629836Y-98552453D01*
X122689986Y-98550562D01*
X122693945Y-98550500D01*
X122721856Y-98550500D01*
X122725791Y-98550003D01*
X122725856Y-98549995D01*
X122737693Y-98549062D01*
X122769951Y-98548048D01*
X122773970Y-98547922D01*
X122781889Y-98547673D01*
X122801343Y-98542021D01*
X122820700Y-98538013D01*
X122832930Y-98536468D01*
X122832931Y-98536468D01*
X122840797Y-98535474D01*
X122848168Y-98532555D01*
X122848170Y-98532555D01*
X122881912Y-98519196D01*
X122893142Y-98515351D01*
X122927983Y-98505229D01*
X122927984Y-98505229D01*
X122935593Y-98503018D01*
X122942412Y-98498985D01*
X122942417Y-98498983D01*
X122953028Y-98492707D01*
X122970776Y-98484012D01*
X122989617Y-98476552D01*
X123009987Y-98461753D01*
X123025387Y-98450564D01*
X123035307Y-98444048D01*
X123066535Y-98425580D01*
X123066538Y-98425578D01*
X123073362Y-98421542D01*
X123087683Y-98407221D01*
X123102717Y-98394380D01*
X123104432Y-98393134D01*
X123119107Y-98382472D01*
X123147298Y-98348395D01*
X123155288Y-98339616D01*
X123343699Y-98151205D01*
X123406011Y-98117179D01*
X123432794Y-98114300D01*
X123488687Y-98114300D01*
X123495139Y-98112928D01*
X123495144Y-98112928D01*
X123582088Y-98094447D01*
X123675488Y-98074594D01*
X123681519Y-98071909D01*
X123843922Y-97999603D01*
X123843924Y-97999602D01*
X123849952Y-97996918D01*
X124004453Y-97884666D01*
X124066444Y-97815818D01*
X124127821Y-97747652D01*
X124127822Y-97747651D01*
X124132240Y-97742744D01*
X124186966Y-97647956D01*
X124216097Y-97597500D01*
X124267480Y-97548507D01*
X124325216Y-97534500D01*
X126148543Y-97534500D01*
X126216664Y-97554502D01*
X126263157Y-97608158D01*
X126273853Y-97673670D01*
X126264296Y-97764600D01*
X126284258Y-97954528D01*
X126343273Y-98136156D01*
X126346576Y-98141878D01*
X126346577Y-98141879D01*
X126380486Y-98200610D01*
X126438760Y-98301544D01*
X126443178Y-98306451D01*
X126443179Y-98306452D01*
X126562125Y-98438555D01*
X126566547Y-98443466D01*
X126625819Y-98486530D01*
X126693185Y-98535474D01*
X126721048Y-98555718D01*
X126727076Y-98558402D01*
X126727078Y-98558403D01*
X126889481Y-98630709D01*
X126895512Y-98633394D01*
X126988912Y-98653247D01*
X127075856Y-98671728D01*
X127075861Y-98671728D01*
X127082313Y-98673100D01*
X127138206Y-98673100D01*
X127206327Y-98693102D01*
X127227301Y-98710005D01*
X127410743Y-98893447D01*
X127418287Y-98901737D01*
X127422400Y-98908218D01*
X127428177Y-98913643D01*
X127472067Y-98954858D01*
X127474909Y-98957613D01*
X127494631Y-98977335D01*
X127497773Y-98979772D01*
X127497833Y-98979819D01*
X127506845Y-98987517D01*
X127524405Y-99004006D01*
X127539079Y-99017786D01*
X127546022Y-99021603D01*
X127556831Y-99027545D01*
X127573353Y-99038398D01*
X127589359Y-99050814D01*
X127596637Y-99053964D01*
X127596638Y-99053964D01*
X127629937Y-99068374D01*
X127640587Y-99073591D01*
X127679340Y-99094895D01*
X127687015Y-99096866D01*
X127687016Y-99096866D01*
X127698962Y-99099933D01*
X127717667Y-99106337D01*
X127736255Y-99114381D01*
X127744078Y-99115620D01*
X127744088Y-99115623D01*
X127779924Y-99121299D01*
X127791544Y-99123705D01*
X127826689Y-99132728D01*
X127834370Y-99134700D01*
X127854624Y-99134700D01*
X127874334Y-99136251D01*
X127894343Y-99139420D01*
X127902235Y-99138674D01*
X127938361Y-99135259D01*
X127950219Y-99134700D01*
X131731204Y-99134700D01*
X131799325Y-99154702D01*
X131845818Y-99208358D01*
X131856514Y-99273871D01*
X131854893Y-99289293D01*
X131827879Y-99354950D01*
X131818678Y-99365217D01*
X131713147Y-99470748D01*
X131704861Y-99478288D01*
X131698382Y-99482400D01*
X131692957Y-99488177D01*
X131651757Y-99532051D01*
X131649002Y-99534893D01*
X131629265Y-99554630D01*
X131626785Y-99557827D01*
X131619082Y-99566847D01*
X131588814Y-99599079D01*
X131584995Y-99606025D01*
X131584993Y-99606028D01*
X131579052Y-99616834D01*
X131568201Y-99633353D01*
X131555786Y-99649359D01*
X131552641Y-99656628D01*
X131552638Y-99656632D01*
X131538226Y-99689937D01*
X131533009Y-99700587D01*
X131511705Y-99739340D01*
X131509734Y-99747015D01*
X131509734Y-99747016D01*
X131506667Y-99758962D01*
X131500263Y-99777666D01*
X131492219Y-99796255D01*
X131490980Y-99804078D01*
X131490977Y-99804088D01*
X131485301Y-99839924D01*
X131482895Y-99851544D01*
X131477438Y-99872800D01*
X131471900Y-99894370D01*
X131471900Y-99914624D01*
X131470349Y-99934334D01*
X131467180Y-99954343D01*
X131467926Y-99962235D01*
X131471341Y-99998361D01*
X131471900Y-100010219D01*
X131471900Y-102257833D01*
X131471373Y-102269016D01*
X131469698Y-102276509D01*
X131469947Y-102284435D01*
X131469947Y-102284436D01*
X131471838Y-102344586D01*
X131471900Y-102348545D01*
X131471900Y-102376456D01*
X131472397Y-102380390D01*
X131472397Y-102380391D01*
X131472405Y-102380456D01*
X131473338Y-102392293D01*
X131474727Y-102436489D01*
X131480378Y-102455939D01*
X131484387Y-102475300D01*
X131486926Y-102495397D01*
X131489845Y-102502768D01*
X131489845Y-102502770D01*
X131503204Y-102536512D01*
X131507049Y-102547742D01*
X131517171Y-102582583D01*
X131519382Y-102590193D01*
X131523415Y-102597012D01*
X131523417Y-102597017D01*
X131529693Y-102607628D01*
X131538388Y-102625376D01*
X131545848Y-102644217D01*
X131550510Y-102650633D01*
X131550510Y-102650634D01*
X131571836Y-102679987D01*
X131578352Y-102689907D01*
X131586732Y-102704076D01*
X131600858Y-102727962D01*
X131615179Y-102742283D01*
X131628019Y-102757316D01*
X131639928Y-102773707D01*
X131646034Y-102778758D01*
X131674005Y-102801898D01*
X131682784Y-102809888D01*
X131859553Y-102986657D01*
X131893579Y-103048969D01*
X131896458Y-103075752D01*
X131896458Y-109302263D01*
X131876456Y-109370384D01*
X131822800Y-109416877D01*
X131752526Y-109426981D01*
X131719210Y-109417370D01*
X131555523Y-109344492D01*
X131555515Y-109344489D01*
X131549488Y-109341806D01*
X131456088Y-109321953D01*
X131369144Y-109303472D01*
X131369139Y-109303472D01*
X131362687Y-109302100D01*
X131171713Y-109302100D01*
X131165261Y-109303472D01*
X131165256Y-109303472D01*
X131078312Y-109321953D01*
X130984912Y-109341806D01*
X130978882Y-109344491D01*
X130978881Y-109344491D01*
X130816478Y-109416797D01*
X130816476Y-109416798D01*
X130810448Y-109419482D01*
X130805107Y-109423362D01*
X130805106Y-109423363D01*
X130769409Y-109449299D01*
X130655947Y-109531734D01*
X130528160Y-109673656D01*
X130432673Y-109839044D01*
X130373658Y-110020672D01*
X130372968Y-110027233D01*
X130372968Y-110027235D01*
X130356293Y-110185892D01*
X130329280Y-110251549D01*
X130320078Y-110261818D01*
X130036742Y-110545153D01*
X130028463Y-110552687D01*
X130021982Y-110556800D01*
X129975357Y-110606451D01*
X129972602Y-110609293D01*
X129952865Y-110629030D01*
X129950385Y-110632227D01*
X129942682Y-110641247D01*
X129912414Y-110673479D01*
X129908595Y-110680425D01*
X129908593Y-110680428D01*
X129902652Y-110691234D01*
X129891801Y-110707753D01*
X129879386Y-110723759D01*
X129876241Y-110731028D01*
X129876238Y-110731032D01*
X129861826Y-110764337D01*
X129856609Y-110774987D01*
X129835305Y-110813740D01*
X129833334Y-110821415D01*
X129833334Y-110821416D01*
X129830267Y-110833362D01*
X129823863Y-110852066D01*
X129815819Y-110870655D01*
X129814580Y-110878478D01*
X129814577Y-110878488D01*
X129808901Y-110914324D01*
X129806495Y-110925944D01*
X129795500Y-110968770D01*
X129795500Y-110989024D01*
X129793949Y-111008734D01*
X129790780Y-111028743D01*
X129791526Y-111036635D01*
X129794941Y-111072761D01*
X129795500Y-111084619D01*
X129795500Y-115622911D01*
X129775498Y-115691032D01*
X129721842Y-115737525D01*
X129651568Y-115747629D01*
X129643303Y-115746158D01*
X129565744Y-115729672D01*
X129565739Y-115729672D01*
X129559287Y-115728300D01*
X129368313Y-115728300D01*
X129361861Y-115729672D01*
X129361856Y-115729672D01*
X129284298Y-115746158D01*
X129181512Y-115768006D01*
X129175482Y-115770691D01*
X129175481Y-115770691D01*
X129013078Y-115842997D01*
X129013076Y-115842998D01*
X129007048Y-115845682D01*
X129001707Y-115849562D01*
X129001706Y-115849563D01*
X128874129Y-115942254D01*
X128852547Y-115957934D01*
X128848132Y-115962837D01*
X128843220Y-115967260D01*
X128842095Y-115966011D01*
X128788786Y-115998851D01*
X128755600Y-116003300D01*
X128000395Y-116003300D01*
X127932274Y-115983298D01*
X127911299Y-115966395D01*
X127828643Y-115883738D01*
X127794618Y-115821425D01*
X127791739Y-115794643D01*
X127791739Y-109968458D01*
X127811741Y-109900337D01*
X127824097Y-109884155D01*
X127897279Y-109802878D01*
X127992766Y-109637490D01*
X128051781Y-109455862D01*
X128054817Y-109426981D01*
X128071053Y-109272499D01*
X128071743Y-109265934D01*
X128051781Y-109076006D01*
X127992766Y-108894378D01*
X127979249Y-108870965D01*
X127916893Y-108762963D01*
X127897279Y-108728990D01*
X127769492Y-108587068D01*
X127639804Y-108492844D01*
X127620333Y-108478697D01*
X127620332Y-108478696D01*
X127614991Y-108474816D01*
X127608965Y-108472133D01*
X127608958Y-108472129D01*
X127529291Y-108436660D01*
X127475195Y-108390680D01*
X127455229Y-108334723D01*
X127450008Y-108285045D01*
X127450008Y-108285043D01*
X127449318Y-108278482D01*
X127390303Y-108096854D01*
X127378935Y-108077163D01*
X127353090Y-108032400D01*
X127294816Y-107931466D01*
X127263624Y-107896823D01*
X127171451Y-107794455D01*
X127171450Y-107794454D01*
X127167029Y-107789544D01*
X127059078Y-107711113D01*
X127017870Y-107681173D01*
X127017869Y-107681172D01*
X127012528Y-107677292D01*
X127006500Y-107674608D01*
X127006498Y-107674607D01*
X126912764Y-107632874D01*
X126858668Y-107586894D01*
X126838703Y-107530938D01*
X126835141Y-107497047D01*
X126835141Y-107497046D01*
X126834451Y-107490483D01*
X126775436Y-107308855D01*
X126761411Y-107284562D01*
X126710383Y-107196180D01*
X126679949Y-107143467D01*
X126671430Y-107134005D01*
X126556584Y-107006456D01*
X126556583Y-107006455D01*
X126552162Y-107001545D01*
X126397661Y-106889293D01*
X126364505Y-106874531D01*
X126310409Y-106828552D01*
X126290443Y-106772594D01*
X126279279Y-106666370D01*
X126279279Y-106666368D01*
X126278589Y-106659807D01*
X126219574Y-106478179D01*
X126124087Y-106312791D01*
X126118560Y-106306652D01*
X126000722Y-106175780D01*
X126000721Y-106175779D01*
X125996300Y-106170869D01*
X125868216Y-106077810D01*
X125847141Y-106062498D01*
X125847140Y-106062497D01*
X125841799Y-106058617D01*
X125835771Y-106055933D01*
X125835769Y-106055932D01*
X125673366Y-105983626D01*
X125673365Y-105983626D01*
X125667335Y-105980941D01*
X125554340Y-105956923D01*
X125486991Y-105942607D01*
X125486986Y-105942607D01*
X125480534Y-105941235D01*
X125289560Y-105941235D01*
X125283108Y-105942607D01*
X125283103Y-105942607D01*
X125215754Y-105956923D01*
X125102759Y-105980941D01*
X125096729Y-105983626D01*
X125096728Y-105983626D01*
X124934325Y-106055932D01*
X124934323Y-106055933D01*
X124928295Y-106058617D01*
X124922954Y-106062497D01*
X124922953Y-106062498D01*
X124901878Y-106077810D01*
X124773794Y-106170869D01*
X124769373Y-106175779D01*
X124769372Y-106175780D01*
X124651535Y-106306652D01*
X124646007Y-106312791D01*
X124550520Y-106478179D01*
X124491505Y-106659807D01*
X124490815Y-106666368D01*
X124490815Y-106666370D01*
X124474140Y-106825027D01*
X124447127Y-106890684D01*
X124437925Y-106900952D01*
X124372547Y-106966330D01*
X124364261Y-106973870D01*
X124357782Y-106977982D01*
X124352357Y-106983759D01*
X124311157Y-107027633D01*
X124308402Y-107030475D01*
X124288665Y-107050212D01*
X124286185Y-107053409D01*
X124278482Y-107062429D01*
X124248214Y-107094661D01*
X124244395Y-107101607D01*
X124244393Y-107101610D01*
X124238452Y-107112416D01*
X124227601Y-107128935D01*
X124215186Y-107144941D01*
X124212041Y-107152210D01*
X124212038Y-107152214D01*
X124197626Y-107185519D01*
X124192409Y-107196169D01*
X124171105Y-107234922D01*
X124169134Y-107242597D01*
X124169134Y-107242598D01*
X124166067Y-107254544D01*
X124159663Y-107273248D01*
X124151619Y-107291837D01*
X124150380Y-107299660D01*
X124150377Y-107299670D01*
X124144701Y-107335506D01*
X124142295Y-107347126D01*
X124131300Y-107389952D01*
X124131300Y-107410206D01*
X124129749Y-107429916D01*
X124126580Y-107449925D01*
X124127326Y-107457817D01*
X124130741Y-107493943D01*
X124131300Y-107505801D01*
X124131300Y-118666233D01*
X124130773Y-118677416D01*
X124129098Y-118684909D01*
X124129347Y-118692832D01*
X124129347Y-118692833D01*
X124131238Y-118752986D01*
X124131300Y-118756945D01*
X124131300Y-118784856D01*
X124131797Y-118788790D01*
X124131797Y-118788791D01*
X124131805Y-118788856D01*
X124132738Y-118800693D01*
X124134127Y-118844889D01*
X124138335Y-118859372D01*
X124139778Y-118864339D01*
X124143787Y-118883700D01*
X124146326Y-118903797D01*
X124149245Y-118911168D01*
X124149245Y-118911170D01*
X124162604Y-118944912D01*
X124166449Y-118956142D01*
X124174252Y-118983000D01*
X124178782Y-118998593D01*
X124182815Y-119005412D01*
X124182817Y-119005417D01*
X124189093Y-119016028D01*
X124197788Y-119033776D01*
X124205248Y-119052617D01*
X124209910Y-119059033D01*
X124209910Y-119059034D01*
X124231236Y-119088387D01*
X124237752Y-119098307D01*
X124260258Y-119136362D01*
X124274579Y-119150683D01*
X124287419Y-119165716D01*
X124299328Y-119182107D01*
X124305434Y-119187158D01*
X124333405Y-119210298D01*
X124342184Y-119218288D01*
X127145078Y-122021182D01*
X127179104Y-122083494D01*
X127181292Y-122097103D01*
X127198658Y-122262328D01*
X127257673Y-122443956D01*
X127260976Y-122449678D01*
X127260977Y-122449679D01*
X127268005Y-122461852D01*
X127353160Y-122609344D01*
X127426337Y-122690615D01*
X127457053Y-122754621D01*
X127458700Y-122774924D01*
X127458700Y-123534410D01*
X127438698Y-123602531D01*
X127421795Y-123623505D01*
X126487157Y-124558142D01*
X125573547Y-125471752D01*
X125565261Y-125479292D01*
X125558782Y-125483404D01*
X125553357Y-125489181D01*
X125512157Y-125533055D01*
X125509402Y-125535897D01*
X125489665Y-125555634D01*
X125487185Y-125558831D01*
X125479482Y-125567851D01*
X125449214Y-125600083D01*
X125445395Y-125607029D01*
X125445393Y-125607032D01*
X125439452Y-125617838D01*
X125428601Y-125634357D01*
X125416186Y-125650363D01*
X125413041Y-125657632D01*
X125413038Y-125657636D01*
X125398626Y-125690941D01*
X125393409Y-125701591D01*
X125372105Y-125740344D01*
X125370134Y-125748019D01*
X125370134Y-125748020D01*
X125367067Y-125759966D01*
X125360663Y-125778670D01*
X125352619Y-125797259D01*
X125351380Y-125805082D01*
X125351377Y-125805092D01*
X125345701Y-125840928D01*
X125343295Y-125852548D01*
X125332300Y-125895374D01*
X125332300Y-125915628D01*
X125330749Y-125935338D01*
X125327580Y-125955347D01*
X125328326Y-125963239D01*
X125331741Y-125999365D01*
X125332300Y-126011223D01*
X125332300Y-127922806D01*
X125312298Y-127990927D01*
X125295395Y-128011901D01*
X119597347Y-133709948D01*
X119589061Y-133717488D01*
X119582582Y-133721600D01*
X119577157Y-133727377D01*
X119535957Y-133771251D01*
X119533202Y-133774093D01*
X119513465Y-133793830D01*
X119510985Y-133797027D01*
X119503282Y-133806047D01*
X119473014Y-133838279D01*
X119469195Y-133845225D01*
X119469193Y-133845228D01*
X119463252Y-133856034D01*
X119452401Y-133872553D01*
X119439986Y-133888559D01*
X119436841Y-133895828D01*
X119436838Y-133895832D01*
X119422426Y-133929137D01*
X119417209Y-133939787D01*
X119395905Y-133978540D01*
X119393934Y-133986215D01*
X119393934Y-133986216D01*
X119390867Y-133998162D01*
X119384463Y-134016866D01*
X119376419Y-134035455D01*
X119375180Y-134043278D01*
X119375177Y-134043288D01*
X119369501Y-134079124D01*
X119367095Y-134090744D01*
X119356100Y-134133570D01*
X119356100Y-134153824D01*
X119354549Y-134173534D01*
X119351380Y-134193543D01*
X119352126Y-134201435D01*
X119355541Y-134237561D01*
X119356100Y-134249419D01*
X119356100Y-135187476D01*
X119336098Y-135255597D01*
X119323742Y-135271779D01*
X119250560Y-135353056D01*
X119155073Y-135518444D01*
X119096058Y-135700072D01*
X119095368Y-135706633D01*
X119095368Y-135706635D01*
X119081497Y-135838615D01*
X119076096Y-135890000D01*
X119076786Y-135896565D01*
X119094871Y-136068630D01*
X119096058Y-136079928D01*
X119155073Y-136261556D01*
X119250560Y-136426944D01*
X119254978Y-136431851D01*
X119254979Y-136431852D01*
X119373925Y-136563955D01*
X119378347Y-136568866D01*
X119532848Y-136681118D01*
X119538876Y-136683802D01*
X119538878Y-136683803D01*
X119701281Y-136756109D01*
X119707312Y-136758794D01*
X119800713Y-136778647D01*
X119887656Y-136797128D01*
X119887661Y-136797128D01*
X119894113Y-136798500D01*
X120085087Y-136798500D01*
X120091539Y-136797128D01*
X120091544Y-136797128D01*
X120178487Y-136778647D01*
X120271888Y-136758794D01*
X120277919Y-136756109D01*
X120440322Y-136683803D01*
X120440324Y-136683802D01*
X120446352Y-136681118D01*
X120600853Y-136568866D01*
X120646530Y-136518136D01*
X120706975Y-136480898D01*
X120777959Y-136482250D01*
X120833801Y-136518138D01*
X120902347Y-136594266D01*
X120999596Y-136664922D01*
X121042596Y-136696163D01*
X121056848Y-136706518D01*
X121062876Y-136709202D01*
X121062878Y-136709203D01*
X121170444Y-136757094D01*
X121231312Y-136784194D01*
X121324712Y-136804047D01*
X121411656Y-136822528D01*
X121411661Y-136822528D01*
X121418113Y-136823900D01*
X121609087Y-136823900D01*
X121615539Y-136822528D01*
X121615544Y-136822528D01*
X121702488Y-136804047D01*
X121795888Y-136784194D01*
X121940348Y-136719877D01*
X122010713Y-136710443D01*
X122075010Y-136740549D01*
X122095435Y-136763617D01*
X122133640Y-136819206D01*
X122168750Y-136857791D01*
X122321829Y-137026023D01*
X122325978Y-137030583D01*
X122379709Y-137075509D01*
X122541931Y-137211148D01*
X122541936Y-137211152D01*
X122545223Y-137213900D01*
X122613760Y-137256893D01*
X122783679Y-137363484D01*
X122783683Y-137363486D01*
X122787319Y-137365767D01*
X123047786Y-137483372D01*
X123051905Y-137484592D01*
X123317690Y-137563322D01*
X123317695Y-137563323D01*
X123321803Y-137564540D01*
X123326037Y-137565188D01*
X123326042Y-137565189D01*
X123600059Y-137607119D01*
X123600061Y-137607119D01*
X123604301Y-137607768D01*
X123749788Y-137610054D01*
X123885762Y-137612190D01*
X123885768Y-137612190D01*
X123890053Y-137612257D01*
X124173769Y-137577923D01*
X124450201Y-137505403D01*
X124454161Y-137503763D01*
X124454166Y-137503761D01*
X124620241Y-137434970D01*
X124714233Y-137396037D01*
X124723035Y-137390894D01*
X124957282Y-137254011D01*
X124957283Y-137254011D01*
X124960980Y-137251850D01*
X125050447Y-137181699D01*
X125182503Y-137078153D01*
X125185875Y-137075509D01*
X125384758Y-136870279D01*
X125553947Y-136639955D01*
X125690312Y-136388801D01*
X125776295Y-136161256D01*
X125789813Y-136125482D01*
X125789814Y-136125478D01*
X125791331Y-136121464D01*
X125855132Y-135842891D01*
X125860620Y-135781406D01*
X125880317Y-135560701D01*
X125880537Y-135558236D01*
X125880998Y-135514238D01*
X125880829Y-135511758D01*
X125861852Y-135233390D01*
X125861851Y-135233384D01*
X125861560Y-135229113D01*
X125847158Y-135159566D01*
X125804475Y-134953462D01*
X125803606Y-134949265D01*
X125708209Y-134679871D01*
X125577133Y-134425916D01*
X125558971Y-134400073D01*
X125415271Y-134195610D01*
X125415270Y-134195609D01*
X125412804Y-134192100D01*
X125218264Y-133982749D01*
X125204642Y-133971599D01*
X125083630Y-133872553D01*
X124997111Y-133801738D01*
X124753438Y-133652415D01*
X124491754Y-133537543D01*
X124216901Y-133459250D01*
X123933966Y-133418982D01*
X123783224Y-133418193D01*
X123652470Y-133417508D01*
X123652464Y-133417508D01*
X123648184Y-133417486D01*
X123643936Y-133418045D01*
X123643908Y-133418047D01*
X123574666Y-133402361D01*
X123524896Y-133351730D01*
X123510401Y-133282229D01*
X123535782Y-133215924D01*
X123546903Y-133203201D01*
X126808053Y-129942052D01*
X126816339Y-129934512D01*
X126822818Y-129930400D01*
X126869444Y-129880748D01*
X126872198Y-129877907D01*
X126891935Y-129858170D01*
X126894415Y-129854973D01*
X126902120Y-129845951D01*
X126926959Y-129819500D01*
X126932386Y-129813721D01*
X126936205Y-129806775D01*
X126936207Y-129806772D01*
X126942148Y-129795966D01*
X126952999Y-129779447D01*
X126960558Y-129769701D01*
X126965414Y-129763441D01*
X126968559Y-129756172D01*
X126968562Y-129756168D01*
X126982974Y-129722863D01*
X126988191Y-129712213D01*
X127009495Y-129673460D01*
X127014533Y-129653837D01*
X127020937Y-129635134D01*
X127025833Y-129623820D01*
X127025833Y-129623819D01*
X127028981Y-129616545D01*
X127030220Y-129608722D01*
X127030223Y-129608712D01*
X127035899Y-129572876D01*
X127038305Y-129561256D01*
X127047328Y-129526111D01*
X127047328Y-129526110D01*
X127049300Y-129518430D01*
X127049300Y-129498176D01*
X127050851Y-129478465D01*
X127052780Y-129466286D01*
X127054020Y-129458457D01*
X127049859Y-129414438D01*
X127049300Y-129402581D01*
X127049300Y-126476394D01*
X127069302Y-126408273D01*
X127086205Y-126387299D01*
X129199405Y-124274099D01*
X129261717Y-124240073D01*
X129332532Y-124245138D01*
X129389368Y-124287685D01*
X129414179Y-124354205D01*
X129414500Y-124363194D01*
X129414500Y-137604613D01*
X129394498Y-137672734D01*
X129377595Y-137693708D01*
X127247108Y-139824195D01*
X127184796Y-139858221D01*
X127158013Y-139861100D01*
X121432763Y-139861100D01*
X121421579Y-139860573D01*
X121414091Y-139858899D01*
X121406168Y-139859148D01*
X121346033Y-139861038D01*
X121342075Y-139861100D01*
X121314144Y-139861100D01*
X121310229Y-139861595D01*
X121310225Y-139861595D01*
X121310167Y-139861603D01*
X121310138Y-139861606D01*
X121298296Y-139862539D01*
X121254110Y-139863927D01*
X121236744Y-139868972D01*
X121234658Y-139869578D01*
X121215306Y-139873586D01*
X121208235Y-139874480D01*
X121195203Y-139876126D01*
X121187834Y-139879043D01*
X121187832Y-139879044D01*
X121154097Y-139892400D01*
X121142869Y-139896245D01*
X121100407Y-139908582D01*
X121093585Y-139912616D01*
X121093579Y-139912619D01*
X121082968Y-139918894D01*
X121065218Y-139927590D01*
X121053756Y-139932128D01*
X121053751Y-139932131D01*
X121046383Y-139935048D01*
X121039968Y-139939709D01*
X121010625Y-139961027D01*
X121000707Y-139967543D01*
X120982019Y-139978595D01*
X120962637Y-139990058D01*
X120948313Y-140004382D01*
X120933281Y-140017221D01*
X120916893Y-140029128D01*
X120888712Y-140063193D01*
X120880722Y-140071973D01*
X120724900Y-140227795D01*
X120662588Y-140261821D01*
X120635805Y-140264700D01*
X120579913Y-140264700D01*
X120573461Y-140266072D01*
X120573456Y-140266072D01*
X120486512Y-140284553D01*
X120393112Y-140304406D01*
X120387082Y-140307091D01*
X120387081Y-140307091D01*
X120224678Y-140379397D01*
X120224676Y-140379398D01*
X120218648Y-140382082D01*
X120064147Y-140494334D01*
X120059726Y-140499244D01*
X120059725Y-140499245D01*
X120018407Y-140545134D01*
X119936360Y-140636256D01*
X119840873Y-140801644D01*
X119781858Y-140983272D01*
X119781168Y-140989833D01*
X119781168Y-140989835D01*
X119776519Y-141034072D01*
X119761896Y-141173200D01*
X119762586Y-141179765D01*
X119772284Y-141272032D01*
X119781858Y-141363128D01*
X119840873Y-141544756D01*
X119844176Y-141550478D01*
X119844177Y-141550479D01*
X119866574Y-141589271D01*
X119936360Y-141710144D01*
X119940778Y-141715051D01*
X119940779Y-141715052D01*
X120059725Y-141847155D01*
X120064147Y-141852066D01*
X120218648Y-141964318D01*
X120224676Y-141967002D01*
X120224678Y-141967003D01*
X120387081Y-142039309D01*
X120393112Y-142041994D01*
X120486513Y-142061847D01*
X120573456Y-142080328D01*
X120573461Y-142080328D01*
X120579913Y-142081700D01*
X120770887Y-142081700D01*
X120777339Y-142080328D01*
X120777344Y-142080328D01*
X120864287Y-142061847D01*
X120957688Y-142041994D01*
X120963719Y-142039309D01*
X121126122Y-141967003D01*
X121126124Y-141967002D01*
X121132152Y-141964318D01*
X121286653Y-141852066D01*
X121291075Y-141847155D01*
X121410021Y-141715052D01*
X121410022Y-141715051D01*
X121414440Y-141710144D01*
X121484226Y-141589271D01*
X121506623Y-141550479D01*
X121506624Y-141550478D01*
X121509927Y-141544756D01*
X121568942Y-141363128D01*
X121581786Y-141240929D01*
X121608798Y-141175273D01*
X121667019Y-141134643D01*
X121707095Y-141128100D01*
X123710826Y-141128100D01*
X123778947Y-141148102D01*
X123825440Y-141201758D01*
X123835544Y-141272032D01*
X123806050Y-141336612D01*
X123764076Y-141368295D01*
X123605176Y-141442391D01*
X123605173Y-141442393D01*
X123600195Y-141444714D01*
X123427191Y-141565852D01*
X123277852Y-141715191D01*
X123156714Y-141888195D01*
X123154393Y-141893173D01*
X123154391Y-141893176D01*
X123073731Y-142066153D01*
X123067458Y-142079605D01*
X123066036Y-142084913D01*
X123066035Y-142084915D01*
X123016466Y-142269910D01*
X123012796Y-142283606D01*
X122994389Y-142494000D01*
X123012796Y-142704394D01*
X123014220Y-142709707D01*
X123014220Y-142709709D01*
X123060954Y-142884120D01*
X123067458Y-142908395D01*
X123069780Y-142913376D01*
X123069781Y-142913377D01*
X123134947Y-143053125D01*
X123156714Y-143099805D01*
X123277852Y-143272809D01*
X123427191Y-143422148D01*
X123431699Y-143425305D01*
X123431702Y-143425307D01*
X123524659Y-143490396D01*
X123600194Y-143543286D01*
X123605176Y-143545609D01*
X123605181Y-143545612D01*
X123784189Y-143629084D01*
X123791605Y-143632542D01*
X123796913Y-143633964D01*
X123796915Y-143633965D01*
X123827996Y-143642293D01*
X123888619Y-143679245D01*
X123919640Y-143743106D01*
X123911212Y-143813600D01*
X123866009Y-143868347D01*
X123827996Y-143885707D01*
X123796915Y-143894035D01*
X123796913Y-143894036D01*
X123791605Y-143895458D01*
X123786624Y-143897780D01*
X123786623Y-143897781D01*
X123605176Y-143982391D01*
X123605173Y-143982393D01*
X123600195Y-143984714D01*
X123427191Y-144105852D01*
X123277852Y-144255191D01*
X123156714Y-144428195D01*
X123154393Y-144433173D01*
X123154391Y-144433176D01*
X123069781Y-144614623D01*
X123067458Y-144619605D01*
X123066036Y-144624913D01*
X123066035Y-144624915D01*
X123028537Y-144764860D01*
X123012796Y-144823606D01*
X122994389Y-145034000D01*
X123012796Y-145244394D01*
X123014220Y-145249707D01*
X123014220Y-145249709D01*
X123063296Y-145432861D01*
X123067458Y-145448395D01*
X123156714Y-145639805D01*
X123277852Y-145812809D01*
X123427191Y-145962148D01*
X123431699Y-145965305D01*
X123431702Y-145965307D01*
X123595685Y-146080129D01*
X123600194Y-146083286D01*
X123605176Y-146085609D01*
X123605181Y-146085612D01*
X123786623Y-146170219D01*
X123791605Y-146172542D01*
X123796913Y-146173964D01*
X123796915Y-146173965D01*
X123990291Y-146225780D01*
X123990293Y-146225780D01*
X123995606Y-146227204D01*
X124206000Y-146245611D01*
X124416394Y-146227204D01*
X124421707Y-146225780D01*
X124421709Y-146225780D01*
X124615085Y-146173965D01*
X124615087Y-146173964D01*
X124620395Y-146172542D01*
X124625377Y-146170219D01*
X124806819Y-146085612D01*
X124806824Y-146085609D01*
X124811806Y-146083286D01*
X124816315Y-146080129D01*
X124980298Y-145965307D01*
X124980301Y-145965305D01*
X124984809Y-145962148D01*
X125134148Y-145812809D01*
X125255286Y-145639805D01*
X125344542Y-145448395D01*
X125354293Y-145412004D01*
X125391245Y-145351381D01*
X125455106Y-145320360D01*
X125525600Y-145328788D01*
X125580347Y-145373991D01*
X125597707Y-145412004D01*
X125607458Y-145448395D01*
X125696714Y-145639805D01*
X125817852Y-145812809D01*
X125967191Y-145962148D01*
X125971699Y-145965305D01*
X125971702Y-145965307D01*
X126135685Y-146080129D01*
X126140194Y-146083286D01*
X126145176Y-146085609D01*
X126145181Y-146085612D01*
X126326623Y-146170219D01*
X126331605Y-146172542D01*
X126336913Y-146173964D01*
X126336915Y-146173965D01*
X126530291Y-146225780D01*
X126530293Y-146225780D01*
X126535606Y-146227204D01*
X126746000Y-146245611D01*
X126956394Y-146227204D01*
X126961707Y-146225780D01*
X126961709Y-146225780D01*
X127155085Y-146173965D01*
X127155087Y-146173964D01*
X127160395Y-146172542D01*
X127165377Y-146170219D01*
X127346819Y-146085612D01*
X127346824Y-146085609D01*
X127351806Y-146083286D01*
X127356315Y-146080129D01*
X127404608Y-146046314D01*
X128638046Y-146046314D01*
X128647928Y-146058803D01*
X128703041Y-146095627D01*
X128713146Y-146101114D01*
X128906267Y-146184086D01*
X128917210Y-146187641D01*
X129122209Y-146234028D01*
X129133618Y-146235530D01*
X129343645Y-146243781D01*
X129355129Y-146243179D01*
X129563145Y-146213019D01*
X129574328Y-146210334D01*
X129773362Y-146142771D01*
X129783865Y-146138095D01*
X129926404Y-146058270D01*
X129936266Y-146048194D01*
X129933311Y-146040522D01*
X129298811Y-145406021D01*
X129284868Y-145398408D01*
X129283034Y-145398539D01*
X129276420Y-145402790D01*
X128644239Y-146034972D01*
X128638046Y-146046314D01*
X127404608Y-146046314D01*
X127520298Y-145965307D01*
X127520301Y-145965305D01*
X127524809Y-145962148D01*
X127674148Y-145812809D01*
X127795286Y-145639805D01*
X127884542Y-145448395D01*
X127885965Y-145443085D01*
X127885967Y-145443080D01*
X127893983Y-145413164D01*
X127930935Y-145352542D01*
X127994796Y-145321521D01*
X128065290Y-145329951D01*
X128120037Y-145375154D01*
X128137812Y-145414763D01*
X128142408Y-145432861D01*
X128146250Y-145443710D01*
X128234247Y-145634592D01*
X128239996Y-145644549D01*
X128261112Y-145674427D01*
X128271701Y-145682815D01*
X128285002Y-145675787D01*
X128925658Y-145035132D01*
X129650408Y-145035132D01*
X129650539Y-145036966D01*
X129654790Y-145043580D01*
X130288611Y-145677400D01*
X130300986Y-145684157D01*
X130307566Y-145679231D01*
X130390095Y-145531865D01*
X130394771Y-145521362D01*
X130462334Y-145322328D01*
X130465019Y-145311145D01*
X130495475Y-145101088D01*
X130496105Y-145093705D01*
X130497572Y-145037704D01*
X130497329Y-145030305D01*
X130477908Y-144818945D01*
X130475811Y-144807630D01*
X130418758Y-144605336D01*
X130414636Y-144594597D01*
X130321671Y-144406083D01*
X130315665Y-144396281D01*
X130312510Y-144392056D01*
X130301251Y-144383606D01*
X130288834Y-144390377D01*
X129658021Y-145021189D01*
X129650408Y-145035132D01*
X128925658Y-145035132D01*
X129286000Y-144674790D01*
X129927698Y-144033091D01*
X129934457Y-144020714D01*
X129928426Y-144012658D01*
X129840972Y-143957478D01*
X129830721Y-143952254D01*
X129651283Y-143880666D01*
X129595423Y-143836845D01*
X129572123Y-143769781D01*
X129588779Y-143700766D01*
X129606787Y-143683554D01*
X131928549Y-143683554D01*
X131928846Y-143688706D01*
X131928846Y-143688710D01*
X131939204Y-143868347D01*
X131942018Y-143917146D01*
X131943155Y-143922192D01*
X131943156Y-143922198D01*
X131964055Y-144014931D01*
X131993458Y-144145402D01*
X132036457Y-144251296D01*
X132061191Y-144312209D01*
X132081486Y-144362191D01*
X132084191Y-144366606D01*
X132084192Y-144366607D01*
X132108383Y-144406083D01*
X132203741Y-144561691D01*
X132356937Y-144738546D01*
X132536961Y-144888004D01*
X132541417Y-144890608D01*
X132541420Y-144890610D01*
X132733745Y-145002996D01*
X132738978Y-145006054D01*
X132957563Y-145089523D01*
X132962629Y-145090554D01*
X132962630Y-145090554D01*
X132978118Y-145093705D01*
X133186846Y-145136171D01*
X133318630Y-145141003D01*
X133415504Y-145144556D01*
X133415508Y-145144556D01*
X133420668Y-145144745D01*
X133425788Y-145144089D01*
X133425790Y-145144089D01*
X133647625Y-145115672D01*
X133647628Y-145115671D01*
X133652752Y-145115015D01*
X133699173Y-145101088D01*
X133871908Y-145049265D01*
X133871913Y-145049263D01*
X133876863Y-145047778D01*
X133885432Y-145043580D01*
X134082334Y-144947119D01*
X134082338Y-144947116D01*
X134086983Y-144944841D01*
X134091795Y-144941409D01*
X134273267Y-144811966D01*
X134277470Y-144808968D01*
X134443207Y-144643809D01*
X134579744Y-144453798D01*
X134608171Y-144396281D01*
X134681119Y-144248680D01*
X134681120Y-144248678D01*
X134683413Y-144244038D01*
X134699794Y-144190121D01*
X134749928Y-144025115D01*
X134749929Y-144025109D01*
X134751432Y-144020163D01*
X134765684Y-143911907D01*
X134781535Y-143791507D01*
X134781535Y-143791501D01*
X134781972Y-143788185D01*
X134783677Y-143718438D01*
X134776331Y-143629084D01*
X139601130Y-143629084D01*
X139603306Y-143721403D01*
X139606780Y-143868813D01*
X139607232Y-143888008D01*
X139611480Y-143911977D01*
X139646530Y-144109747D01*
X139652428Y-144143029D01*
X139735680Y-144388279D01*
X139737884Y-144392521D01*
X139737884Y-144392522D01*
X139827789Y-144565596D01*
X139855070Y-144618115D01*
X140007851Y-144827247D01*
X140011222Y-144830636D01*
X140011224Y-144830638D01*
X140068291Y-144888004D01*
X140190508Y-145010863D01*
X140240487Y-145047778D01*
X140394987Y-145161894D01*
X140394991Y-145161896D01*
X140398838Y-145164738D01*
X140403068Y-145166964D01*
X140403072Y-145166966D01*
X140623810Y-145283102D01*
X140628045Y-145285330D01*
X140872857Y-145369864D01*
X140877559Y-145370723D01*
X140877560Y-145370723D01*
X141123667Y-145415670D01*
X141123670Y-145415670D01*
X141127638Y-145416395D01*
X141210506Y-145420738D01*
X141371960Y-145420738D01*
X141374339Y-145420557D01*
X141374340Y-145420557D01*
X141559582Y-145406466D01*
X141559587Y-145406465D01*
X141564349Y-145406103D01*
X141569003Y-145405024D01*
X141569005Y-145405024D01*
X141762586Y-145360154D01*
X141816655Y-145347622D01*
X142057213Y-145251649D01*
X142280485Y-145120394D01*
X142284196Y-145117373D01*
X142284200Y-145117370D01*
X142477623Y-144959899D01*
X142481335Y-144956877D01*
X142655140Y-144764860D01*
X142670343Y-144741848D01*
X142795262Y-144552756D01*
X142797900Y-144548763D01*
X142810991Y-144520368D01*
X142904325Y-144317911D01*
X142904326Y-144317908D01*
X142906331Y-144313559D01*
X142907655Y-144308957D01*
X142976616Y-144069252D01*
X142976617Y-144069248D01*
X142977937Y-144064659D01*
X143011070Y-143807792D01*
X143006974Y-143633968D01*
X143005081Y-143553648D01*
X143005081Y-143553643D01*
X143004968Y-143548868D01*
X142988516Y-143456036D01*
X142960607Y-143298556D01*
X142960606Y-143298550D01*
X142959772Y-143293847D01*
X142952631Y-143272809D01*
X142878057Y-143053125D01*
X142876520Y-143048597D01*
X142860696Y-143018134D01*
X142759339Y-142823013D01*
X142759337Y-142823010D01*
X142757130Y-142818761D01*
X142604349Y-142609629D01*
X142542175Y-142547128D01*
X142489324Y-142494000D01*
X142421692Y-142426013D01*
X142247020Y-142296998D01*
X142217213Y-142274982D01*
X142217209Y-142274980D01*
X142213362Y-142272138D01*
X142209132Y-142269912D01*
X142209128Y-142269910D01*
X141988390Y-142153774D01*
X141988388Y-142153773D01*
X141984155Y-142151546D01*
X141838500Y-142101251D01*
X141743861Y-142068572D01*
X141743860Y-142068572D01*
X141739343Y-142067012D01*
X141734640Y-142066153D01*
X141488533Y-142021206D01*
X141488530Y-142021206D01*
X141484562Y-142020481D01*
X141401694Y-142016138D01*
X141240240Y-142016138D01*
X141237861Y-142016319D01*
X141237860Y-142016319D01*
X141052618Y-142030410D01*
X141052613Y-142030411D01*
X141047851Y-142030773D01*
X141043197Y-142031852D01*
X141043195Y-142031852D01*
X140895210Y-142066153D01*
X140795545Y-142089254D01*
X140554987Y-142185227D01*
X140331715Y-142316482D01*
X140328004Y-142319503D01*
X140328000Y-142319506D01*
X140205679Y-142419091D01*
X140130865Y-142479999D01*
X139957060Y-142672016D01*
X139814300Y-142888113D01*
X139812299Y-142892453D01*
X139812297Y-142892457D01*
X139716708Y-143099805D01*
X139705869Y-143123317D01*
X139704545Y-143127918D01*
X139704545Y-143127919D01*
X139641686Y-143346416D01*
X139634263Y-143372217D01*
X139601130Y-143629084D01*
X134776331Y-143629084D01*
X134772990Y-143588451D01*
X134764929Y-143490396D01*
X134764928Y-143490390D01*
X134764505Y-143485245D01*
X134731513Y-143353899D01*
X134708763Y-143263325D01*
X134708762Y-143263321D01*
X134707504Y-143258314D01*
X134648806Y-143123317D01*
X134616265Y-143048478D01*
X134616263Y-143048475D01*
X134614205Y-143043741D01*
X134487113Y-142847287D01*
X134465026Y-142823013D01*
X134361927Y-142709709D01*
X134329642Y-142674228D01*
X134325591Y-142671029D01*
X134325587Y-142671025D01*
X134150075Y-142532414D01*
X134150071Y-142532412D01*
X134146020Y-142529212D01*
X134118089Y-142513793D01*
X134063303Y-142483550D01*
X133941179Y-142416134D01*
X133936310Y-142414410D01*
X133936306Y-142414408D01*
X133725495Y-142339756D01*
X133725491Y-142339755D01*
X133720620Y-142338030D01*
X133715527Y-142337123D01*
X133715524Y-142337122D01*
X133599649Y-142316482D01*
X133490266Y-142296998D01*
X133402541Y-142295926D01*
X133261473Y-142294202D01*
X133261471Y-142294202D01*
X133256303Y-142294139D01*
X133025016Y-142329531D01*
X132870898Y-142379904D01*
X132807533Y-142400615D01*
X132807531Y-142400616D01*
X132802614Y-142402223D01*
X132798028Y-142404610D01*
X132798024Y-142404612D01*
X132750396Y-142429406D01*
X132595072Y-142510263D01*
X132407961Y-142650749D01*
X132246309Y-142819909D01*
X132243395Y-142824181D01*
X132243394Y-142824182D01*
X132227633Y-142847287D01*
X132114455Y-143013199D01*
X132015941Y-143225429D01*
X132014559Y-143230411D01*
X132014559Y-143230412D01*
X132008135Y-143253578D01*
X131953413Y-143450899D01*
X131928549Y-143683554D01*
X129606787Y-143683554D01*
X129640103Y-143651711D01*
X129665362Y-143641929D01*
X129695085Y-143633965D01*
X129695087Y-143633964D01*
X129700395Y-143632542D01*
X129707811Y-143629084D01*
X129886819Y-143545612D01*
X129886824Y-143545609D01*
X129891806Y-143543286D01*
X129967341Y-143490396D01*
X130060298Y-143425307D01*
X130060301Y-143425305D01*
X130064809Y-143422148D01*
X130214148Y-143272809D01*
X130335286Y-143099805D01*
X130357054Y-143053125D01*
X130422219Y-142913377D01*
X130422220Y-142913376D01*
X130424542Y-142908395D01*
X130431047Y-142884120D01*
X130477780Y-142709709D01*
X130477780Y-142709707D01*
X130479204Y-142704394D01*
X130497611Y-142494000D01*
X130479204Y-142283606D01*
X130475534Y-142269910D01*
X130425965Y-142084915D01*
X130425964Y-142084913D01*
X130424542Y-142079605D01*
X130418269Y-142066153D01*
X130337609Y-141893176D01*
X130337607Y-141893173D01*
X130335286Y-141888195D01*
X130214148Y-141715191D01*
X130064809Y-141565852D01*
X130057255Y-141560563D01*
X130056229Y-141559279D01*
X130056087Y-141559160D01*
X130056111Y-141559131D01*
X130012931Y-141505104D01*
X130005625Y-141434485D01*
X130040437Y-141368259D01*
X132080699Y-139327997D01*
X132143011Y-139293971D01*
X132169794Y-139291092D01*
X132424798Y-139291092D01*
X132492919Y-139311094D01*
X132513893Y-139327997D01*
X134358678Y-141172783D01*
X134392704Y-141235095D01*
X134394893Y-141248708D01*
X134407579Y-141369406D01*
X134412258Y-141413928D01*
X134471273Y-141595556D01*
X134566760Y-141760944D01*
X134571178Y-141765851D01*
X134571179Y-141765852D01*
X134652303Y-141855949D01*
X134694547Y-141902866D01*
X134849048Y-142015118D01*
X134855076Y-142017802D01*
X134855078Y-142017803D01*
X134998594Y-142081700D01*
X135023512Y-142092794D01*
X135116912Y-142112647D01*
X135203856Y-142131128D01*
X135203861Y-142131128D01*
X135210313Y-142132500D01*
X135401287Y-142132500D01*
X135407739Y-142131128D01*
X135407744Y-142131128D01*
X135494688Y-142112647D01*
X135588088Y-142092794D01*
X135613006Y-142081700D01*
X135756522Y-142017803D01*
X135756524Y-142017802D01*
X135762552Y-142015118D01*
X135917053Y-141902866D01*
X135959297Y-141855949D01*
X136040421Y-141765852D01*
X136040422Y-141765851D01*
X136044840Y-141760944D01*
X136140327Y-141595556D01*
X136199342Y-141413928D01*
X136204022Y-141369406D01*
X136218614Y-141230565D01*
X136219304Y-141224000D01*
X136199342Y-141034072D01*
X136140327Y-140852444D01*
X136044840Y-140687056D01*
X135994681Y-140631348D01*
X135921475Y-140550045D01*
X135921474Y-140550044D01*
X135917053Y-140545134D01*
X135762552Y-140432882D01*
X135756524Y-140430198D01*
X135756522Y-140430197D01*
X135594119Y-140357891D01*
X135594118Y-140357891D01*
X135588088Y-140355206D01*
X135494687Y-140335353D01*
X135407744Y-140316872D01*
X135407739Y-140316872D01*
X135401287Y-140315500D01*
X135345394Y-140315500D01*
X135277273Y-140295498D01*
X135256299Y-140278595D01*
X134264371Y-139286666D01*
X133243044Y-138265339D01*
X133235504Y-138257053D01*
X133231392Y-138250574D01*
X133181740Y-138203948D01*
X133178899Y-138201194D01*
X133159162Y-138181457D01*
X133155965Y-138178977D01*
X133146943Y-138171272D01*
X133120492Y-138146433D01*
X133114713Y-138141006D01*
X133107767Y-138137187D01*
X133107764Y-138137185D01*
X133096958Y-138131244D01*
X133080439Y-138120393D01*
X133079975Y-138120033D01*
X133064433Y-138107978D01*
X133057164Y-138104833D01*
X133057160Y-138104830D01*
X133023855Y-138090418D01*
X133013205Y-138085201D01*
X132974452Y-138063897D01*
X132954829Y-138058859D01*
X132936126Y-138052455D01*
X132924812Y-138047559D01*
X132924811Y-138047559D01*
X132917537Y-138044411D01*
X132909714Y-138043172D01*
X132909704Y-138043169D01*
X132873868Y-138037493D01*
X132862248Y-138035087D01*
X132827103Y-138026064D01*
X132827102Y-138026064D01*
X132819422Y-138024092D01*
X132799168Y-138024092D01*
X132779457Y-138022541D01*
X132767278Y-138020612D01*
X132759449Y-138019372D01*
X132751557Y-138020118D01*
X132715431Y-138023533D01*
X132703573Y-138024092D01*
X132607500Y-138024092D01*
X132539379Y-138004090D01*
X132492886Y-137950434D01*
X132481500Y-137898092D01*
X132481500Y-131057100D01*
X132501502Y-130988979D01*
X132555158Y-130942486D01*
X132607500Y-130931100D01*
X132667987Y-130931100D01*
X132674439Y-130929728D01*
X132674444Y-130929728D01*
X132761388Y-130911247D01*
X132854788Y-130891394D01*
X132860819Y-130888709D01*
X133023222Y-130816403D01*
X133023224Y-130816402D01*
X133029252Y-130813718D01*
X133183753Y-130701466D01*
X133311540Y-130559544D01*
X133407027Y-130394156D01*
X133466042Y-130212528D01*
X133486004Y-130022600D01*
X133476882Y-129935807D01*
X133466732Y-129839235D01*
X133466732Y-129839233D01*
X133466042Y-129832672D01*
X133407027Y-129651044D01*
X133383288Y-129609926D01*
X133314841Y-129491374D01*
X133311540Y-129485656D01*
X133183753Y-129343734D01*
X133029252Y-129231482D01*
X133023225Y-129228799D01*
X133023217Y-129228794D01*
X133006250Y-129221240D01*
X132952155Y-129175260D01*
X132931500Y-129106134D01*
X132931500Y-127188750D01*
X132951502Y-127120629D01*
X133005158Y-127074136D01*
X133075432Y-127064032D01*
X133126987Y-127084958D01*
X133127081Y-127084787D01*
X133134025Y-127088605D01*
X133134027Y-127088606D01*
X133144832Y-127094546D01*
X133161356Y-127105399D01*
X133177359Y-127117813D01*
X133217943Y-127135376D01*
X133228573Y-127140583D01*
X133257220Y-127156332D01*
X133290153Y-127182435D01*
X133348347Y-127247066D01*
X133502848Y-127359318D01*
X133508876Y-127362002D01*
X133508878Y-127362003D01*
X133671281Y-127434309D01*
X133677312Y-127436994D01*
X133770712Y-127456847D01*
X133857656Y-127475328D01*
X133857661Y-127475328D01*
X133864113Y-127476700D01*
X134055087Y-127476700D01*
X134061539Y-127475328D01*
X134061544Y-127475328D01*
X134148488Y-127456847D01*
X134241888Y-127436994D01*
X134247919Y-127434309D01*
X134410322Y-127362003D01*
X134410324Y-127362002D01*
X134416352Y-127359318D01*
X134570853Y-127247066D01*
X134666724Y-127140590D01*
X134694221Y-127110052D01*
X134694222Y-127110051D01*
X134698640Y-127105144D01*
X134794127Y-126939756D01*
X134853142Y-126758128D01*
X134873104Y-126568200D01*
X134868311Y-126522594D01*
X134853832Y-126384835D01*
X134853832Y-126384833D01*
X134853142Y-126378272D01*
X134827656Y-126299835D01*
X134825628Y-126228869D01*
X134862290Y-126168071D01*
X134926002Y-126136746D01*
X134947489Y-126134900D01*
X138884633Y-126134900D01*
X138895816Y-126135427D01*
X138903309Y-126137102D01*
X138911235Y-126136853D01*
X138911236Y-126136853D01*
X138971386Y-126134962D01*
X138975345Y-126134900D01*
X139003256Y-126134900D01*
X139007191Y-126134403D01*
X139007256Y-126134395D01*
X139019093Y-126133462D01*
X139051351Y-126132448D01*
X139055370Y-126132322D01*
X139063289Y-126132073D01*
X139082743Y-126126421D01*
X139102100Y-126122413D01*
X139114330Y-126120868D01*
X139114331Y-126120868D01*
X139122197Y-126119874D01*
X139129568Y-126116955D01*
X139129570Y-126116955D01*
X139163312Y-126103596D01*
X139174542Y-126099751D01*
X139209383Y-126089629D01*
X139209384Y-126089629D01*
X139216993Y-126087418D01*
X139223812Y-126083385D01*
X139223817Y-126083383D01*
X139234428Y-126077107D01*
X139252176Y-126068412D01*
X139271017Y-126060952D01*
X139282929Y-126052298D01*
X139306787Y-126034964D01*
X139316707Y-126028448D01*
X139347935Y-126009980D01*
X139347938Y-126009978D01*
X139354762Y-126005942D01*
X139369083Y-125991621D01*
X139384117Y-125978780D01*
X139394094Y-125971531D01*
X139400507Y-125966872D01*
X139428698Y-125932795D01*
X139436688Y-125924016D01*
X141812253Y-123548452D01*
X141820539Y-123540912D01*
X141827018Y-123536800D01*
X141873644Y-123487148D01*
X141876398Y-123484307D01*
X141896135Y-123464570D01*
X141898615Y-123461373D01*
X141906320Y-123452351D01*
X141931159Y-123425900D01*
X141936586Y-123420121D01*
X141940405Y-123413175D01*
X141940407Y-123413172D01*
X141946348Y-123402366D01*
X141957199Y-123385847D01*
X141964758Y-123376101D01*
X141969614Y-123369841D01*
X141972759Y-123362572D01*
X141972762Y-123362568D01*
X141987174Y-123329263D01*
X141992391Y-123318613D01*
X142013695Y-123279860D01*
X142018733Y-123260237D01*
X142025137Y-123241534D01*
X142030033Y-123230220D01*
X142030033Y-123230219D01*
X142033181Y-123222945D01*
X142034420Y-123215122D01*
X142034423Y-123215112D01*
X142040099Y-123179276D01*
X142042505Y-123167656D01*
X142051528Y-123132511D01*
X142051528Y-123132510D01*
X142053500Y-123124830D01*
X142053500Y-123104576D01*
X142055051Y-123084865D01*
X142056980Y-123072686D01*
X142058220Y-123064857D01*
X142054059Y-123020838D01*
X142053500Y-123008981D01*
X142053500Y-121207616D01*
X142073502Y-121139495D01*
X142127158Y-121093002D01*
X142197432Y-121082898D01*
X142230748Y-121092509D01*
X142383477Y-121160508D01*
X142383485Y-121160511D01*
X142389512Y-121163194D01*
X142482913Y-121183047D01*
X142569856Y-121201528D01*
X142569861Y-121201528D01*
X142576313Y-121202900D01*
X142767287Y-121202900D01*
X142773739Y-121201528D01*
X142773744Y-121201528D01*
X142860687Y-121183047D01*
X142954088Y-121163194D01*
X142960121Y-121160508D01*
X143122522Y-121088203D01*
X143122524Y-121088202D01*
X143128552Y-121085518D01*
X143283053Y-120973266D01*
X143378265Y-120867523D01*
X143438710Y-120830283D01*
X143509693Y-120831635D01*
X143568678Y-120871148D01*
X143596936Y-120936279D01*
X143597900Y-120951833D01*
X143597900Y-137025253D01*
X143597898Y-137026023D01*
X143597424Y-137103597D01*
X143599891Y-137112228D01*
X143605550Y-137132029D01*
X143609128Y-137148791D01*
X143613320Y-137178063D01*
X143617034Y-137186231D01*
X143617034Y-137186232D01*
X143623948Y-137201438D01*
X143630396Y-137218962D01*
X143637451Y-137243647D01*
X143642243Y-137251241D01*
X143642244Y-137251244D01*
X143653230Y-137268656D01*
X143661369Y-137283739D01*
X143673608Y-137310658D01*
X143679469Y-137317460D01*
X143690370Y-137330111D01*
X143701473Y-137345115D01*
X143715176Y-137366834D01*
X143721901Y-137372773D01*
X143721904Y-137372777D01*
X143737338Y-137386408D01*
X143749382Y-137398600D01*
X143762827Y-137414203D01*
X143762830Y-137414205D01*
X143768687Y-137421003D01*
X143776216Y-137425883D01*
X143776217Y-137425884D01*
X143790235Y-137434970D01*
X143805109Y-137446261D01*
X143817617Y-137457307D01*
X143824351Y-137463254D01*
X143851111Y-137475818D01*
X143866091Y-137484139D01*
X143883383Y-137495347D01*
X143883388Y-137495349D01*
X143890915Y-137500228D01*
X143899508Y-137502798D01*
X143899513Y-137502800D01*
X143915520Y-137507587D01*
X143932964Y-137514248D01*
X143948076Y-137521343D01*
X143948078Y-137521344D01*
X143956200Y-137525157D01*
X143965067Y-137526538D01*
X143965068Y-137526538D01*
X143967753Y-137526956D01*
X143985417Y-137529706D01*
X144002132Y-137533489D01*
X144021866Y-137539391D01*
X144021872Y-137539392D01*
X144030466Y-137541962D01*
X144039437Y-137542017D01*
X144039438Y-137542017D01*
X144049497Y-137542078D01*
X144064906Y-137542172D01*
X144065689Y-137542205D01*
X144066786Y-137542376D01*
X144097777Y-137542376D01*
X144098547Y-137542378D01*
X144172185Y-137542828D01*
X144172186Y-137542828D01*
X144176121Y-137542852D01*
X144177465Y-137542468D01*
X144178810Y-137542376D01*
X146471900Y-137542376D01*
X146540021Y-137562378D01*
X146586514Y-137616034D01*
X146597900Y-137668376D01*
X146597900Y-146399376D01*
X146577898Y-146467497D01*
X146524242Y-146513990D01*
X146471900Y-146525376D01*
X100964500Y-146525376D01*
X100896379Y-146505374D01*
X100849886Y-146451718D01*
X100838500Y-146399376D01*
X100838500Y-144890372D01*
X113422596Y-144890372D01*
X113427877Y-144897426D01*
X113608537Y-145002996D01*
X113617820Y-145007443D01*
X113826672Y-145087196D01*
X113836574Y-145090073D01*
X114055629Y-145134640D01*
X114065882Y-145135863D01*
X114289281Y-145144055D01*
X114299567Y-145143588D01*
X114521316Y-145115181D01*
X114531402Y-145113038D01*
X114745529Y-145048796D01*
X114755124Y-145045036D01*
X114955884Y-144946684D01*
X114964734Y-144941409D01*
X115025121Y-144898335D01*
X115033521Y-144887635D01*
X115026534Y-144874482D01*
X114242512Y-144090460D01*
X114228568Y-144082846D01*
X114226735Y-144082977D01*
X114220120Y-144087228D01*
X113429356Y-144877992D01*
X113422596Y-144890372D01*
X100838500Y-144890372D01*
X100838500Y-143688723D01*
X112803148Y-143688723D01*
X112816017Y-143911907D01*
X112817453Y-143922128D01*
X112866601Y-144140208D01*
X112869680Y-144150037D01*
X112953791Y-144357177D01*
X112958434Y-144366368D01*
X113049326Y-144514692D01*
X113059782Y-144524152D01*
X113068560Y-144520368D01*
X113857678Y-143731250D01*
X113864056Y-143719570D01*
X114594108Y-143719570D01*
X114594239Y-143721403D01*
X114598490Y-143728018D01*
X115386321Y-144515849D01*
X115398331Y-144522408D01*
X115410070Y-144513440D01*
X115450095Y-144457739D01*
X115455406Y-144448900D01*
X115554453Y-144248495D01*
X115558251Y-144238902D01*
X115623239Y-144025001D01*
X115625416Y-144014931D01*
X115654834Y-143791482D01*
X115655353Y-143784808D01*
X115656893Y-143721803D01*
X115656699Y-143715084D01*
X115638234Y-143490478D01*
X115636551Y-143480316D01*
X115582088Y-143263489D01*
X115578767Y-143253734D01*
X115489627Y-143048728D01*
X115484749Y-143039630D01*
X115409338Y-142923063D01*
X115398652Y-142913859D01*
X115389085Y-142918263D01*
X114601722Y-143705626D01*
X114594108Y-143719570D01*
X113864056Y-143719570D01*
X113865292Y-143717306D01*
X113865161Y-143715473D01*
X113860910Y-143708858D01*
X113073203Y-142921151D01*
X113061667Y-142914851D01*
X113049385Y-142924474D01*
X112991602Y-143009181D01*
X112986516Y-143018134D01*
X112892389Y-143220912D01*
X112888830Y-143230587D01*
X112829088Y-143446010D01*
X112827157Y-143456130D01*
X112803400Y-143678434D01*
X112803148Y-143688723D01*
X100838500Y-143688723D01*
X100838500Y-142548865D01*
X113424923Y-142548865D01*
X113431668Y-142561196D01*
X114216888Y-143346416D01*
X114230832Y-143354030D01*
X114232665Y-143353899D01*
X114239280Y-143349648D01*
X115028943Y-142559985D01*
X115035964Y-142547128D01*
X115028191Y-142536461D01*
X115023601Y-142532836D01*
X115015015Y-142527131D01*
X114819299Y-142419091D01*
X114809900Y-142414866D01*
X114599166Y-142340241D01*
X114589195Y-142337607D01*
X114369107Y-142298403D01*
X114358855Y-142297434D01*
X114135308Y-142294703D01*
X114125024Y-142295423D01*
X113904041Y-142329237D01*
X113894022Y-142331624D01*
X113681522Y-142401080D01*
X113672020Y-142405075D01*
X113473728Y-142508299D01*
X113465003Y-142513793D01*
X113433376Y-142537540D01*
X113424923Y-142548865D01*
X100838500Y-142548865D01*
X100838500Y-137668376D01*
X100858502Y-137600255D01*
X100912158Y-137553762D01*
X100964500Y-137542376D01*
X103321377Y-137542376D01*
X103322148Y-137542378D01*
X103399721Y-137542852D01*
X103422082Y-137536461D01*
X103428153Y-137534726D01*
X103444915Y-137531148D01*
X103445753Y-137531028D01*
X103474187Y-137526956D01*
X103497564Y-137516327D01*
X103515087Y-137509880D01*
X103539771Y-137502825D01*
X103547365Y-137498033D01*
X103547368Y-137498032D01*
X103564780Y-137487046D01*
X103579865Y-137478906D01*
X103606782Y-137466668D01*
X103626235Y-137449906D01*
X103641239Y-137438803D01*
X103662958Y-137425100D01*
X103668897Y-137418375D01*
X103668901Y-137418372D01*
X103682532Y-137402938D01*
X103694724Y-137390894D01*
X103710327Y-137377449D01*
X103710329Y-137377446D01*
X103717127Y-137371589D01*
X103722381Y-137363484D01*
X103731094Y-137350041D01*
X103742385Y-137335167D01*
X103753431Y-137322659D01*
X103753432Y-137322658D01*
X103759378Y-137315925D01*
X103771943Y-137289163D01*
X103780263Y-137274185D01*
X103791471Y-137256893D01*
X103791473Y-137256888D01*
X103796352Y-137249361D01*
X103798922Y-137240768D01*
X103798924Y-137240763D01*
X103803711Y-137224756D01*
X103810372Y-137207312D01*
X103817467Y-137192200D01*
X103817468Y-137192198D01*
X103821281Y-137184076D01*
X103825830Y-137154859D01*
X103829613Y-137138144D01*
X103835515Y-137118410D01*
X103835516Y-137118404D01*
X103838086Y-137109810D01*
X103838296Y-137075370D01*
X103838329Y-137074587D01*
X103838500Y-137073490D01*
X103838500Y-137042499D01*
X103838502Y-137041729D01*
X103838952Y-136968091D01*
X103838952Y-136968090D01*
X103838976Y-136964155D01*
X103838592Y-136962811D01*
X103838500Y-136961466D01*
X103838500Y-136103495D01*
X103858502Y-136035374D01*
X103912158Y-135988881D01*
X103982432Y-135978777D01*
X104047012Y-136008271D01*
X104085396Y-136067997D01*
X104087458Y-136075978D01*
X104106520Y-136161256D01*
X104211404Y-136446323D01*
X104213355Y-136450023D01*
X104213357Y-136450028D01*
X104325678Y-136663062D01*
X104353068Y-136715013D01*
X104529024Y-136962607D01*
X104531868Y-136965657D01*
X104531873Y-136965663D01*
X104733330Y-137181699D01*
X104736180Y-137184755D01*
X104970897Y-137377554D01*
X105229051Y-137537616D01*
X105506106Y-137662129D01*
X105682181Y-137714620D01*
X105793197Y-137747715D01*
X105793199Y-137747716D01*
X105797196Y-137748907D01*
X105801316Y-137749560D01*
X105801318Y-137749560D01*
X105864797Y-137759614D01*
X106097205Y-137796424D01*
X106140089Y-137798371D01*
X106190791Y-137800674D01*
X106190810Y-137800674D01*
X106192210Y-137800738D01*
X106381939Y-137800738D01*
X106607981Y-137785724D01*
X106737472Y-137759614D01*
X106808202Y-137765757D01*
X106864384Y-137809164D01*
X106888178Y-137876055D01*
X106872032Y-137945191D01*
X106851472Y-137972223D01*
X106708500Y-138115195D01*
X106646188Y-138149221D01*
X106619405Y-138152100D01*
X104391000Y-138152100D01*
X104322879Y-138132098D01*
X104303653Y-138115757D01*
X104303380Y-138116060D01*
X104298468Y-138111637D01*
X104294053Y-138106734D01*
X104264409Y-138085196D01*
X104144894Y-137998363D01*
X104144893Y-137998362D01*
X104139552Y-137994482D01*
X104133524Y-137991798D01*
X104133522Y-137991797D01*
X103971119Y-137919491D01*
X103971118Y-137919491D01*
X103965088Y-137916806D01*
X103869777Y-137896547D01*
X103784744Y-137878472D01*
X103784739Y-137878472D01*
X103778287Y-137877100D01*
X103587313Y-137877100D01*
X103580861Y-137878472D01*
X103580856Y-137878472D01*
X103495823Y-137896547D01*
X103400512Y-137916806D01*
X103394482Y-137919491D01*
X103394481Y-137919491D01*
X103232078Y-137991797D01*
X103232076Y-137991798D01*
X103226048Y-137994482D01*
X103071547Y-138106734D01*
X103067126Y-138111644D01*
X103067125Y-138111645D01*
X103033292Y-138149221D01*
X102943760Y-138248656D01*
X102848273Y-138414044D01*
X102789258Y-138595672D01*
X102769296Y-138785600D01*
X102789258Y-138975528D01*
X102848273Y-139157156D01*
X102943760Y-139322544D01*
X102948178Y-139327451D01*
X102948179Y-139327452D01*
X103030252Y-139418603D01*
X103071547Y-139464466D01*
X103226048Y-139576718D01*
X103232076Y-139579402D01*
X103232078Y-139579403D01*
X103394481Y-139651709D01*
X103400512Y-139654394D01*
X103493913Y-139674247D01*
X103580856Y-139692728D01*
X103580861Y-139692728D01*
X103587313Y-139694100D01*
X103778287Y-139694100D01*
X103784739Y-139692728D01*
X103784744Y-139692728D01*
X103871687Y-139674247D01*
X103965088Y-139654394D01*
X103971119Y-139651709D01*
X104133522Y-139579403D01*
X104133524Y-139579402D01*
X104139552Y-139576718D01*
X104294053Y-139464466D01*
X104298468Y-139459563D01*
X104303380Y-139455140D01*
X104304505Y-139456389D01*
X104357814Y-139423549D01*
X104391000Y-139419100D01*
X106855233Y-139419100D01*
X106866416Y-139419627D01*
X106873909Y-139421302D01*
X106881835Y-139421053D01*
X106881836Y-139421053D01*
X106941986Y-139419162D01*
X106945945Y-139419100D01*
X106973856Y-139419100D01*
X106977791Y-139418603D01*
X106977856Y-139418595D01*
X106989693Y-139417662D01*
X107021951Y-139416648D01*
X107025970Y-139416522D01*
X107033889Y-139416273D01*
X107053343Y-139410621D01*
X107072700Y-139406613D01*
X107084930Y-139405068D01*
X107084931Y-139405068D01*
X107092797Y-139404074D01*
X107100168Y-139401155D01*
X107100170Y-139401155D01*
X107133912Y-139387796D01*
X107145142Y-139383951D01*
X107179983Y-139373829D01*
X107179984Y-139373829D01*
X107187593Y-139371618D01*
X107194412Y-139367585D01*
X107194417Y-139367583D01*
X107205028Y-139361307D01*
X107222776Y-139352612D01*
X107241617Y-139345152D01*
X107277387Y-139319164D01*
X107287307Y-139312648D01*
X107318535Y-139294180D01*
X107318538Y-139294178D01*
X107325362Y-139290142D01*
X107339683Y-139275821D01*
X107354717Y-139262980D01*
X107364694Y-139255731D01*
X107371107Y-139251072D01*
X107399298Y-139216995D01*
X107407288Y-139208216D01*
X107656928Y-138958576D01*
X107719240Y-138924550D01*
X107790055Y-138929615D01*
X107846891Y-138972162D01*
X107855139Y-138984666D01*
X107947560Y-139144744D01*
X108075347Y-139286666D01*
X108229848Y-139398918D01*
X108235876Y-139401602D01*
X108235878Y-139401603D01*
X108377072Y-139464466D01*
X108404312Y-139476594D01*
X108497712Y-139496447D01*
X108584656Y-139514928D01*
X108584661Y-139514928D01*
X108591113Y-139516300D01*
X108782087Y-139516300D01*
X108788539Y-139514928D01*
X108788544Y-139514928D01*
X108875488Y-139496447D01*
X108968888Y-139476594D01*
X108996128Y-139464466D01*
X109137322Y-139401603D01*
X109137324Y-139401602D01*
X109143352Y-139398918D01*
X109297853Y-139286666D01*
X109425640Y-139144744D01*
X109521127Y-138979356D01*
X109580142Y-138797728D01*
X109600104Y-138607800D01*
X109580142Y-138417872D01*
X109521127Y-138236244D01*
X109502482Y-138203949D01*
X109454240Y-138120393D01*
X109425640Y-138070856D01*
X109389757Y-138031004D01*
X109359041Y-137967000D01*
X109367804Y-137896547D01*
X109394299Y-137857601D01*
X111703050Y-135548850D01*
X111765362Y-135514824D01*
X111836177Y-135519889D01*
X111893013Y-135562436D01*
X111917455Y-135624774D01*
X111925369Y-135700072D01*
X111933258Y-135775128D01*
X111992273Y-135956756D01*
X112087760Y-136122144D01*
X112092178Y-136127051D01*
X112092179Y-136127052D01*
X112207628Y-136255271D01*
X112215547Y-136264066D01*
X112314643Y-136336064D01*
X112344613Y-136357838D01*
X112370048Y-136376318D01*
X112376076Y-136379002D01*
X112376078Y-136379003D01*
X112535604Y-136450028D01*
X112544512Y-136453994D01*
X112637912Y-136473847D01*
X112724856Y-136492328D01*
X112724861Y-136492328D01*
X112731313Y-136493700D01*
X112922287Y-136493700D01*
X112928739Y-136492328D01*
X112928744Y-136492328D01*
X113015688Y-136473847D01*
X113109088Y-136453994D01*
X113117996Y-136450028D01*
X113277522Y-136379003D01*
X113277524Y-136379002D01*
X113283552Y-136376318D01*
X113308988Y-136357838D01*
X113338957Y-136336064D01*
X113438053Y-136264066D01*
X113445972Y-136255271D01*
X113561421Y-136127052D01*
X113561422Y-136127051D01*
X113565840Y-136122144D01*
X113661327Y-135956756D01*
X113720342Y-135775128D01*
X113728891Y-135693794D01*
X113739614Y-135591765D01*
X113740304Y-135585200D01*
X113725586Y-135445168D01*
X113738358Y-135375330D01*
X113761801Y-135342903D01*
X114721405Y-134383299D01*
X114783717Y-134349273D01*
X114854532Y-134354338D01*
X114911368Y-134396885D01*
X114936179Y-134463405D01*
X114936500Y-134472394D01*
X114936500Y-134882676D01*
X114916498Y-134950797D01*
X114904142Y-134966979D01*
X114830960Y-135048256D01*
X114827659Y-135053974D01*
X114738859Y-135207780D01*
X114735473Y-135213644D01*
X114676458Y-135395272D01*
X114656496Y-135585200D01*
X114657186Y-135591765D01*
X114667910Y-135693794D01*
X114676458Y-135775128D01*
X114735473Y-135956756D01*
X114830960Y-136122144D01*
X114835378Y-136127051D01*
X114835379Y-136127052D01*
X114950828Y-136255271D01*
X114958747Y-136264066D01*
X115057843Y-136336064D01*
X115087813Y-136357838D01*
X115113248Y-136376318D01*
X115119276Y-136379002D01*
X115119278Y-136379003D01*
X115278804Y-136450028D01*
X115287712Y-136453994D01*
X115381112Y-136473847D01*
X115468056Y-136492328D01*
X115468061Y-136492328D01*
X115474513Y-136493700D01*
X115665487Y-136493700D01*
X115671939Y-136492328D01*
X115671944Y-136492328D01*
X115758888Y-136473847D01*
X115852288Y-136453994D01*
X115861196Y-136450028D01*
X116020722Y-136379003D01*
X116020724Y-136379002D01*
X116026752Y-136376318D01*
X116052188Y-136357838D01*
X116082157Y-136336064D01*
X116181253Y-136264066D01*
X116189172Y-136255271D01*
X116304621Y-136127052D01*
X116304622Y-136127051D01*
X116309040Y-136122144D01*
X116404527Y-135956756D01*
X116463542Y-135775128D01*
X116472091Y-135693794D01*
X116482814Y-135591765D01*
X116483504Y-135585200D01*
X116463542Y-135395272D01*
X116404527Y-135213644D01*
X116401142Y-135207780D01*
X116312341Y-135053974D01*
X116309040Y-135048256D01*
X116235863Y-134966985D01*
X116205147Y-134902979D01*
X116203500Y-134882676D01*
X116203500Y-133589790D01*
X116223502Y-133521669D01*
X116240405Y-133500695D01*
X120407247Y-129333853D01*
X120415537Y-129326309D01*
X120422018Y-129322196D01*
X120468659Y-129272528D01*
X120471413Y-129269687D01*
X120491134Y-129249966D01*
X120493612Y-129246771D01*
X120501318Y-129237749D01*
X120526158Y-129211297D01*
X120531586Y-129205517D01*
X120541346Y-129187764D01*
X120552199Y-129171241D01*
X120559753Y-129161502D01*
X120564613Y-129155237D01*
X120582176Y-129114653D01*
X120587383Y-129104023D01*
X120608695Y-129065256D01*
X120610666Y-129057579D01*
X120610668Y-129057574D01*
X120613732Y-129045638D01*
X120620138Y-129026926D01*
X120625033Y-129015615D01*
X120628181Y-129008341D01*
X120629421Y-129000513D01*
X120629423Y-129000506D01*
X120635099Y-128964672D01*
X120637505Y-128953052D01*
X120646528Y-128917907D01*
X120646528Y-128917906D01*
X120648500Y-128910226D01*
X120648500Y-128889972D01*
X120650051Y-128870261D01*
X120651980Y-128858082D01*
X120653220Y-128850253D01*
X120649059Y-128806234D01*
X120648500Y-128794377D01*
X120648500Y-122444724D01*
X120668502Y-122376603D01*
X120680858Y-122360421D01*
X120754040Y-122279144D01*
X120839145Y-122131738D01*
X120846223Y-122119479D01*
X120846224Y-122119478D01*
X120849527Y-122113756D01*
X120908542Y-121932128D01*
X120911890Y-121900279D01*
X120927814Y-121748765D01*
X120928504Y-121742200D01*
X120923449Y-121694106D01*
X120936221Y-121624268D01*
X120959664Y-121591840D01*
X122257105Y-120294400D01*
X123556853Y-118994652D01*
X123565139Y-118987112D01*
X123571618Y-118983000D01*
X123618244Y-118933348D01*
X123620998Y-118930507D01*
X123640735Y-118910770D01*
X123643215Y-118907573D01*
X123650920Y-118898551D01*
X123664866Y-118883700D01*
X123681186Y-118866321D01*
X123685005Y-118859375D01*
X123685007Y-118859372D01*
X123690948Y-118848566D01*
X123701799Y-118832047D01*
X123709358Y-118822301D01*
X123714214Y-118816041D01*
X123717359Y-118808772D01*
X123717362Y-118808768D01*
X123731774Y-118775463D01*
X123736991Y-118764813D01*
X123758295Y-118726060D01*
X123763333Y-118706437D01*
X123769737Y-118687734D01*
X123774633Y-118676420D01*
X123774633Y-118676419D01*
X123777781Y-118669145D01*
X123779020Y-118661322D01*
X123779023Y-118661312D01*
X123784699Y-118625476D01*
X123787105Y-118613856D01*
X123796128Y-118578711D01*
X123796128Y-118578710D01*
X123798100Y-118571030D01*
X123798100Y-118550776D01*
X123799651Y-118531065D01*
X123801580Y-118518886D01*
X123802820Y-118511057D01*
X123798659Y-118467038D01*
X123798100Y-118455181D01*
X123798100Y-107983589D01*
X123798627Y-107972406D01*
X123800302Y-107964913D01*
X123798162Y-107896822D01*
X123798100Y-107892865D01*
X123798100Y-107864966D01*
X123797596Y-107860975D01*
X123796663Y-107849133D01*
X123795523Y-107812858D01*
X123795274Y-107804933D01*
X123793062Y-107797319D01*
X123793061Y-107797314D01*
X123789623Y-107785481D01*
X123785612Y-107766117D01*
X123784067Y-107753886D01*
X123783074Y-107746025D01*
X123780157Y-107738658D01*
X123780156Y-107738653D01*
X123766798Y-107704914D01*
X123762954Y-107693687D01*
X123752830Y-107658844D01*
X123750618Y-107651229D01*
X123740307Y-107633794D01*
X123731612Y-107616046D01*
X123724152Y-107597205D01*
X123698164Y-107561435D01*
X123691648Y-107551515D01*
X123673180Y-107520287D01*
X123673178Y-107520284D01*
X123669142Y-107513460D01*
X123654821Y-107499139D01*
X123641980Y-107484105D01*
X123634732Y-107474129D01*
X123630072Y-107467715D01*
X123596001Y-107439529D01*
X123587222Y-107431540D01*
X123431619Y-107275937D01*
X123397593Y-107213625D01*
X123395404Y-107200012D01*
X123390381Y-107152214D01*
X123379995Y-107053401D01*
X123378729Y-107041354D01*
X123378729Y-107041352D01*
X123378039Y-107034791D01*
X123319024Y-106853163D01*
X123314863Y-106845955D01*
X123254032Y-106740594D01*
X123223537Y-106687775D01*
X123095750Y-106545853D01*
X122941249Y-106433601D01*
X122935221Y-106430917D01*
X122935219Y-106430916D01*
X122772816Y-106358610D01*
X122772815Y-106358610D01*
X122766785Y-106355925D01*
X122663806Y-106334036D01*
X122586441Y-106317591D01*
X122586436Y-106317591D01*
X122579984Y-106316219D01*
X122389010Y-106316219D01*
X122382558Y-106317591D01*
X122382553Y-106317591D01*
X122305188Y-106334036D01*
X122202209Y-106355925D01*
X122196179Y-106358610D01*
X122196178Y-106358610D01*
X122033775Y-106430916D01*
X122033773Y-106430917D01*
X122027745Y-106433601D01*
X121873244Y-106545853D01*
X121745457Y-106687775D01*
X121649970Y-106853163D01*
X121647929Y-106859446D01*
X121647928Y-106859447D01*
X121625541Y-106928346D01*
X121585467Y-106986952D01*
X121531906Y-107012657D01*
X121461965Y-107027523D01*
X121455935Y-107030208D01*
X121455934Y-107030208D01*
X121293531Y-107102514D01*
X121293529Y-107102515D01*
X121287501Y-107105199D01*
X121282160Y-107109079D01*
X121282159Y-107109080D01*
X121254831Y-107128935D01*
X121133000Y-107217451D01*
X121128579Y-107222361D01*
X121128578Y-107222362D01*
X121045041Y-107315140D01*
X121005213Y-107359373D01*
X120970138Y-107420124D01*
X120916251Y-107513460D01*
X120909726Y-107524761D01*
X120868218Y-107652508D01*
X120828146Y-107711113D01*
X120774581Y-107736818D01*
X120767195Y-107738388D01*
X120767194Y-107738388D01*
X120760736Y-107739761D01*
X120754706Y-107742446D01*
X120754705Y-107742446D01*
X120592302Y-107814752D01*
X120592300Y-107814753D01*
X120586272Y-107817437D01*
X120431771Y-107929689D01*
X120427350Y-107934599D01*
X120427349Y-107934600D01*
X120370002Y-107998291D01*
X120303984Y-108071611D01*
X120208497Y-108236999D01*
X120149482Y-108418627D01*
X120148792Y-108425188D01*
X120148792Y-108425190D01*
X120141021Y-108499129D01*
X120129520Y-108608555D01*
X120130210Y-108615120D01*
X120145059Y-108756397D01*
X120149482Y-108798483D01*
X120208497Y-108980111D01*
X120303984Y-109145499D01*
X120431771Y-109287421D01*
X120504737Y-109340434D01*
X120541075Y-109366835D01*
X120586272Y-109399673D01*
X120592300Y-109402357D01*
X120592302Y-109402358D01*
X120754705Y-109474664D01*
X120760736Y-109477349D01*
X120767188Y-109478721D01*
X120767193Y-109478722D01*
X120856497Y-109497704D01*
X120918971Y-109531433D01*
X120953292Y-109593582D01*
X120956300Y-109620951D01*
X120956300Y-117592205D01*
X120936298Y-117660326D01*
X120919395Y-117681300D01*
X119891100Y-118709595D01*
X119828788Y-118743621D01*
X119802005Y-118746500D01*
X118513400Y-118746500D01*
X118445279Y-118726498D01*
X118426053Y-118710157D01*
X118425780Y-118710460D01*
X118420868Y-118706037D01*
X118416453Y-118701134D01*
X118368416Y-118666233D01*
X118267294Y-118592763D01*
X118267293Y-118592762D01*
X118261952Y-118588882D01*
X118255924Y-118586198D01*
X118255922Y-118586197D01*
X118093519Y-118513891D01*
X118093518Y-118513891D01*
X118087488Y-118511206D01*
X117963061Y-118484758D01*
X117907144Y-118472872D01*
X117907139Y-118472872D01*
X117900687Y-118471500D01*
X117709713Y-118471500D01*
X117703261Y-118472872D01*
X117703256Y-118472872D01*
X117647339Y-118484758D01*
X117522912Y-118511206D01*
X117516882Y-118513891D01*
X117516881Y-118513891D01*
X117354478Y-118586197D01*
X117354476Y-118586198D01*
X117348448Y-118588882D01*
X117343107Y-118592762D01*
X117343106Y-118592763D01*
X117314074Y-118613856D01*
X117193947Y-118701134D01*
X117166334Y-118731801D01*
X117105890Y-118769039D01*
X117034906Y-118767687D01*
X116975922Y-118728173D01*
X116947664Y-118663043D01*
X116946700Y-118647489D01*
X116946700Y-115328499D01*
X116966702Y-115260378D01*
X116983605Y-115239404D01*
X118535345Y-113687665D01*
X118597657Y-113653639D01*
X118611271Y-113651450D01*
X118613632Y-113651202D01*
X118620234Y-113651202D01*
X118626686Y-113649830D01*
X118626691Y-113649830D01*
X118713634Y-113631349D01*
X118807035Y-113611496D01*
X118813066Y-113608811D01*
X118975469Y-113536505D01*
X118975471Y-113536504D01*
X118981499Y-113533820D01*
X118992490Y-113525835D01*
X119051365Y-113483059D01*
X119136000Y-113421568D01*
X119146053Y-113410403D01*
X119259368Y-113284554D01*
X119259369Y-113284553D01*
X119263787Y-113279646D01*
X119349926Y-113130449D01*
X119355970Y-113119981D01*
X119355971Y-113119980D01*
X119359274Y-113114258D01*
X119418289Y-112932630D01*
X119420325Y-112913265D01*
X119437561Y-112749267D01*
X119438251Y-112742702D01*
X119418289Y-112552774D01*
X119359274Y-112371146D01*
X119263787Y-112205758D01*
X119253496Y-112194328D01*
X119140422Y-112068747D01*
X119140421Y-112068746D01*
X119136000Y-112063836D01*
X118981499Y-111951584D01*
X118975471Y-111948900D01*
X118975469Y-111948899D01*
X118813066Y-111876593D01*
X118813065Y-111876593D01*
X118807035Y-111873908D01*
X118713635Y-111854055D01*
X118626691Y-111835574D01*
X118626686Y-111835574D01*
X118620234Y-111834202D01*
X118429260Y-111834202D01*
X118422808Y-111835574D01*
X118422803Y-111835574D01*
X118335859Y-111854055D01*
X118242459Y-111873908D01*
X118236429Y-111876593D01*
X118236428Y-111876593D01*
X118074025Y-111948899D01*
X118074023Y-111948900D01*
X118067995Y-111951584D01*
X118062654Y-111955465D01*
X118056936Y-111958766D01*
X118055747Y-111956706D01*
X117999092Y-111976917D01*
X117940656Y-111966229D01*
X117928218Y-111960691D01*
X117808088Y-111907206D01*
X117714687Y-111887353D01*
X117627744Y-111868872D01*
X117627739Y-111868872D01*
X117621287Y-111867500D01*
X117430313Y-111867500D01*
X117423861Y-111868872D01*
X117423856Y-111868872D01*
X117336913Y-111887353D01*
X117243512Y-111907206D01*
X117237482Y-111909891D01*
X117237481Y-111909891D01*
X117075078Y-111982197D01*
X117075076Y-111982198D01*
X117069048Y-111984882D01*
X116914547Y-112097134D01*
X116910126Y-112102044D01*
X116910125Y-112102045D01*
X116816742Y-112205758D01*
X116786760Y-112239056D01*
X116691273Y-112404444D01*
X116632258Y-112586072D01*
X116631568Y-112592633D01*
X116631568Y-112592635D01*
X116614893Y-112751292D01*
X116587880Y-112816949D01*
X116578678Y-112827217D01*
X115470947Y-113934948D01*
X115462661Y-113942488D01*
X115456182Y-113946600D01*
X115450757Y-113952377D01*
X115409557Y-113996251D01*
X115406802Y-113999093D01*
X115387065Y-114018830D01*
X115384585Y-114022027D01*
X115376882Y-114031047D01*
X115346614Y-114063279D01*
X115342795Y-114070225D01*
X115342793Y-114070228D01*
X115336852Y-114081034D01*
X115326001Y-114097553D01*
X115313586Y-114113559D01*
X115310441Y-114120828D01*
X115310438Y-114120832D01*
X115296026Y-114154137D01*
X115290809Y-114164787D01*
X115269505Y-114203540D01*
X115267534Y-114211215D01*
X115267534Y-114211216D01*
X115264467Y-114223162D01*
X115258063Y-114241866D01*
X115250019Y-114260455D01*
X115248780Y-114268278D01*
X115248777Y-114268288D01*
X115243101Y-114304124D01*
X115240695Y-114315744D01*
X115229700Y-114358570D01*
X115229700Y-114378824D01*
X115228149Y-114398534D01*
X115224980Y-114418543D01*
X115225726Y-114426435D01*
X115229141Y-114462561D01*
X115229700Y-114474419D01*
X115229700Y-121723700D01*
X115209698Y-121791821D01*
X115156042Y-121838314D01*
X115103700Y-121849700D01*
X115043213Y-121849700D01*
X115036761Y-121851072D01*
X115036756Y-121851072D01*
X114949813Y-121869553D01*
X114856412Y-121889406D01*
X114850382Y-121892091D01*
X114850381Y-121892091D01*
X114687978Y-121964397D01*
X114687976Y-121964398D01*
X114681948Y-121967082D01*
X114527447Y-122079334D01*
X114523026Y-122084244D01*
X114523025Y-122084245D01*
X114522091Y-122085283D01*
X114399660Y-122221256D01*
X114371917Y-122269308D01*
X114319318Y-122360413D01*
X114304173Y-122386644D01*
X114245158Y-122568272D01*
X114244468Y-122574833D01*
X114244468Y-122574835D01*
X114242244Y-122595999D01*
X114225196Y-122758200D01*
X114225886Y-122764765D01*
X114243147Y-122928991D01*
X114245158Y-122948128D01*
X114304173Y-123129756D01*
X114307476Y-123135478D01*
X114307477Y-123135479D01*
X114362684Y-123231100D01*
X114379422Y-123300095D01*
X114356202Y-123367187D01*
X114300394Y-123411074D01*
X114253565Y-123420100D01*
X109991795Y-123420100D01*
X109923674Y-123400098D01*
X109902699Y-123383195D01*
X109179204Y-122659699D01*
X109145179Y-122597387D01*
X109142300Y-122570604D01*
X109142300Y-115417600D01*
X112472096Y-115417600D01*
X112492058Y-115607528D01*
X112551073Y-115789156D01*
X112554376Y-115794878D01*
X112554377Y-115794879D01*
X112582158Y-115842997D01*
X112646560Y-115954544D01*
X112650978Y-115959451D01*
X112650979Y-115959452D01*
X112672450Y-115983298D01*
X112774347Y-116096466D01*
X112928848Y-116208718D01*
X112934876Y-116211402D01*
X112934878Y-116211403D01*
X113093373Y-116281969D01*
X113103312Y-116286394D01*
X113196712Y-116306247D01*
X113283656Y-116324728D01*
X113283661Y-116324728D01*
X113290113Y-116326100D01*
X113481087Y-116326100D01*
X113487539Y-116324728D01*
X113487544Y-116324728D01*
X113574488Y-116306247D01*
X113667888Y-116286394D01*
X113677827Y-116281969D01*
X113836322Y-116211403D01*
X113836324Y-116211402D01*
X113842352Y-116208718D01*
X113996853Y-116096466D01*
X114098750Y-115983298D01*
X114120221Y-115959452D01*
X114120222Y-115959451D01*
X114124640Y-115954544D01*
X114189042Y-115842997D01*
X114216823Y-115794879D01*
X114216824Y-115794878D01*
X114220127Y-115789156D01*
X114279142Y-115607528D01*
X114299104Y-115417600D01*
X114284254Y-115276309D01*
X114279832Y-115234235D01*
X114279832Y-115234233D01*
X114279142Y-115227672D01*
X114220127Y-115046044D01*
X114124640Y-114880656D01*
X114051463Y-114799385D01*
X114020747Y-114735379D01*
X114019100Y-114715076D01*
X114019100Y-113852594D01*
X114039102Y-113784473D01*
X114056005Y-113763499D01*
X117323900Y-110495605D01*
X117386212Y-110461579D01*
X117412995Y-110458700D01*
X117468887Y-110458700D01*
X117475339Y-110457328D01*
X117475344Y-110457328D01*
X117562287Y-110438847D01*
X117655688Y-110418994D01*
X117661719Y-110416309D01*
X117824122Y-110344003D01*
X117824124Y-110344002D01*
X117830152Y-110341318D01*
X117984653Y-110229066D01*
X118112440Y-110087144D01*
X118207927Y-109921756D01*
X118266942Y-109740128D01*
X118273328Y-109679374D01*
X118286214Y-109556765D01*
X118286904Y-109550200D01*
X118279800Y-109482613D01*
X118267632Y-109366835D01*
X118267632Y-109366833D01*
X118266942Y-109360272D01*
X118207927Y-109178644D01*
X118112440Y-109013256D01*
X117984653Y-108871334D01*
X117884383Y-108798483D01*
X117835494Y-108762963D01*
X117835493Y-108762962D01*
X117830152Y-108759082D01*
X117824124Y-108756398D01*
X117824122Y-108756397D01*
X117661719Y-108684091D01*
X117661718Y-108684091D01*
X117655688Y-108681406D01*
X117562288Y-108661553D01*
X117475344Y-108643072D01*
X117475339Y-108643072D01*
X117468887Y-108641700D01*
X117277913Y-108641700D01*
X117271461Y-108643072D01*
X117271456Y-108643072D01*
X117184512Y-108661553D01*
X117091112Y-108681406D01*
X117085082Y-108684091D01*
X117085081Y-108684091D01*
X116922678Y-108756397D01*
X116922676Y-108756398D01*
X116916648Y-108759082D01*
X116911307Y-108762962D01*
X116911306Y-108762963D01*
X116862417Y-108798483D01*
X116762147Y-108871334D01*
X116634360Y-109013256D01*
X116538873Y-109178644D01*
X116479858Y-109360272D01*
X116465414Y-109497704D01*
X116462493Y-109525493D01*
X116435480Y-109591150D01*
X116426278Y-109601418D01*
X114664301Y-111363394D01*
X112993347Y-113034348D01*
X112985061Y-113041888D01*
X112978582Y-113046000D01*
X112973157Y-113051777D01*
X112931957Y-113095651D01*
X112929202Y-113098493D01*
X112909465Y-113118230D01*
X112906985Y-113121427D01*
X112899282Y-113130447D01*
X112869014Y-113162679D01*
X112865195Y-113169625D01*
X112865193Y-113169628D01*
X112859252Y-113180434D01*
X112848401Y-113196953D01*
X112835986Y-113212959D01*
X112832841Y-113220228D01*
X112832838Y-113220232D01*
X112818426Y-113253537D01*
X112813209Y-113264187D01*
X112791905Y-113302940D01*
X112789934Y-113310615D01*
X112789934Y-113310616D01*
X112786867Y-113322562D01*
X112780463Y-113341266D01*
X112772419Y-113359855D01*
X112771180Y-113367678D01*
X112771177Y-113367688D01*
X112765501Y-113403524D01*
X112763095Y-113415144D01*
X112756944Y-113439102D01*
X112752100Y-113457970D01*
X112752100Y-113478224D01*
X112750549Y-113497934D01*
X112747380Y-113517943D01*
X112748126Y-113525835D01*
X112751541Y-113561961D01*
X112752100Y-113573819D01*
X112752100Y-114715076D01*
X112732098Y-114783197D01*
X112719742Y-114799379D01*
X112646560Y-114880656D01*
X112551073Y-115046044D01*
X112492058Y-115227672D01*
X112491368Y-115234233D01*
X112491368Y-115234235D01*
X112486946Y-115276309D01*
X112472096Y-115417600D01*
X109142300Y-115417600D01*
X109142300Y-106504768D01*
X109142827Y-106493585D01*
X109144502Y-106486092D01*
X109144074Y-106472456D01*
X109142362Y-106418002D01*
X109142300Y-106414044D01*
X109142300Y-106386144D01*
X109141796Y-106382153D01*
X109140863Y-106370311D01*
X109140496Y-106358610D01*
X109139474Y-106326111D01*
X109135604Y-106312791D01*
X109133821Y-106306652D01*
X109129812Y-106287293D01*
X109129646Y-106285983D01*
X109127274Y-106267203D01*
X109124358Y-106259837D01*
X109124356Y-106259831D01*
X109111000Y-106226098D01*
X109107155Y-106214868D01*
X109097030Y-106180017D01*
X109097030Y-106180016D01*
X109094819Y-106172407D01*
X109084505Y-106154966D01*
X109075808Y-106137213D01*
X109071272Y-106125758D01*
X109068352Y-106118383D01*
X109042363Y-106082612D01*
X109035847Y-106072692D01*
X109017378Y-106041463D01*
X109013342Y-106034638D01*
X108999021Y-106020317D01*
X108986180Y-106005283D01*
X108978931Y-105995306D01*
X108974272Y-105988893D01*
X108940195Y-105960702D01*
X108931416Y-105952712D01*
X107703322Y-104724617D01*
X107669296Y-104662305D01*
X107667107Y-104648692D01*
X107650432Y-104490035D01*
X107650432Y-104490033D01*
X107649742Y-104483472D01*
X107590727Y-104301844D01*
X107495240Y-104136456D01*
X107367453Y-103994534D01*
X107212952Y-103882282D01*
X107206924Y-103879598D01*
X107206922Y-103879597D01*
X107044519Y-103807291D01*
X107044518Y-103807291D01*
X107038488Y-103804606D01*
X106945088Y-103784753D01*
X106858144Y-103766272D01*
X106858139Y-103766272D01*
X106851687Y-103764900D01*
X106660713Y-103764900D01*
X106654261Y-103766272D01*
X106654256Y-103766272D01*
X106567313Y-103784753D01*
X106473912Y-103804606D01*
X106467882Y-103807291D01*
X106467881Y-103807291D01*
X106305478Y-103879597D01*
X106305476Y-103879598D01*
X106299448Y-103882282D01*
X106144947Y-103994534D01*
X106017160Y-104136456D01*
X105921673Y-104301844D01*
X105862658Y-104483472D01*
X105842696Y-104673400D01*
X105862658Y-104863328D01*
X105921673Y-105044956D01*
X106017160Y-105210344D01*
X106144947Y-105352266D01*
X106299448Y-105464518D01*
X106305476Y-105467202D01*
X106305478Y-105467203D01*
X106374751Y-105498045D01*
X106473912Y-105542194D01*
X106567312Y-105562047D01*
X106654256Y-105580528D01*
X106654261Y-105580528D01*
X106660713Y-105581900D01*
X106716606Y-105581900D01*
X106784727Y-105601902D01*
X106805701Y-105618805D01*
X107838395Y-106651499D01*
X107872421Y-106713811D01*
X107875300Y-106740594D01*
X107875300Y-122806433D01*
X107874773Y-122817616D01*
X107873098Y-122825109D01*
X107873347Y-122833035D01*
X107873347Y-122833036D01*
X107875238Y-122893186D01*
X107875300Y-122897145D01*
X107875300Y-122925056D01*
X107875797Y-122928990D01*
X107875797Y-122928991D01*
X107875805Y-122929056D01*
X107876738Y-122940893D01*
X107878127Y-122985089D01*
X107883778Y-123004539D01*
X107887787Y-123023900D01*
X107890326Y-123043997D01*
X107893245Y-123051368D01*
X107893245Y-123051370D01*
X107906604Y-123085112D01*
X107910449Y-123096342D01*
X107920571Y-123131183D01*
X107922782Y-123138793D01*
X107926815Y-123145612D01*
X107926817Y-123145617D01*
X107933093Y-123156228D01*
X107941788Y-123173976D01*
X107949248Y-123192817D01*
X107953910Y-123199233D01*
X107953910Y-123199234D01*
X107975236Y-123228587D01*
X107981752Y-123238507D01*
X107994046Y-123259294D01*
X108004258Y-123276562D01*
X108018579Y-123290883D01*
X108031419Y-123305916D01*
X108043328Y-123322307D01*
X108077405Y-123350498D01*
X108086184Y-123358488D01*
X109173548Y-124445853D01*
X109181088Y-124454139D01*
X109185200Y-124460618D01*
X109190977Y-124466043D01*
X109234851Y-124507243D01*
X109237693Y-124509998D01*
X109257430Y-124529735D01*
X109260627Y-124532215D01*
X109269647Y-124539918D01*
X109301879Y-124570186D01*
X109308825Y-124574005D01*
X109308828Y-124574007D01*
X109319634Y-124579948D01*
X109336153Y-124590799D01*
X109352159Y-124603214D01*
X109359428Y-124606359D01*
X109359432Y-124606362D01*
X109392737Y-124620774D01*
X109403387Y-124625991D01*
X109442140Y-124647295D01*
X109449815Y-124649266D01*
X109449816Y-124649266D01*
X109461762Y-124652333D01*
X109480467Y-124658737D01*
X109499055Y-124666781D01*
X109506878Y-124668020D01*
X109506888Y-124668023D01*
X109542724Y-124673699D01*
X109554344Y-124676105D01*
X109586159Y-124684273D01*
X109597170Y-124687100D01*
X109617424Y-124687100D01*
X109637134Y-124688651D01*
X109657143Y-124691820D01*
X109665035Y-124691074D01*
X109683780Y-124689302D01*
X109701162Y-124687659D01*
X109713019Y-124687100D01*
X112579528Y-124687100D01*
X112647649Y-124707102D01*
X112694142Y-124760758D01*
X112704246Y-124831032D01*
X112674752Y-124895612D01*
X112653589Y-124915036D01*
X112571147Y-124974934D01*
X112566732Y-124979837D01*
X112561820Y-124984260D01*
X112560695Y-124983011D01*
X112507386Y-125015851D01*
X112474200Y-125020300D01*
X108848794Y-125020300D01*
X108780673Y-125000298D01*
X108759699Y-124983395D01*
X107325005Y-123548700D01*
X107290979Y-123486388D01*
X107288100Y-123459605D01*
X107288100Y-113478524D01*
X107308102Y-113410403D01*
X107320458Y-113394221D01*
X107393640Y-113312944D01*
X107489127Y-113147556D01*
X107548142Y-112965928D01*
X107568104Y-112776000D01*
X107553481Y-112636872D01*
X107548832Y-112592635D01*
X107548832Y-112592633D01*
X107548142Y-112586072D01*
X107489127Y-112404444D01*
X107393640Y-112239056D01*
X107363659Y-112205758D01*
X107270275Y-112102045D01*
X107270274Y-112102044D01*
X107265853Y-112097134D01*
X107111352Y-111984882D01*
X107105324Y-111982198D01*
X107105322Y-111982197D01*
X106942919Y-111909891D01*
X106942918Y-111909891D01*
X106936888Y-111907206D01*
X106843487Y-111887353D01*
X106756544Y-111868872D01*
X106756539Y-111868872D01*
X106750087Y-111867500D01*
X106559113Y-111867500D01*
X106552661Y-111868872D01*
X106552656Y-111868872D01*
X106465713Y-111887353D01*
X106372312Y-111907206D01*
X106366282Y-111909891D01*
X106366281Y-111909891D01*
X106203878Y-111982197D01*
X106203876Y-111982198D01*
X106197848Y-111984882D01*
X106043347Y-112097134D01*
X106038926Y-112102044D01*
X106038925Y-112102045D01*
X105993185Y-112152845D01*
X105915560Y-112239056D01*
X105914511Y-112240873D01*
X105859613Y-112283205D01*
X105788877Y-112289280D01*
X105726086Y-112256148D01*
X105691174Y-112194328D01*
X105687900Y-112165790D01*
X105687900Y-109566924D01*
X105707902Y-109498803D01*
X105720258Y-109482621D01*
X105793440Y-109401344D01*
X105871619Y-109265934D01*
X105885623Y-109241679D01*
X105885624Y-109241678D01*
X105888927Y-109235956D01*
X105947942Y-109054328D01*
X105955743Y-108980111D01*
X105967214Y-108870965D01*
X105967904Y-108864400D01*
X105947942Y-108674472D01*
X105888927Y-108492844D01*
X105793440Y-108327456D01*
X105665653Y-108185534D01*
X105566557Y-108113536D01*
X105516494Y-108077163D01*
X105516493Y-108077162D01*
X105511152Y-108073282D01*
X105505124Y-108070598D01*
X105505122Y-108070597D01*
X105342719Y-107998291D01*
X105342718Y-107998291D01*
X105336688Y-107995606D01*
X105238635Y-107974764D01*
X105156344Y-107957272D01*
X105156339Y-107957272D01*
X105149887Y-107955900D01*
X104958913Y-107955900D01*
X104952461Y-107957272D01*
X104952456Y-107957272D01*
X104870165Y-107974764D01*
X104772112Y-107995606D01*
X104766082Y-107998291D01*
X104766081Y-107998291D01*
X104603678Y-108070597D01*
X104603676Y-108070598D01*
X104597648Y-108073282D01*
X104592307Y-108077162D01*
X104592306Y-108077163D01*
X104542243Y-108113536D01*
X104443147Y-108185534D01*
X104315360Y-108327456D01*
X104219873Y-108492844D01*
X104160858Y-108674472D01*
X104140896Y-108864400D01*
X104141586Y-108870965D01*
X104153058Y-108980111D01*
X104160858Y-109054328D01*
X104219873Y-109235956D01*
X104223176Y-109241678D01*
X104223177Y-109241679D01*
X104237181Y-109265934D01*
X104315360Y-109401344D01*
X104388537Y-109482615D01*
X104419253Y-109546621D01*
X104420900Y-109566924D01*
X104420900Y-116318085D01*
X104400898Y-116386206D01*
X104388542Y-116402388D01*
X104340760Y-116455456D01*
X104245273Y-116620844D01*
X104186258Y-116802472D01*
X104185568Y-116809033D01*
X104185568Y-116809035D01*
X104169229Y-116964491D01*
X104166296Y-116992400D01*
X104166986Y-116998965D01*
X104185383Y-117173999D01*
X104186258Y-117182328D01*
X104245273Y-117363956D01*
X104340760Y-117529344D01*
X104345178Y-117534251D01*
X104345179Y-117534252D01*
X104464125Y-117666355D01*
X104468547Y-117671266D01*
X104623048Y-117783518D01*
X104629076Y-117786202D01*
X104629078Y-117786203D01*
X104791481Y-117858509D01*
X104797512Y-117861194D01*
X104890913Y-117881047D01*
X104977856Y-117899528D01*
X104977861Y-117899528D01*
X104984313Y-117900900D01*
X105175287Y-117900900D01*
X105181739Y-117899528D01*
X105181744Y-117899528D01*
X105268687Y-117881047D01*
X105362088Y-117861194D01*
X105368119Y-117858509D01*
X105530522Y-117786203D01*
X105530524Y-117786202D01*
X105536552Y-117783518D01*
X105691053Y-117671266D01*
X105700904Y-117660326D01*
X105801464Y-117548642D01*
X105861910Y-117511402D01*
X105932894Y-117512754D01*
X105991878Y-117552267D01*
X106020136Y-117617398D01*
X106021100Y-117632952D01*
X106021100Y-123695433D01*
X106020573Y-123706616D01*
X106018898Y-123714109D01*
X106019147Y-123722035D01*
X106019147Y-123722036D01*
X106021038Y-123782186D01*
X106021100Y-123786145D01*
X106021100Y-123814056D01*
X106021597Y-123817990D01*
X106021597Y-123817991D01*
X106021605Y-123818056D01*
X106022538Y-123829893D01*
X106023927Y-123874089D01*
X106029578Y-123893539D01*
X106033587Y-123912900D01*
X106036126Y-123932997D01*
X106039045Y-123940368D01*
X106039045Y-123940370D01*
X106052404Y-123974112D01*
X106056249Y-123985342D01*
X106068582Y-124027793D01*
X106072615Y-124034612D01*
X106072617Y-124034617D01*
X106078893Y-124045228D01*
X106087588Y-124062976D01*
X106095048Y-124081817D01*
X106099710Y-124088233D01*
X106099710Y-124088234D01*
X106121036Y-124117587D01*
X106127552Y-124127507D01*
X106150058Y-124165562D01*
X106164379Y-124179883D01*
X106177219Y-124194916D01*
X106189128Y-124211307D01*
X106195234Y-124216358D01*
X106223205Y-124239498D01*
X106231984Y-124247488D01*
X108030548Y-126046053D01*
X108038088Y-126054339D01*
X108042200Y-126060818D01*
X108047977Y-126066243D01*
X108091851Y-126107443D01*
X108094693Y-126110198D01*
X108114430Y-126129935D01*
X108117627Y-126132415D01*
X108126647Y-126140118D01*
X108158879Y-126170386D01*
X108165825Y-126174205D01*
X108165828Y-126174207D01*
X108176634Y-126180148D01*
X108193153Y-126190999D01*
X108209159Y-126203414D01*
X108216428Y-126206559D01*
X108216432Y-126206562D01*
X108249737Y-126220974D01*
X108260387Y-126226191D01*
X108299140Y-126247495D01*
X108306815Y-126249466D01*
X108306816Y-126249466D01*
X108318762Y-126252533D01*
X108337467Y-126258937D01*
X108356055Y-126266981D01*
X108363878Y-126268220D01*
X108363888Y-126268223D01*
X108399724Y-126273899D01*
X108411344Y-126276305D01*
X108446489Y-126285328D01*
X108454170Y-126287300D01*
X108474424Y-126287300D01*
X108494134Y-126288851D01*
X108514143Y-126292020D01*
X108522035Y-126291274D01*
X108558161Y-126287859D01*
X108570019Y-126287300D01*
X112474200Y-126287300D01*
X112542321Y-126307302D01*
X112561547Y-126323643D01*
X112561820Y-126323340D01*
X112566732Y-126327763D01*
X112571147Y-126332666D01*
X112592729Y-126348346D01*
X112646343Y-126387299D01*
X112725648Y-126444918D01*
X112731676Y-126447602D01*
X112731678Y-126447603D01*
X112894081Y-126519909D01*
X112900112Y-126522594D01*
X112993512Y-126542447D01*
X113080456Y-126560928D01*
X113080461Y-126560928D01*
X113086913Y-126562300D01*
X113277887Y-126562300D01*
X113284339Y-126560928D01*
X113284344Y-126560928D01*
X113371288Y-126542447D01*
X113464688Y-126522594D01*
X113470719Y-126519909D01*
X113633122Y-126447603D01*
X113633124Y-126447602D01*
X113639152Y-126444918D01*
X113793653Y-126332666D01*
X113830251Y-126292020D01*
X113917021Y-126195652D01*
X113917022Y-126195651D01*
X113921440Y-126190744D01*
X113983425Y-126083383D01*
X114013623Y-126031079D01*
X114013624Y-126031078D01*
X114016927Y-126025356D01*
X114075942Y-125843728D01*
X114087538Y-125733403D01*
X114095214Y-125660365D01*
X114095904Y-125653800D01*
X114085915Y-125558760D01*
X114076632Y-125470435D01*
X114076632Y-125470433D01*
X114075942Y-125463872D01*
X114016927Y-125282244D01*
X113921440Y-125116856D01*
X113793653Y-124974934D01*
X113711211Y-124915036D01*
X113667857Y-124858813D01*
X113661782Y-124788077D01*
X113694914Y-124725286D01*
X113756734Y-124690374D01*
X113785272Y-124687100D01*
X114745328Y-124687100D01*
X114756511Y-124687627D01*
X114764004Y-124689302D01*
X114771930Y-124689053D01*
X114771931Y-124689053D01*
X114832081Y-124687162D01*
X114836040Y-124687100D01*
X114863951Y-124687100D01*
X114867886Y-124686603D01*
X114867951Y-124686595D01*
X114879788Y-124685662D01*
X114912046Y-124684648D01*
X114916065Y-124684522D01*
X114923984Y-124684273D01*
X114943438Y-124678621D01*
X114962795Y-124674613D01*
X114975025Y-124673068D01*
X114975026Y-124673068D01*
X114982892Y-124672074D01*
X114990263Y-124669155D01*
X114990265Y-124669155D01*
X115024007Y-124655796D01*
X115035235Y-124651952D01*
X115064398Y-124643479D01*
X115068546Y-124642274D01*
X115139542Y-124642475D01*
X115199158Y-124681028D01*
X115228468Y-124745693D01*
X115229700Y-124763270D01*
X115229700Y-129541805D01*
X115209698Y-129609926D01*
X115192795Y-129630900D01*
X108763028Y-136060667D01*
X108700716Y-136094693D01*
X108629901Y-136089628D01*
X108573065Y-136047081D01*
X108548254Y-135980561D01*
X108549924Y-135949259D01*
X108561768Y-135883435D01*
X108582235Y-135769682D01*
X108592263Y-135548850D01*
X108595825Y-135470416D01*
X108595825Y-135470411D01*
X108596014Y-135466246D01*
X108589256Y-135388994D01*
X108578071Y-135261150D01*
X108569541Y-135163653D01*
X108503280Y-134867220D01*
X108398396Y-134582153D01*
X108367311Y-134523194D01*
X108258679Y-134317156D01*
X108256732Y-134313463D01*
X108080776Y-134065869D01*
X108077932Y-134062819D01*
X108077927Y-134062813D01*
X107876470Y-133846777D01*
X107876468Y-133846775D01*
X107873620Y-133843721D01*
X107638903Y-133650922D01*
X107380749Y-133490860D01*
X107103694Y-133366347D01*
X106821527Y-133282229D01*
X106816603Y-133280761D01*
X106816601Y-133280760D01*
X106812604Y-133279569D01*
X106808484Y-133278916D01*
X106808482Y-133278916D01*
X106585373Y-133243579D01*
X106512595Y-133232052D01*
X106469711Y-133230105D01*
X106419009Y-133227802D01*
X106418990Y-133227802D01*
X106417590Y-133227738D01*
X106227861Y-133227738D01*
X106001819Y-133242752D01*
X105704063Y-133302790D01*
X105416863Y-133401681D01*
X105413132Y-133403549D01*
X105413128Y-133403551D01*
X105177251Y-133521669D01*
X105145264Y-133537687D01*
X104894040Y-133708419D01*
X104667602Y-133910878D01*
X104469930Y-134141505D01*
X104467656Y-134145007D01*
X104467655Y-134145008D01*
X104335005Y-134349273D01*
X104304497Y-134396251D01*
X104302709Y-134400017D01*
X104302706Y-134400022D01*
X104217983Y-134578448D01*
X104174208Y-134670638D01*
X104172928Y-134674625D01*
X104084468Y-134950147D01*
X104044600Y-135008893D01*
X103979300Y-135036758D01*
X103909301Y-135024896D01*
X103856828Y-134977073D01*
X103838500Y-134911630D01*
X103838500Y-77986623D01*
X103838502Y-77985853D01*
X103838800Y-77937102D01*
X103838976Y-77908279D01*
X103830850Y-77879847D01*
X103827272Y-77863085D01*
X103824352Y-77842698D01*
X103823080Y-77833813D01*
X103812451Y-77810436D01*
X103806004Y-77792913D01*
X103801416Y-77776862D01*
X103798949Y-77768229D01*
X103794156Y-77760632D01*
X103783170Y-77743220D01*
X103775030Y-77728135D01*
X103772564Y-77722711D01*
X103762792Y-77701218D01*
X103746030Y-77681765D01*
X103734927Y-77666761D01*
X103721224Y-77645042D01*
X103714499Y-77639103D01*
X103714496Y-77639099D01*
X103699062Y-77625468D01*
X103687018Y-77613276D01*
X103673573Y-77597673D01*
X103673570Y-77597671D01*
X103667713Y-77590873D01*
X103654009Y-77581990D01*
X103646165Y-77576906D01*
X103631291Y-77565615D01*
X103618783Y-77554569D01*
X103618782Y-77554568D01*
X103612049Y-77548622D01*
X103585287Y-77536057D01*
X103570309Y-77527737D01*
X103553017Y-77516529D01*
X103553012Y-77516527D01*
X103545485Y-77511648D01*
X103536892Y-77509078D01*
X103536887Y-77509076D01*
X103520880Y-77504289D01*
X103503436Y-77497628D01*
X103488324Y-77490533D01*
X103488322Y-77490532D01*
X103480200Y-77486719D01*
X103471333Y-77485338D01*
X103471332Y-77485338D01*
X103460478Y-77483648D01*
X103450983Y-77482170D01*
X103434268Y-77478387D01*
X103414534Y-77472485D01*
X103414528Y-77472484D01*
X103405934Y-77469914D01*
X103396963Y-77469859D01*
X103396962Y-77469859D01*
X103386903Y-77469798D01*
X103371494Y-77469704D01*
X103370711Y-77469671D01*
X103369614Y-77469500D01*
X103338623Y-77469500D01*
X103337853Y-77469498D01*
X103264215Y-77469048D01*
X103264214Y-77469048D01*
X103260279Y-77469024D01*
X103258935Y-77469408D01*
X103257590Y-77469500D01*
X100964500Y-77469500D01*
X100896379Y-77449498D01*
X100849886Y-77395842D01*
X100838500Y-77343500D01*
X100838500Y-70849195D01*
X100858502Y-70781074D01*
X100912158Y-70734581D01*
X100982432Y-70724477D01*
X101025201Y-70738780D01*
X101102787Y-70781433D01*
X101108654Y-70783294D01*
X101108656Y-70783295D01*
X101285436Y-70839373D01*
X101291306Y-70841235D01*
X101445227Y-70858500D01*
X101551769Y-70858500D01*
X101554825Y-70858200D01*
X101554832Y-70858200D01*
X101613340Y-70852463D01*
X101698833Y-70844080D01*
X101704734Y-70842298D01*
X101704736Y-70842298D01*
X101778053Y-70820162D01*
X101888169Y-70786916D01*
X102062796Y-70694066D01*
X102192072Y-70588631D01*
X102211287Y-70572960D01*
X102211290Y-70572957D01*
X102216062Y-70569065D01*
X102221089Y-70562989D01*
X102338201Y-70421425D01*
X102338203Y-70421421D01*
X102342130Y-70416675D01*
X102436198Y-70242701D01*
X102494682Y-70053768D01*
X102496786Y-70033749D01*
X102514711Y-69863204D01*
X102514711Y-69863202D01*
X102515355Y-69857075D01*
X102514067Y-69842925D01*
X107288645Y-69842925D01*
X107289204Y-69849065D01*
X107305891Y-70032423D01*
X107306570Y-70039888D01*
X107308308Y-70045794D01*
X107308309Y-70045798D01*
X107317563Y-70077241D01*
X107362410Y-70229619D01*
X107365263Y-70235077D01*
X107365265Y-70235081D01*
X107381540Y-70266212D01*
X107454040Y-70404890D01*
X107577968Y-70559025D01*
X107582692Y-70562989D01*
X107589933Y-70569065D01*
X107729474Y-70686154D01*
X107734872Y-70689121D01*
X107734877Y-70689125D01*
X107854949Y-70755134D01*
X107902787Y-70781433D01*
X107908654Y-70783294D01*
X107908656Y-70783295D01*
X108085436Y-70839373D01*
X108091306Y-70841235D01*
X108245227Y-70858500D01*
X108351769Y-70858500D01*
X108354825Y-70858200D01*
X108354832Y-70858200D01*
X108413340Y-70852463D01*
X108498833Y-70844080D01*
X108504734Y-70842298D01*
X108504736Y-70842298D01*
X108578053Y-70820162D01*
X108688169Y-70786916D01*
X108862796Y-70694066D01*
X108992072Y-70588631D01*
X109011287Y-70572960D01*
X109011290Y-70572957D01*
X109016062Y-70569065D01*
X109021089Y-70562989D01*
X109138201Y-70421425D01*
X109138203Y-70421421D01*
X109142130Y-70416675D01*
X109236198Y-70242701D01*
X109294682Y-70053768D01*
X109296786Y-70033749D01*
X109314711Y-69863204D01*
X109314711Y-69863202D01*
X109315355Y-69857075D01*
X109299164Y-69679165D01*
X109297989Y-69666251D01*
X109297988Y-69666248D01*
X109297430Y-69660112D01*
X109241590Y-69470381D01*
X109231919Y-69451881D01*
X109191280Y-69374147D01*
X109149960Y-69295110D01*
X109026032Y-69140975D01*
X109019727Y-69135684D01*
X108967280Y-69091676D01*
X108874526Y-69013846D01*
X108869128Y-69010879D01*
X108869123Y-69010875D01*
X108706608Y-68921533D01*
X108706609Y-68921533D01*
X108701213Y-68918567D01*
X108695346Y-68916706D01*
X108695344Y-68916705D01*
X108518564Y-68860627D01*
X108518563Y-68860627D01*
X108512694Y-68858765D01*
X108358773Y-68841500D01*
X108252231Y-68841500D01*
X108249175Y-68841800D01*
X108249168Y-68841800D01*
X108190660Y-68847537D01*
X108105167Y-68855920D01*
X108099266Y-68857702D01*
X108099264Y-68857702D01*
X108025947Y-68879838D01*
X107915831Y-68913084D01*
X107741204Y-69005934D01*
X107662734Y-69069933D01*
X107592713Y-69127040D01*
X107592710Y-69127043D01*
X107587938Y-69130935D01*
X107584011Y-69135682D01*
X107584009Y-69135684D01*
X107465799Y-69278575D01*
X107465797Y-69278579D01*
X107461870Y-69283325D01*
X107367802Y-69457299D01*
X107309318Y-69646232D01*
X107288645Y-69842925D01*
X102514067Y-69842925D01*
X102499164Y-69679165D01*
X102497989Y-69666251D01*
X102497988Y-69666248D01*
X102497430Y-69660112D01*
X102441590Y-69470381D01*
X102431919Y-69451881D01*
X102391280Y-69374147D01*
X102349960Y-69295110D01*
X102226032Y-69140975D01*
X102219727Y-69135684D01*
X102167280Y-69091676D01*
X102074526Y-69013846D01*
X102069128Y-69010879D01*
X102069123Y-69010875D01*
X101906608Y-68921533D01*
X101906609Y-68921533D01*
X101901213Y-68918567D01*
X101895346Y-68916706D01*
X101895344Y-68916705D01*
X101718564Y-68860627D01*
X101718563Y-68860627D01*
X101712694Y-68858765D01*
X101558773Y-68841500D01*
X101452231Y-68841500D01*
X101449175Y-68841800D01*
X101449168Y-68841800D01*
X101390660Y-68847537D01*
X101305167Y-68855920D01*
X101299266Y-68857702D01*
X101299264Y-68857702D01*
X101225947Y-68879838D01*
X101115831Y-68913084D01*
X101110395Y-68915974D01*
X101110391Y-68915976D01*
X101023653Y-68962095D01*
X100954115Y-68976414D01*
X100887875Y-68950866D01*
X100845962Y-68893561D01*
X100838500Y-68850843D01*
X100838500Y-68612500D01*
X100858502Y-68544379D01*
X100912158Y-68497886D01*
X100964500Y-68486500D01*
X118602410Y-68486500D01*
X118670531Y-68506502D01*
G37*
%TD.AperFunction*%
%TA.AperFunction,Conductor*%
G36*
X136981891Y-82205883D02*
G01*
X137005063Y-82224167D01*
X138899230Y-84118335D01*
X138899233Y-84118337D01*
X142280795Y-87499899D01*
X142314821Y-87562211D01*
X142317700Y-87588994D01*
X142317700Y-103297006D01*
X142297698Y-103365127D01*
X142244042Y-103411620D01*
X142173768Y-103421724D01*
X142109188Y-103392230D01*
X142102605Y-103386101D01*
X141917122Y-103200618D01*
X141883096Y-103138306D01*
X141880907Y-103124693D01*
X141864232Y-102966035D01*
X141864232Y-102966033D01*
X141863542Y-102959472D01*
X141804527Y-102777844D01*
X141709040Y-102612456D01*
X141610279Y-102502770D01*
X141585675Y-102475445D01*
X141585674Y-102475444D01*
X141581253Y-102470534D01*
X141451766Y-102376456D01*
X141432094Y-102362163D01*
X141432093Y-102362162D01*
X141426752Y-102358282D01*
X141420724Y-102355598D01*
X141420722Y-102355597D01*
X141258319Y-102283291D01*
X141258318Y-102283291D01*
X141252288Y-102280606D01*
X141145150Y-102257833D01*
X141071944Y-102242272D01*
X141071939Y-102242272D01*
X141065487Y-102240900D01*
X140874513Y-102240900D01*
X140868061Y-102242272D01*
X140868056Y-102242272D01*
X140794850Y-102257833D01*
X140687712Y-102280606D01*
X140681682Y-102283291D01*
X140681681Y-102283291D01*
X140519278Y-102355597D01*
X140519276Y-102355598D01*
X140513248Y-102358282D01*
X140507907Y-102362162D01*
X140507906Y-102362163D01*
X140488234Y-102376456D01*
X140358747Y-102470534D01*
X140354326Y-102475444D01*
X140354325Y-102475445D01*
X140329722Y-102502770D01*
X140230960Y-102612456D01*
X140135473Y-102777844D01*
X140076458Y-102959472D01*
X140075768Y-102966033D01*
X140075768Y-102966035D01*
X140066331Y-103055825D01*
X140056496Y-103149400D01*
X140076458Y-103339328D01*
X140135473Y-103520956D01*
X140230960Y-103686344D01*
X140358747Y-103828266D01*
X140513248Y-103940518D01*
X140519276Y-103943202D01*
X140519278Y-103943203D01*
X140681681Y-104015509D01*
X140687712Y-104018194D01*
X140781112Y-104038047D01*
X140868056Y-104056528D01*
X140868061Y-104056528D01*
X140874513Y-104057900D01*
X140930405Y-104057900D01*
X140998526Y-104077902D01*
X141019501Y-104094805D01*
X141626996Y-104702301D01*
X141661021Y-104764613D01*
X141663900Y-104791396D01*
X141663900Y-105213282D01*
X141643898Y-105281403D01*
X141590242Y-105327896D01*
X141519968Y-105338000D01*
X141486652Y-105328389D01*
X141436123Y-105305892D01*
X141436115Y-105305889D01*
X141430088Y-105303206D01*
X141327514Y-105281403D01*
X141249744Y-105264872D01*
X141249739Y-105264872D01*
X141243287Y-105263500D01*
X141052313Y-105263500D01*
X141045861Y-105264872D01*
X141045856Y-105264872D01*
X140968086Y-105281403D01*
X140865512Y-105303206D01*
X140859482Y-105305891D01*
X140859481Y-105305891D01*
X140697078Y-105378197D01*
X140697076Y-105378198D01*
X140691048Y-105380882D01*
X140536547Y-105493134D01*
X140408760Y-105635056D01*
X140313273Y-105800444D01*
X140254258Y-105982072D01*
X140253568Y-105988633D01*
X140253568Y-105988635D01*
X140239931Y-106118383D01*
X140234296Y-106172000D01*
X140234986Y-106178565D01*
X140250494Y-106326111D01*
X140254258Y-106361928D01*
X140313273Y-106543556D01*
X140316576Y-106549278D01*
X140316577Y-106549279D01*
X140350486Y-106608010D01*
X140408760Y-106708944D01*
X140536547Y-106850866D01*
X140691048Y-106963118D01*
X140697076Y-106965802D01*
X140697078Y-106965803D01*
X140837928Y-107028513D01*
X140865512Y-107040794D01*
X140958913Y-107060647D01*
X141045856Y-107079128D01*
X141045861Y-107079128D01*
X141052313Y-107080500D01*
X141087900Y-107080500D01*
X141156021Y-107100502D01*
X141202514Y-107154158D01*
X141213900Y-107206500D01*
X141213900Y-111792300D01*
X141193898Y-111860421D01*
X141140242Y-111906914D01*
X141087900Y-111918300D01*
X140899913Y-111918300D01*
X140893461Y-111919672D01*
X140893456Y-111919672D01*
X140806512Y-111938153D01*
X140713112Y-111958006D01*
X140707082Y-111960691D01*
X140707081Y-111960691D01*
X140544678Y-112032997D01*
X140544676Y-112032998D01*
X140538648Y-112035682D01*
X140384147Y-112147934D01*
X140379726Y-112152844D01*
X140379725Y-112152845D01*
X140262349Y-112283205D01*
X140256360Y-112289856D01*
X140160873Y-112455244D01*
X140101858Y-112636872D01*
X140081896Y-112826800D01*
X140082586Y-112833365D01*
X140097179Y-112972206D01*
X140101858Y-113016728D01*
X140160873Y-113198356D01*
X140256360Y-113363744D01*
X140304138Y-113416807D01*
X140334854Y-113480813D01*
X140336500Y-113501115D01*
X140336500Y-122543809D01*
X140316498Y-122611930D01*
X140299595Y-122632904D01*
X139574704Y-123357795D01*
X139512392Y-123391821D01*
X139485609Y-123394700D01*
X135725685Y-123394700D01*
X135657564Y-123374698D01*
X135611071Y-123321042D01*
X135600967Y-123250768D01*
X135630461Y-123186188D01*
X135651624Y-123166764D01*
X135748551Y-123096342D01*
X135785680Y-123069366D01*
X135840051Y-123008981D01*
X135909048Y-122932352D01*
X135909049Y-122932351D01*
X135913467Y-122927444D01*
X135972550Y-122825109D01*
X136005650Y-122767779D01*
X136005651Y-122767778D01*
X136008954Y-122762056D01*
X136067969Y-122580428D01*
X136069907Y-122561994D01*
X136080432Y-122461852D01*
X136084994Y-122418441D01*
X136112007Y-122352785D01*
X136119595Y-122345081D01*
X136119218Y-122344727D01*
X136165843Y-122295076D01*
X136168598Y-122292234D01*
X136188335Y-122272497D01*
X136190815Y-122269300D01*
X136198520Y-122260278D01*
X136223359Y-122233827D01*
X136228786Y-122228048D01*
X136232605Y-122221102D01*
X136232607Y-122221099D01*
X136238548Y-122210293D01*
X136249399Y-122193774D01*
X136256958Y-122184028D01*
X136261814Y-122177768D01*
X136264959Y-122170499D01*
X136264962Y-122170495D01*
X136279374Y-122137190D01*
X136284591Y-122126540D01*
X136305895Y-122087787D01*
X136310933Y-122068164D01*
X136317337Y-122049461D01*
X136322233Y-122038147D01*
X136322233Y-122038146D01*
X136325381Y-122030872D01*
X136326620Y-122023049D01*
X136326623Y-122023039D01*
X136332299Y-121987203D01*
X136334705Y-121975583D01*
X136343728Y-121940438D01*
X136343728Y-121940437D01*
X136345700Y-121932757D01*
X136345700Y-121912503D01*
X136347251Y-121892792D01*
X136349180Y-121880613D01*
X136350420Y-121872784D01*
X136346259Y-121828765D01*
X136345700Y-121816908D01*
X136345700Y-118533124D01*
X136365702Y-118465003D01*
X136378058Y-118448821D01*
X136451240Y-118367544D01*
X136546727Y-118202156D01*
X136605742Y-118020528D01*
X136618460Y-117899528D01*
X136625014Y-117837165D01*
X136625704Y-117830600D01*
X136608656Y-117668399D01*
X136606432Y-117647235D01*
X136606432Y-117647233D01*
X136605742Y-117640672D01*
X136546727Y-117459044D01*
X136451240Y-117293656D01*
X136433789Y-117274274D01*
X136327875Y-117156645D01*
X136327874Y-117156644D01*
X136323453Y-117151734D01*
X136224357Y-117079736D01*
X136174294Y-117043363D01*
X136174293Y-117043362D01*
X136168952Y-117039482D01*
X136162924Y-117036798D01*
X136162922Y-117036797D01*
X136000519Y-116964491D01*
X136000518Y-116964491D01*
X135994488Y-116961806D01*
X135901088Y-116941953D01*
X135814144Y-116923472D01*
X135814139Y-116923472D01*
X135807687Y-116922100D01*
X135616713Y-116922100D01*
X135610261Y-116923472D01*
X135610256Y-116923472D01*
X135523312Y-116941953D01*
X135429912Y-116961806D01*
X135423882Y-116964491D01*
X135423881Y-116964491D01*
X135261478Y-117036797D01*
X135261476Y-117036798D01*
X135255448Y-117039482D01*
X135250107Y-117043362D01*
X135250106Y-117043363D01*
X135200043Y-117079736D01*
X135100947Y-117151734D01*
X135096526Y-117156644D01*
X135096525Y-117156645D01*
X134990612Y-117274274D01*
X134973160Y-117293656D01*
X134877673Y-117459044D01*
X134818658Y-117640672D01*
X134817968Y-117647233D01*
X134817968Y-117647235D01*
X134815744Y-117668399D01*
X134798696Y-117830600D01*
X134799386Y-117837165D01*
X134805941Y-117899528D01*
X134818658Y-118020528D01*
X134877673Y-118202156D01*
X134973160Y-118367544D01*
X135046337Y-118448815D01*
X135077053Y-118512821D01*
X135078700Y-118533124D01*
X135078700Y-121380018D01*
X135058698Y-121448139D01*
X135005042Y-121494632D01*
X134978898Y-121503265D01*
X134892139Y-121521706D01*
X134886109Y-121524391D01*
X134886108Y-121524391D01*
X134723705Y-121596697D01*
X134723703Y-121596698D01*
X134717675Y-121599382D01*
X134563174Y-121711634D01*
X134558762Y-121716534D01*
X134558753Y-121716542D01*
X134548886Y-121727501D01*
X134490405Y-121764187D01*
X134485958Y-121765479D01*
X134466597Y-121769488D01*
X134465287Y-121769654D01*
X134446507Y-121772026D01*
X134439141Y-121774942D01*
X134439135Y-121774944D01*
X134405402Y-121788300D01*
X134394172Y-121792145D01*
X134359321Y-121802270D01*
X134351711Y-121804481D01*
X134344888Y-121808516D01*
X134334270Y-121814795D01*
X134316517Y-121823492D01*
X134308872Y-121826519D01*
X134297687Y-121830948D01*
X134291272Y-121835609D01*
X134261916Y-121856937D01*
X134251999Y-121863451D01*
X134213942Y-121885958D01*
X134199621Y-121900279D01*
X134184588Y-121913119D01*
X134168197Y-121925028D01*
X134161803Y-121932757D01*
X134140006Y-121959105D01*
X134132016Y-121967884D01*
X132696595Y-123403304D01*
X132634283Y-123437330D01*
X132563467Y-123432265D01*
X132506632Y-123389718D01*
X132481821Y-123323198D01*
X132481500Y-123314209D01*
X132481500Y-121160683D01*
X132501502Y-121092562D01*
X132518405Y-121071588D01*
X132635047Y-120954946D01*
X132643337Y-120947402D01*
X132649818Y-120943289D01*
X132696459Y-120893621D01*
X132699213Y-120890780D01*
X132718935Y-120871058D01*
X132721412Y-120867865D01*
X132729117Y-120858844D01*
X132753959Y-120832389D01*
X132759386Y-120826610D01*
X132763207Y-120819660D01*
X132769146Y-120808857D01*
X132780002Y-120792330D01*
X132787557Y-120782591D01*
X132787558Y-120782589D01*
X132792414Y-120776329D01*
X132809974Y-120735749D01*
X132815191Y-120725101D01*
X132832675Y-120693298D01*
X132832676Y-120693296D01*
X132836495Y-120686349D01*
X132841533Y-120666726D01*
X132847937Y-120648023D01*
X132852833Y-120636709D01*
X132852833Y-120636708D01*
X132855981Y-120629434D01*
X132857220Y-120621611D01*
X132857223Y-120621601D01*
X132862899Y-120585765D01*
X132865305Y-120574145D01*
X132874328Y-120539000D01*
X132874328Y-120538999D01*
X132876300Y-120531319D01*
X132876300Y-120511065D01*
X132877851Y-120491354D01*
X132879780Y-120479175D01*
X132881020Y-120471346D01*
X132876859Y-120427327D01*
X132876300Y-120415470D01*
X132876300Y-119769378D01*
X132896302Y-119701257D01*
X132913205Y-119680283D01*
X133056447Y-119537041D01*
X133064737Y-119529497D01*
X133071218Y-119525384D01*
X133117859Y-119475716D01*
X133120613Y-119472875D01*
X133140335Y-119453153D01*
X133142812Y-119449960D01*
X133150517Y-119440939D01*
X133175359Y-119414484D01*
X133180786Y-119408705D01*
X133184607Y-119401755D01*
X133190546Y-119390952D01*
X133201402Y-119374425D01*
X133208957Y-119364686D01*
X133208958Y-119364684D01*
X133213814Y-119358424D01*
X133231374Y-119317844D01*
X133236591Y-119307196D01*
X133254075Y-119275393D01*
X133254076Y-119275391D01*
X133257895Y-119268444D01*
X133262933Y-119248821D01*
X133269337Y-119230118D01*
X133274233Y-119218804D01*
X133274233Y-119218803D01*
X133277381Y-119211529D01*
X133278620Y-119203706D01*
X133278623Y-119203696D01*
X133284299Y-119167860D01*
X133286705Y-119156240D01*
X133295728Y-119121095D01*
X133295728Y-119121094D01*
X133297700Y-119113414D01*
X133297700Y-119093160D01*
X133299251Y-119073449D01*
X133301180Y-119061270D01*
X133302420Y-119053441D01*
X133298259Y-119009422D01*
X133297700Y-118997565D01*
X133297700Y-114734394D01*
X133317702Y-114666273D01*
X133334605Y-114645299D01*
X134272205Y-113707699D01*
X134280495Y-113700155D01*
X134286976Y-113696042D01*
X134294843Y-113687665D01*
X134333616Y-113646375D01*
X134336371Y-113643533D01*
X134356092Y-113623812D01*
X134358570Y-113620617D01*
X134366276Y-113611595D01*
X134391116Y-113585143D01*
X134396544Y-113579363D01*
X134406304Y-113561610D01*
X134417157Y-113545087D01*
X134424711Y-113535348D01*
X134429571Y-113529083D01*
X134447134Y-113488499D01*
X134452341Y-113477869D01*
X134473653Y-113439102D01*
X134475624Y-113431425D01*
X134475626Y-113431420D01*
X134478690Y-113419484D01*
X134485096Y-113400772D01*
X134489992Y-113389459D01*
X134493139Y-113382187D01*
X134495436Y-113367688D01*
X134500055Y-113338523D01*
X134502462Y-113326902D01*
X134511486Y-113291753D01*
X134511486Y-113291752D01*
X134513458Y-113284072D01*
X134513458Y-113263811D01*
X134515009Y-113244100D01*
X134516937Y-113231927D01*
X134518177Y-113224099D01*
X134514017Y-113180088D01*
X134513458Y-113168231D01*
X134513458Y-103159739D01*
X134533460Y-103091618D01*
X134557637Y-103064354D01*
X134561976Y-103061600D01*
X134608603Y-103011947D01*
X134611357Y-103009106D01*
X134631093Y-102989370D01*
X134633573Y-102986173D01*
X134641278Y-102977151D01*
X134666117Y-102950700D01*
X134671544Y-102944921D01*
X134675363Y-102937975D01*
X134675365Y-102937972D01*
X134681306Y-102927166D01*
X134692157Y-102910647D01*
X134699716Y-102900901D01*
X134704572Y-102894641D01*
X134707717Y-102887372D01*
X134707720Y-102887368D01*
X134722132Y-102854063D01*
X134727349Y-102843413D01*
X134748653Y-102804660D01*
X134753691Y-102785037D01*
X134760095Y-102766334D01*
X134764991Y-102755020D01*
X134764991Y-102755019D01*
X134768139Y-102747745D01*
X134769378Y-102739922D01*
X134769381Y-102739912D01*
X134775057Y-102704076D01*
X134777463Y-102692456D01*
X134786486Y-102657311D01*
X134786486Y-102657310D01*
X134788458Y-102649630D01*
X134788458Y-102629376D01*
X134790009Y-102609665D01*
X134791938Y-102597486D01*
X134793178Y-102589657D01*
X134789017Y-102545638D01*
X134788458Y-102533781D01*
X134788458Y-100267366D01*
X134808460Y-100199245D01*
X134862116Y-100152752D01*
X134932390Y-100142648D01*
X134996970Y-100172142D01*
X135028827Y-100215122D01*
X135030073Y-100218956D01*
X135033373Y-100224672D01*
X135033374Y-100224674D01*
X135077816Y-100301650D01*
X135125560Y-100384344D01*
X135129978Y-100389251D01*
X135129979Y-100389252D01*
X135235873Y-100506859D01*
X135253347Y-100526266D01*
X135407848Y-100638518D01*
X135413876Y-100641202D01*
X135413878Y-100641203D01*
X135470928Y-100666603D01*
X135582312Y-100716194D01*
X135675712Y-100736047D01*
X135762656Y-100754528D01*
X135762661Y-100754528D01*
X135769113Y-100755900D01*
X135960087Y-100755900D01*
X135966539Y-100754528D01*
X135966544Y-100754528D01*
X136053488Y-100736047D01*
X136146888Y-100716194D01*
X136258272Y-100666603D01*
X136315322Y-100641203D01*
X136315324Y-100641202D01*
X136321352Y-100638518D01*
X136475853Y-100526266D01*
X136493831Y-100506300D01*
X136548849Y-100445196D01*
X136558455Y-100434527D01*
X136618901Y-100397287D01*
X136689884Y-100398639D01*
X136719812Y-100414305D01*
X136720275Y-100413521D01*
X136727091Y-100417552D01*
X136733359Y-100422414D01*
X136740637Y-100425564D01*
X136740638Y-100425564D01*
X136773937Y-100439974D01*
X136784587Y-100445191D01*
X136823340Y-100466495D01*
X136831015Y-100468466D01*
X136831016Y-100468466D01*
X136842962Y-100471533D01*
X136861667Y-100477937D01*
X136880255Y-100485981D01*
X136888078Y-100487220D01*
X136888088Y-100487223D01*
X136923924Y-100492899D01*
X136935544Y-100495305D01*
X136970689Y-100504328D01*
X136978370Y-100506300D01*
X136998624Y-100506300D01*
X137018334Y-100507851D01*
X137038343Y-100511020D01*
X137046235Y-100510274D01*
X137082361Y-100506859D01*
X137094219Y-100506300D01*
X137798000Y-100506300D01*
X137866121Y-100526302D01*
X137885347Y-100542643D01*
X137885620Y-100542340D01*
X137890532Y-100546763D01*
X137894947Y-100551666D01*
X137916529Y-100567346D01*
X138018184Y-100641203D01*
X138049448Y-100663918D01*
X138055476Y-100666602D01*
X138055478Y-100666603D01*
X138166862Y-100716194D01*
X138223912Y-100741594D01*
X138317313Y-100761447D01*
X138404256Y-100779928D01*
X138404261Y-100779928D01*
X138410713Y-100781300D01*
X138601687Y-100781300D01*
X138608139Y-100779928D01*
X138608144Y-100779928D01*
X138695088Y-100761447D01*
X138788488Y-100741594D01*
X138845538Y-100716194D01*
X138956922Y-100666603D01*
X138956924Y-100666602D01*
X138962952Y-100663918D01*
X138994217Y-100641203D01*
X139018357Y-100623664D01*
X139117453Y-100551666D01*
X139154051Y-100511020D01*
X139240821Y-100414652D01*
X139240822Y-100414651D01*
X139245240Y-100409744D01*
X139340727Y-100244356D01*
X139399742Y-100062728D01*
X139411957Y-99946514D01*
X139419014Y-99879365D01*
X139419704Y-99872800D01*
X139405677Y-99739340D01*
X139400432Y-99689435D01*
X139400432Y-99689433D01*
X139399742Y-99682872D01*
X139340727Y-99501244D01*
X139329848Y-99482400D01*
X139303514Y-99436790D01*
X139245240Y-99335856D01*
X139130441Y-99208358D01*
X139121875Y-99198845D01*
X139121874Y-99198844D01*
X139117453Y-99193934D01*
X138996887Y-99106337D01*
X138968294Y-99085563D01*
X138968293Y-99085562D01*
X138962952Y-99081682D01*
X138956924Y-99078998D01*
X138956922Y-99078997D01*
X138794519Y-99006691D01*
X138794518Y-99006691D01*
X138788488Y-99004006D01*
X138663012Y-98977335D01*
X138608144Y-98965672D01*
X138608139Y-98965672D01*
X138601687Y-98964300D01*
X138410713Y-98964300D01*
X138404261Y-98965672D01*
X138404256Y-98965672D01*
X138349388Y-98977335D01*
X138223912Y-99004006D01*
X138217882Y-99006691D01*
X138217881Y-99006691D01*
X138055478Y-99078997D01*
X138055476Y-99078998D01*
X138049448Y-99081682D01*
X138044107Y-99085562D01*
X138044106Y-99085563D01*
X137969979Y-99139420D01*
X137894947Y-99193934D01*
X137890532Y-99198837D01*
X137885620Y-99203260D01*
X137884495Y-99202011D01*
X137831186Y-99234851D01*
X137798000Y-99239300D01*
X137372994Y-99239300D01*
X137304873Y-99219298D01*
X137283899Y-99202395D01*
X135327471Y-97245966D01*
X135293445Y-97183654D01*
X135298510Y-97112838D01*
X135341057Y-97056003D01*
X135390369Y-97033624D01*
X135423340Y-97026616D01*
X135511888Y-97007794D01*
X135517919Y-97005109D01*
X135680322Y-96932803D01*
X135680324Y-96932802D01*
X135686352Y-96930118D01*
X135840853Y-96817866D01*
X135845275Y-96812955D01*
X135964221Y-96680852D01*
X135964222Y-96680851D01*
X135968640Y-96675944D01*
X136049786Y-96535395D01*
X136060823Y-96516279D01*
X136060824Y-96516278D01*
X136064127Y-96510556D01*
X136123142Y-96328928D01*
X136123923Y-96321502D01*
X136142414Y-96145565D01*
X136143104Y-96139000D01*
X136123142Y-95949072D01*
X136064127Y-95767444D01*
X135968640Y-95602056D01*
X135931173Y-95560444D01*
X135845275Y-95465045D01*
X135845274Y-95465044D01*
X135840853Y-95460134D01*
X135686352Y-95347882D01*
X135680324Y-95345198D01*
X135680322Y-95345197D01*
X135517919Y-95272891D01*
X135517918Y-95272891D01*
X135511888Y-95270206D01*
X135406039Y-95247707D01*
X135331544Y-95231872D01*
X135331539Y-95231872D01*
X135325087Y-95230500D01*
X135269195Y-95230500D01*
X135201074Y-95210498D01*
X135180100Y-95193595D01*
X134655405Y-94668900D01*
X134621379Y-94606588D01*
X134618500Y-94579805D01*
X134618500Y-87748324D01*
X134638502Y-87680203D01*
X134650858Y-87664021D01*
X134724040Y-87582744D01*
X134819527Y-87417356D01*
X134878542Y-87235728D01*
X134891168Y-87115603D01*
X134897814Y-87052365D01*
X134898504Y-87045800D01*
X134883881Y-86906672D01*
X134879232Y-86862435D01*
X134879232Y-86862433D01*
X134878542Y-86855872D01*
X134819527Y-86674244D01*
X134724040Y-86508856D01*
X134650863Y-86427585D01*
X134620147Y-86363579D01*
X134618500Y-86343276D01*
X134618500Y-84591794D01*
X134638502Y-84523673D01*
X134655405Y-84502699D01*
X136054387Y-83103718D01*
X136069419Y-83090879D01*
X136085807Y-83078972D01*
X136113989Y-83044906D01*
X136121978Y-83036127D01*
X136587058Y-82571047D01*
X136595337Y-82563513D01*
X136601818Y-82559400D01*
X136648444Y-82509748D01*
X136651198Y-82506907D01*
X136670935Y-82487170D01*
X136673415Y-82483973D01*
X136681120Y-82474951D01*
X136705959Y-82448500D01*
X136711386Y-82442721D01*
X136715205Y-82435775D01*
X136715207Y-82435772D01*
X136721148Y-82424966D01*
X136731999Y-82408447D01*
X136739558Y-82398701D01*
X136744414Y-82392441D01*
X136747559Y-82385172D01*
X136747562Y-82385168D01*
X136761974Y-82351863D01*
X136767191Y-82341213D01*
X136788495Y-82302460D01*
X136793533Y-82282837D01*
X136799907Y-82264204D01*
X136800301Y-82263292D01*
X136845678Y-82208690D01*
X136913373Y-82187289D01*
X136981891Y-82205883D01*
G37*
%TD.AperFunction*%
%TD*%
M02*
