%TF.GenerationSoftware,KiCad,Pcbnew,(6.0.6-0)*%
%TF.CreationDate,2022-08-03T09:40:13-07:00*%
%TF.ProjectId,Smart Floor Register,536d6172-7420-4466-9c6f-6f7220526567,rev?*%
%TF.SameCoordinates,Original*%
%TF.FileFunction,Copper,L2,Bot*%
%TF.FilePolarity,Positive*%
%FSLAX46Y46*%
G04 Gerber Fmt 4.6, Leading zero omitted, Abs format (unit mm)*
G04 Created by KiCad (PCBNEW (6.0.6-0)) date 2022-08-03 09:40:13*
%MOMM*%
%LPD*%
G01*
G04 APERTURE LIST*
%TA.AperFunction,ComponentPad*%
%ADD10O,1.208000X2.416000*%
%TD*%
%TA.AperFunction,ComponentPad*%
%ADD11C,1.397000*%
%TD*%
%TA.AperFunction,ComponentPad*%
%ADD12C,1.828800*%
%TD*%
%TA.AperFunction,ComponentPad*%
%ADD13C,3.175000*%
%TD*%
%TA.AperFunction,ViaPad*%
%ADD14C,0.800000*%
%TD*%
%TA.AperFunction,Conductor*%
%ADD15C,0.250000*%
%TD*%
G04 APERTURE END LIST*
D10*
%TO.P,J3,6,Shield*%
%TO.N,Earth*%
X127750000Y-70284000D03*
X119850000Y-70284000D03*
%TD*%
D11*
%TO.P,J4,1,MISO*%
%TO.N,MISO*%
X124206000Y-142494000D03*
%TO.P,J4,2,VCC*%
%TO.N,VCC*%
X124206000Y-145034000D03*
%TO.P,J4,3,SCK*%
%TO.N,SCK*%
X126746000Y-142494000D03*
%TO.P,J4,4,MOSI*%
%TO.N,MOSI*%
X126746000Y-145034000D03*
%TO.P,J4,5,~{RST}*%
%TO.N,~{RESET}*%
X129286000Y-142494000D03*
%TO.P,J4,6,GND*%
%TO.N,Earth*%
X129286000Y-145034000D03*
%TD*%
D12*
%TO.P,BT2,1,+*%
%TO.N,Net-(BT1-Pad1)*%
X114229700Y-71455438D03*
X133355900Y-143718438D03*
%TO.P,BT2,2,-*%
%TO.N,Earth*%
X114229700Y-143718438D03*
X133355900Y-71455438D03*
D13*
%TO.P,BT2,6*%
%TO.N,N/C*%
X123780100Y-80269238D03*
%TO.P,BT2,7*%
X123780100Y-135514238D03*
%TO.P,BT2,8*%
X141306100Y-80269238D03*
%TD*%
D14*
%TO.N,Earth*%
X141020800Y-103174800D03*
X107700000Y-108700000D03*
X130600000Y-128400000D03*
X130600000Y-126417169D03*
X142020799Y-122020799D03*
X105200000Y-100900000D03*
X133800000Y-89600000D03*
X134314100Y-128300000D03*
X120773301Y-108251101D03*
X139395200Y-95478600D03*
X113300000Y-130200000D03*
X110700000Y-141200000D03*
X128752600Y-108432600D03*
X113300000Y-137700000D03*
X101700000Y-141300000D03*
X140995400Y-111277400D03*
%TO.N,Net-(A1-Pad2)*%
X118110000Y-125730000D03*
X113131600Y-120853200D03*
%TO.N,ThermistorA*%
X116840000Y-115417600D03*
X106589725Y-106132525D03*
%TO.N,Shifted Ground*%
X142621000Y-108737400D03*
X123952000Y-130073400D03*
X142660000Y-120357000D03*
X108712000Y-122834400D03*
X124968000Y-122834400D03*
X105054400Y-108788200D03*
X105003600Y-116890800D03*
X122885200Y-122834400D03*
%TO.N,Net-(A2-Pad2)*%
X106680000Y-112776000D03*
X112471200Y-125730000D03*
%TO.N,ThermistorB*%
X121564400Y-109855000D03*
X106730800Y-114350800D03*
X116890800Y-118262400D03*
%TO.N,Net-(A3-Pad2)*%
X141020800Y-112826800D03*
X135280400Y-125933200D03*
%TO.N,ThermistorC*%
X126390400Y-109931200D03*
X130911600Y-118059200D03*
%TO.N,Net-(A4-Pad2)*%
X134405607Y-126416669D03*
X141020800Y-104698800D03*
%TO.N,ThermistorD*%
X127152400Y-109169200D03*
X130962400Y-115316000D03*
%TO.N,Net-(BT1-Pad1)*%
X115190751Y-128742251D03*
%TO.N,+5V*%
X112268000Y-100431600D03*
X134112000Y-86995000D03*
X140716000Y-77216000D03*
X113182400Y-86995000D03*
X140716000Y-71284500D03*
%TO.N,VCC*%
X126339600Y-94132400D03*
X104902000Y-74472800D03*
X139065000Y-71968298D03*
%TO.N,MISO*%
X132689600Y-99568000D03*
%TO.N,SCK*%
X132689600Y-101564627D03*
%TO.N,MOSI*%
X133100000Y-100567503D03*
%TO.N,~{RESET}*%
X127389903Y-97600100D03*
%TO.N,ThermopileB*%
X122370636Y-109149460D03*
X114655600Y-122021600D03*
%TO.N,ThermopileA*%
X123190000Y-109855000D03*
X121259600Y-123698000D03*
%TO.N,ThermopileD*%
X129500000Y-126300000D03*
X126442914Y-123690532D03*
X129271304Y-137671304D03*
X124785027Y-109855000D03*
%TO.N,ThermopileC*%
X130606800Y-121259600D03*
X125563637Y-109149460D03*
%TO.N,~{PEN}*%
X131318000Y-110642400D03*
X120904000Y-141122400D03*
%TO.N,SCL*%
X111660300Y-96877500D03*
X123139200Y-96875600D03*
X135839200Y-99771200D03*
%TO.N,SDA*%
X122377200Y-94488000D03*
X109040300Y-96801300D03*
X138480800Y-99872800D03*
%TO.N,MotorEnable*%
X133807200Y-92405200D03*
X138877040Y-75625960D03*
%TD*%
D15*
%TO.N,Earth*%
X128752600Y-108432600D02*
X128571101Y-108251101D01*
X141896000Y-110376800D02*
X140995400Y-111277400D01*
X141935000Y-121935000D02*
X141935000Y-112217000D01*
X130600000Y-128100000D02*
X130900000Y-128400000D01*
X141274800Y-103174800D02*
X141896000Y-103796000D01*
X130600000Y-126417169D02*
X130600000Y-128100000D01*
X101700000Y-141300000D02*
X110600000Y-141300000D01*
X105864725Y-106864725D02*
X105864725Y-101564725D01*
X141896000Y-103796000D02*
X141896000Y-110376800D01*
X129286000Y-145034000D02*
X134314100Y-140005900D01*
X141935000Y-112217000D02*
X140995400Y-111277400D01*
X134314100Y-140005900D02*
X134314100Y-128300000D01*
X142020799Y-122020799D02*
X141935000Y-121935000D01*
X107700000Y-108700000D02*
X105864725Y-106864725D01*
X128571101Y-108251101D02*
X120773301Y-108251101D01*
X113300000Y-130200000D02*
X113300000Y-137700000D01*
X105864725Y-101564725D02*
X105200000Y-100900000D01*
X141020800Y-97104200D02*
X139395200Y-95478600D01*
X141020800Y-103174800D02*
X141274800Y-103174800D01*
X110600000Y-141300000D02*
X110700000Y-141200000D01*
X141020800Y-103174800D02*
X141020800Y-97104200D01*
%TO.N,Net-(A1-Pad2)*%
X113131600Y-122682000D02*
X113131600Y-120853200D01*
X116179600Y-125730000D02*
X113131600Y-122682000D01*
X118110000Y-125730000D02*
X116179600Y-125730000D01*
%TO.N,ThermistorA*%
X116840000Y-115417600D02*
X107554925Y-106132525D01*
X107554925Y-106132525D02*
X106589725Y-106132525D01*
%TO.N,Shifted Ground*%
X105003600Y-119126000D02*
X105003600Y-116890800D01*
X110185200Y-127406400D02*
X123342400Y-127406400D01*
X123342400Y-122834400D02*
X124002800Y-123494800D01*
X124002800Y-123494800D02*
X124002800Y-128066800D01*
X108712000Y-122834400D02*
X108712000Y-125933200D01*
X122885200Y-122834400D02*
X124968000Y-122834400D01*
X142660000Y-108776400D02*
X142621000Y-108737400D01*
X105003600Y-108839000D02*
X105054400Y-108788200D01*
X123952000Y-130073400D02*
X124002800Y-130022600D01*
X124002800Y-130022600D02*
X124002800Y-128066800D01*
X108712000Y-122834400D02*
X105003600Y-119126000D01*
X122885200Y-122834400D02*
X123342400Y-122834400D01*
X108712000Y-125933200D02*
X110185200Y-127406400D01*
X105003600Y-116890800D02*
X105003600Y-108839000D01*
X123342400Y-127406400D02*
X124002800Y-128066800D01*
X142660000Y-120357000D02*
X142660000Y-108776400D01*
%TO.N,Net-(A2-Pad2)*%
X106680000Y-112776000D02*
X105714800Y-113741200D01*
X112471200Y-121767600D02*
X105714800Y-115011200D01*
X105714800Y-113741200D02*
X105714800Y-113817400D01*
X112471200Y-125730000D02*
X112471200Y-121767600D01*
X105714800Y-115011200D02*
X105714800Y-113817400D01*
%TO.N,ThermistorB*%
X116890800Y-118262400D02*
X110642400Y-118262400D01*
X117297200Y-118262400D02*
X121564400Y-113995200D01*
X121564400Y-113995200D02*
X121564400Y-109982000D01*
X116890800Y-118262400D02*
X117297200Y-118262400D01*
X110642400Y-118262400D02*
X106730800Y-114350800D01*
%TO.N,Net-(A3-Pad2)*%
X138684000Y-125933200D02*
X139242800Y-125374400D01*
X139242800Y-125374400D02*
X141020800Y-123596400D01*
X141020800Y-123596400D02*
X141020800Y-112826800D01*
X135280400Y-125933200D02*
X138684000Y-125933200D01*
%TO.N,ThermistorC*%
X126390400Y-113538000D02*
X130911600Y-118059200D01*
X126390400Y-109931200D02*
X126390400Y-113538000D01*
%TO.N,Net-(A4-Pad2)*%
X134405607Y-126416669D02*
X134039600Y-126050662D01*
X134039600Y-111680000D02*
X141020800Y-104698800D01*
X134039600Y-126050662D02*
X134039600Y-111680000D01*
%TO.N,ThermistorD*%
X127152400Y-111506000D02*
X127152400Y-109169200D01*
X130962400Y-115316000D02*
X127152400Y-111506000D01*
%TO.N,Net-(BT1-Pad1)*%
X116636800Y-133978297D02*
X116636800Y-144830800D01*
X115190751Y-132532248D02*
X116636800Y-133978297D01*
X118135400Y-146329400D02*
X132410200Y-146329400D01*
X133355900Y-145383700D02*
X133355900Y-143718438D01*
X132410200Y-146329400D02*
X133355900Y-145383700D01*
X116636800Y-144830800D02*
X118135400Y-146329400D01*
X115190751Y-128742251D02*
X115190751Y-132532248D01*
%TO.N,+5V*%
X134112000Y-86995000D02*
X113538000Y-86995000D01*
X112268000Y-100431600D02*
X111645295Y-100431600D01*
X107670600Y-91998800D02*
X112623600Y-87045800D01*
X140716000Y-71284500D02*
X140716000Y-77216000D01*
X113131600Y-87045800D02*
X113182400Y-86995000D01*
X111645295Y-100431600D02*
X107670600Y-96456905D01*
X107670600Y-96456905D02*
X107670600Y-91998800D01*
X112623600Y-87045800D02*
X113131600Y-87045800D01*
%TO.N,VCC*%
X139184800Y-78323440D02*
X139184800Y-80880800D01*
X136499600Y-94132400D02*
X139496800Y-91135200D01*
X104902000Y-74472800D02*
X136560498Y-74472800D01*
X139184800Y-80880800D02*
X139184800Y-85648800D01*
X139065000Y-71968298D02*
X139602040Y-72505338D01*
X139496800Y-85960800D02*
X139496800Y-91135200D01*
X139327040Y-78181200D02*
X139184800Y-78323440D01*
X139184800Y-85648800D02*
X139496800Y-85960800D01*
X139602040Y-72505338D02*
X139602040Y-77906200D01*
X126339600Y-94132400D02*
X136499600Y-94132400D01*
X139602040Y-77906200D02*
X139327040Y-78181200D01*
X136560498Y-74472800D02*
X139065000Y-71968298D01*
%TO.N,MISO*%
X131927600Y-100304198D02*
X131927600Y-102920800D01*
X132239600Y-136364004D02*
X127621602Y-140982002D01*
X132239600Y-103232800D02*
X132239600Y-136364004D01*
X131927600Y-102920800D02*
X132239600Y-103232800D01*
X125717998Y-140982002D02*
X124206000Y-142494000D01*
X132689600Y-99568000D02*
X132663798Y-99568000D01*
X132663798Y-99568000D02*
X131927600Y-100304198D01*
X127621602Y-140982002D02*
X125717998Y-140982002D01*
%TO.N,SCK*%
X132689600Y-101564627D02*
X132689600Y-136550400D01*
X132689600Y-136550400D02*
X126746000Y-142494000D01*
%TO.N,MOSI*%
X133139600Y-102870000D02*
X133139600Y-136736796D01*
X127876998Y-141999398D02*
X127876998Y-143903002D01*
X133100000Y-100600000D02*
X133414600Y-100914600D01*
X133100000Y-100567503D02*
X133100000Y-100600000D01*
X133139600Y-136736796D02*
X127876998Y-141999398D01*
X133414600Y-100914600D02*
X133414600Y-102595000D01*
X133414600Y-102595000D02*
X133139600Y-102870000D01*
X127876998Y-143903002D02*
X126746000Y-145034000D01*
%TO.N,~{RESET}*%
X133864600Y-98432996D02*
X133864600Y-103001400D01*
X127664403Y-97325600D02*
X132757204Y-97325600D01*
X132757204Y-97325600D02*
X133864600Y-98432996D01*
X127389903Y-97600100D02*
X127664403Y-97325600D01*
X133589600Y-103276400D02*
X133589600Y-136923192D01*
X133589600Y-136923192D02*
X129286000Y-141226792D01*
X133864600Y-103001400D02*
X133589600Y-103276400D01*
X129286000Y-141226792D02*
X129286000Y-142494000D01*
%TO.N,ThermopileB*%
X122370636Y-119816968D02*
X120166004Y-122021600D01*
X122370636Y-109149460D02*
X122370636Y-119816968D01*
X120166004Y-122021600D02*
X114655600Y-122021600D01*
%TO.N,ThermopileA*%
X122148600Y-120675400D02*
X121259600Y-121564400D01*
X123190000Y-119634000D02*
X122148600Y-120675400D01*
X121259600Y-121564400D02*
X121259600Y-123698000D01*
X123190000Y-109855000D02*
X123190000Y-119634000D01*
%TO.N,ThermopileD*%
X126442914Y-121026562D02*
X126442914Y-123690532D01*
X124785027Y-109855000D02*
X124785027Y-119368675D01*
X124785027Y-119368675D02*
X126442914Y-121026562D01*
X129500000Y-137442608D02*
X129271304Y-137671304D01*
X129500000Y-126300000D02*
X129500000Y-137442608D01*
%TO.N,ThermopileC*%
X125563637Y-109149460D02*
X125563637Y-119510889D01*
X125563637Y-119510889D02*
X127312348Y-121259600D01*
X127312348Y-121259600D02*
X130606800Y-121259600D01*
%TO.N,~{PEN}*%
X131789600Y-120904000D02*
X131789600Y-136177608D01*
X131789600Y-136177608D02*
X130376804Y-137590404D01*
X131789600Y-113690400D02*
X131789600Y-120904000D01*
X121513600Y-140512800D02*
X120904000Y-141122400D01*
X131789600Y-111114000D02*
X131789600Y-113690400D01*
X131318000Y-110642400D02*
X131789600Y-111114000D01*
X121818400Y-140512800D02*
X121513600Y-140512800D01*
X127454408Y-140512800D02*
X121818400Y-140512800D01*
X130376804Y-137590404D02*
X127454408Y-140512800D01*
%TO.N,SCL*%
X123139200Y-96875600D02*
X111662200Y-96875600D01*
X132943600Y-96875600D02*
X123139200Y-96875600D01*
X111662200Y-96875600D02*
X111660300Y-96877500D01*
X135839200Y-99771200D02*
X132943600Y-96875600D01*
%TO.N,SDA*%
X111353600Y-94488000D02*
X122377200Y-94488000D01*
X134670800Y-96062800D02*
X138480800Y-99872800D01*
X122377200Y-94488000D02*
X122377200Y-95402400D01*
X123037600Y-96062800D02*
X134670800Y-96062800D01*
X122377200Y-95402400D02*
X123037600Y-96062800D01*
X109040300Y-96801300D02*
X111353600Y-94488000D01*
%TO.N,MotorEnable*%
X138734800Y-75768200D02*
X138877040Y-75625960D01*
X138734800Y-87477600D02*
X138734800Y-75768200D01*
X133807200Y-92405200D02*
X138734800Y-87477600D01*
%TD*%
%TA.AperFunction,Conductor*%
%TO.N,Earth*%
G36*
X118372054Y-68506502D02*
G01*
X118418547Y-68560158D01*
X118428651Y-68630432D01*
X118424650Y-68648601D01*
X118394487Y-68749461D01*
X118391914Y-68758066D01*
X118391024Y-68903721D01*
X118431051Y-69043771D01*
X118435838Y-69051358D01*
X118435839Y-69051360D01*
X118460029Y-69089698D01*
X118508776Y-69166958D01*
X118617951Y-69263378D01*
X118626074Y-69267192D01*
X118626076Y-69267193D01*
X118694247Y-69299199D01*
X118747409Y-69346256D01*
X118766691Y-69414584D01*
X118764362Y-69437405D01*
X118739141Y-69566551D01*
X118738067Y-69575394D01*
X118738000Y-69578128D01*
X118738000Y-70011885D01*
X118742475Y-70027124D01*
X118743865Y-70028329D01*
X118751548Y-70030000D01*
X119978000Y-70030000D01*
X120046121Y-70050002D01*
X120092614Y-70103658D01*
X120104000Y-70156000D01*
X120104000Y-71952517D01*
X120107973Y-71966048D01*
X120117399Y-71967403D01*
X120207846Y-71945605D01*
X120219141Y-71941716D01*
X120401385Y-71858854D01*
X120411727Y-71852907D01*
X120575023Y-71737073D01*
X120584051Y-71729280D01*
X120722493Y-71584662D01*
X120729897Y-71575287D01*
X120838484Y-71407114D01*
X120843985Y-71396501D01*
X120918815Y-71210826D01*
X120922207Y-71199376D01*
X120960857Y-71001459D01*
X120961117Y-70999323D01*
X120961405Y-70998653D01*
X120961727Y-70997006D01*
X120962084Y-70997076D01*
X120989192Y-70934113D01*
X121048065Y-70894433D01*
X121122772Y-70893950D01*
X121237101Y-70928632D01*
X121425000Y-70947138D01*
X121612899Y-70928632D01*
X121793577Y-70873823D01*
X121799032Y-70870907D01*
X121799035Y-70870906D01*
X121954632Y-70787738D01*
X121954633Y-70787737D01*
X121960091Y-70784820D01*
X122106041Y-70665041D01*
X122225820Y-70519091D01*
X122281430Y-70415051D01*
X122311906Y-70358035D01*
X122311907Y-70358032D01*
X122314823Y-70352577D01*
X122369632Y-70171899D01*
X122379173Y-70075030D01*
X122384115Y-70024854D01*
X122385253Y-70016305D01*
X122385349Y-70015735D01*
X122388576Y-69996552D01*
X122388729Y-69984000D01*
X122384773Y-69956376D01*
X122383500Y-69938514D01*
X122383500Y-69638956D01*
X122403502Y-69570835D01*
X122430788Y-69540567D01*
X122643858Y-69370111D01*
X122709547Y-69343175D01*
X122722570Y-69342500D01*
X124877430Y-69342500D01*
X124945551Y-69362502D01*
X124956139Y-69370109D01*
X125011733Y-69414584D01*
X125169212Y-69540568D01*
X125209910Y-69598742D01*
X125216500Y-69638957D01*
X125216500Y-69934633D01*
X125215000Y-69954018D01*
X125212690Y-69968851D01*
X125212690Y-69968855D01*
X125211309Y-69977724D01*
X125212130Y-69984000D01*
X125211862Y-69984000D01*
X125230368Y-70171899D01*
X125285177Y-70352577D01*
X125288093Y-70358032D01*
X125288094Y-70358035D01*
X125318570Y-70415051D01*
X125374180Y-70519091D01*
X125493959Y-70665041D01*
X125639909Y-70784820D01*
X125645367Y-70787737D01*
X125645368Y-70787738D01*
X125800965Y-70870906D01*
X125800968Y-70870907D01*
X125806423Y-70873823D01*
X125987101Y-70928632D01*
X126175000Y-70947138D01*
X126362899Y-70928632D01*
X126475636Y-70894433D01*
X126481735Y-70892583D01*
X126552728Y-70891949D01*
X126612795Y-70929798D01*
X126643741Y-71001190D01*
X126652525Y-71093254D01*
X126654784Y-71104988D01*
X126711141Y-71297091D01*
X126715571Y-71308166D01*
X126807238Y-71486149D01*
X126813688Y-71496195D01*
X126937352Y-71653628D01*
X126945589Y-71662277D01*
X127096790Y-71793482D01*
X127106516Y-71800419D01*
X127279792Y-71900662D01*
X127290662Y-71905639D01*
X127479770Y-71971309D01*
X127481474Y-71971724D01*
X127492008Y-71970222D01*
X127496000Y-71956657D01*
X127496000Y-71952517D01*
X128004000Y-71952517D01*
X128007973Y-71966048D01*
X128017399Y-71967403D01*
X128107846Y-71945605D01*
X128119141Y-71941716D01*
X128301385Y-71858854D01*
X128311727Y-71852907D01*
X128475023Y-71737073D01*
X128484051Y-71729280D01*
X128622493Y-71584662D01*
X128629897Y-71575287D01*
X128726468Y-71425723D01*
X131929348Y-71425723D01*
X131942217Y-71648907D01*
X131943653Y-71659128D01*
X131992801Y-71877208D01*
X131995880Y-71887037D01*
X132079991Y-72094177D01*
X132084634Y-72103368D01*
X132175526Y-72251692D01*
X132185982Y-72261152D01*
X132194760Y-72257368D01*
X132983878Y-71468250D01*
X132990256Y-71456570D01*
X133720308Y-71456570D01*
X133720439Y-71458403D01*
X133724690Y-71465018D01*
X134512521Y-72252849D01*
X134524531Y-72259408D01*
X134536270Y-72250440D01*
X134576295Y-72194739D01*
X134581606Y-72185900D01*
X134680653Y-71985495D01*
X134684451Y-71975902D01*
X134749439Y-71762001D01*
X134751616Y-71751931D01*
X134781034Y-71528482D01*
X134781553Y-71521808D01*
X134783093Y-71458803D01*
X134782899Y-71452084D01*
X134764434Y-71227478D01*
X134762751Y-71217316D01*
X134708288Y-71000489D01*
X134704967Y-70990734D01*
X134615827Y-70785728D01*
X134610949Y-70776630D01*
X134535538Y-70660063D01*
X134524852Y-70650859D01*
X134515285Y-70655263D01*
X133727922Y-71442626D01*
X133720308Y-71456570D01*
X132990256Y-71456570D01*
X132991492Y-71454306D01*
X132991361Y-71452473D01*
X132987110Y-71445858D01*
X132199403Y-70658151D01*
X132187867Y-70651851D01*
X132175585Y-70661474D01*
X132117802Y-70746181D01*
X132112716Y-70755134D01*
X132018589Y-70957912D01*
X132015030Y-70967587D01*
X131955288Y-71183010D01*
X131953357Y-71193130D01*
X131929600Y-71415434D01*
X131929348Y-71425723D01*
X128726468Y-71425723D01*
X128738484Y-71407114D01*
X128743985Y-71396501D01*
X128818815Y-71210826D01*
X128822207Y-71199376D01*
X128860859Y-71001452D01*
X128861933Y-70992606D01*
X128862000Y-70989872D01*
X128862000Y-70556115D01*
X128857525Y-70540876D01*
X128856135Y-70539671D01*
X128848452Y-70538000D01*
X128022115Y-70538000D01*
X128006876Y-70542475D01*
X128005671Y-70543865D01*
X128004000Y-70551548D01*
X128004000Y-71952517D01*
X127496000Y-71952517D01*
X127496000Y-70285865D01*
X132551123Y-70285865D01*
X132557868Y-70298196D01*
X133343088Y-71083416D01*
X133357032Y-71091030D01*
X133358865Y-71090899D01*
X133365480Y-71086648D01*
X134155143Y-70296985D01*
X134162164Y-70284128D01*
X134154391Y-70273461D01*
X134149801Y-70269836D01*
X134141215Y-70264131D01*
X133945499Y-70156091D01*
X133936100Y-70151866D01*
X133725366Y-70077241D01*
X133715395Y-70074607D01*
X133495307Y-70035403D01*
X133485055Y-70034434D01*
X133261508Y-70031703D01*
X133251224Y-70032423D01*
X133030241Y-70066237D01*
X133020222Y-70068624D01*
X132807722Y-70138080D01*
X132798220Y-70142075D01*
X132599928Y-70245299D01*
X132591203Y-70250793D01*
X132559576Y-70274540D01*
X132551123Y-70285865D01*
X127496000Y-70285865D01*
X127496000Y-70156000D01*
X127516002Y-70087879D01*
X127569658Y-70041386D01*
X127622000Y-70030000D01*
X128843885Y-70030000D01*
X128859124Y-70025525D01*
X128860329Y-70024135D01*
X128862000Y-70016452D01*
X128862000Y-69629978D01*
X128861715Y-69624001D01*
X128847475Y-69474746D01*
X128845216Y-69463014D01*
X128840688Y-69447579D01*
X128840706Y-69376582D01*
X128879104Y-69316865D01*
X128909437Y-69297412D01*
X128976782Y-69266792D01*
X129087127Y-69171713D01*
X129166352Y-69049485D01*
X129208086Y-68909934D01*
X129208976Y-68764279D01*
X129175493Y-68647125D01*
X129176005Y-68576130D01*
X129214819Y-68516683D01*
X129279611Y-68487656D01*
X129296642Y-68486500D01*
X146471900Y-68486500D01*
X146540021Y-68506502D01*
X146586514Y-68560158D01*
X146597900Y-68612500D01*
X146597900Y-77343500D01*
X146577898Y-77411621D01*
X146524242Y-77458114D01*
X146471900Y-77469500D01*
X144115023Y-77469500D01*
X144114253Y-77469498D01*
X144113437Y-77469493D01*
X144036679Y-77469024D01*
X144014318Y-77475415D01*
X144008247Y-77477150D01*
X143991485Y-77480728D01*
X143962213Y-77484920D01*
X143954045Y-77488634D01*
X143954044Y-77488634D01*
X143938838Y-77495548D01*
X143921314Y-77501996D01*
X143896629Y-77509051D01*
X143889035Y-77513843D01*
X143889032Y-77513844D01*
X143871620Y-77524830D01*
X143856537Y-77532969D01*
X143829618Y-77545208D01*
X143822816Y-77551069D01*
X143810165Y-77561970D01*
X143795161Y-77573073D01*
X143773442Y-77586776D01*
X143767503Y-77593501D01*
X143767499Y-77593504D01*
X143753868Y-77608938D01*
X143741676Y-77620982D01*
X143726073Y-77634427D01*
X143726071Y-77634430D01*
X143719273Y-77640287D01*
X143714393Y-77647816D01*
X143714392Y-77647817D01*
X143705306Y-77661835D01*
X143694015Y-77676709D01*
X143682969Y-77689217D01*
X143677022Y-77695951D01*
X143670712Y-77709391D01*
X143664458Y-77722711D01*
X143656137Y-77737691D01*
X143644929Y-77754983D01*
X143644927Y-77754988D01*
X143640048Y-77762515D01*
X143637478Y-77771108D01*
X143637476Y-77771113D01*
X143632689Y-77787120D01*
X143626028Y-77804564D01*
X143618933Y-77819676D01*
X143615119Y-77827800D01*
X143613738Y-77836667D01*
X143613738Y-77836668D01*
X143610570Y-77857015D01*
X143606787Y-77873732D01*
X143600885Y-77893466D01*
X143600884Y-77893472D01*
X143598314Y-77902066D01*
X143598259Y-77911037D01*
X143598259Y-77911038D01*
X143598104Y-77936497D01*
X143598071Y-77937289D01*
X143597900Y-77938386D01*
X143597900Y-77969377D01*
X143597898Y-77970147D01*
X143597424Y-78047721D01*
X143597808Y-78049065D01*
X143597900Y-78050410D01*
X143597900Y-79770036D01*
X143577898Y-79838157D01*
X143524242Y-79884650D01*
X143453968Y-79894754D01*
X143389388Y-79865260D01*
X143351004Y-79805534D01*
X143348518Y-79795587D01*
X143330475Y-79708462D01*
X143329606Y-79704265D01*
X143234209Y-79434871D01*
X143103133Y-79180916D01*
X142938804Y-78947100D01*
X142744264Y-78737749D01*
X142523111Y-78556738D01*
X142279438Y-78407415D01*
X142270764Y-78403607D01*
X142142083Y-78347120D01*
X142017754Y-78292543D01*
X141742901Y-78214250D01*
X141459966Y-78173982D01*
X141331137Y-78173308D01*
X141263123Y-78152950D01*
X141216911Y-78099052D01*
X141207175Y-78028726D01*
X141237006Y-77964300D01*
X141257735Y-77945375D01*
X141321907Y-77898751D01*
X141321912Y-77898746D01*
X141327253Y-77894866D01*
X141382225Y-77833813D01*
X141450621Y-77757852D01*
X141450622Y-77757851D01*
X141455040Y-77752944D01*
X141523466Y-77634427D01*
X141547223Y-77593279D01*
X141547224Y-77593278D01*
X141550527Y-77587556D01*
X141609542Y-77405928D01*
X141616104Y-77343500D01*
X141628814Y-77222565D01*
X141629504Y-77216000D01*
X141609542Y-77026072D01*
X141550527Y-76844444D01*
X141455040Y-76679056D01*
X141381863Y-76597785D01*
X141351147Y-76533779D01*
X141349500Y-76513476D01*
X141349500Y-71987024D01*
X141369502Y-71918903D01*
X141381858Y-71902721D01*
X141455040Y-71821444D01*
X141550527Y-71656056D01*
X141609542Y-71474428D01*
X141611185Y-71458802D01*
X141628814Y-71291065D01*
X141629504Y-71284500D01*
X141609542Y-71094572D01*
X141550527Y-70912944D01*
X141527941Y-70873823D01*
X141478239Y-70787738D01*
X141455040Y-70747556D01*
X141406878Y-70694066D01*
X141331675Y-70610545D01*
X141331674Y-70610544D01*
X141327253Y-70605634D01*
X141172752Y-70493382D01*
X141166724Y-70490698D01*
X141166722Y-70490697D01*
X141004319Y-70418391D01*
X141004318Y-70418391D01*
X140998288Y-70415706D01*
X140884357Y-70391489D01*
X140817944Y-70377372D01*
X140817939Y-70377372D01*
X140811487Y-70376000D01*
X140620513Y-70376000D01*
X140614061Y-70377372D01*
X140614056Y-70377372D01*
X140547643Y-70391489D01*
X140433712Y-70415706D01*
X140427682Y-70418391D01*
X140427681Y-70418391D01*
X140265278Y-70490697D01*
X140265276Y-70490698D01*
X140259248Y-70493382D01*
X140104747Y-70605634D01*
X140100326Y-70610544D01*
X140100325Y-70610545D01*
X140025123Y-70694066D01*
X139976960Y-70747556D01*
X139953761Y-70787738D01*
X139904060Y-70873823D01*
X139881473Y-70912944D01*
X139822458Y-71094572D01*
X139821768Y-71101133D01*
X139821768Y-71101135D01*
X139815870Y-71157253D01*
X139788857Y-71222909D01*
X139730635Y-71263539D01*
X139659690Y-71266242D01*
X139616499Y-71246018D01*
X139527094Y-71181061D01*
X139527093Y-71181060D01*
X139521752Y-71177180D01*
X139515724Y-71174496D01*
X139515722Y-71174495D01*
X139353319Y-71102189D01*
X139353318Y-71102189D01*
X139347288Y-71099504D01*
X139253887Y-71079651D01*
X139166944Y-71061170D01*
X139166939Y-71061170D01*
X139160487Y-71059798D01*
X138969513Y-71059798D01*
X138963061Y-71061170D01*
X138963056Y-71061170D01*
X138876113Y-71079651D01*
X138782712Y-71099504D01*
X138776682Y-71102189D01*
X138776681Y-71102189D01*
X138614278Y-71174495D01*
X138614276Y-71174496D01*
X138608248Y-71177180D01*
X138602907Y-71181060D01*
X138602906Y-71181061D01*
X138586424Y-71193036D01*
X138453747Y-71289432D01*
X138325960Y-71431354D01*
X138230473Y-71596742D01*
X138171458Y-71778370D01*
X138170768Y-71784931D01*
X138170768Y-71784933D01*
X138154093Y-71943591D01*
X138127080Y-72009248D01*
X138117878Y-72019516D01*
X136334998Y-73802395D01*
X136272686Y-73836421D01*
X136245903Y-73839300D01*
X105610200Y-73839300D01*
X105542079Y-73819298D01*
X105522853Y-73802957D01*
X105522580Y-73803260D01*
X105517668Y-73798837D01*
X105513253Y-73793934D01*
X105358752Y-73681682D01*
X105352724Y-73678998D01*
X105352722Y-73678997D01*
X105190319Y-73606691D01*
X105190318Y-73606691D01*
X105184288Y-73604006D01*
X105090888Y-73584153D01*
X105003944Y-73565672D01*
X105003939Y-73565672D01*
X104997487Y-73564300D01*
X104806513Y-73564300D01*
X104800061Y-73565672D01*
X104800056Y-73565672D01*
X104713112Y-73584153D01*
X104619712Y-73604006D01*
X104613682Y-73606691D01*
X104613681Y-73606691D01*
X104451278Y-73678997D01*
X104451276Y-73678998D01*
X104445248Y-73681682D01*
X104290747Y-73793934D01*
X104286326Y-73798844D01*
X104286325Y-73798845D01*
X104252492Y-73836421D01*
X104162960Y-73935856D01*
X104067473Y-74101244D01*
X104008458Y-74282872D01*
X103988496Y-74472800D01*
X103989186Y-74479365D01*
X104000968Y-74591460D01*
X104008458Y-74662728D01*
X104067473Y-74844356D01*
X104162960Y-75009744D01*
X104167378Y-75014651D01*
X104167379Y-75014652D01*
X104249452Y-75105803D01*
X104290747Y-75151666D01*
X104445248Y-75263918D01*
X104451276Y-75266602D01*
X104451278Y-75266603D01*
X104613681Y-75338909D01*
X104619712Y-75341594D01*
X104713113Y-75361447D01*
X104800056Y-75379928D01*
X104800061Y-75379928D01*
X104806513Y-75381300D01*
X104997487Y-75381300D01*
X105003939Y-75379928D01*
X105003944Y-75379928D01*
X105090887Y-75361447D01*
X105184288Y-75341594D01*
X105190319Y-75338909D01*
X105352722Y-75266603D01*
X105352724Y-75266602D01*
X105358752Y-75263918D01*
X105513253Y-75151666D01*
X105517668Y-75146763D01*
X105522580Y-75142340D01*
X105523705Y-75143589D01*
X105577014Y-75110749D01*
X105610200Y-75106300D01*
X136481731Y-75106300D01*
X136492914Y-75106827D01*
X136500407Y-75108502D01*
X136508333Y-75108253D01*
X136508334Y-75108253D01*
X136568484Y-75106362D01*
X136572443Y-75106300D01*
X136600354Y-75106300D01*
X136604289Y-75105803D01*
X136604354Y-75105795D01*
X136616191Y-75104862D01*
X136648449Y-75103848D01*
X136652468Y-75103722D01*
X136660387Y-75103473D01*
X136679841Y-75097821D01*
X136699198Y-75093813D01*
X136711428Y-75092268D01*
X136711429Y-75092268D01*
X136719295Y-75091274D01*
X136726666Y-75088355D01*
X136726668Y-75088355D01*
X136760410Y-75074996D01*
X136771640Y-75071151D01*
X136806481Y-75061029D01*
X136806482Y-75061029D01*
X136814091Y-75058818D01*
X136820910Y-75054785D01*
X136820915Y-75054783D01*
X136831526Y-75048507D01*
X136849274Y-75039812D01*
X136868115Y-75032352D01*
X136903885Y-75006364D01*
X136913805Y-74999848D01*
X136945033Y-74981380D01*
X136945036Y-74981378D01*
X136951860Y-74977342D01*
X136966181Y-74963021D01*
X136981215Y-74950180D01*
X136997605Y-74938272D01*
X137025796Y-74904195D01*
X137033786Y-74895416D01*
X138753445Y-73175757D01*
X138815757Y-73141731D01*
X138886572Y-73146796D01*
X138943408Y-73189343D01*
X138968219Y-73255863D01*
X138968540Y-73264852D01*
X138968540Y-74591460D01*
X138948538Y-74659581D01*
X138894882Y-74706074D01*
X138842540Y-74717460D01*
X138781553Y-74717460D01*
X138775101Y-74718832D01*
X138775096Y-74718832D01*
X138688153Y-74737313D01*
X138594752Y-74757166D01*
X138588722Y-74759851D01*
X138588721Y-74759851D01*
X138426318Y-74832157D01*
X138426316Y-74832158D01*
X138420288Y-74834842D01*
X138265787Y-74947094D01*
X138261366Y-74952004D01*
X138261365Y-74952005D01*
X138150624Y-75074996D01*
X138138000Y-75089016D01*
X138042513Y-75254404D01*
X137983498Y-75436032D01*
X137963536Y-75625960D01*
X137983498Y-75815888D01*
X138042513Y-75997516D01*
X138045816Y-76003238D01*
X138045817Y-76003239D01*
X138084419Y-76070099D01*
X138101300Y-76133099D01*
X138101300Y-87163006D01*
X138081298Y-87231127D01*
X138064395Y-87252101D01*
X133856700Y-91459795D01*
X133794388Y-91493821D01*
X133767605Y-91496700D01*
X133711713Y-91496700D01*
X133705261Y-91498072D01*
X133705256Y-91498072D01*
X133637018Y-91512577D01*
X133524912Y-91536406D01*
X133518882Y-91539091D01*
X133518881Y-91539091D01*
X133356478Y-91611397D01*
X133356476Y-91611398D01*
X133350448Y-91614082D01*
X133345107Y-91617962D01*
X133345106Y-91617963D01*
X133316355Y-91638852D01*
X133195947Y-91726334D01*
X133191526Y-91731244D01*
X133191525Y-91731245D01*
X133117571Y-91813380D01*
X133068160Y-91868256D01*
X132972673Y-92033644D01*
X132913658Y-92215272D01*
X132893696Y-92405200D01*
X132913658Y-92595128D01*
X132972673Y-92776756D01*
X133068160Y-92942144D01*
X133195947Y-93084066D01*
X133350448Y-93196318D01*
X133356476Y-93199002D01*
X133356478Y-93199003D01*
X133488524Y-93257793D01*
X133542619Y-93303773D01*
X133563269Y-93371700D01*
X133543917Y-93440008D01*
X133490706Y-93487010D01*
X133437275Y-93498900D01*
X127047800Y-93498900D01*
X126979679Y-93478898D01*
X126960453Y-93462557D01*
X126960180Y-93462860D01*
X126955268Y-93458437D01*
X126950853Y-93453534D01*
X126796352Y-93341282D01*
X126790324Y-93338598D01*
X126790322Y-93338597D01*
X126627919Y-93266291D01*
X126627918Y-93266291D01*
X126621888Y-93263606D01*
X126528487Y-93243753D01*
X126441544Y-93225272D01*
X126441539Y-93225272D01*
X126435087Y-93223900D01*
X126244113Y-93223900D01*
X126237661Y-93225272D01*
X126237656Y-93225272D01*
X126150712Y-93243753D01*
X126057312Y-93263606D01*
X126051282Y-93266291D01*
X126051281Y-93266291D01*
X125888878Y-93338597D01*
X125888876Y-93338598D01*
X125882848Y-93341282D01*
X125728347Y-93453534D01*
X125723926Y-93458444D01*
X125723925Y-93458445D01*
X125690092Y-93496021D01*
X125600560Y-93595456D01*
X125505073Y-93760844D01*
X125446058Y-93942472D01*
X125445368Y-93949033D01*
X125445368Y-93949035D01*
X125433583Y-94061167D01*
X125426096Y-94132400D01*
X125426786Y-94138965D01*
X125443509Y-94298072D01*
X125446058Y-94322328D01*
X125505073Y-94503956D01*
X125600560Y-94669344D01*
X125604978Y-94674251D01*
X125604979Y-94674252D01*
X125687052Y-94765403D01*
X125728347Y-94811266D01*
X125882848Y-94923518D01*
X125888876Y-94926202D01*
X125888878Y-94926203D01*
X126051281Y-94998509D01*
X126057312Y-95001194D01*
X126150712Y-95021047D01*
X126237656Y-95039528D01*
X126237661Y-95039528D01*
X126244113Y-95040900D01*
X126435087Y-95040900D01*
X126441539Y-95039528D01*
X126441544Y-95039528D01*
X126528487Y-95021047D01*
X126621888Y-95001194D01*
X126627919Y-94998509D01*
X126790322Y-94926203D01*
X126790324Y-94926202D01*
X126796352Y-94923518D01*
X126950853Y-94811266D01*
X126955268Y-94806363D01*
X126960180Y-94801940D01*
X126961305Y-94803189D01*
X127014614Y-94770349D01*
X127047800Y-94765900D01*
X136420833Y-94765900D01*
X136432016Y-94766427D01*
X136439509Y-94768102D01*
X136447435Y-94767853D01*
X136447436Y-94767853D01*
X136507586Y-94765962D01*
X136511545Y-94765900D01*
X136539456Y-94765900D01*
X136543391Y-94765403D01*
X136543456Y-94765395D01*
X136555293Y-94764462D01*
X136587551Y-94763448D01*
X136591570Y-94763322D01*
X136599489Y-94763073D01*
X136618943Y-94757421D01*
X136638300Y-94753413D01*
X136650530Y-94751868D01*
X136650531Y-94751868D01*
X136658397Y-94750874D01*
X136665768Y-94747955D01*
X136665770Y-94747955D01*
X136699512Y-94734596D01*
X136710742Y-94730751D01*
X136745583Y-94720629D01*
X136745584Y-94720629D01*
X136753193Y-94718418D01*
X136760012Y-94714385D01*
X136760017Y-94714383D01*
X136770628Y-94708107D01*
X136788376Y-94699412D01*
X136807217Y-94691952D01*
X136842987Y-94665964D01*
X136852907Y-94659448D01*
X136884135Y-94640980D01*
X136884138Y-94640978D01*
X136890962Y-94636942D01*
X136905283Y-94622621D01*
X136920317Y-94609780D01*
X136930294Y-94602531D01*
X136936707Y-94597872D01*
X136964898Y-94563795D01*
X136972888Y-94555016D01*
X139889053Y-91638852D01*
X139897339Y-91631312D01*
X139903818Y-91627200D01*
X139950444Y-91577548D01*
X139953198Y-91574707D01*
X139972935Y-91554970D01*
X139975415Y-91551773D01*
X139983120Y-91542751D01*
X140007959Y-91516300D01*
X140013386Y-91510521D01*
X140017205Y-91503575D01*
X140017207Y-91503572D01*
X140023148Y-91492766D01*
X140033999Y-91476247D01*
X140041558Y-91466501D01*
X140046414Y-91460241D01*
X140049559Y-91452972D01*
X140049562Y-91452968D01*
X140063974Y-91419663D01*
X140069191Y-91409013D01*
X140090495Y-91370260D01*
X140095533Y-91350637D01*
X140101937Y-91331934D01*
X140106833Y-91320620D01*
X140106833Y-91320619D01*
X140109981Y-91313345D01*
X140111220Y-91305522D01*
X140111223Y-91305512D01*
X140116899Y-91269676D01*
X140119305Y-91258056D01*
X140128328Y-91222911D01*
X140128328Y-91222910D01*
X140130300Y-91215230D01*
X140130300Y-91194976D01*
X140131851Y-91175265D01*
X140133780Y-91163086D01*
X140135020Y-91155257D01*
X140130859Y-91111238D01*
X140130300Y-91099381D01*
X140130300Y-86039568D01*
X140130827Y-86028385D01*
X140132502Y-86020892D01*
X140130362Y-85952801D01*
X140130300Y-85948844D01*
X140130300Y-85920944D01*
X140129796Y-85916953D01*
X140128863Y-85905111D01*
X140127723Y-85868836D01*
X140127474Y-85860911D01*
X140121821Y-85841452D01*
X140117812Y-85822093D01*
X140117646Y-85820783D01*
X140115274Y-85802003D01*
X140112358Y-85794637D01*
X140112356Y-85794631D01*
X140099000Y-85760898D01*
X140095155Y-85749668D01*
X140085030Y-85714817D01*
X140085030Y-85714816D01*
X140082819Y-85707207D01*
X140072505Y-85689766D01*
X140063808Y-85672013D01*
X140059272Y-85660558D01*
X140056352Y-85653183D01*
X140030363Y-85617412D01*
X140023847Y-85607492D01*
X140001342Y-85569438D01*
X139995738Y-85563833D01*
X139987020Y-85555115D01*
X139974179Y-85540081D01*
X139966931Y-85530105D01*
X139966930Y-85530104D01*
X139962272Y-85523693D01*
X139928201Y-85495507D01*
X139919422Y-85487518D01*
X139855205Y-85423301D01*
X139821179Y-85360989D01*
X139818300Y-85334206D01*
X139818300Y-82027017D01*
X139838302Y-81958896D01*
X139891958Y-81912403D01*
X139962232Y-81902299D01*
X140025123Y-81930355D01*
X140067922Y-81966141D01*
X140067932Y-81966148D01*
X140071223Y-81968900D01*
X140163869Y-82027017D01*
X140309679Y-82118484D01*
X140309683Y-82118486D01*
X140313319Y-82120767D01*
X140573786Y-82238372D01*
X140577905Y-82239592D01*
X140843690Y-82318322D01*
X140843695Y-82318323D01*
X140847803Y-82319540D01*
X140852037Y-82320188D01*
X140852042Y-82320189D01*
X141126059Y-82362119D01*
X141126061Y-82362119D01*
X141130301Y-82362768D01*
X141275788Y-82365054D01*
X141411762Y-82367190D01*
X141411768Y-82367190D01*
X141416053Y-82367257D01*
X141699769Y-82332923D01*
X141976201Y-82260403D01*
X141980161Y-82258763D01*
X141980166Y-82258761D01*
X142122148Y-82199950D01*
X142240233Y-82151037D01*
X142486980Y-82006850D01*
X142711875Y-81830509D01*
X142910758Y-81625279D01*
X143079947Y-81394955D01*
X143216312Y-81143801D01*
X143317331Y-80876464D01*
X143349080Y-80737839D01*
X143383785Y-80675903D01*
X143446466Y-80642562D01*
X143517222Y-80648401D01*
X143573589Y-80691568D01*
X143597670Y-80758355D01*
X143597900Y-80765968D01*
X143597900Y-108142204D01*
X143577898Y-108210325D01*
X143524242Y-108256818D01*
X143453968Y-108266922D01*
X143389388Y-108237428D01*
X143367706Y-108211168D01*
X143367224Y-108211518D01*
X143363341Y-108206174D01*
X143360040Y-108200456D01*
X143277994Y-108109334D01*
X143236675Y-108063445D01*
X143236674Y-108063444D01*
X143232253Y-108058534D01*
X143077752Y-107946282D01*
X143071724Y-107943598D01*
X143071722Y-107943597D01*
X142909319Y-107871291D01*
X142909318Y-107871291D01*
X142903288Y-107868606D01*
X142809887Y-107848753D01*
X142722944Y-107830272D01*
X142722939Y-107830272D01*
X142716487Y-107828900D01*
X142525513Y-107828900D01*
X142519061Y-107830272D01*
X142519056Y-107830272D01*
X142432113Y-107848753D01*
X142338712Y-107868606D01*
X142332682Y-107871291D01*
X142332681Y-107871291D01*
X142170278Y-107943597D01*
X142170276Y-107943598D01*
X142164248Y-107946282D01*
X142009747Y-108058534D01*
X142005326Y-108063444D01*
X142005325Y-108063445D01*
X141964007Y-108109334D01*
X141881960Y-108200456D01*
X141786473Y-108365844D01*
X141727458Y-108547472D01*
X141726768Y-108554033D01*
X141726768Y-108554035D01*
X141720622Y-108612516D01*
X141707496Y-108737400D01*
X141708186Y-108743965D01*
X141721904Y-108874480D01*
X141727458Y-108927328D01*
X141786473Y-109108956D01*
X141881960Y-109274344D01*
X141886378Y-109279251D01*
X141886379Y-109279252D01*
X141919687Y-109316244D01*
X141982441Y-109385939D01*
X141994136Y-109398928D01*
X142024853Y-109462935D01*
X142026500Y-109483238D01*
X142026500Y-112281487D01*
X142006498Y-112349608D01*
X141952842Y-112396101D01*
X141882568Y-112406205D01*
X141817988Y-112376711D01*
X141791381Y-112344487D01*
X141763141Y-112295574D01*
X141759840Y-112289856D01*
X141709681Y-112234148D01*
X141636475Y-112152845D01*
X141636474Y-112152844D01*
X141632053Y-112147934D01*
X141477552Y-112035682D01*
X141471524Y-112032998D01*
X141471522Y-112032997D01*
X141309119Y-111960691D01*
X141309118Y-111960691D01*
X141303088Y-111958006D01*
X141209688Y-111938153D01*
X141122744Y-111919672D01*
X141122739Y-111919672D01*
X141116287Y-111918300D01*
X140925313Y-111918300D01*
X140918861Y-111919672D01*
X140918856Y-111919672D01*
X140831912Y-111938153D01*
X140738512Y-111958006D01*
X140732482Y-111960691D01*
X140732481Y-111960691D01*
X140570078Y-112032997D01*
X140570076Y-112032998D01*
X140564048Y-112035682D01*
X140409547Y-112147934D01*
X140405126Y-112152844D01*
X140405125Y-112152845D01*
X140331920Y-112234148D01*
X140281760Y-112289856D01*
X140186273Y-112455244D01*
X140127258Y-112636872D01*
X140107296Y-112826800D01*
X140107986Y-112833365D01*
X140122579Y-112972206D01*
X140127258Y-113016728D01*
X140186273Y-113198356D01*
X140281760Y-113363744D01*
X140354937Y-113445015D01*
X140385653Y-113509021D01*
X140387300Y-113529324D01*
X140387300Y-123281806D01*
X140367298Y-123349927D01*
X140350395Y-123370901D01*
X138766665Y-124954630D01*
X138766662Y-124954633D01*
X138458499Y-125262795D01*
X138396187Y-125296821D01*
X138369404Y-125299700D01*
X135988600Y-125299700D01*
X135920479Y-125279698D01*
X135901253Y-125263357D01*
X135900980Y-125263660D01*
X135896068Y-125259237D01*
X135891653Y-125254334D01*
X135815182Y-125198774D01*
X135742494Y-125145963D01*
X135742493Y-125145962D01*
X135737152Y-125142082D01*
X135731124Y-125139398D01*
X135731122Y-125139397D01*
X135568719Y-125067091D01*
X135568718Y-125067091D01*
X135562688Y-125064406D01*
X135469288Y-125044553D01*
X135382344Y-125026072D01*
X135382339Y-125026072D01*
X135375887Y-125024700D01*
X135184913Y-125024700D01*
X135178461Y-125026072D01*
X135178456Y-125026072D01*
X135091512Y-125044553D01*
X134998112Y-125064406D01*
X134992082Y-125067091D01*
X134992081Y-125067091D01*
X134850349Y-125130194D01*
X134779982Y-125139628D01*
X134715685Y-125109521D01*
X134677871Y-125049433D01*
X134673100Y-125015087D01*
X134673100Y-111994594D01*
X134693102Y-111926473D01*
X134710005Y-111905499D01*
X140971300Y-105644205D01*
X141033612Y-105610179D01*
X141060395Y-105607300D01*
X141116287Y-105607300D01*
X141122739Y-105605928D01*
X141122744Y-105605928D01*
X141209688Y-105587447D01*
X141303088Y-105567594D01*
X141309119Y-105564909D01*
X141471522Y-105492603D01*
X141471524Y-105492602D01*
X141477552Y-105489918D01*
X141632053Y-105377666D01*
X141732223Y-105266416D01*
X141755421Y-105240652D01*
X141755422Y-105240651D01*
X141759840Y-105235744D01*
X141855327Y-105070356D01*
X141914342Y-104888728D01*
X141934304Y-104698800D01*
X141914342Y-104508872D01*
X141855327Y-104327244D01*
X141759840Y-104161856D01*
X141632053Y-104019934D01*
X141477552Y-103907682D01*
X141471524Y-103904998D01*
X141471522Y-103904997D01*
X141309119Y-103832691D01*
X141309118Y-103832691D01*
X141303088Y-103830006D01*
X141209688Y-103810153D01*
X141122744Y-103791672D01*
X141122739Y-103791672D01*
X141116287Y-103790300D01*
X140925313Y-103790300D01*
X140918861Y-103791672D01*
X140918856Y-103791672D01*
X140831912Y-103810153D01*
X140738512Y-103830006D01*
X140732482Y-103832691D01*
X140732481Y-103832691D01*
X140570078Y-103904997D01*
X140570076Y-103904998D01*
X140564048Y-103907682D01*
X140409547Y-104019934D01*
X140281760Y-104161856D01*
X140186273Y-104327244D01*
X140127258Y-104508872D01*
X140126568Y-104515433D01*
X140126568Y-104515435D01*
X140109893Y-104674093D01*
X140082880Y-104739750D01*
X140073678Y-104750018D01*
X134438195Y-110385500D01*
X134375883Y-110419526D01*
X134305068Y-110414461D01*
X134248232Y-110371914D01*
X134223421Y-110305394D01*
X134223100Y-110296405D01*
X134223100Y-103591539D01*
X134243102Y-103523418D01*
X134267279Y-103496154D01*
X134271618Y-103493400D01*
X134318245Y-103443747D01*
X134320999Y-103440906D01*
X134340735Y-103421170D01*
X134343215Y-103417973D01*
X134350920Y-103408951D01*
X134375759Y-103382500D01*
X134381186Y-103376721D01*
X134385005Y-103369775D01*
X134385007Y-103369772D01*
X134390948Y-103358966D01*
X134401799Y-103342447D01*
X134409358Y-103332701D01*
X134414214Y-103326441D01*
X134417359Y-103319172D01*
X134417362Y-103319168D01*
X134431774Y-103285863D01*
X134436991Y-103275213D01*
X134458295Y-103236460D01*
X134463333Y-103216837D01*
X134469737Y-103198134D01*
X134474633Y-103186820D01*
X134474633Y-103186819D01*
X134477781Y-103179545D01*
X134479020Y-103171722D01*
X134479023Y-103171712D01*
X134484699Y-103135876D01*
X134487105Y-103124256D01*
X134496128Y-103089111D01*
X134496128Y-103089110D01*
X134498100Y-103081430D01*
X134498100Y-103061176D01*
X134499651Y-103041465D01*
X134501580Y-103029286D01*
X134502820Y-103021457D01*
X134498659Y-102977438D01*
X134498100Y-102965581D01*
X134498100Y-99630195D01*
X134518102Y-99562074D01*
X134571758Y-99515581D01*
X134642032Y-99505477D01*
X134706612Y-99534971D01*
X134713195Y-99541100D01*
X134892078Y-99719983D01*
X134926104Y-99782295D01*
X134928293Y-99795908D01*
X134939273Y-99900374D01*
X134945658Y-99961128D01*
X135004673Y-100142756D01*
X135100160Y-100308144D01*
X135104578Y-100313051D01*
X135104579Y-100313052D01*
X135186492Y-100404026D01*
X135227947Y-100450066D01*
X135382448Y-100562318D01*
X135388476Y-100565002D01*
X135388478Y-100565003D01*
X135515436Y-100621528D01*
X135556912Y-100639994D01*
X135650312Y-100659847D01*
X135737256Y-100678328D01*
X135737261Y-100678328D01*
X135743713Y-100679700D01*
X135934687Y-100679700D01*
X135941139Y-100678328D01*
X135941144Y-100678328D01*
X136028087Y-100659847D01*
X136121488Y-100639994D01*
X136162964Y-100621528D01*
X136289922Y-100565003D01*
X136289924Y-100565002D01*
X136295952Y-100562318D01*
X136450453Y-100450066D01*
X136491908Y-100404026D01*
X136573821Y-100313052D01*
X136573822Y-100313051D01*
X136578240Y-100308144D01*
X136673727Y-100142756D01*
X136732742Y-99961128D01*
X136735402Y-99935826D01*
X136752014Y-99777765D01*
X136752704Y-99771200D01*
X136744110Y-99689435D01*
X136733432Y-99587835D01*
X136733432Y-99587833D01*
X136732742Y-99581272D01*
X136673727Y-99399644D01*
X136661273Y-99378072D01*
X136581541Y-99239974D01*
X136578240Y-99234256D01*
X136469971Y-99114011D01*
X136463463Y-99100450D01*
X136463361Y-99100428D01*
X136449685Y-99091776D01*
X136301294Y-98983963D01*
X136301293Y-98983962D01*
X136295952Y-98980082D01*
X136289924Y-98977398D01*
X136289922Y-98977397D01*
X136127519Y-98905091D01*
X136127518Y-98905091D01*
X136121488Y-98902406D01*
X136028087Y-98882553D01*
X135941144Y-98864072D01*
X135941139Y-98864072D01*
X135934687Y-98862700D01*
X135878794Y-98862700D01*
X135810673Y-98842698D01*
X135789699Y-98825795D01*
X133875300Y-96911395D01*
X133841274Y-96849083D01*
X133846339Y-96778267D01*
X133888886Y-96721432D01*
X133955406Y-96696621D01*
X133964395Y-96696300D01*
X134356206Y-96696300D01*
X134424327Y-96716302D01*
X134445301Y-96733205D01*
X136612841Y-98900745D01*
X136623800Y-98920815D01*
X136629697Y-98922425D01*
X136652702Y-98940606D01*
X137533678Y-99821582D01*
X137567704Y-99883894D01*
X137569892Y-99897503D01*
X137587258Y-100062728D01*
X137646273Y-100244356D01*
X137741760Y-100409744D01*
X137869547Y-100551666D01*
X137887904Y-100565003D01*
X137991120Y-100639994D01*
X138024048Y-100663918D01*
X138030076Y-100666602D01*
X138030078Y-100666603D01*
X138059495Y-100679700D01*
X138198512Y-100741594D01*
X138291913Y-100761447D01*
X138378856Y-100779928D01*
X138378861Y-100779928D01*
X138385313Y-100781300D01*
X138576287Y-100781300D01*
X138582739Y-100779928D01*
X138582744Y-100779928D01*
X138669688Y-100761447D01*
X138763088Y-100741594D01*
X138902105Y-100679700D01*
X138931522Y-100666603D01*
X138931524Y-100666602D01*
X138937552Y-100663918D01*
X138970481Y-100639994D01*
X139073696Y-100565003D01*
X139092053Y-100551666D01*
X139219840Y-100409744D01*
X139315327Y-100244356D01*
X139374342Y-100062728D01*
X139385021Y-99961128D01*
X139393614Y-99879365D01*
X139394304Y-99872800D01*
X139386710Y-99800546D01*
X139375032Y-99689435D01*
X139375032Y-99689433D01*
X139374342Y-99682872D01*
X139315327Y-99501244D01*
X139219840Y-99335856D01*
X139092053Y-99193934D01*
X138937552Y-99081682D01*
X138931524Y-99078998D01*
X138931522Y-99078997D01*
X138769119Y-99006691D01*
X138769118Y-99006691D01*
X138763088Y-99004006D01*
X138668794Y-98983963D01*
X138582744Y-98965672D01*
X138582739Y-98965672D01*
X138576287Y-98964300D01*
X138520394Y-98964300D01*
X138452273Y-98944298D01*
X138431299Y-98927395D01*
X135174452Y-95670547D01*
X135166912Y-95662261D01*
X135162800Y-95655782D01*
X135113148Y-95609156D01*
X135110307Y-95606402D01*
X135090570Y-95586665D01*
X135087373Y-95584185D01*
X135078351Y-95576480D01*
X135051900Y-95551641D01*
X135046121Y-95546214D01*
X135039175Y-95542395D01*
X135039172Y-95542393D01*
X135028366Y-95536452D01*
X135011847Y-95525601D01*
X135006868Y-95521739D01*
X134995841Y-95513186D01*
X134988572Y-95510041D01*
X134988568Y-95510038D01*
X134955263Y-95495626D01*
X134944613Y-95490409D01*
X134905860Y-95469105D01*
X134886237Y-95464067D01*
X134867534Y-95457663D01*
X134856220Y-95452767D01*
X134856219Y-95452767D01*
X134848945Y-95449619D01*
X134841122Y-95448380D01*
X134841112Y-95448377D01*
X134805276Y-95442701D01*
X134793656Y-95440295D01*
X134758511Y-95431272D01*
X134758510Y-95431272D01*
X134750830Y-95429300D01*
X134730576Y-95429300D01*
X134710865Y-95427749D01*
X134698686Y-95425820D01*
X134690857Y-95424580D01*
X134682965Y-95425326D01*
X134646839Y-95428741D01*
X134634981Y-95429300D01*
X123352195Y-95429300D01*
X123284074Y-95409298D01*
X123263100Y-95392395D01*
X123096273Y-95225568D01*
X123062247Y-95163256D01*
X123067312Y-95092441D01*
X123091732Y-95052163D01*
X123111821Y-95029852D01*
X123111822Y-95029851D01*
X123116240Y-95024944D01*
X123211727Y-94859556D01*
X123270742Y-94677928D01*
X123272000Y-94665964D01*
X123290014Y-94494565D01*
X123290704Y-94488000D01*
X123273951Y-94328606D01*
X123271432Y-94304635D01*
X123271432Y-94304633D01*
X123270742Y-94298072D01*
X123211727Y-94116444D01*
X123116240Y-93951056D01*
X123100081Y-93933109D01*
X122992875Y-93814045D01*
X122992874Y-93814044D01*
X122988453Y-93809134D01*
X122833952Y-93696882D01*
X122827924Y-93694198D01*
X122827922Y-93694197D01*
X122665519Y-93621891D01*
X122665518Y-93621891D01*
X122659488Y-93619206D01*
X122547754Y-93595456D01*
X122479144Y-93580872D01*
X122479139Y-93580872D01*
X122472687Y-93579500D01*
X122281713Y-93579500D01*
X122275261Y-93580872D01*
X122275256Y-93580872D01*
X122206646Y-93595456D01*
X122094912Y-93619206D01*
X122088882Y-93621891D01*
X122088881Y-93621891D01*
X121926478Y-93694197D01*
X121926476Y-93694198D01*
X121920448Y-93696882D01*
X121765947Y-93809134D01*
X121761532Y-93814037D01*
X121756620Y-93818460D01*
X121755495Y-93817211D01*
X121702186Y-93850051D01*
X121669000Y-93854500D01*
X111432367Y-93854500D01*
X111421184Y-93853973D01*
X111413691Y-93852298D01*
X111405765Y-93852547D01*
X111405764Y-93852547D01*
X111345614Y-93854438D01*
X111341655Y-93854500D01*
X111313744Y-93854500D01*
X111309810Y-93854997D01*
X111309809Y-93854997D01*
X111309744Y-93855005D01*
X111297907Y-93855938D01*
X111266090Y-93856938D01*
X111261629Y-93857078D01*
X111253710Y-93857327D01*
X111236054Y-93862456D01*
X111234258Y-93862978D01*
X111214906Y-93866986D01*
X111207835Y-93867880D01*
X111194803Y-93869526D01*
X111187434Y-93872443D01*
X111187432Y-93872444D01*
X111153697Y-93885800D01*
X111142469Y-93889645D01*
X111100007Y-93901982D01*
X111093185Y-93906016D01*
X111093179Y-93906019D01*
X111082568Y-93912294D01*
X111064818Y-93920990D01*
X111053356Y-93925528D01*
X111053351Y-93925531D01*
X111045983Y-93928448D01*
X111028570Y-93941099D01*
X111010225Y-93954427D01*
X111000307Y-93960943D01*
X110981619Y-93971995D01*
X110962237Y-93983458D01*
X110947913Y-93997782D01*
X110932881Y-94010621D01*
X110916493Y-94022528D01*
X110888312Y-94056593D01*
X110880322Y-94065373D01*
X109089800Y-95855895D01*
X109027488Y-95889921D01*
X109000705Y-95892800D01*
X108944813Y-95892800D01*
X108938361Y-95894172D01*
X108938356Y-95894172D01*
X108851413Y-95912653D01*
X108758012Y-95932506D01*
X108751982Y-95935191D01*
X108751981Y-95935191D01*
X108589578Y-96007497D01*
X108589576Y-96007498D01*
X108583548Y-96010182D01*
X108578207Y-96014062D01*
X108578206Y-96014063D01*
X108504161Y-96067860D01*
X108437293Y-96091719D01*
X108368142Y-96075638D01*
X108318661Y-96024724D01*
X108304100Y-95965924D01*
X108304100Y-92313394D01*
X108324102Y-92245273D01*
X108341005Y-92224299D01*
X112701460Y-87863845D01*
X112763772Y-87829819D01*
X112834588Y-87834884D01*
X112841777Y-87837822D01*
X112900112Y-87863794D01*
X112941740Y-87872642D01*
X113080456Y-87902128D01*
X113080461Y-87902128D01*
X113086913Y-87903500D01*
X113277887Y-87903500D01*
X113284339Y-87902128D01*
X113284344Y-87902128D01*
X113371288Y-87883647D01*
X113464688Y-87863794D01*
X113522998Y-87837833D01*
X113633122Y-87788803D01*
X113633124Y-87788802D01*
X113639152Y-87786118D01*
X113793653Y-87673866D01*
X113798068Y-87668963D01*
X113802980Y-87664540D01*
X113804105Y-87665789D01*
X113857414Y-87632949D01*
X113890600Y-87628500D01*
X133403800Y-87628500D01*
X133471921Y-87648502D01*
X133491147Y-87664843D01*
X133491420Y-87664540D01*
X133496332Y-87668963D01*
X133500747Y-87673866D01*
X133655248Y-87786118D01*
X133661276Y-87788802D01*
X133661278Y-87788803D01*
X133771402Y-87837833D01*
X133829712Y-87863794D01*
X133923112Y-87883647D01*
X134010056Y-87902128D01*
X134010061Y-87902128D01*
X134016513Y-87903500D01*
X134207487Y-87903500D01*
X134213939Y-87902128D01*
X134213944Y-87902128D01*
X134300888Y-87883647D01*
X134394288Y-87863794D01*
X134452598Y-87837833D01*
X134562722Y-87788803D01*
X134562724Y-87788802D01*
X134568752Y-87786118D01*
X134723253Y-87673866D01*
X134851040Y-87531944D01*
X134946527Y-87366556D01*
X135005542Y-87184928D01*
X135025504Y-86995000D01*
X135005542Y-86805072D01*
X134946527Y-86623444D01*
X134851040Y-86458056D01*
X134838027Y-86443603D01*
X134727675Y-86321045D01*
X134727674Y-86321044D01*
X134723253Y-86316134D01*
X134568752Y-86203882D01*
X134562724Y-86201198D01*
X134562722Y-86201197D01*
X134400319Y-86128891D01*
X134400318Y-86128891D01*
X134394288Y-86126206D01*
X134300888Y-86106353D01*
X134213944Y-86087872D01*
X134213939Y-86087872D01*
X134207487Y-86086500D01*
X134016513Y-86086500D01*
X134010061Y-86087872D01*
X134010056Y-86087872D01*
X133923112Y-86106353D01*
X133829712Y-86126206D01*
X133823682Y-86128891D01*
X133823681Y-86128891D01*
X133661278Y-86201197D01*
X133661276Y-86201198D01*
X133655248Y-86203882D01*
X133500747Y-86316134D01*
X133496332Y-86321037D01*
X133491420Y-86325460D01*
X133490295Y-86324211D01*
X133436986Y-86357051D01*
X133403800Y-86361500D01*
X113890600Y-86361500D01*
X113822479Y-86341498D01*
X113803253Y-86325157D01*
X113802980Y-86325460D01*
X113798068Y-86321037D01*
X113793653Y-86316134D01*
X113639152Y-86203882D01*
X113633124Y-86201198D01*
X113633122Y-86201197D01*
X113470719Y-86128891D01*
X113470718Y-86128891D01*
X113464688Y-86126206D01*
X113371288Y-86106353D01*
X113284344Y-86087872D01*
X113284339Y-86087872D01*
X113277887Y-86086500D01*
X113086913Y-86086500D01*
X113080461Y-86087872D01*
X113080456Y-86087872D01*
X112993512Y-86106353D01*
X112900112Y-86126206D01*
X112894082Y-86128891D01*
X112894081Y-86128891D01*
X112731678Y-86201197D01*
X112731676Y-86201198D01*
X112725648Y-86203882D01*
X112571147Y-86316134D01*
X112494252Y-86401535D01*
X112447002Y-86434374D01*
X112423691Y-86443603D01*
X112412465Y-86447446D01*
X112370007Y-86459782D01*
X112363181Y-86463819D01*
X112352572Y-86470093D01*
X112334824Y-86478788D01*
X112315983Y-86486248D01*
X112309567Y-86490910D01*
X112309566Y-86490910D01*
X112280213Y-86512236D01*
X112270293Y-86518752D01*
X112239065Y-86537220D01*
X112239062Y-86537222D01*
X112232238Y-86541258D01*
X112217917Y-86555579D01*
X112202884Y-86568419D01*
X112186493Y-86580328D01*
X112181442Y-86586434D01*
X112158302Y-86614405D01*
X112150312Y-86623184D01*
X107278347Y-91495148D01*
X107270061Y-91502688D01*
X107263582Y-91506800D01*
X107258157Y-91512577D01*
X107216957Y-91556451D01*
X107214202Y-91559293D01*
X107194465Y-91579030D01*
X107191985Y-91582227D01*
X107184282Y-91591247D01*
X107154014Y-91623479D01*
X107150195Y-91630425D01*
X107150193Y-91630428D01*
X107144252Y-91641234D01*
X107133401Y-91657753D01*
X107120986Y-91673759D01*
X107117841Y-91681028D01*
X107117838Y-91681032D01*
X107103426Y-91714337D01*
X107098209Y-91724987D01*
X107076905Y-91763740D01*
X107074934Y-91771415D01*
X107074934Y-91771416D01*
X107071867Y-91783362D01*
X107065463Y-91802066D01*
X107057419Y-91820655D01*
X107056180Y-91828478D01*
X107056177Y-91828488D01*
X107050501Y-91864324D01*
X107048095Y-91875944D01*
X107037100Y-91918770D01*
X107037100Y-91939024D01*
X107035549Y-91958734D01*
X107032380Y-91978743D01*
X107033126Y-91986635D01*
X107036541Y-92022761D01*
X107037100Y-92034619D01*
X107037100Y-96378138D01*
X107036573Y-96389321D01*
X107034898Y-96396814D01*
X107035147Y-96404740D01*
X107035147Y-96404741D01*
X107037038Y-96464891D01*
X107037100Y-96468850D01*
X107037100Y-96496761D01*
X107037597Y-96500695D01*
X107037597Y-96500696D01*
X107037605Y-96500761D01*
X107038538Y-96512598D01*
X107039927Y-96556794D01*
X107045578Y-96576244D01*
X107049587Y-96595605D01*
X107052126Y-96615702D01*
X107055045Y-96623073D01*
X107055045Y-96623075D01*
X107068404Y-96656817D01*
X107072249Y-96668047D01*
X107079828Y-96694135D01*
X107084582Y-96710498D01*
X107088615Y-96717317D01*
X107088617Y-96717322D01*
X107094893Y-96727933D01*
X107103588Y-96745681D01*
X107111048Y-96764522D01*
X107115710Y-96770938D01*
X107115710Y-96770939D01*
X107137036Y-96800292D01*
X107143552Y-96810212D01*
X107166058Y-96848267D01*
X107180379Y-96862588D01*
X107193219Y-96877621D01*
X107205128Y-96894012D01*
X107239205Y-96922203D01*
X107247984Y-96930193D01*
X111141638Y-100823847D01*
X111149182Y-100832137D01*
X111153295Y-100838618D01*
X111159072Y-100844043D01*
X111202962Y-100885258D01*
X111205804Y-100888013D01*
X111225526Y-100907735D01*
X111228650Y-100910158D01*
X111228654Y-100910162D01*
X111228719Y-100910212D01*
X111237740Y-100917917D01*
X111269974Y-100948186D01*
X111276922Y-100952005D01*
X111276924Y-100952007D01*
X111287727Y-100957946D01*
X111304254Y-100968802D01*
X111313993Y-100976357D01*
X111313995Y-100976358D01*
X111320255Y-100981214D01*
X111360835Y-100998774D01*
X111371483Y-101003991D01*
X111410235Y-101025295D01*
X111417911Y-101027266D01*
X111417914Y-101027267D01*
X111429857Y-101030333D01*
X111448562Y-101036737D01*
X111467150Y-101044781D01*
X111474973Y-101046020D01*
X111474983Y-101046023D01*
X111510819Y-101051699D01*
X111522439Y-101054105D01*
X111557584Y-101063128D01*
X111565265Y-101065100D01*
X111573195Y-101065100D01*
X111574889Y-101065314D01*
X111639966Y-101093695D01*
X111651391Y-101104714D01*
X111652326Y-101105555D01*
X111656747Y-101110466D01*
X111811248Y-101222718D01*
X111817276Y-101225402D01*
X111817278Y-101225403D01*
X111979681Y-101297709D01*
X111985712Y-101300394D01*
X112079113Y-101320247D01*
X112166056Y-101338728D01*
X112166061Y-101338728D01*
X112172513Y-101340100D01*
X112363487Y-101340100D01*
X112369939Y-101338728D01*
X112369944Y-101338728D01*
X112456887Y-101320247D01*
X112550288Y-101300394D01*
X112556319Y-101297709D01*
X112718722Y-101225403D01*
X112718724Y-101225402D01*
X112724752Y-101222718D01*
X112879253Y-101110466D01*
X112930001Y-101054105D01*
X113002621Y-100973452D01*
X113002622Y-100973451D01*
X113007040Y-100968544D01*
X113082053Y-100838618D01*
X113099223Y-100808879D01*
X113099224Y-100808878D01*
X113102527Y-100803156D01*
X113161542Y-100621528D01*
X113181504Y-100431600D01*
X113169044Y-100313052D01*
X113162232Y-100248235D01*
X113162232Y-100248233D01*
X113161542Y-100241672D01*
X113102527Y-100060044D01*
X113007040Y-99894656D01*
X113000646Y-99887554D01*
X112883675Y-99757645D01*
X112883674Y-99757644D01*
X112879253Y-99752734D01*
X112724752Y-99640482D01*
X112718724Y-99637798D01*
X112718722Y-99637797D01*
X112556319Y-99565491D01*
X112556318Y-99565491D01*
X112550288Y-99562806D01*
X112448170Y-99541100D01*
X112369944Y-99524472D01*
X112369939Y-99524472D01*
X112363487Y-99523100D01*
X112172513Y-99523100D01*
X112166061Y-99524472D01*
X112166056Y-99524472D01*
X112087830Y-99541100D01*
X111985712Y-99562806D01*
X111848033Y-99624104D01*
X111777668Y-99633538D01*
X111713371Y-99603432D01*
X111707691Y-99598092D01*
X109706826Y-97597227D01*
X109672800Y-97534915D01*
X109677865Y-97464100D01*
X109702283Y-97423825D01*
X109779340Y-97338244D01*
X109874827Y-97172856D01*
X109933842Y-96991228D01*
X109951207Y-96826006D01*
X109978220Y-96760350D01*
X109987422Y-96750082D01*
X111579099Y-95158405D01*
X111641411Y-95124379D01*
X111668194Y-95121500D01*
X121617700Y-95121500D01*
X121685821Y-95141502D01*
X121732314Y-95195158D01*
X121743700Y-95247500D01*
X121743700Y-95323633D01*
X121743173Y-95334816D01*
X121741498Y-95342309D01*
X121741747Y-95350235D01*
X121741747Y-95350236D01*
X121743638Y-95410386D01*
X121743700Y-95414345D01*
X121743700Y-95442256D01*
X121744197Y-95446190D01*
X121744197Y-95446191D01*
X121744205Y-95446256D01*
X121745138Y-95458093D01*
X121746527Y-95502289D01*
X121749693Y-95513186D01*
X121752178Y-95521739D01*
X121756187Y-95541100D01*
X121758726Y-95561197D01*
X121761645Y-95568568D01*
X121761645Y-95568570D01*
X121775004Y-95602312D01*
X121778849Y-95613542D01*
X121791182Y-95655993D01*
X121795215Y-95662812D01*
X121795217Y-95662817D01*
X121801493Y-95673428D01*
X121810188Y-95691176D01*
X121817648Y-95710017D01*
X121822310Y-95716433D01*
X121822310Y-95716434D01*
X121843636Y-95745787D01*
X121850152Y-95755707D01*
X121872658Y-95793762D01*
X121886979Y-95808083D01*
X121899819Y-95823116D01*
X121911728Y-95839507D01*
X121917834Y-95844558D01*
X121945805Y-95867698D01*
X121954584Y-95875688D01*
X122105901Y-96027005D01*
X122139927Y-96089317D01*
X122134862Y-96160132D01*
X122092315Y-96216968D01*
X122025795Y-96241779D01*
X122016806Y-96242100D01*
X112366789Y-96242100D01*
X112298668Y-96222098D01*
X112281381Y-96207404D01*
X112280880Y-96207960D01*
X112275968Y-96203537D01*
X112271553Y-96198634D01*
X112117052Y-96086382D01*
X112111024Y-96083698D01*
X112111022Y-96083697D01*
X111948619Y-96011391D01*
X111948618Y-96011391D01*
X111942588Y-96008706D01*
X111849187Y-95988853D01*
X111762244Y-95970372D01*
X111762239Y-95970372D01*
X111755787Y-95969000D01*
X111564813Y-95969000D01*
X111558361Y-95970372D01*
X111558356Y-95970372D01*
X111471412Y-95988853D01*
X111378012Y-96008706D01*
X111371982Y-96011391D01*
X111371981Y-96011391D01*
X111209578Y-96083697D01*
X111209576Y-96083698D01*
X111203548Y-96086382D01*
X111049047Y-96198634D01*
X110921260Y-96340556D01*
X110825773Y-96505944D01*
X110766758Y-96687572D01*
X110766068Y-96694133D01*
X110766068Y-96694135D01*
X110765807Y-96696621D01*
X110746796Y-96877500D01*
X110766758Y-97067428D01*
X110825773Y-97249056D01*
X110921260Y-97414444D01*
X110925678Y-97419351D01*
X110925679Y-97419352D01*
X111010494Y-97513549D01*
X111049047Y-97556366D01*
X111203548Y-97668618D01*
X111209576Y-97671302D01*
X111209578Y-97671303D01*
X111367714Y-97741709D01*
X111378012Y-97746294D01*
X111471412Y-97766147D01*
X111558356Y-97784628D01*
X111558361Y-97784628D01*
X111564813Y-97786000D01*
X111755787Y-97786000D01*
X111762239Y-97784628D01*
X111762244Y-97784628D01*
X111849187Y-97766147D01*
X111942588Y-97746294D01*
X111952886Y-97741709D01*
X112111022Y-97671303D01*
X112111024Y-97671302D01*
X112117052Y-97668618D01*
X112271553Y-97556366D01*
X112275976Y-97551454D01*
X112276578Y-97550786D01*
X112277023Y-97550512D01*
X112280880Y-97547039D01*
X112281515Y-97547745D01*
X112337025Y-97513549D01*
X112370211Y-97509100D01*
X122431000Y-97509100D01*
X122499121Y-97529102D01*
X122518347Y-97545443D01*
X122518620Y-97545140D01*
X122523532Y-97549563D01*
X122527947Y-97554466D01*
X122533286Y-97558345D01*
X122590757Y-97600100D01*
X122682448Y-97666718D01*
X122688476Y-97669402D01*
X122688478Y-97669403D01*
X122850881Y-97741709D01*
X122856912Y-97744394D01*
X122950313Y-97764247D01*
X123037256Y-97782728D01*
X123037261Y-97782728D01*
X123043713Y-97784100D01*
X123234687Y-97784100D01*
X123241139Y-97782728D01*
X123241144Y-97782728D01*
X123328087Y-97764247D01*
X123421488Y-97744394D01*
X123427519Y-97741709D01*
X123589922Y-97669403D01*
X123589924Y-97669402D01*
X123595952Y-97666718D01*
X123687644Y-97600100D01*
X123745114Y-97558345D01*
X123750453Y-97554466D01*
X123754868Y-97549563D01*
X123759780Y-97545140D01*
X123760905Y-97546389D01*
X123814214Y-97513549D01*
X123847400Y-97509100D01*
X126353383Y-97509100D01*
X126421504Y-97529102D01*
X126467997Y-97582758D01*
X126478693Y-97621929D01*
X126495594Y-97782728D01*
X126496361Y-97790028D01*
X126555376Y-97971656D01*
X126650863Y-98137044D01*
X126778650Y-98278966D01*
X126933151Y-98391218D01*
X126939179Y-98393902D01*
X126939181Y-98393903D01*
X127101584Y-98466209D01*
X127107615Y-98468894D01*
X127201015Y-98488747D01*
X127287959Y-98507228D01*
X127287964Y-98507228D01*
X127294416Y-98508600D01*
X127485390Y-98508600D01*
X127491842Y-98507228D01*
X127491847Y-98507228D01*
X127578791Y-98488747D01*
X127672191Y-98468894D01*
X127678222Y-98466209D01*
X127840625Y-98393903D01*
X127840627Y-98393902D01*
X127846655Y-98391218D01*
X128001156Y-98278966D01*
X128128943Y-98137044D01*
X128195306Y-98022100D01*
X128246688Y-97973107D01*
X128304425Y-97959100D01*
X132442610Y-97959100D01*
X132510731Y-97979102D01*
X132531705Y-97996005D01*
X133005122Y-98469422D01*
X133039148Y-98531734D01*
X133034083Y-98602549D01*
X132991536Y-98659385D01*
X132925016Y-98684196D01*
X132889830Y-98681764D01*
X132791544Y-98660872D01*
X132791539Y-98660872D01*
X132785087Y-98659500D01*
X132594113Y-98659500D01*
X132587661Y-98660872D01*
X132587656Y-98660872D01*
X132500712Y-98679353D01*
X132407312Y-98699206D01*
X132401282Y-98701891D01*
X132401281Y-98701891D01*
X132238878Y-98774197D01*
X132238876Y-98774198D01*
X132232848Y-98776882D01*
X132078347Y-98889134D01*
X131950560Y-99031056D01*
X131855073Y-99196444D01*
X131796058Y-99378072D01*
X131782452Y-99507529D01*
X131781723Y-99514461D01*
X131754710Y-99580117D01*
X131745508Y-99590385D01*
X131535347Y-99800546D01*
X131527061Y-99808086D01*
X131520582Y-99812198D01*
X131515157Y-99817975D01*
X131473957Y-99861849D01*
X131471202Y-99864691D01*
X131451465Y-99884428D01*
X131448985Y-99887625D01*
X131441282Y-99896645D01*
X131411014Y-99928877D01*
X131407195Y-99935823D01*
X131407193Y-99935826D01*
X131401252Y-99946632D01*
X131390401Y-99963151D01*
X131377986Y-99979157D01*
X131374841Y-99986426D01*
X131374838Y-99986430D01*
X131360426Y-100019735D01*
X131355209Y-100030385D01*
X131333905Y-100069138D01*
X131331934Y-100076813D01*
X131331934Y-100076814D01*
X131328867Y-100088760D01*
X131322463Y-100107464D01*
X131314419Y-100126053D01*
X131313180Y-100133876D01*
X131313177Y-100133886D01*
X131307501Y-100169722D01*
X131305095Y-100181342D01*
X131294100Y-100224168D01*
X131294100Y-100244422D01*
X131292549Y-100264132D01*
X131289380Y-100284141D01*
X131290126Y-100292033D01*
X131293541Y-100328159D01*
X131294100Y-100340017D01*
X131294100Y-102842033D01*
X131293573Y-102853216D01*
X131291898Y-102860709D01*
X131292147Y-102868635D01*
X131292147Y-102868636D01*
X131294038Y-102928786D01*
X131294100Y-102932745D01*
X131294100Y-102960656D01*
X131294597Y-102964590D01*
X131294597Y-102964591D01*
X131294605Y-102964656D01*
X131295538Y-102976493D01*
X131296927Y-103020689D01*
X131299425Y-103029286D01*
X131302578Y-103040139D01*
X131306587Y-103059500D01*
X131309126Y-103079597D01*
X131312045Y-103086968D01*
X131312045Y-103086970D01*
X131325404Y-103120712D01*
X131329249Y-103131942D01*
X131341582Y-103174393D01*
X131345615Y-103181212D01*
X131345617Y-103181217D01*
X131351893Y-103191828D01*
X131360588Y-103209576D01*
X131368048Y-103228417D01*
X131372710Y-103234833D01*
X131372710Y-103234834D01*
X131394036Y-103264187D01*
X131400552Y-103274107D01*
X131407505Y-103285863D01*
X131423058Y-103312162D01*
X131437379Y-103326483D01*
X131450219Y-103341516D01*
X131462128Y-103357907D01*
X131484870Y-103376721D01*
X131496205Y-103386098D01*
X131504984Y-103394088D01*
X131569195Y-103458299D01*
X131603221Y-103520611D01*
X131606100Y-103547394D01*
X131606100Y-109619244D01*
X131586098Y-109687365D01*
X131532442Y-109733858D01*
X131462168Y-109743962D01*
X131453902Y-109742490D01*
X131419951Y-109735273D01*
X131419942Y-109735272D01*
X131413487Y-109733900D01*
X131222513Y-109733900D01*
X131216061Y-109735272D01*
X131216056Y-109735272D01*
X131129113Y-109753753D01*
X131035712Y-109773606D01*
X131029682Y-109776291D01*
X131029681Y-109776291D01*
X130867278Y-109848597D01*
X130867276Y-109848598D01*
X130861248Y-109851282D01*
X130855907Y-109855162D01*
X130855906Y-109855163D01*
X130833112Y-109871724D01*
X130706747Y-109963534D01*
X130702326Y-109968444D01*
X130702325Y-109968445D01*
X130633460Y-110044928D01*
X130578960Y-110105456D01*
X130575659Y-110111174D01*
X130505739Y-110232279D01*
X130483473Y-110270844D01*
X130424458Y-110452472D01*
X130404496Y-110642400D01*
X130424458Y-110832328D01*
X130483473Y-111013956D01*
X130578960Y-111179344D01*
X130706747Y-111321266D01*
X130861248Y-111433518D01*
X130867276Y-111436202D01*
X130867278Y-111436203D01*
X131029681Y-111508509D01*
X131035712Y-111511194D01*
X131042167Y-111512566D01*
X131042173Y-111512568D01*
X131056294Y-111515569D01*
X131118768Y-111549295D01*
X131153091Y-111611444D01*
X131156100Y-111638816D01*
X131156100Y-114281500D01*
X131136098Y-114349621D01*
X131082442Y-114396114D01*
X131030100Y-114407500D01*
X131001994Y-114407500D01*
X130933873Y-114387498D01*
X130912899Y-114370595D01*
X127822805Y-111280500D01*
X127788779Y-111218188D01*
X127785900Y-111191405D01*
X127785900Y-109871724D01*
X127805902Y-109803603D01*
X127818258Y-109787421D01*
X127891440Y-109706144D01*
X127949714Y-109605210D01*
X127983623Y-109546479D01*
X127983624Y-109546478D01*
X127986927Y-109540756D01*
X128045942Y-109359128D01*
X128048999Y-109330047D01*
X128065214Y-109175765D01*
X128065904Y-109169200D01*
X128045942Y-108979272D01*
X127986927Y-108797644D01*
X127981475Y-108788200D01*
X127894741Y-108637974D01*
X127891440Y-108632256D01*
X127809448Y-108541194D01*
X127768075Y-108495245D01*
X127768074Y-108495244D01*
X127763653Y-108490334D01*
X127609152Y-108378082D01*
X127603124Y-108375398D01*
X127603122Y-108375397D01*
X127440719Y-108303091D01*
X127440718Y-108303091D01*
X127434688Y-108300406D01*
X127341287Y-108280553D01*
X127254344Y-108262072D01*
X127254339Y-108262072D01*
X127247887Y-108260700D01*
X127056913Y-108260700D01*
X127050461Y-108262072D01*
X127050456Y-108262072D01*
X126963513Y-108280553D01*
X126870112Y-108300406D01*
X126864082Y-108303091D01*
X126864081Y-108303091D01*
X126701678Y-108375397D01*
X126701676Y-108375398D01*
X126695648Y-108378082D01*
X126541147Y-108490334D01*
X126536726Y-108495244D01*
X126536725Y-108495245D01*
X126460541Y-108579856D01*
X126400095Y-108617096D01*
X126329111Y-108615744D01*
X126273272Y-108579859D01*
X126174890Y-108470594D01*
X126075794Y-108398596D01*
X126025731Y-108362223D01*
X126025730Y-108362222D01*
X126020389Y-108358342D01*
X126014361Y-108355658D01*
X126014359Y-108355657D01*
X125851956Y-108283351D01*
X125851955Y-108283351D01*
X125845925Y-108280666D01*
X125733730Y-108256818D01*
X125665581Y-108242332D01*
X125665576Y-108242332D01*
X125659124Y-108240960D01*
X125468150Y-108240960D01*
X125461698Y-108242332D01*
X125461693Y-108242332D01*
X125393544Y-108256818D01*
X125281349Y-108280666D01*
X125275319Y-108283351D01*
X125275318Y-108283351D01*
X125112915Y-108355657D01*
X125112913Y-108355658D01*
X125106885Y-108358342D01*
X125101544Y-108362222D01*
X125101543Y-108362223D01*
X125051480Y-108398596D01*
X124952384Y-108470594D01*
X124947963Y-108475504D01*
X124947962Y-108475505D01*
X124888816Y-108541194D01*
X124824597Y-108612516D01*
X124729110Y-108777904D01*
X124722696Y-108797644D01*
X124695681Y-108880787D01*
X124655607Y-108939393D01*
X124602046Y-108965098D01*
X124502739Y-108986206D01*
X124496709Y-108988891D01*
X124496708Y-108988891D01*
X124334305Y-109061197D01*
X124334303Y-109061198D01*
X124328275Y-109063882D01*
X124173774Y-109176134D01*
X124081149Y-109279005D01*
X124020705Y-109316244D01*
X123949721Y-109314892D01*
X123893878Y-109279005D01*
X123893877Y-109279004D01*
X123801253Y-109176134D01*
X123646752Y-109063882D01*
X123640724Y-109061198D01*
X123640722Y-109061197D01*
X123478319Y-108988891D01*
X123478318Y-108988891D01*
X123472288Y-108986206D01*
X123329204Y-108955792D01*
X123266732Y-108922065D01*
X123235569Y-108871483D01*
X123207204Y-108784185D01*
X123207203Y-108784184D01*
X123205163Y-108777904D01*
X123109676Y-108612516D01*
X123045458Y-108541194D01*
X122986311Y-108475505D01*
X122986310Y-108475504D01*
X122981889Y-108470594D01*
X122882793Y-108398596D01*
X122832730Y-108362223D01*
X122832729Y-108362222D01*
X122827388Y-108358342D01*
X122821360Y-108355658D01*
X122821358Y-108355657D01*
X122658955Y-108283351D01*
X122658954Y-108283351D01*
X122652924Y-108280666D01*
X122540729Y-108256818D01*
X122472580Y-108242332D01*
X122472575Y-108242332D01*
X122466123Y-108240960D01*
X122275149Y-108240960D01*
X122268697Y-108242332D01*
X122268692Y-108242332D01*
X122200543Y-108256818D01*
X122088348Y-108280666D01*
X122082318Y-108283351D01*
X122082317Y-108283351D01*
X121919914Y-108355657D01*
X121919912Y-108355658D01*
X121913884Y-108358342D01*
X121908543Y-108362222D01*
X121908542Y-108362223D01*
X121858479Y-108398596D01*
X121759383Y-108470594D01*
X121754962Y-108475504D01*
X121754961Y-108475505D01*
X121695815Y-108541194D01*
X121631596Y-108612516D01*
X121536109Y-108777904D01*
X121534069Y-108784184D01*
X121534068Y-108784185D01*
X121504729Y-108874480D01*
X121464655Y-108933085D01*
X121411093Y-108958790D01*
X121282112Y-108986206D01*
X121276082Y-108988891D01*
X121276081Y-108988891D01*
X121113678Y-109061197D01*
X121113676Y-109061198D01*
X121107648Y-109063882D01*
X120953147Y-109176134D01*
X120948729Y-109181041D01*
X120948725Y-109181045D01*
X120860522Y-109279005D01*
X120825360Y-109318056D01*
X120729873Y-109483444D01*
X120670858Y-109665072D01*
X120670168Y-109671633D01*
X120670168Y-109671635D01*
X120658000Y-109787413D01*
X120650896Y-109855000D01*
X120670858Y-110044928D01*
X120729873Y-110226556D01*
X120733176Y-110232278D01*
X120733177Y-110232279D01*
X120755443Y-110270844D01*
X120825360Y-110391944D01*
X120898536Y-110473214D01*
X120929253Y-110537221D01*
X120930900Y-110557524D01*
X120930900Y-113680606D01*
X120910898Y-113748727D01*
X120893995Y-113769701D01*
X117300351Y-117363344D01*
X117238039Y-117397370D01*
X117174388Y-117394185D01*
X117173088Y-117393606D01*
X117166633Y-117392234D01*
X117166630Y-117392233D01*
X116992744Y-117355272D01*
X116992739Y-117355272D01*
X116986287Y-117353900D01*
X116795313Y-117353900D01*
X116788861Y-117355272D01*
X116788856Y-117355272D01*
X116701912Y-117373753D01*
X116608512Y-117393606D01*
X116602482Y-117396291D01*
X116602481Y-117396291D01*
X116440078Y-117468597D01*
X116440076Y-117468598D01*
X116434048Y-117471282D01*
X116279547Y-117583534D01*
X116275132Y-117588437D01*
X116270220Y-117592860D01*
X116269095Y-117591611D01*
X116215786Y-117624451D01*
X116182600Y-117628900D01*
X110956994Y-117628900D01*
X110888873Y-117608898D01*
X110867899Y-117591995D01*
X107677922Y-114402017D01*
X107643896Y-114339705D01*
X107641707Y-114326092D01*
X107625032Y-114167435D01*
X107625032Y-114167433D01*
X107624342Y-114160872D01*
X107565327Y-113979244D01*
X107469840Y-113813856D01*
X107342053Y-113671934D01*
X107305828Y-113645615D01*
X107262474Y-113589393D01*
X107256399Y-113518657D01*
X107289314Y-113456275D01*
X107291253Y-113454866D01*
X107419040Y-113312944D01*
X107514527Y-113147556D01*
X107573542Y-112965928D01*
X107578055Y-112922995D01*
X107592814Y-112782565D01*
X107593504Y-112776000D01*
X107578881Y-112636872D01*
X107574232Y-112592635D01*
X107574232Y-112592633D01*
X107573542Y-112586072D01*
X107514527Y-112404444D01*
X107419040Y-112239056D01*
X107336994Y-112147934D01*
X107295675Y-112102045D01*
X107295674Y-112102044D01*
X107291253Y-112097134D01*
X107192157Y-112025136D01*
X107142094Y-111988763D01*
X107142093Y-111988762D01*
X107136752Y-111984882D01*
X107130724Y-111982198D01*
X107130722Y-111982197D01*
X106968319Y-111909891D01*
X106968318Y-111909891D01*
X106962288Y-111907206D01*
X106868887Y-111887353D01*
X106781944Y-111868872D01*
X106781939Y-111868872D01*
X106775487Y-111867500D01*
X106584513Y-111867500D01*
X106578061Y-111868872D01*
X106578056Y-111868872D01*
X106491113Y-111887353D01*
X106397712Y-111907206D01*
X106391682Y-111909891D01*
X106391681Y-111909891D01*
X106229278Y-111982197D01*
X106229276Y-111982198D01*
X106223248Y-111984882D01*
X106217907Y-111988762D01*
X106217906Y-111988763D01*
X106167843Y-112025136D01*
X106068747Y-112097134D01*
X106064326Y-112102044D01*
X106064325Y-112102045D01*
X106023007Y-112147934D01*
X105940960Y-112239056D01*
X105884799Y-112336330D01*
X105872219Y-112358119D01*
X105820837Y-112407112D01*
X105751123Y-112420548D01*
X105685212Y-112394162D01*
X105644030Y-112336330D01*
X105637100Y-112295119D01*
X105637100Y-109547143D01*
X105657102Y-109479022D01*
X105669457Y-109462842D01*
X105793440Y-109325144D01*
X105881713Y-109172251D01*
X105885623Y-109165479D01*
X105885624Y-109165478D01*
X105888927Y-109159756D01*
X105947942Y-108978128D01*
X105949312Y-108965098D01*
X105967214Y-108794765D01*
X105967904Y-108788200D01*
X105950040Y-108618234D01*
X105948632Y-108604835D01*
X105948632Y-108604833D01*
X105947942Y-108598272D01*
X105888927Y-108416644D01*
X105793440Y-108251256D01*
X105784170Y-108240960D01*
X105670075Y-108114245D01*
X105670074Y-108114244D01*
X105665653Y-108109334D01*
X105511152Y-107997082D01*
X105505124Y-107994398D01*
X105505122Y-107994397D01*
X105342719Y-107922091D01*
X105342718Y-107922091D01*
X105336688Y-107919406D01*
X105243288Y-107899553D01*
X105156344Y-107881072D01*
X105156339Y-107881072D01*
X105149887Y-107879700D01*
X104958913Y-107879700D01*
X104952461Y-107881072D01*
X104952456Y-107881072D01*
X104865512Y-107899553D01*
X104772112Y-107919406D01*
X104766082Y-107922091D01*
X104766081Y-107922091D01*
X104603678Y-107994397D01*
X104603676Y-107994398D01*
X104597648Y-107997082D01*
X104443147Y-108109334D01*
X104438726Y-108114244D01*
X104438725Y-108114245D01*
X104324631Y-108240960D01*
X104315360Y-108251256D01*
X104219873Y-108416644D01*
X104160858Y-108598272D01*
X104160168Y-108604833D01*
X104160168Y-108604835D01*
X104158760Y-108618234D01*
X104140896Y-108788200D01*
X104141586Y-108794765D01*
X104159489Y-108965098D01*
X104160858Y-108978128D01*
X104219873Y-109159756D01*
X104223176Y-109165478D01*
X104223177Y-109165479D01*
X104227087Y-109172251D01*
X104315360Y-109325144D01*
X104337737Y-109349996D01*
X104368453Y-109414002D01*
X104370100Y-109434305D01*
X104370100Y-116188276D01*
X104350098Y-116256397D01*
X104337742Y-116272579D01*
X104264560Y-116353856D01*
X104169073Y-116519244D01*
X104110058Y-116700872D01*
X104090096Y-116890800D01*
X104110058Y-117080728D01*
X104169073Y-117262356D01*
X104264560Y-117427744D01*
X104337737Y-117509015D01*
X104368453Y-117573021D01*
X104370100Y-117593324D01*
X104370100Y-119047233D01*
X104369573Y-119058416D01*
X104367898Y-119065909D01*
X104368147Y-119073835D01*
X104368147Y-119073836D01*
X104370038Y-119133986D01*
X104370100Y-119137945D01*
X104370100Y-119165856D01*
X104370597Y-119169790D01*
X104370597Y-119169791D01*
X104370605Y-119169856D01*
X104371538Y-119181693D01*
X104372927Y-119225889D01*
X104378578Y-119245339D01*
X104382587Y-119264700D01*
X104385126Y-119284797D01*
X104388045Y-119292168D01*
X104388045Y-119292170D01*
X104401404Y-119325912D01*
X104405249Y-119337142D01*
X104417582Y-119379593D01*
X104421615Y-119386412D01*
X104421617Y-119386417D01*
X104427893Y-119397028D01*
X104436588Y-119414776D01*
X104444048Y-119433617D01*
X104448710Y-119440033D01*
X104448710Y-119440034D01*
X104470036Y-119469387D01*
X104476552Y-119479307D01*
X104493152Y-119507375D01*
X104499058Y-119517362D01*
X104513379Y-119531683D01*
X104526219Y-119546716D01*
X104538128Y-119563107D01*
X104558327Y-119579817D01*
X104572205Y-119591298D01*
X104580984Y-119599288D01*
X107764878Y-122783182D01*
X107798904Y-122845494D01*
X107801093Y-122859107D01*
X107816775Y-123008311D01*
X107818458Y-123024328D01*
X107877473Y-123205956D01*
X107972960Y-123371344D01*
X108046137Y-123452615D01*
X108076853Y-123516621D01*
X108078500Y-123536924D01*
X108078500Y-125854433D01*
X108077973Y-125865616D01*
X108076298Y-125873109D01*
X108076547Y-125881035D01*
X108076547Y-125881036D01*
X108078438Y-125941186D01*
X108078500Y-125945145D01*
X108078500Y-125973056D01*
X108078997Y-125976990D01*
X108078997Y-125976991D01*
X108079005Y-125977056D01*
X108079938Y-125988893D01*
X108081327Y-126033089D01*
X108086978Y-126052539D01*
X108090987Y-126071900D01*
X108093526Y-126091997D01*
X108096445Y-126099368D01*
X108096445Y-126099370D01*
X108109804Y-126133112D01*
X108113649Y-126144342D01*
X108125982Y-126186793D01*
X108130015Y-126193612D01*
X108130017Y-126193617D01*
X108136293Y-126204228D01*
X108144988Y-126221976D01*
X108152448Y-126240817D01*
X108157110Y-126247233D01*
X108157110Y-126247234D01*
X108178436Y-126276587D01*
X108184952Y-126286507D01*
X108192656Y-126299533D01*
X108207458Y-126324562D01*
X108221779Y-126338883D01*
X108234619Y-126353916D01*
X108246528Y-126370307D01*
X108280605Y-126398498D01*
X108289384Y-126406488D01*
X109681543Y-127798647D01*
X109689087Y-127806937D01*
X109693200Y-127813418D01*
X109698977Y-127818843D01*
X109742867Y-127860058D01*
X109745709Y-127862813D01*
X109765430Y-127882534D01*
X109768625Y-127885012D01*
X109777647Y-127892718D01*
X109809879Y-127922986D01*
X109816828Y-127926806D01*
X109827632Y-127932746D01*
X109844156Y-127943599D01*
X109860159Y-127956013D01*
X109900743Y-127973576D01*
X109911373Y-127978783D01*
X109950140Y-128000095D01*
X109957817Y-128002066D01*
X109957822Y-128002068D01*
X109969758Y-128005132D01*
X109988466Y-128011537D01*
X110007055Y-128019581D01*
X110014880Y-128020820D01*
X110014882Y-128020821D01*
X110050719Y-128026497D01*
X110062340Y-128028904D01*
X110097489Y-128037928D01*
X110105170Y-128039900D01*
X110125431Y-128039900D01*
X110145140Y-128041451D01*
X110165143Y-128044619D01*
X110173035Y-128043873D01*
X110178262Y-128043379D01*
X110209154Y-128040459D01*
X110221011Y-128039900D01*
X114328971Y-128039900D01*
X114397092Y-128059902D01*
X114443585Y-128113558D01*
X114453689Y-128183832D01*
X114438091Y-128228898D01*
X114356224Y-128370695D01*
X114297209Y-128552323D01*
X114277247Y-128742251D01*
X114297209Y-128932179D01*
X114356224Y-129113807D01*
X114451711Y-129279195D01*
X114524888Y-129360466D01*
X114555604Y-129424472D01*
X114557251Y-129444775D01*
X114557251Y-132453481D01*
X114556724Y-132464664D01*
X114555049Y-132472157D01*
X114555298Y-132480083D01*
X114555298Y-132480084D01*
X114557189Y-132540234D01*
X114557251Y-132544193D01*
X114557251Y-132572104D01*
X114557748Y-132576038D01*
X114557748Y-132576039D01*
X114557756Y-132576104D01*
X114558689Y-132587941D01*
X114560078Y-132632137D01*
X114565729Y-132651587D01*
X114569738Y-132670948D01*
X114572277Y-132691045D01*
X114575196Y-132698416D01*
X114575196Y-132698418D01*
X114588555Y-132732160D01*
X114592400Y-132743390D01*
X114604733Y-132785841D01*
X114608766Y-132792660D01*
X114608768Y-132792665D01*
X114615044Y-132803276D01*
X114623739Y-132821024D01*
X114631199Y-132839865D01*
X114635861Y-132846281D01*
X114635861Y-132846282D01*
X114657187Y-132875635D01*
X114663703Y-132885555D01*
X114686209Y-132923610D01*
X114700530Y-132937931D01*
X114713370Y-132952964D01*
X114725279Y-132969355D01*
X114731385Y-132974406D01*
X114759356Y-132997546D01*
X114768135Y-133005536D01*
X115966395Y-134203797D01*
X116000421Y-134266109D01*
X116003300Y-134292892D01*
X116003300Y-144752033D01*
X116002773Y-144763216D01*
X116001098Y-144770709D01*
X116001347Y-144778635D01*
X116001347Y-144778636D01*
X116003238Y-144838786D01*
X116003300Y-144842745D01*
X116003300Y-144870656D01*
X116003797Y-144874590D01*
X116003797Y-144874591D01*
X116003805Y-144874656D01*
X116004738Y-144886493D01*
X116006127Y-144930689D01*
X116010774Y-144946684D01*
X116011778Y-144950139D01*
X116015787Y-144969500D01*
X116018326Y-144989597D01*
X116021245Y-144996968D01*
X116021245Y-144996970D01*
X116034604Y-145030712D01*
X116038449Y-145041942D01*
X116046957Y-145071227D01*
X116050782Y-145084393D01*
X116054815Y-145091212D01*
X116054817Y-145091217D01*
X116061093Y-145101828D01*
X116069788Y-145119576D01*
X116077248Y-145138417D01*
X116081910Y-145144833D01*
X116081910Y-145144834D01*
X116103236Y-145174187D01*
X116109752Y-145184107D01*
X116132258Y-145222162D01*
X116146579Y-145236483D01*
X116159419Y-145251516D01*
X116171328Y-145267907D01*
X116177434Y-145272958D01*
X116205405Y-145296098D01*
X116214184Y-145304088D01*
X117220377Y-146310281D01*
X117254403Y-146372593D01*
X117249338Y-146443408D01*
X117206791Y-146500244D01*
X117140271Y-146525055D01*
X117131282Y-146525376D01*
X100964500Y-146525376D01*
X100896379Y-146505374D01*
X100849886Y-146451718D01*
X100838500Y-146399376D01*
X100838500Y-144890372D01*
X113422596Y-144890372D01*
X113427877Y-144897426D01*
X113608537Y-145002996D01*
X113617820Y-145007443D01*
X113826672Y-145087196D01*
X113836574Y-145090073D01*
X114055629Y-145134640D01*
X114065882Y-145135863D01*
X114289281Y-145144055D01*
X114299567Y-145143588D01*
X114521316Y-145115181D01*
X114531402Y-145113038D01*
X114745529Y-145048796D01*
X114755124Y-145045036D01*
X114955884Y-144946684D01*
X114964734Y-144941409D01*
X115025121Y-144898335D01*
X115033521Y-144887635D01*
X115026534Y-144874482D01*
X114242512Y-144090460D01*
X114228568Y-144082846D01*
X114226735Y-144082977D01*
X114220120Y-144087228D01*
X113429356Y-144877992D01*
X113422596Y-144890372D01*
X100838500Y-144890372D01*
X100838500Y-143688723D01*
X112803148Y-143688723D01*
X112816017Y-143911907D01*
X112817453Y-143922128D01*
X112866601Y-144140208D01*
X112869680Y-144150037D01*
X112953791Y-144357177D01*
X112958434Y-144366368D01*
X113049326Y-144514692D01*
X113059782Y-144524152D01*
X113068560Y-144520368D01*
X113857678Y-143731250D01*
X113864056Y-143719570D01*
X114594108Y-143719570D01*
X114594239Y-143721403D01*
X114598490Y-143728018D01*
X115386321Y-144515849D01*
X115398331Y-144522408D01*
X115410070Y-144513440D01*
X115450095Y-144457739D01*
X115455406Y-144448900D01*
X115554453Y-144248495D01*
X115558251Y-144238902D01*
X115623239Y-144025001D01*
X115625416Y-144014931D01*
X115654834Y-143791482D01*
X115655353Y-143784808D01*
X115656893Y-143721803D01*
X115656699Y-143715084D01*
X115638234Y-143490478D01*
X115636551Y-143480316D01*
X115582088Y-143263489D01*
X115578767Y-143253734D01*
X115489627Y-143048728D01*
X115484749Y-143039630D01*
X115409338Y-142923063D01*
X115398652Y-142913859D01*
X115389085Y-142918263D01*
X114601722Y-143705626D01*
X114594108Y-143719570D01*
X113864056Y-143719570D01*
X113865292Y-143717306D01*
X113865161Y-143715473D01*
X113860910Y-143708858D01*
X113073203Y-142921151D01*
X113061667Y-142914851D01*
X113049385Y-142924474D01*
X112991602Y-143009181D01*
X112986516Y-143018134D01*
X112892389Y-143220912D01*
X112888830Y-143230587D01*
X112829088Y-143446010D01*
X112827157Y-143456130D01*
X112803400Y-143678434D01*
X112803148Y-143688723D01*
X100838500Y-143688723D01*
X100838500Y-142548865D01*
X113424923Y-142548865D01*
X113431668Y-142561196D01*
X114216888Y-143346416D01*
X114230832Y-143354030D01*
X114232665Y-143353899D01*
X114239280Y-143349648D01*
X115028943Y-142559985D01*
X115035964Y-142547128D01*
X115028191Y-142536461D01*
X115023601Y-142532836D01*
X115015015Y-142527131D01*
X114819299Y-142419091D01*
X114809900Y-142414866D01*
X114599166Y-142340241D01*
X114589195Y-142337607D01*
X114369107Y-142298403D01*
X114358855Y-142297434D01*
X114135308Y-142294703D01*
X114125024Y-142295423D01*
X113904041Y-142329237D01*
X113894022Y-142331624D01*
X113681522Y-142401080D01*
X113672020Y-142405075D01*
X113473728Y-142508299D01*
X113465003Y-142513793D01*
X113433376Y-142537540D01*
X113424923Y-142548865D01*
X100838500Y-142548865D01*
X100838500Y-137668376D01*
X100858502Y-137600255D01*
X100912158Y-137553762D01*
X100964500Y-137542376D01*
X103321377Y-137542376D01*
X103322148Y-137542378D01*
X103399721Y-137542852D01*
X103422082Y-137536461D01*
X103428153Y-137534726D01*
X103444915Y-137531148D01*
X103445753Y-137531028D01*
X103474187Y-137526956D01*
X103497564Y-137516327D01*
X103515087Y-137509880D01*
X103539771Y-137502825D01*
X103547365Y-137498033D01*
X103547368Y-137498032D01*
X103564780Y-137487046D01*
X103579865Y-137478906D01*
X103606782Y-137466668D01*
X103626235Y-137449906D01*
X103641239Y-137438803D01*
X103662958Y-137425100D01*
X103668897Y-137418375D01*
X103668901Y-137418372D01*
X103682532Y-137402938D01*
X103694724Y-137390894D01*
X103710327Y-137377449D01*
X103710329Y-137377446D01*
X103717127Y-137371589D01*
X103722381Y-137363484D01*
X103731094Y-137350041D01*
X103742385Y-137335167D01*
X103753431Y-137322659D01*
X103753432Y-137322658D01*
X103759378Y-137315925D01*
X103771943Y-137289163D01*
X103780263Y-137274185D01*
X103791471Y-137256893D01*
X103791473Y-137256888D01*
X103796352Y-137249361D01*
X103798922Y-137240768D01*
X103798924Y-137240763D01*
X103803711Y-137224756D01*
X103810372Y-137207312D01*
X103817467Y-137192200D01*
X103817468Y-137192198D01*
X103821281Y-137184076D01*
X103825830Y-137154859D01*
X103829613Y-137138144D01*
X103835515Y-137118410D01*
X103835516Y-137118404D01*
X103838086Y-137109810D01*
X103838296Y-137075370D01*
X103838329Y-137074587D01*
X103838500Y-137073490D01*
X103838500Y-137042499D01*
X103838502Y-137041729D01*
X103838952Y-136968091D01*
X103838952Y-136968090D01*
X103838976Y-136964155D01*
X103838592Y-136962811D01*
X103838500Y-136961466D01*
X103838500Y-136103495D01*
X103858502Y-136035374D01*
X103912158Y-135988881D01*
X103982432Y-135978777D01*
X104047012Y-136008271D01*
X104085396Y-136067997D01*
X104087458Y-136075978D01*
X104106520Y-136161256D01*
X104211404Y-136446323D01*
X104213355Y-136450023D01*
X104213357Y-136450028D01*
X104325678Y-136663062D01*
X104353068Y-136715013D01*
X104529024Y-136962607D01*
X104531868Y-136965657D01*
X104531873Y-136965663D01*
X104733330Y-137181699D01*
X104736180Y-137184755D01*
X104970897Y-137377554D01*
X105229051Y-137537616D01*
X105506106Y-137662129D01*
X105558905Y-137677869D01*
X105793197Y-137747715D01*
X105793199Y-137747716D01*
X105797196Y-137748907D01*
X105801316Y-137749560D01*
X105801318Y-137749560D01*
X105921429Y-137768584D01*
X106097205Y-137796424D01*
X106140089Y-137798371D01*
X106190791Y-137800674D01*
X106190810Y-137800674D01*
X106192210Y-137800738D01*
X106381939Y-137800738D01*
X106607981Y-137785724D01*
X106905737Y-137725686D01*
X107192937Y-137626795D01*
X107196668Y-137624927D01*
X107196672Y-137624925D01*
X107460792Y-137492664D01*
X107460794Y-137492663D01*
X107464536Y-137490789D01*
X107715760Y-137320057D01*
X107720382Y-137315925D01*
X107905321Y-137150570D01*
X107942198Y-137117598D01*
X107956136Y-137101337D01*
X108049011Y-136992978D01*
X108139870Y-136886971D01*
X108166239Y-136846366D01*
X108303031Y-136635724D01*
X108303033Y-136635721D01*
X108305303Y-136632225D01*
X108307457Y-136627690D01*
X108420890Y-136388801D01*
X108435592Y-136357838D01*
X108528446Y-136068630D01*
X108582235Y-135769682D01*
X108593835Y-135514238D01*
X108595825Y-135470416D01*
X108595825Y-135470411D01*
X108596014Y-135466246D01*
X108569541Y-135163653D01*
X108503280Y-134867220D01*
X108398396Y-134582153D01*
X108256732Y-134313463D01*
X108080776Y-134065869D01*
X108077932Y-134062819D01*
X108077927Y-134062813D01*
X107876470Y-133846777D01*
X107876468Y-133846775D01*
X107873620Y-133843721D01*
X107638903Y-133650922D01*
X107380749Y-133490860D01*
X107103694Y-133366347D01*
X106887723Y-133301963D01*
X106816603Y-133280761D01*
X106816601Y-133280760D01*
X106812604Y-133279569D01*
X106808484Y-133278916D01*
X106808482Y-133278916D01*
X106585373Y-133243579D01*
X106512595Y-133232052D01*
X106469711Y-133230105D01*
X106419009Y-133227802D01*
X106418990Y-133227802D01*
X106417590Y-133227738D01*
X106227861Y-133227738D01*
X106001819Y-133242752D01*
X105704063Y-133302790D01*
X105416863Y-133401681D01*
X105413132Y-133403549D01*
X105413128Y-133403551D01*
X105160215Y-133530200D01*
X105145264Y-133537687D01*
X104894040Y-133708419D01*
X104890926Y-133711203D01*
X104890925Y-133711204D01*
X104875826Y-133724704D01*
X104667602Y-133910878D01*
X104664885Y-133914048D01*
X104664884Y-133914049D01*
X104640580Y-133942405D01*
X104469930Y-134141505D01*
X104467656Y-134145007D01*
X104467655Y-134145008D01*
X104355862Y-134317156D01*
X104304497Y-134396251D01*
X104302709Y-134400017D01*
X104302706Y-134400022D01*
X104292075Y-134422411D01*
X104174208Y-134670638D01*
X104172928Y-134674625D01*
X104084468Y-134950147D01*
X104044600Y-135008893D01*
X103979300Y-135036758D01*
X103909301Y-135024896D01*
X103856828Y-134977073D01*
X103838500Y-134911630D01*
X103838500Y-106132525D01*
X105676221Y-106132525D01*
X105696183Y-106322453D01*
X105755198Y-106504081D01*
X105850685Y-106669469D01*
X105978472Y-106811391D01*
X106132973Y-106923643D01*
X106139001Y-106926327D01*
X106139003Y-106926328D01*
X106301406Y-106998634D01*
X106307437Y-107001319D01*
X106400838Y-107021172D01*
X106487781Y-107039653D01*
X106487786Y-107039653D01*
X106494238Y-107041025D01*
X106685212Y-107041025D01*
X106691664Y-107039653D01*
X106691669Y-107039653D01*
X106778612Y-107021172D01*
X106872013Y-107001319D01*
X106878044Y-106998634D01*
X107040447Y-106926328D01*
X107040449Y-106926327D01*
X107046477Y-106923643D01*
X107193215Y-106817031D01*
X107260080Y-106793174D01*
X107329232Y-106809254D01*
X107356369Y-106829873D01*
X115892878Y-115366383D01*
X115926904Y-115428695D01*
X115929093Y-115442306D01*
X115946458Y-115607528D01*
X116005473Y-115789156D01*
X116100960Y-115954544D01*
X116228747Y-116096466D01*
X116247104Y-116109803D01*
X116376237Y-116203624D01*
X116383248Y-116208718D01*
X116389276Y-116211402D01*
X116389278Y-116211403D01*
X116551681Y-116283709D01*
X116557712Y-116286394D01*
X116651112Y-116306247D01*
X116738056Y-116324728D01*
X116738061Y-116324728D01*
X116744513Y-116326100D01*
X116935487Y-116326100D01*
X116941939Y-116324728D01*
X116941944Y-116324728D01*
X117028888Y-116306247D01*
X117122288Y-116286394D01*
X117128319Y-116283709D01*
X117290722Y-116211403D01*
X117290724Y-116211402D01*
X117296752Y-116208718D01*
X117303764Y-116203624D01*
X117432896Y-116109803D01*
X117451253Y-116096466D01*
X117579040Y-115954544D01*
X117674527Y-115789156D01*
X117733542Y-115607528D01*
X117744221Y-115505928D01*
X117752814Y-115424165D01*
X117753504Y-115417600D01*
X117741152Y-115300074D01*
X117734232Y-115234235D01*
X117734232Y-115234233D01*
X117733542Y-115227672D01*
X117674527Y-115046044D01*
X117579040Y-114880656D01*
X117451253Y-114738734D01*
X117296752Y-114626482D01*
X117290724Y-114623798D01*
X117290722Y-114623797D01*
X117128319Y-114551491D01*
X117128318Y-114551491D01*
X117122288Y-114548806D01*
X117028888Y-114528953D01*
X116941944Y-114510472D01*
X116941939Y-114510472D01*
X116935487Y-114509100D01*
X116879594Y-114509100D01*
X116811473Y-114489098D01*
X116790499Y-114472195D01*
X112429479Y-110111174D01*
X108058577Y-105740272D01*
X108051037Y-105731986D01*
X108046925Y-105725507D01*
X107997273Y-105678881D01*
X107994432Y-105676127D01*
X107974695Y-105656390D01*
X107971498Y-105653910D01*
X107962476Y-105646205D01*
X107936025Y-105621366D01*
X107930246Y-105615939D01*
X107923300Y-105612120D01*
X107923297Y-105612118D01*
X107912491Y-105606177D01*
X107895972Y-105595326D01*
X107889973Y-105590673D01*
X107879966Y-105582911D01*
X107872697Y-105579766D01*
X107872693Y-105579763D01*
X107839388Y-105565351D01*
X107828738Y-105560134D01*
X107789985Y-105538830D01*
X107770362Y-105533792D01*
X107751659Y-105527388D01*
X107740345Y-105522492D01*
X107740344Y-105522492D01*
X107733070Y-105519344D01*
X107725247Y-105518105D01*
X107725237Y-105518102D01*
X107689401Y-105512426D01*
X107677781Y-105510020D01*
X107642636Y-105500997D01*
X107642635Y-105500997D01*
X107634955Y-105499025D01*
X107614701Y-105499025D01*
X107594990Y-105497474D01*
X107582811Y-105495545D01*
X107574982Y-105494305D01*
X107567090Y-105495051D01*
X107530964Y-105498466D01*
X107519106Y-105499025D01*
X107297925Y-105499025D01*
X107229804Y-105479023D01*
X107210578Y-105462682D01*
X107210305Y-105462985D01*
X107205393Y-105458562D01*
X107200978Y-105453659D01*
X107046477Y-105341407D01*
X107040449Y-105338723D01*
X107040447Y-105338722D01*
X106878044Y-105266416D01*
X106878043Y-105266416D01*
X106872013Y-105263731D01*
X106778612Y-105243878D01*
X106691669Y-105225397D01*
X106691664Y-105225397D01*
X106685212Y-105224025D01*
X106494238Y-105224025D01*
X106487786Y-105225397D01*
X106487781Y-105225397D01*
X106400838Y-105243878D01*
X106307437Y-105263731D01*
X106301407Y-105266416D01*
X106301406Y-105266416D01*
X106139003Y-105338722D01*
X106139001Y-105338723D01*
X106132973Y-105341407D01*
X105978472Y-105453659D01*
X105974051Y-105458569D01*
X105974050Y-105458570D01*
X105864928Y-105579763D01*
X105850685Y-105595581D01*
X105755198Y-105760969D01*
X105696183Y-105942597D01*
X105676221Y-106132525D01*
X103838500Y-106132525D01*
X103838500Y-80247238D01*
X121679317Y-80247238D01*
X121695768Y-80532550D01*
X121696593Y-80536755D01*
X121696594Y-80536763D01*
X121707748Y-80593615D01*
X121750788Y-80812990D01*
X121752175Y-80817040D01*
X121752176Y-80817045D01*
X121841971Y-81079313D01*
X121843360Y-81083369D01*
X121971769Y-81338682D01*
X122133640Y-81574206D01*
X122136521Y-81577372D01*
X122292300Y-81748571D01*
X122325978Y-81785583D01*
X122329266Y-81788332D01*
X122541931Y-81966148D01*
X122541936Y-81966152D01*
X122545223Y-81968900D01*
X122637869Y-82027017D01*
X122783679Y-82118484D01*
X122783683Y-82118486D01*
X122787319Y-82120767D01*
X123047786Y-82238372D01*
X123051905Y-82239592D01*
X123317690Y-82318322D01*
X123317695Y-82318323D01*
X123321803Y-82319540D01*
X123326037Y-82320188D01*
X123326042Y-82320189D01*
X123600059Y-82362119D01*
X123600061Y-82362119D01*
X123604301Y-82362768D01*
X123749788Y-82365054D01*
X123885762Y-82367190D01*
X123885768Y-82367190D01*
X123890053Y-82367257D01*
X124173769Y-82332923D01*
X124450201Y-82260403D01*
X124454161Y-82258763D01*
X124454166Y-82258761D01*
X124596148Y-82199950D01*
X124714233Y-82151037D01*
X124960980Y-82006850D01*
X125185875Y-81830509D01*
X125384758Y-81625279D01*
X125553947Y-81394955D01*
X125690312Y-81143801D01*
X125791331Y-80876464D01*
X125855132Y-80597891D01*
X125880537Y-80313236D01*
X125880998Y-80269238D01*
X125861560Y-79984113D01*
X125856183Y-79958146D01*
X125822518Y-79795587D01*
X125803606Y-79704265D01*
X125708209Y-79434871D01*
X125577133Y-79180916D01*
X125412804Y-78947100D01*
X125218264Y-78737749D01*
X124997111Y-78556738D01*
X124753438Y-78407415D01*
X124744764Y-78403607D01*
X124616083Y-78347120D01*
X124491754Y-78292543D01*
X124216901Y-78214250D01*
X123933966Y-78173982D01*
X123784049Y-78173197D01*
X123652471Y-78172508D01*
X123652465Y-78172508D01*
X123648184Y-78172486D01*
X123643940Y-78173045D01*
X123643936Y-78173045D01*
X123551526Y-78185211D01*
X123364842Y-78209788D01*
X123360702Y-78210921D01*
X123360700Y-78210921D01*
X123344240Y-78215424D01*
X123089185Y-78285200D01*
X122826312Y-78397324D01*
X122822631Y-78399527D01*
X122584771Y-78541883D01*
X122584767Y-78541886D01*
X122581089Y-78544087D01*
X122577746Y-78546765D01*
X122577742Y-78546768D01*
X122561029Y-78560158D01*
X122358053Y-78722773D01*
X122355109Y-78725875D01*
X122355105Y-78725879D01*
X122164280Y-78926966D01*
X122161330Y-78930075D01*
X121994562Y-79162158D01*
X121860834Y-79414726D01*
X121762621Y-79683106D01*
X121701740Y-79962332D01*
X121679317Y-80247238D01*
X103838500Y-80247238D01*
X103838500Y-77986623D01*
X103838502Y-77985853D01*
X103838800Y-77937102D01*
X103838976Y-77908279D01*
X103830850Y-77879847D01*
X103827272Y-77863085D01*
X103824352Y-77842698D01*
X103823080Y-77833813D01*
X103812451Y-77810436D01*
X103806004Y-77792913D01*
X103801416Y-77776862D01*
X103798949Y-77768229D01*
X103794156Y-77760632D01*
X103783170Y-77743220D01*
X103775030Y-77728135D01*
X103772564Y-77722711D01*
X103762792Y-77701218D01*
X103746030Y-77681765D01*
X103734927Y-77666761D01*
X103721224Y-77645042D01*
X103714499Y-77639103D01*
X103714496Y-77639099D01*
X103699062Y-77625468D01*
X103687018Y-77613276D01*
X103673573Y-77597673D01*
X103673570Y-77597671D01*
X103667713Y-77590873D01*
X103654009Y-77581990D01*
X103646165Y-77576906D01*
X103631291Y-77565615D01*
X103618783Y-77554569D01*
X103618782Y-77554568D01*
X103612049Y-77548622D01*
X103585287Y-77536057D01*
X103570309Y-77527737D01*
X103553017Y-77516529D01*
X103553012Y-77516527D01*
X103545485Y-77511648D01*
X103536892Y-77509078D01*
X103536887Y-77509076D01*
X103520880Y-77504289D01*
X103503436Y-77497628D01*
X103488324Y-77490533D01*
X103488322Y-77490532D01*
X103480200Y-77486719D01*
X103471333Y-77485338D01*
X103471332Y-77485338D01*
X103460478Y-77483648D01*
X103450983Y-77482170D01*
X103434268Y-77478387D01*
X103414534Y-77472485D01*
X103414528Y-77472484D01*
X103405934Y-77469914D01*
X103396963Y-77469859D01*
X103396962Y-77469859D01*
X103386903Y-77469798D01*
X103371494Y-77469704D01*
X103370711Y-77469671D01*
X103369614Y-77469500D01*
X103338623Y-77469500D01*
X103337853Y-77469498D01*
X103264215Y-77469048D01*
X103264214Y-77469048D01*
X103260279Y-77469024D01*
X103258935Y-77469408D01*
X103257590Y-77469500D01*
X100964500Y-77469500D01*
X100896379Y-77449498D01*
X100849886Y-77395842D01*
X100838500Y-77343500D01*
X100838500Y-71420554D01*
X112802349Y-71420554D01*
X112802646Y-71425706D01*
X112802646Y-71425710D01*
X112812178Y-71591019D01*
X112815818Y-71654146D01*
X112816955Y-71659192D01*
X112816956Y-71659198D01*
X112837855Y-71751931D01*
X112867258Y-71882402D01*
X112909740Y-71987024D01*
X112942715Y-72068231D01*
X112955286Y-72099191D01*
X113077541Y-72298691D01*
X113230737Y-72475546D01*
X113410761Y-72625004D01*
X113415217Y-72627608D01*
X113415220Y-72627610D01*
X113607545Y-72739996D01*
X113612778Y-72743054D01*
X113831363Y-72826523D01*
X113836429Y-72827554D01*
X113836430Y-72827554D01*
X113891278Y-72838713D01*
X114060646Y-72873171D01*
X114192430Y-72878003D01*
X114289304Y-72881556D01*
X114289308Y-72881556D01*
X114294468Y-72881745D01*
X114299588Y-72881089D01*
X114299590Y-72881089D01*
X114521425Y-72852672D01*
X114521428Y-72852671D01*
X114526552Y-72852015D01*
X114533142Y-72850038D01*
X114745708Y-72786265D01*
X114745713Y-72786263D01*
X114750663Y-72784778D01*
X114841150Y-72740449D01*
X114956134Y-72684119D01*
X114956138Y-72684116D01*
X114960783Y-72681841D01*
X114965595Y-72678409D01*
X115037146Y-72627372D01*
X132548796Y-72627372D01*
X132554077Y-72634426D01*
X132734737Y-72739996D01*
X132744020Y-72744443D01*
X132952872Y-72824196D01*
X132962774Y-72827073D01*
X133181829Y-72871640D01*
X133192082Y-72872863D01*
X133415481Y-72881055D01*
X133425767Y-72880588D01*
X133647516Y-72852181D01*
X133657602Y-72850038D01*
X133871729Y-72785796D01*
X133881324Y-72782036D01*
X134082084Y-72683684D01*
X134090934Y-72678409D01*
X134151321Y-72635335D01*
X134159721Y-72624635D01*
X134152734Y-72611482D01*
X133368712Y-71827460D01*
X133354768Y-71819846D01*
X133352935Y-71819977D01*
X133346320Y-71824228D01*
X132555556Y-72614992D01*
X132548796Y-72627372D01*
X115037146Y-72627372D01*
X115147067Y-72548966D01*
X115151270Y-72545968D01*
X115317007Y-72380809D01*
X115453544Y-72190798D01*
X115503925Y-72088860D01*
X115554919Y-71985680D01*
X115554920Y-71985678D01*
X115557213Y-71981038D01*
X115605702Y-71821444D01*
X115623728Y-71762115D01*
X115623729Y-71762109D01*
X115625232Y-71757163D01*
X115645524Y-71603027D01*
X115655335Y-71528507D01*
X115655335Y-71528501D01*
X115655772Y-71525185D01*
X115657477Y-71455438D01*
X115645369Y-71308166D01*
X115638729Y-71227396D01*
X115638728Y-71227390D01*
X115638305Y-71222245D01*
X115604659Y-71088294D01*
X115582563Y-71000325D01*
X115582562Y-71000321D01*
X115581304Y-70995314D01*
X115564968Y-70957744D01*
X115556393Y-70938022D01*
X118738000Y-70938022D01*
X118738285Y-70943999D01*
X118752525Y-71093254D01*
X118754784Y-71104988D01*
X118811141Y-71297091D01*
X118815571Y-71308166D01*
X118907238Y-71486149D01*
X118913688Y-71496195D01*
X119037352Y-71653628D01*
X119045589Y-71662277D01*
X119196790Y-71793482D01*
X119206516Y-71800419D01*
X119379792Y-71900662D01*
X119390662Y-71905639D01*
X119579770Y-71971309D01*
X119581474Y-71971724D01*
X119592008Y-71970222D01*
X119596000Y-71956657D01*
X119596000Y-70556115D01*
X119591525Y-70540876D01*
X119590135Y-70539671D01*
X119582452Y-70538000D01*
X118756115Y-70538000D01*
X118740876Y-70542475D01*
X118739671Y-70543865D01*
X118738000Y-70551548D01*
X118738000Y-70938022D01*
X115556393Y-70938022D01*
X115490065Y-70785478D01*
X115490063Y-70785475D01*
X115488005Y-70780741D01*
X115360913Y-70584287D01*
X115350607Y-70572960D01*
X115311050Y-70529488D01*
X115203442Y-70411228D01*
X115199391Y-70408029D01*
X115199387Y-70408025D01*
X115023875Y-70269414D01*
X115023871Y-70269412D01*
X115019820Y-70266212D01*
X114991889Y-70250793D01*
X114859712Y-70177828D01*
X114814979Y-70153134D01*
X114810110Y-70151410D01*
X114810106Y-70151408D01*
X114599295Y-70076756D01*
X114599291Y-70076755D01*
X114594420Y-70075030D01*
X114589327Y-70074123D01*
X114589324Y-70074122D01*
X114475055Y-70053768D01*
X114364066Y-70033998D01*
X114276341Y-70032926D01*
X114135273Y-70031202D01*
X114135271Y-70031202D01*
X114130103Y-70031139D01*
X113898816Y-70066531D01*
X113785226Y-70103658D01*
X113681333Y-70137615D01*
X113681331Y-70137616D01*
X113676414Y-70139223D01*
X113671828Y-70141610D01*
X113671824Y-70141612D01*
X113539772Y-70210355D01*
X113468872Y-70247263D01*
X113281761Y-70387749D01*
X113120109Y-70556909D01*
X113117195Y-70561181D01*
X113117194Y-70561182D01*
X113101433Y-70584287D01*
X112988255Y-70750199D01*
X112889741Y-70962429D01*
X112888359Y-70967411D01*
X112888359Y-70967412D01*
X112882130Y-70989872D01*
X112827213Y-71187899D01*
X112802349Y-71420554D01*
X100838500Y-71420554D01*
X100838500Y-70849195D01*
X100858502Y-70781074D01*
X100912158Y-70734581D01*
X100982432Y-70724477D01*
X101025201Y-70738780D01*
X101102787Y-70781433D01*
X101108654Y-70783294D01*
X101108656Y-70783295D01*
X101285436Y-70839373D01*
X101291306Y-70841235D01*
X101445227Y-70858500D01*
X101551769Y-70858500D01*
X101554825Y-70858200D01*
X101554832Y-70858200D01*
X101613340Y-70852463D01*
X101698833Y-70844080D01*
X101704734Y-70842298D01*
X101704736Y-70842298D01*
X101778053Y-70820162D01*
X101888169Y-70786916D01*
X102062796Y-70694066D01*
X102192072Y-70588631D01*
X102211287Y-70572960D01*
X102211290Y-70572957D01*
X102216062Y-70569065D01*
X102221089Y-70562989D01*
X102338201Y-70421425D01*
X102338203Y-70421421D01*
X102342130Y-70416675D01*
X102436198Y-70242701D01*
X102494682Y-70053768D01*
X102495520Y-70045798D01*
X102514711Y-69863204D01*
X102514711Y-69863202D01*
X102515355Y-69857075D01*
X102514067Y-69842925D01*
X107288645Y-69842925D01*
X107289204Y-69849065D01*
X107305891Y-70032423D01*
X107306570Y-70039888D01*
X107308308Y-70045794D01*
X107308309Y-70045798D01*
X107317563Y-70077241D01*
X107362410Y-70229619D01*
X107365263Y-70235077D01*
X107365265Y-70235081D01*
X107381540Y-70266212D01*
X107454040Y-70404890D01*
X107577968Y-70559025D01*
X107582692Y-70562989D01*
X107589933Y-70569065D01*
X107729474Y-70686154D01*
X107734872Y-70689121D01*
X107734877Y-70689125D01*
X107854949Y-70755134D01*
X107902787Y-70781433D01*
X107908654Y-70783294D01*
X107908656Y-70783295D01*
X108085436Y-70839373D01*
X108091306Y-70841235D01*
X108245227Y-70858500D01*
X108351769Y-70858500D01*
X108354825Y-70858200D01*
X108354832Y-70858200D01*
X108413340Y-70852463D01*
X108498833Y-70844080D01*
X108504734Y-70842298D01*
X108504736Y-70842298D01*
X108578053Y-70820162D01*
X108688169Y-70786916D01*
X108862796Y-70694066D01*
X108992072Y-70588631D01*
X109011287Y-70572960D01*
X109011290Y-70572957D01*
X109016062Y-70569065D01*
X109021089Y-70562989D01*
X109138201Y-70421425D01*
X109138203Y-70421421D01*
X109142130Y-70416675D01*
X109236198Y-70242701D01*
X109294682Y-70053768D01*
X109295520Y-70045798D01*
X109314711Y-69863204D01*
X109314711Y-69863202D01*
X109315355Y-69857075D01*
X109297430Y-69660112D01*
X109288562Y-69629978D01*
X109243330Y-69476294D01*
X109241590Y-69470381D01*
X109231919Y-69451881D01*
X109185192Y-69362502D01*
X109149960Y-69295110D01*
X109026032Y-69140975D01*
X109019727Y-69135684D01*
X108971300Y-69095049D01*
X108874526Y-69013846D01*
X108869128Y-69010879D01*
X108869123Y-69010875D01*
X108706608Y-68921533D01*
X108706609Y-68921533D01*
X108701213Y-68918567D01*
X108695346Y-68916706D01*
X108695344Y-68916705D01*
X108518564Y-68860627D01*
X108518563Y-68860627D01*
X108512694Y-68858765D01*
X108358773Y-68841500D01*
X108252231Y-68841500D01*
X108249175Y-68841800D01*
X108249168Y-68841800D01*
X108190660Y-68847537D01*
X108105167Y-68855920D01*
X108099266Y-68857702D01*
X108099264Y-68857702D01*
X108025947Y-68879838D01*
X107915831Y-68913084D01*
X107741204Y-69005934D01*
X107684782Y-69051951D01*
X107592713Y-69127040D01*
X107592710Y-69127043D01*
X107587938Y-69130935D01*
X107584011Y-69135682D01*
X107584009Y-69135684D01*
X107465799Y-69278575D01*
X107465797Y-69278579D01*
X107461870Y-69283325D01*
X107367802Y-69457299D01*
X107309318Y-69646232D01*
X107288645Y-69842925D01*
X102514067Y-69842925D01*
X102497430Y-69660112D01*
X102488562Y-69629978D01*
X102443330Y-69476294D01*
X102441590Y-69470381D01*
X102431919Y-69451881D01*
X102385192Y-69362502D01*
X102349960Y-69295110D01*
X102226032Y-69140975D01*
X102219727Y-69135684D01*
X102171300Y-69095049D01*
X102074526Y-69013846D01*
X102069128Y-69010879D01*
X102069123Y-69010875D01*
X101906608Y-68921533D01*
X101906609Y-68921533D01*
X101901213Y-68918567D01*
X101895346Y-68916706D01*
X101895344Y-68916705D01*
X101718564Y-68860627D01*
X101718563Y-68860627D01*
X101712694Y-68858765D01*
X101558773Y-68841500D01*
X101452231Y-68841500D01*
X101449175Y-68841800D01*
X101449168Y-68841800D01*
X101390660Y-68847537D01*
X101305167Y-68855920D01*
X101299266Y-68857702D01*
X101299264Y-68857702D01*
X101225947Y-68879838D01*
X101115831Y-68913084D01*
X101110395Y-68915974D01*
X101110391Y-68915976D01*
X101023653Y-68962095D01*
X100954115Y-68976414D01*
X100887875Y-68950866D01*
X100845962Y-68893561D01*
X100838500Y-68850843D01*
X100838500Y-68612500D01*
X100858502Y-68544379D01*
X100912158Y-68497886D01*
X100964500Y-68486500D01*
X118303933Y-68486500D01*
X118372054Y-68506502D01*
G37*
%TD.AperFunction*%
%TA.AperFunction,Conductor*%
G36*
X141862812Y-120807089D02*
G01*
X141889418Y-120839312D01*
X141920960Y-120893944D01*
X142048747Y-121035866D01*
X142203248Y-121148118D01*
X142209276Y-121150802D01*
X142209278Y-121150803D01*
X142371681Y-121223109D01*
X142377712Y-121225794D01*
X142471112Y-121245647D01*
X142558056Y-121264128D01*
X142558061Y-121264128D01*
X142564513Y-121265500D01*
X142755487Y-121265500D01*
X142761939Y-121264128D01*
X142761944Y-121264128D01*
X142848888Y-121245647D01*
X142942288Y-121225794D01*
X142948319Y-121223109D01*
X143110722Y-121150803D01*
X143110724Y-121150802D01*
X143116752Y-121148118D01*
X143271253Y-121035866D01*
X143378264Y-120917018D01*
X143438710Y-120879778D01*
X143509693Y-120881130D01*
X143568678Y-120920643D01*
X143596936Y-120985774D01*
X143597900Y-121001328D01*
X143597900Y-137025253D01*
X143597898Y-137026023D01*
X143597424Y-137103597D01*
X143599891Y-137112228D01*
X143605550Y-137132029D01*
X143609128Y-137148791D01*
X143613320Y-137178063D01*
X143617034Y-137186231D01*
X143617034Y-137186232D01*
X143623948Y-137201438D01*
X143630396Y-137218962D01*
X143637451Y-137243647D01*
X143642243Y-137251241D01*
X143642244Y-137251244D01*
X143653230Y-137268656D01*
X143661369Y-137283739D01*
X143673608Y-137310658D01*
X143679469Y-137317460D01*
X143690370Y-137330111D01*
X143701473Y-137345115D01*
X143715176Y-137366834D01*
X143721901Y-137372773D01*
X143721904Y-137372777D01*
X143737338Y-137386408D01*
X143749382Y-137398600D01*
X143762827Y-137414203D01*
X143762830Y-137414205D01*
X143768687Y-137421003D01*
X143776216Y-137425883D01*
X143776217Y-137425884D01*
X143790235Y-137434970D01*
X143805109Y-137446261D01*
X143817617Y-137457307D01*
X143824351Y-137463254D01*
X143851111Y-137475818D01*
X143866091Y-137484139D01*
X143883383Y-137495347D01*
X143883388Y-137495349D01*
X143890915Y-137500228D01*
X143899508Y-137502798D01*
X143899513Y-137502800D01*
X143915520Y-137507587D01*
X143932964Y-137514248D01*
X143948076Y-137521343D01*
X143948078Y-137521344D01*
X143956200Y-137525157D01*
X143965067Y-137526538D01*
X143965068Y-137526538D01*
X143967753Y-137526956D01*
X143985417Y-137529706D01*
X144002132Y-137533489D01*
X144021866Y-137539391D01*
X144021872Y-137539392D01*
X144030466Y-137541962D01*
X144039437Y-137542017D01*
X144039438Y-137542017D01*
X144049497Y-137542078D01*
X144064906Y-137542172D01*
X144065689Y-137542205D01*
X144066786Y-137542376D01*
X144097777Y-137542376D01*
X144098547Y-137542378D01*
X144172185Y-137542828D01*
X144172186Y-137542828D01*
X144176121Y-137542852D01*
X144177465Y-137542468D01*
X144178810Y-137542376D01*
X146471900Y-137542376D01*
X146540021Y-137562378D01*
X146586514Y-137616034D01*
X146597900Y-137668376D01*
X146597900Y-146399376D01*
X146577898Y-146467497D01*
X146524242Y-146513990D01*
X146471900Y-146525376D01*
X133414319Y-146525376D01*
X133346198Y-146505374D01*
X133299705Y-146451718D01*
X133289601Y-146381444D01*
X133319095Y-146316864D01*
X133325224Y-146310280D01*
X133748158Y-145887347D01*
X133756437Y-145879813D01*
X133762918Y-145875700D01*
X133809544Y-145826048D01*
X133812298Y-145823207D01*
X133832035Y-145803470D01*
X133834515Y-145800273D01*
X133842220Y-145791251D01*
X133867059Y-145764800D01*
X133872486Y-145759021D01*
X133876305Y-145752075D01*
X133876307Y-145752072D01*
X133882248Y-145741266D01*
X133893099Y-145724747D01*
X133900658Y-145715001D01*
X133905514Y-145708741D01*
X133908659Y-145701472D01*
X133908662Y-145701468D01*
X133923074Y-145668163D01*
X133928291Y-145657513D01*
X133949595Y-145618760D01*
X133954633Y-145599137D01*
X133961037Y-145580434D01*
X133965933Y-145569120D01*
X133965933Y-145569119D01*
X133969081Y-145561845D01*
X133970320Y-145554022D01*
X133970323Y-145554012D01*
X133975999Y-145518176D01*
X133978405Y-145506556D01*
X133987428Y-145471411D01*
X133987428Y-145471410D01*
X133989400Y-145463730D01*
X133989400Y-145443476D01*
X133990951Y-145423765D01*
X133992880Y-145411586D01*
X133994120Y-145403757D01*
X133989959Y-145359738D01*
X133989400Y-145347881D01*
X133989400Y-145071227D01*
X134009402Y-145003106D01*
X134059968Y-144958076D01*
X134082336Y-144947118D01*
X134082340Y-144947116D01*
X134086983Y-144944841D01*
X134091795Y-144941409D01*
X134273267Y-144811966D01*
X134277470Y-144808968D01*
X134443207Y-144643809D01*
X134579744Y-144453798D01*
X134606130Y-144400411D01*
X134681119Y-144248680D01*
X134681120Y-144248678D01*
X134683413Y-144244038D01*
X134715611Y-144138062D01*
X134749928Y-144025115D01*
X134749929Y-144025109D01*
X134751432Y-144020163D01*
X134767544Y-143897781D01*
X134781535Y-143791507D01*
X134781535Y-143791501D01*
X134781972Y-143788185D01*
X134783677Y-143718438D01*
X134776331Y-143629084D01*
X139601130Y-143629084D01*
X139603306Y-143721403D01*
X139606780Y-143868813D01*
X139607232Y-143888008D01*
X139611480Y-143911977D01*
X139651548Y-144138062D01*
X139652428Y-144143029D01*
X139735680Y-144388279D01*
X139737884Y-144392521D01*
X139737884Y-144392522D01*
X139829243Y-144568395D01*
X139855070Y-144618115D01*
X140007851Y-144827247D01*
X140011222Y-144830636D01*
X140011224Y-144830638D01*
X140068291Y-144888004D01*
X140190508Y-145010863D01*
X140221833Y-145034000D01*
X140394987Y-145161894D01*
X140394991Y-145161896D01*
X140398838Y-145164738D01*
X140403068Y-145166964D01*
X140403072Y-145166966D01*
X140623810Y-145283102D01*
X140628045Y-145285330D01*
X140872857Y-145369864D01*
X140877559Y-145370723D01*
X140877560Y-145370723D01*
X141123667Y-145415670D01*
X141123670Y-145415670D01*
X141127638Y-145416395D01*
X141210506Y-145420738D01*
X141371960Y-145420738D01*
X141374339Y-145420557D01*
X141374340Y-145420557D01*
X141559582Y-145406466D01*
X141559587Y-145406465D01*
X141564349Y-145406103D01*
X141569003Y-145405024D01*
X141569005Y-145405024D01*
X141811991Y-145348703D01*
X141811990Y-145348703D01*
X141816655Y-145347622D01*
X142057213Y-145251649D01*
X142280485Y-145120394D01*
X142284196Y-145117373D01*
X142284200Y-145117370D01*
X142477623Y-144959899D01*
X142481335Y-144956877D01*
X142655140Y-144764860D01*
X142670343Y-144741848D01*
X142767621Y-144594597D01*
X142797900Y-144548763D01*
X142800563Y-144542988D01*
X142904325Y-144317911D01*
X142904326Y-144317908D01*
X142906331Y-144313559D01*
X142924074Y-144251884D01*
X142976616Y-144069252D01*
X142976617Y-144069248D01*
X142977937Y-144064659D01*
X143011070Y-143807792D01*
X143006974Y-143633968D01*
X143005081Y-143553648D01*
X143005081Y-143553643D01*
X143004968Y-143548868D01*
X142988516Y-143456036D01*
X142960607Y-143298556D01*
X142960606Y-143298550D01*
X142959772Y-143293847D01*
X142952631Y-143272809D01*
X142878057Y-143053125D01*
X142876520Y-143048597D01*
X142860696Y-143018134D01*
X142759339Y-142823013D01*
X142759337Y-142823010D01*
X142757130Y-142818761D01*
X142604349Y-142609629D01*
X142542175Y-142547128D01*
X142489324Y-142494000D01*
X142421692Y-142426013D01*
X142247020Y-142296998D01*
X142217213Y-142274982D01*
X142217209Y-142274980D01*
X142213362Y-142272138D01*
X142209132Y-142269912D01*
X142209128Y-142269910D01*
X141988390Y-142153774D01*
X141988388Y-142153773D01*
X141984155Y-142151546D01*
X141800626Y-142088173D01*
X141743861Y-142068572D01*
X141743860Y-142068572D01*
X141739343Y-142067012D01*
X141734640Y-142066153D01*
X141488533Y-142021206D01*
X141488530Y-142021206D01*
X141484562Y-142020481D01*
X141401694Y-142016138D01*
X141240240Y-142016138D01*
X141237861Y-142016319D01*
X141237860Y-142016319D01*
X141052618Y-142030410D01*
X141052613Y-142030411D01*
X141047851Y-142030773D01*
X141043197Y-142031852D01*
X141043195Y-142031852D01*
X140895210Y-142066153D01*
X140795545Y-142089254D01*
X140554987Y-142185227D01*
X140331715Y-142316482D01*
X140328004Y-142319503D01*
X140328000Y-142319506D01*
X140205679Y-142419091D01*
X140130865Y-142479999D01*
X139957060Y-142672016D01*
X139814300Y-142888113D01*
X139812299Y-142892453D01*
X139812297Y-142892457D01*
X139716708Y-143099805D01*
X139705869Y-143123317D01*
X139704545Y-143127918D01*
X139704545Y-143127919D01*
X139641686Y-143346416D01*
X139634263Y-143372217D01*
X139601130Y-143629084D01*
X134776331Y-143629084D01*
X134769277Y-143543286D01*
X134764929Y-143490396D01*
X134764928Y-143490390D01*
X134764505Y-143485245D01*
X134731513Y-143353899D01*
X134708763Y-143263325D01*
X134708762Y-143263321D01*
X134707504Y-143258314D01*
X134648806Y-143123317D01*
X134616265Y-143048478D01*
X134616263Y-143048475D01*
X134614205Y-143043741D01*
X134487113Y-142847287D01*
X134465026Y-142823013D01*
X134361927Y-142709709D01*
X134329642Y-142674228D01*
X134325591Y-142671029D01*
X134325587Y-142671025D01*
X134150075Y-142532414D01*
X134150071Y-142532412D01*
X134146020Y-142529212D01*
X134118089Y-142513793D01*
X134063303Y-142483550D01*
X133941179Y-142416134D01*
X133936310Y-142414410D01*
X133936306Y-142414408D01*
X133725495Y-142339756D01*
X133725491Y-142339755D01*
X133720620Y-142338030D01*
X133715527Y-142337123D01*
X133715524Y-142337122D01*
X133599649Y-142316482D01*
X133490266Y-142296998D01*
X133402541Y-142295926D01*
X133261473Y-142294202D01*
X133261471Y-142294202D01*
X133256303Y-142294139D01*
X133025016Y-142329531D01*
X132870898Y-142379904D01*
X132807533Y-142400615D01*
X132807531Y-142400616D01*
X132802614Y-142402223D01*
X132798028Y-142404610D01*
X132798024Y-142404612D01*
X132750396Y-142429406D01*
X132595072Y-142510263D01*
X132407961Y-142650749D01*
X132246309Y-142819909D01*
X132243395Y-142824181D01*
X132243394Y-142824182D01*
X132227633Y-142847287D01*
X132114455Y-143013199D01*
X132015941Y-143225429D01*
X132014559Y-143230411D01*
X132014559Y-143230412D01*
X132008135Y-143253578D01*
X131953413Y-143450899D01*
X131928549Y-143683554D01*
X131928846Y-143688706D01*
X131928846Y-143688710D01*
X131938675Y-143859161D01*
X131942018Y-143917146D01*
X131943155Y-143922192D01*
X131943156Y-143922198D01*
X131964055Y-144014931D01*
X131993458Y-144145402D01*
X132038038Y-144255191D01*
X132074062Y-144343907D01*
X132081486Y-144362191D01*
X132084191Y-144366606D01*
X132084192Y-144366607D01*
X132104907Y-144400411D01*
X132203741Y-144561691D01*
X132356937Y-144738546D01*
X132536961Y-144888004D01*
X132541417Y-144890608D01*
X132541420Y-144890610D01*
X132659971Y-144959886D01*
X132708694Y-145011525D01*
X132722400Y-145068674D01*
X132722400Y-145069105D01*
X132702398Y-145137226D01*
X132685495Y-145158201D01*
X132184699Y-145658996D01*
X132122387Y-145693021D01*
X132095604Y-145695900D01*
X130511084Y-145695900D01*
X130442963Y-145675898D01*
X130396470Y-145622242D01*
X130386366Y-145551968D01*
X130393556Y-145527048D01*
X130392915Y-145526830D01*
X130462334Y-145322328D01*
X130465019Y-145311145D01*
X130495475Y-145101088D01*
X130496105Y-145093705D01*
X130497572Y-145037704D01*
X130497329Y-145030305D01*
X130477908Y-144818945D01*
X130475811Y-144807630D01*
X130418758Y-144605336D01*
X130414636Y-144594597D01*
X130321671Y-144406083D01*
X130315665Y-144396281D01*
X130312510Y-144392056D01*
X130301251Y-144383607D01*
X130288835Y-144390377D01*
X129375095Y-145304116D01*
X129312783Y-145338141D01*
X129241967Y-145333076D01*
X129196905Y-145304115D01*
X129015885Y-145123095D01*
X128981859Y-145060783D01*
X128986924Y-144989968D01*
X129015884Y-144944905D01*
X129927698Y-144033091D01*
X129934456Y-144020713D01*
X129928427Y-144012658D01*
X129840972Y-143957478D01*
X129830721Y-143952254D01*
X129651283Y-143880666D01*
X129595423Y-143836845D01*
X129572123Y-143769781D01*
X129588779Y-143700766D01*
X129640103Y-143651711D01*
X129665362Y-143641929D01*
X129695085Y-143633965D01*
X129695087Y-143633964D01*
X129700395Y-143632542D01*
X129707811Y-143629084D01*
X129886819Y-143545612D01*
X129886824Y-143545609D01*
X129891806Y-143543286D01*
X129967341Y-143490396D01*
X130060298Y-143425307D01*
X130060301Y-143425305D01*
X130064809Y-143422148D01*
X130214148Y-143272809D01*
X130335286Y-143099805D01*
X130357054Y-143053125D01*
X130422219Y-142913377D01*
X130422220Y-142913376D01*
X130424542Y-142908395D01*
X130431047Y-142884120D01*
X130477780Y-142709709D01*
X130477780Y-142709707D01*
X130479204Y-142704394D01*
X130497611Y-142494000D01*
X130479204Y-142283606D01*
X130453494Y-142187655D01*
X130425965Y-142084915D01*
X130425964Y-142084913D01*
X130424542Y-142079605D01*
X130418269Y-142066153D01*
X130337609Y-141893176D01*
X130337607Y-141893173D01*
X130335286Y-141888195D01*
X130214148Y-141715191D01*
X130064809Y-141565852D01*
X130057255Y-141560563D01*
X130056229Y-141559279D01*
X130056087Y-141559160D01*
X130056111Y-141559131D01*
X130012931Y-141505104D01*
X130005625Y-141434485D01*
X130040437Y-141368259D01*
X133981847Y-137426849D01*
X133990137Y-137419305D01*
X133996618Y-137415192D01*
X134043259Y-137365524D01*
X134046013Y-137362683D01*
X134065734Y-137342962D01*
X134068212Y-137339767D01*
X134075918Y-137330745D01*
X134100758Y-137304293D01*
X134106186Y-137298513D01*
X134115946Y-137280760D01*
X134126799Y-137264237D01*
X134127956Y-137262745D01*
X134139213Y-137248233D01*
X134156776Y-137207649D01*
X134161983Y-137197019D01*
X134183295Y-137158252D01*
X134185266Y-137150575D01*
X134185268Y-137150570D01*
X134188332Y-137138634D01*
X134194738Y-137119922D01*
X134195393Y-137118410D01*
X134202781Y-137101337D01*
X134206893Y-137075379D01*
X134209697Y-137057673D01*
X134212104Y-137046052D01*
X134221128Y-137010903D01*
X134221128Y-137010902D01*
X134223100Y-137003222D01*
X134223100Y-136982961D01*
X134224651Y-136963250D01*
X134224772Y-136962490D01*
X134227819Y-136943249D01*
X134223659Y-136899238D01*
X134223100Y-136887381D01*
X134223100Y-127451169D01*
X134243102Y-127383048D01*
X134296758Y-127336555D01*
X134349100Y-127325169D01*
X134501094Y-127325169D01*
X134507546Y-127323797D01*
X134507551Y-127323797D01*
X134594494Y-127305316D01*
X134687895Y-127285463D01*
X134693926Y-127282778D01*
X134856329Y-127210472D01*
X134856331Y-127210471D01*
X134862359Y-127207787D01*
X135016860Y-127095535D01*
X135021282Y-127090624D01*
X135140228Y-126958521D01*
X135140229Y-126958520D01*
X135144647Y-126953613D01*
X135172887Y-126904700D01*
X135224270Y-126855707D01*
X135282006Y-126841700D01*
X135375887Y-126841700D01*
X135382339Y-126840328D01*
X135382344Y-126840328D01*
X135469287Y-126821847D01*
X135562688Y-126801994D01*
X135628035Y-126772900D01*
X135731122Y-126727003D01*
X135731124Y-126727002D01*
X135737152Y-126724318D01*
X135751343Y-126714008D01*
X135886314Y-126615945D01*
X135891653Y-126612066D01*
X135896068Y-126607163D01*
X135900980Y-126602740D01*
X135902105Y-126603989D01*
X135955414Y-126571149D01*
X135988600Y-126566700D01*
X138605233Y-126566700D01*
X138616416Y-126567227D01*
X138623909Y-126568902D01*
X138631835Y-126568653D01*
X138631836Y-126568653D01*
X138691986Y-126566762D01*
X138695945Y-126566700D01*
X138723856Y-126566700D01*
X138727791Y-126566203D01*
X138727856Y-126566195D01*
X138739693Y-126565262D01*
X138771951Y-126564248D01*
X138775970Y-126564122D01*
X138783889Y-126563873D01*
X138803343Y-126558221D01*
X138822700Y-126554213D01*
X138834930Y-126552668D01*
X138834931Y-126552668D01*
X138842797Y-126551674D01*
X138850168Y-126548755D01*
X138850170Y-126548755D01*
X138883912Y-126535396D01*
X138895142Y-126531551D01*
X138929983Y-126521429D01*
X138929984Y-126521429D01*
X138937593Y-126519218D01*
X138944412Y-126515185D01*
X138944417Y-126515183D01*
X138955028Y-126508907D01*
X138972776Y-126500212D01*
X138991617Y-126492752D01*
X139027387Y-126466764D01*
X139037307Y-126460248D01*
X139068535Y-126441780D01*
X139068538Y-126441778D01*
X139075362Y-126437742D01*
X139089683Y-126423421D01*
X139104717Y-126410580D01*
X139110349Y-126406488D01*
X139121107Y-126398672D01*
X139149298Y-126364595D01*
X139157288Y-126355816D01*
X141413047Y-124100057D01*
X141421337Y-124092513D01*
X141427818Y-124088400D01*
X141474459Y-124038732D01*
X141477213Y-124035891D01*
X141496935Y-124016169D01*
X141499419Y-124012967D01*
X141507117Y-124003955D01*
X141531961Y-123977498D01*
X141537386Y-123971721D01*
X141547147Y-123953966D01*
X141557998Y-123937447D01*
X141570414Y-123921441D01*
X141582200Y-123894206D01*
X141587974Y-123880863D01*
X141593191Y-123870213D01*
X141614495Y-123831460D01*
X141619533Y-123811837D01*
X141625937Y-123793134D01*
X141630833Y-123781820D01*
X141630833Y-123781819D01*
X141633981Y-123774545D01*
X141635220Y-123766722D01*
X141635223Y-123766712D01*
X141640899Y-123730876D01*
X141643305Y-123719256D01*
X141652328Y-123684111D01*
X141652328Y-123684110D01*
X141654300Y-123676430D01*
X141654300Y-123656176D01*
X141655851Y-123636465D01*
X141657780Y-123624286D01*
X141659020Y-123616457D01*
X141654859Y-123572438D01*
X141654300Y-123560581D01*
X141654300Y-120902313D01*
X141674302Y-120834192D01*
X141727958Y-120787699D01*
X141798232Y-120777595D01*
X141862812Y-120807089D01*
G37*
%TD.AperFunction*%
%TA.AperFunction,Conductor*%
G36*
X127224642Y-121891129D02*
G01*
X127232318Y-121893100D01*
X127252572Y-121893100D01*
X127272282Y-121894651D01*
X127292291Y-121897820D01*
X127300183Y-121897074D01*
X127336309Y-121893659D01*
X127348167Y-121893100D01*
X129898600Y-121893100D01*
X129966721Y-121913102D01*
X129985947Y-121929443D01*
X129986220Y-121929140D01*
X129991132Y-121933563D01*
X129995547Y-121938466D01*
X130000886Y-121942345D01*
X130136118Y-122040597D01*
X130150048Y-122050718D01*
X130156076Y-122053402D01*
X130156078Y-122053403D01*
X130281179Y-122109101D01*
X130324512Y-122128394D01*
X130417912Y-122148247D01*
X130504856Y-122166728D01*
X130504861Y-122166728D01*
X130511313Y-122168100D01*
X130702287Y-122168100D01*
X130708739Y-122166728D01*
X130708744Y-122166728D01*
X130795688Y-122148247D01*
X130889088Y-122128394D01*
X130978851Y-122088429D01*
X131049218Y-122078995D01*
X131113515Y-122109101D01*
X131151329Y-122169190D01*
X131156100Y-122203536D01*
X131156100Y-135863013D01*
X131136098Y-135931134D01*
X131119195Y-135952108D01*
X130348595Y-136722708D01*
X130286283Y-136756734D01*
X130215468Y-136751669D01*
X130158632Y-136709122D01*
X130133821Y-136642602D01*
X130133500Y-136633613D01*
X130133500Y-127002524D01*
X130153502Y-126934403D01*
X130165858Y-126918221D01*
X130239040Y-126836944D01*
X130304065Y-126724318D01*
X130331223Y-126677279D01*
X130331224Y-126677278D01*
X130334527Y-126671556D01*
X130393542Y-126489928D01*
X130396662Y-126460248D01*
X130412814Y-126306565D01*
X130413504Y-126300000D01*
X130404282Y-126212255D01*
X130394232Y-126116635D01*
X130394232Y-126116633D01*
X130393542Y-126110072D01*
X130334527Y-125928444D01*
X130239040Y-125763056D01*
X130215188Y-125736565D01*
X130115675Y-125626045D01*
X130115674Y-125626044D01*
X130111253Y-125621134D01*
X129956752Y-125508882D01*
X129950724Y-125506198D01*
X129950722Y-125506197D01*
X129788319Y-125433891D01*
X129788318Y-125433891D01*
X129782288Y-125431206D01*
X129688887Y-125411353D01*
X129601944Y-125392872D01*
X129601939Y-125392872D01*
X129595487Y-125391500D01*
X129404513Y-125391500D01*
X129398061Y-125392872D01*
X129398056Y-125392872D01*
X129311113Y-125411353D01*
X129217712Y-125431206D01*
X129211682Y-125433891D01*
X129211681Y-125433891D01*
X129049278Y-125506197D01*
X129049276Y-125506198D01*
X129043248Y-125508882D01*
X128888747Y-125621134D01*
X128884326Y-125626044D01*
X128884325Y-125626045D01*
X128784813Y-125736565D01*
X128760960Y-125763056D01*
X128665473Y-125928444D01*
X128606458Y-126110072D01*
X128605768Y-126116633D01*
X128605768Y-126116635D01*
X128595718Y-126212255D01*
X128586496Y-126300000D01*
X128587186Y-126306565D01*
X128603339Y-126460248D01*
X128606458Y-126489928D01*
X128665473Y-126671556D01*
X128668776Y-126677278D01*
X128668777Y-126677279D01*
X128695935Y-126724318D01*
X128760960Y-126836944D01*
X128834137Y-126918215D01*
X128864853Y-126982221D01*
X128866500Y-127002524D01*
X128866500Y-136778245D01*
X128846498Y-136846366D01*
X128812885Y-136877891D01*
X128814552Y-136880186D01*
X128660051Y-136992438D01*
X128655630Y-136997348D01*
X128655629Y-136997349D01*
X128537068Y-137129025D01*
X128532264Y-137134360D01*
X128436777Y-137299748D01*
X128377762Y-137481376D01*
X128377072Y-137487937D01*
X128377072Y-137487939D01*
X128371306Y-137542797D01*
X128357800Y-137671304D01*
X128377762Y-137861232D01*
X128436777Y-138042860D01*
X128532264Y-138208248D01*
X128608985Y-138293455D01*
X128639702Y-138357463D01*
X128630937Y-138427916D01*
X128604443Y-138466860D01*
X127228908Y-139842395D01*
X127166596Y-139876421D01*
X127139813Y-139879300D01*
X121592368Y-139879300D01*
X121581185Y-139878773D01*
X121573692Y-139877098D01*
X121565766Y-139877347D01*
X121565765Y-139877347D01*
X121505602Y-139879238D01*
X121501644Y-139879300D01*
X121473744Y-139879300D01*
X121469754Y-139879804D01*
X121457920Y-139880736D01*
X121413711Y-139882126D01*
X121406095Y-139884339D01*
X121406093Y-139884339D01*
X121394252Y-139887779D01*
X121374893Y-139891788D01*
X121373583Y-139891954D01*
X121354803Y-139894326D01*
X121347437Y-139897242D01*
X121347431Y-139897244D01*
X121313698Y-139910600D01*
X121302468Y-139914445D01*
X121267617Y-139924570D01*
X121260007Y-139926781D01*
X121253184Y-139930816D01*
X121242566Y-139937095D01*
X121224813Y-139945792D01*
X121217168Y-139948819D01*
X121205983Y-139953248D01*
X121199568Y-139957909D01*
X121170212Y-139979237D01*
X121160295Y-139985751D01*
X121122238Y-140008258D01*
X121107917Y-140022579D01*
X121092884Y-140035419D01*
X121076493Y-140047328D01*
X121071440Y-140053436D01*
X121048308Y-140081398D01*
X121040318Y-140090178D01*
X120953501Y-140176995D01*
X120891189Y-140211021D01*
X120864406Y-140213900D01*
X120808513Y-140213900D01*
X120802061Y-140215272D01*
X120802056Y-140215272D01*
X120715113Y-140233753D01*
X120621712Y-140253606D01*
X120615682Y-140256291D01*
X120615681Y-140256291D01*
X120453278Y-140328597D01*
X120453276Y-140328598D01*
X120447248Y-140331282D01*
X120292747Y-140443534D01*
X120164960Y-140585456D01*
X120069473Y-140750844D01*
X120010458Y-140932472D01*
X119990496Y-141122400D01*
X119991186Y-141128965D01*
X120008136Y-141290232D01*
X120010458Y-141312328D01*
X120069473Y-141493956D01*
X120164960Y-141659344D01*
X120292747Y-141801266D01*
X120391843Y-141873264D01*
X120440752Y-141908798D01*
X120447248Y-141913518D01*
X120453276Y-141916202D01*
X120453278Y-141916203D01*
X120615681Y-141988509D01*
X120621712Y-141991194D01*
X120715113Y-142011047D01*
X120802056Y-142029528D01*
X120802061Y-142029528D01*
X120808513Y-142030900D01*
X120999487Y-142030900D01*
X121005939Y-142029528D01*
X121005944Y-142029528D01*
X121092887Y-142011047D01*
X121186288Y-141991194D01*
X121192319Y-141988509D01*
X121354722Y-141916203D01*
X121354724Y-141916202D01*
X121360752Y-141913518D01*
X121367249Y-141908798D01*
X121416157Y-141873264D01*
X121515253Y-141801266D01*
X121643040Y-141659344D01*
X121738527Y-141493956D01*
X121797542Y-141312328D01*
X121803133Y-141259129D01*
X121830146Y-141193473D01*
X121888367Y-141152843D01*
X121928443Y-141146300D01*
X123671796Y-141146300D01*
X123739917Y-141166302D01*
X123786410Y-141219958D01*
X123796514Y-141290232D01*
X123767020Y-141354812D01*
X123725046Y-141386495D01*
X123605176Y-141442391D01*
X123605173Y-141442393D01*
X123600195Y-141444714D01*
X123427191Y-141565852D01*
X123277852Y-141715191D01*
X123156714Y-141888195D01*
X123154393Y-141893173D01*
X123154391Y-141893176D01*
X123073731Y-142066153D01*
X123067458Y-142079605D01*
X123066036Y-142084913D01*
X123066035Y-142084915D01*
X123038506Y-142187655D01*
X123012796Y-142283606D01*
X122994389Y-142494000D01*
X123012796Y-142704394D01*
X123014220Y-142709707D01*
X123014220Y-142709709D01*
X123060954Y-142884120D01*
X123067458Y-142908395D01*
X123069780Y-142913376D01*
X123069781Y-142913377D01*
X123134947Y-143053125D01*
X123156714Y-143099805D01*
X123277852Y-143272809D01*
X123427191Y-143422148D01*
X123431699Y-143425305D01*
X123431702Y-143425307D01*
X123524659Y-143490396D01*
X123600194Y-143543286D01*
X123605176Y-143545609D01*
X123605181Y-143545612D01*
X123784189Y-143629084D01*
X123791605Y-143632542D01*
X123796913Y-143633964D01*
X123796915Y-143633965D01*
X123827996Y-143642293D01*
X123888619Y-143679245D01*
X123919640Y-143743106D01*
X123911212Y-143813600D01*
X123866009Y-143868347D01*
X123827996Y-143885707D01*
X123796915Y-143894035D01*
X123796913Y-143894036D01*
X123791605Y-143895458D01*
X123786624Y-143897780D01*
X123786623Y-143897781D01*
X123605176Y-143982391D01*
X123605173Y-143982393D01*
X123600195Y-143984714D01*
X123427191Y-144105852D01*
X123277852Y-144255191D01*
X123156714Y-144428195D01*
X123154393Y-144433173D01*
X123154391Y-144433176D01*
X123069781Y-144614623D01*
X123067458Y-144619605D01*
X123066036Y-144624913D01*
X123066035Y-144624915D01*
X123028796Y-144763893D01*
X123012796Y-144823606D01*
X122994389Y-145034000D01*
X123012796Y-145244394D01*
X123014220Y-145249707D01*
X123014220Y-145249709D01*
X123058884Y-145416395D01*
X123067458Y-145448395D01*
X123069780Y-145453376D01*
X123069781Y-145453377D01*
X123099286Y-145516650D01*
X123109947Y-145586841D01*
X123080967Y-145651654D01*
X123021548Y-145690511D01*
X122985091Y-145695900D01*
X118449995Y-145695900D01*
X118381874Y-145675898D01*
X118360900Y-145658995D01*
X117307205Y-144605300D01*
X117273179Y-144542988D01*
X117270300Y-144516205D01*
X117270300Y-135492238D01*
X121679317Y-135492238D01*
X121695768Y-135777550D01*
X121696593Y-135781755D01*
X121696594Y-135781763D01*
X121707748Y-135838615D01*
X121750788Y-136057990D01*
X121752175Y-136062040D01*
X121752176Y-136062045D01*
X121784751Y-136157187D01*
X121843360Y-136328369D01*
X121871733Y-136384783D01*
X121950200Y-136540796D01*
X121971769Y-136583682D01*
X122133640Y-136819206D01*
X122168082Y-136857057D01*
X122321829Y-137026023D01*
X122325978Y-137030583D01*
X122379709Y-137075509D01*
X122541931Y-137211148D01*
X122541936Y-137211152D01*
X122545223Y-137213900D01*
X122609942Y-137254498D01*
X122783679Y-137363484D01*
X122783683Y-137363486D01*
X122787319Y-137365767D01*
X123047786Y-137483372D01*
X123072825Y-137490789D01*
X123317690Y-137563322D01*
X123317695Y-137563323D01*
X123321803Y-137564540D01*
X123326037Y-137565188D01*
X123326042Y-137565189D01*
X123600059Y-137607119D01*
X123600061Y-137607119D01*
X123604301Y-137607768D01*
X123749788Y-137610054D01*
X123885762Y-137612190D01*
X123885768Y-137612190D01*
X123890053Y-137612257D01*
X124173769Y-137577923D01*
X124450201Y-137505403D01*
X124454161Y-137503763D01*
X124454166Y-137503761D01*
X124620241Y-137434970D01*
X124714233Y-137396037D01*
X124723035Y-137390894D01*
X124957282Y-137254011D01*
X124957283Y-137254011D01*
X124960980Y-137251850D01*
X125050447Y-137181699D01*
X125182503Y-137078153D01*
X125185875Y-137075509D01*
X125384758Y-136870279D01*
X125553947Y-136639955D01*
X125690312Y-136388801D01*
X125776295Y-136161256D01*
X125789813Y-136125482D01*
X125789814Y-136125478D01*
X125791331Y-136121464D01*
X125850109Y-135864823D01*
X125854174Y-135847075D01*
X125854175Y-135847071D01*
X125855132Y-135842891D01*
X125861300Y-135773788D01*
X125880317Y-135560701D01*
X125880537Y-135558236D01*
X125880998Y-135514238D01*
X125879207Y-135487968D01*
X125861852Y-135233390D01*
X125861851Y-135233384D01*
X125861560Y-135229113D01*
X125856183Y-135203146D01*
X125804475Y-134953462D01*
X125803606Y-134949265D01*
X125708209Y-134679871D01*
X125577133Y-134425916D01*
X125558935Y-134400022D01*
X125415271Y-134195610D01*
X125415270Y-134195609D01*
X125412804Y-134192100D01*
X125218264Y-133982749D01*
X125200659Y-133968339D01*
X125000427Y-133804452D01*
X125000426Y-133804451D01*
X124997111Y-133801738D01*
X124753438Y-133652415D01*
X124730451Y-133642324D01*
X124500062Y-133541190D01*
X124491754Y-133537543D01*
X124216901Y-133459250D01*
X123933966Y-133418982D01*
X123784049Y-133418197D01*
X123652471Y-133417508D01*
X123652465Y-133417508D01*
X123648184Y-133417486D01*
X123643940Y-133418045D01*
X123643936Y-133418045D01*
X123519752Y-133434394D01*
X123364842Y-133454788D01*
X123360702Y-133455921D01*
X123360700Y-133455921D01*
X123344240Y-133460424D01*
X123089185Y-133530200D01*
X122826312Y-133642324D01*
X122822631Y-133644527D01*
X122584771Y-133786883D01*
X122584767Y-133786886D01*
X122581089Y-133789087D01*
X122577746Y-133791765D01*
X122577742Y-133791768D01*
X122469600Y-133878407D01*
X122358053Y-133967773D01*
X122355109Y-133970875D01*
X122355105Y-133970879D01*
X122164280Y-134171966D01*
X122161330Y-134175075D01*
X121994562Y-134407158D01*
X121860834Y-134659726D01*
X121859359Y-134663757D01*
X121783408Y-134871304D01*
X121762621Y-134928106D01*
X121701740Y-135207332D01*
X121701404Y-135211602D01*
X121681690Y-135462093D01*
X121679317Y-135492238D01*
X117270300Y-135492238D01*
X117270300Y-134057064D01*
X117270827Y-134045881D01*
X117272502Y-134038388D01*
X117270362Y-133970311D01*
X117270300Y-133966352D01*
X117270300Y-133938441D01*
X117269795Y-133934441D01*
X117268862Y-133922598D01*
X117268594Y-133914049D01*
X117267473Y-133878407D01*
X117261822Y-133858955D01*
X117257814Y-133839603D01*
X117256267Y-133827360D01*
X117255274Y-133819500D01*
X117252356Y-133812129D01*
X117239000Y-133778394D01*
X117235155Y-133767167D01*
X117234521Y-133764984D01*
X117222818Y-133724704D01*
X117212507Y-133707269D01*
X117203812Y-133689521D01*
X117196352Y-133670680D01*
X117183926Y-133653576D01*
X117170364Y-133634910D01*
X117163848Y-133624990D01*
X117145380Y-133593762D01*
X117145378Y-133593759D01*
X117141342Y-133586935D01*
X117127021Y-133572614D01*
X117114180Y-133557580D01*
X117106931Y-133547603D01*
X117102272Y-133541190D01*
X117068195Y-133512999D01*
X117059416Y-133505009D01*
X115861156Y-132306748D01*
X115827130Y-132244436D01*
X115824251Y-132217653D01*
X115824251Y-129444775D01*
X115844253Y-129376654D01*
X115856609Y-129360472D01*
X115929791Y-129279195D01*
X116025278Y-129113807D01*
X116084293Y-128932179D01*
X116104255Y-128742251D01*
X116084293Y-128552323D01*
X116025278Y-128370695D01*
X115943412Y-128228899D01*
X115926674Y-128159905D01*
X115949894Y-128092813D01*
X116005701Y-128048926D01*
X116052531Y-128039900D01*
X123027806Y-128039900D01*
X123095927Y-128059902D01*
X123116901Y-128076805D01*
X123332395Y-128292299D01*
X123366421Y-128354611D01*
X123369300Y-128381394D01*
X123369300Y-129314457D01*
X123349298Y-129382578D01*
X123336943Y-129398758D01*
X123212960Y-129536456D01*
X123117473Y-129701844D01*
X123058458Y-129883472D01*
X123038496Y-130073400D01*
X123058458Y-130263328D01*
X123117473Y-130444956D01*
X123212960Y-130610344D01*
X123340747Y-130752266D01*
X123495248Y-130864518D01*
X123501276Y-130867202D01*
X123501278Y-130867203D01*
X123663681Y-130939509D01*
X123669712Y-130942194D01*
X123763113Y-130962047D01*
X123850056Y-130980528D01*
X123850061Y-130980528D01*
X123856513Y-130981900D01*
X124047487Y-130981900D01*
X124053939Y-130980528D01*
X124053944Y-130980528D01*
X124140887Y-130962047D01*
X124234288Y-130942194D01*
X124240319Y-130939509D01*
X124402722Y-130867203D01*
X124402724Y-130867202D01*
X124408752Y-130864518D01*
X124563253Y-130752266D01*
X124691040Y-130610344D01*
X124786527Y-130444956D01*
X124845542Y-130263328D01*
X124865504Y-130073400D01*
X124845542Y-129883472D01*
X124786527Y-129701844D01*
X124691040Y-129536456D01*
X124668663Y-129511604D01*
X124637947Y-129447598D01*
X124636300Y-129427295D01*
X124636300Y-128145568D01*
X124636827Y-128134385D01*
X124638502Y-128126892D01*
X124636362Y-128058801D01*
X124636300Y-128054844D01*
X124636300Y-123848289D01*
X124656302Y-123780168D01*
X124709958Y-123733675D01*
X124780232Y-123723571D01*
X124788497Y-123725042D01*
X124866056Y-123741528D01*
X124866061Y-123741528D01*
X124872513Y-123742900D01*
X125063487Y-123742900D01*
X125069939Y-123741528D01*
X125069944Y-123741528D01*
X125156888Y-123723047D01*
X125250288Y-123703194D01*
X125256315Y-123700511D01*
X125256323Y-123700508D01*
X125359773Y-123654449D01*
X125430140Y-123645015D01*
X125494437Y-123675122D01*
X125532250Y-123735211D01*
X125536331Y-123756385D01*
X125546716Y-123855194D01*
X125549372Y-123880460D01*
X125608387Y-124062088D01*
X125611690Y-124067810D01*
X125611691Y-124067811D01*
X125616003Y-124075279D01*
X125703874Y-124227476D01*
X125831661Y-124369398D01*
X125986162Y-124481650D01*
X125992190Y-124484334D01*
X125992192Y-124484335D01*
X126002935Y-124489118D01*
X126160626Y-124559326D01*
X126254026Y-124579179D01*
X126340970Y-124597660D01*
X126340975Y-124597660D01*
X126347427Y-124599032D01*
X126538401Y-124599032D01*
X126544853Y-124597660D01*
X126544858Y-124597660D01*
X126631802Y-124579179D01*
X126725202Y-124559326D01*
X126882893Y-124489118D01*
X126893636Y-124484335D01*
X126893638Y-124484334D01*
X126899666Y-124481650D01*
X127054167Y-124369398D01*
X127181954Y-124227476D01*
X127269825Y-124075279D01*
X127274137Y-124067811D01*
X127274138Y-124067810D01*
X127277441Y-124062088D01*
X127336456Y-123880460D01*
X127343669Y-123811838D01*
X127355728Y-123697097D01*
X127356418Y-123690532D01*
X127348865Y-123618666D01*
X127337146Y-123507167D01*
X127337146Y-123507165D01*
X127336456Y-123500604D01*
X127277441Y-123318976D01*
X127181954Y-123153588D01*
X127108777Y-123072317D01*
X127078061Y-123008311D01*
X127076414Y-122988008D01*
X127076414Y-122015323D01*
X127096416Y-121947202D01*
X127150072Y-121900709D01*
X127218203Y-121890316D01*
X127224642Y-121891129D01*
G37*
%TD.AperFunction*%
%TD*%
M02*
