M48
; DRILL file {KiCad (6.0.6)} date Mon 01 Aug 2022 11:51:52 PM PDT
; FORMAT={-:-/ absolute / inch / decimal}
; #@! TF.CreationDate,2022-08-01T23:51:52-07:00
; #@! TF.GenerationSoftware,Kicad,Pcbnew,(6.0.6)
; #@! TF.FileFunction,Plated,1,2,PTH
FMAT,2
INCH
; #@! TA.AperFunction,Plated,PTH,ViaDrill
T1C0.0157
; #@! TA.AperFunction,Plated,PTH,ComponentDrill
T2C0.0276
; #@! TA.AperFunction,Plated,PTH,ComponentDrill
T3C0.0350
; #@! TA.AperFunction,Plated,PTH,ComponentDrill
T4C0.0520
; #@! TA.AperFunction,Plated,PTH,ComponentDrill
T5C0.1250
%
G90
G05
T1
X4.11Y-4.1
X4.11Y-4.32
X4.13Y-2.95
X4.1606Y-5.56
X4.2Y-5.0
X4.2Y-5.56
X4.2098Y-3.9902
X4.2098Y-4.2202
X4.21Y-3.67
X4.21Y-3.95
X4.21Y-4.18
X4.29Y-3.42
X4.36Y-3.76
X4.36Y-5.01
X4.39Y-4.65
X4.4Y-3.42
X4.45Y-3.53
X4.45Y-4.3
X4.46Y-4.58
X4.46Y-4.86
X4.54Y-4.74
X4.54Y-4.78
X4.58Y-4.77
X4.64Y-4.39
X4.64Y-4.49
X4.67Y-4.36
X4.69Y-4.66
X4.6978Y-4.2084
X4.71Y-4.58
X4.76Y-3.5906
X4.76Y-3.63
X4.7922Y-4.114
X4.84Y-4.21
X4.85Y-4.44
X4.95Y-3.76
X5.01Y-4.0547
X5.04Y-5.24
X5.0432Y-4.0832
X5.05Y-3.53
X5.0747Y-3.7647
X5.1Y-4.65
X5.11Y-3.85
X5.11Y-3.89
X5.11Y-3.9294
X5.11Y-4.24
X5.16Y-5.56
X5.17Y-4.74
X5.17Y-4.78
X5.21Y-4.77
X5.2115Y-3.7
X5.26Y-4.87
X5.28Y-5.03
X5.29Y-4.36
X5.29Y-4.58
X5.32Y-3.39
X5.35Y-3.56
X5.38Y-3.14
X5.39Y-4.65
X5.42Y-5.09
X5.45Y-3.21
X5.45Y-3.56
X5.49Y-3.67
X5.5Y-5.56
X5.54Y-4.41
X5.55Y-3.95
X5.55Y-3.99
X5.55Y-4.18
X5.5502Y-4.2202
X5.56Y-5.09
X5.57Y-2.87
X5.61Y-2.77
X5.61Y-4.06
X5.61Y-4.29
T3
X4.89Y-5.61
X4.89Y-5.71
X4.99Y-5.61
X4.99Y-5.71
X5.09Y-5.61
X5.09Y-5.71
T4
X4.4972Y-2.8132
X4.4972Y-5.6582
X5.2502Y-2.8132
X5.2502Y-5.6582
T5
X4.8732Y-3.1602
X4.8732Y-5.3352
X5.5632Y-3.1602
T2
G00X4.7185Y-2.7789
M15
G01X4.7185Y-2.7553
M16
G05
G00X5.0295Y-2.7789
M15
G01X5.0295Y-2.7553
M16
G05
T0
M30
