M48
; DRILL file {KiCad (6.0.6)} date Thu 04 Aug 2022 11:16:23 PM PDT
; FORMAT={-:-/ absolute / inch / decimal}
; #@! TF.CreationDate,2022-08-04T23:16:23-07:00
; #@! TF.GenerationSoftware,Kicad,Pcbnew,(6.0.6)
; #@! TF.FileFunction,Plated,1,2,PTH
FMAT,2
INCH
; #@! TA.AperFunction,Plated,PTH,ViaDrill
T1C0.0157
; #@! TA.AperFunction,Plated,PTH,ComponentDrill
T2C0.0276
; #@! TA.AperFunction,Plated,PTH,ComponentDrill
T3C0.0350
; #@! TA.AperFunction,Plated,PTH,ComponentDrill
T4C0.0520
; #@! TA.AperFunction,Plated,PTH,ComponentDrill
T5C0.1250
%
G90
G05
T1
X4.082Y-5.464
X4.136Y-4.286
X4.137Y-4.606
X4.171Y-5.505
X4.19Y-4.009
X4.199Y-4.44
X4.203Y-4.121
X4.218Y-4.322
X4.279Y-5.457
X4.292Y-3.793
X4.343Y-3.879
X4.377Y-5.557
X4.396Y-3.795
X4.442Y-5.338
X4.456Y-4.947
X4.459Y-3.429
X4.464Y-4.544
X4.5294Y-4.9112
X4.533Y-4.833
X4.55Y-5.338
X4.621Y-4.313
X4.627Y-4.44
X4.638Y-4.7
X4.648Y-4.7405
X4.649Y-4.8
X4.665Y-3.329
X4.6663Y-4.4387
X4.707Y-4.748
X4.724Y-5.35
X4.725Y-4.793
X4.736Y-4.302
X4.751Y-5.558
X4.758Y-5.172
X4.7655Y-4.2759
X4.784Y-5.351
X4.7931Y-4.2479
X4.8157Y-3.8265
X4.8222Y-4.2214
X4.858Y-3.827
X4.9364Y-4.2067
X4.943Y-3.891
X4.9583Y-4.2394
X4.9825Y-4.2704
X5.0062Y-4.3018
X5.007Y-3.849
X5.043Y-4.806
X5.07Y-4.311
X5.08Y-4.96
X5.087Y-4.789
X5.097Y-4.592
X5.098Y-4.701
X5.168Y-4.339
X5.172Y-3.628
X5.2194Y-5.119
X5.227Y-3.91
X5.2303Y-3.9492
X5.2354Y-3.9882
X5.273Y-4.941
X5.274Y-4.983
X5.275Y-3.427
X5.32Y-3.123
X5.3218Y-4.8185
X5.324Y-3.785
X5.327Y-5.56
X5.343Y-4.639
X5.349Y-3.931
X5.407Y-3.125
X5.453Y-3.932
X5.518Y-3.702
X5.518Y-3.839
X5.52Y-5.575
X5.543Y-2.802
X5.55Y-4.061
X5.551Y-4.442
X5.556Y-4.237
X5.557Y-4.18
X5.5962Y-4.608
X5.614Y-2.928
X5.617Y-4.736
T3
X4.89Y-5.61
X4.89Y-5.71
X4.99Y-5.61
X4.99Y-5.71
X5.09Y-5.61
X5.09Y-5.71
T4
X4.4972Y-2.8132
X4.4972Y-5.6582
X5.2502Y-2.8132
X5.2502Y-5.6582
T5
X4.8732Y-3.1602
X4.8732Y-5.3352
X5.5632Y-3.1602
T2
G00X4.7175Y-2.7449
M15
G01X4.7175Y-2.7212
M16
G05
G00X5.0285Y-2.7449
M15
G01X5.0285Y-2.7212
M16
G05
T0
M30
