%TF.GenerationSoftware,KiCad,Pcbnew,(6.0.6)*%
%TF.CreationDate,2022-08-04T23:16:21-07:00*%
%TF.ProjectId,Smart Floor Register,536d6172-7420-4466-9c6f-6f7220526567,rev?*%
%TF.SameCoordinates,Original*%
%TF.FileFunction,Profile,NP*%
%FSLAX46Y46*%
G04 Gerber Fmt 4.6, Leading zero omitted, Abs format (unit mm)*
G04 Created by KiCad (PCBNEW (6.0.6)) date 2022-08-04 23:16:21*
%MOMM*%
%LPD*%
G01*
G04 APERTURE LIST*
%TA.AperFunction,Profile*%
%ADD10C,0.200000*%
%TD*%
%TA.AperFunction,Profile*%
%ADD11C,0.010000*%
%TD*%
G04 APERTURE END LIST*
D10*
X147106400Y-137033876D02*
X147106400Y-147033876D01*
X100330000Y-67978000D02*
X100330000Y-77978000D01*
X147106400Y-67978000D02*
X147106400Y-77978000D01*
X100330000Y-137033876D02*
X103330000Y-137033876D01*
X144106400Y-137033876D02*
X144106400Y-77978000D01*
X100330000Y-137033876D02*
X103330000Y-137033876D01*
X147106400Y-147033876D02*
X100330000Y-147033876D01*
X144106400Y-137033876D02*
X144106400Y-77978000D01*
X100330000Y-67978000D02*
X147106400Y-67978000D01*
X103330000Y-137033876D02*
X103330000Y-77978000D01*
X103330000Y-137033876D02*
X103330000Y-77978000D01*
X100330000Y-137033876D02*
X100330000Y-147033876D01*
X147106400Y-137033876D02*
X147106400Y-147033876D01*
X103330000Y-77978000D02*
X100330000Y-77978000D01*
X144106400Y-77978000D02*
X147106400Y-77978000D01*
X100330000Y-67978000D02*
X100330000Y-77978000D01*
X147106400Y-147033876D02*
X100330000Y-147033876D01*
X147106400Y-137033876D02*
X144106400Y-137033876D01*
X103330000Y-77978000D02*
X100330000Y-77978000D01*
X144106400Y-77978000D02*
X147106400Y-77978000D01*
X100330000Y-67978000D02*
X147106400Y-67978000D01*
X147106400Y-137033876D02*
X144106400Y-137033876D01*
X100330000Y-137033876D02*
X100330000Y-147033876D01*
X147106400Y-67978000D02*
X147106400Y-77978000D01*
D11*
%TO.C,J3*%
X125699200Y-69119300D02*
X125699200Y-68469300D01*
X120374200Y-67969300D02*
X120949200Y-68469300D01*
X123774200Y-67969300D02*
X125074200Y-67969300D01*
X123774200Y-67969300D02*
X122474200Y-67969300D01*
X128674200Y-67969300D02*
X127174200Y-67969300D01*
X126599200Y-69119300D02*
X126599200Y-68469300D01*
X122474200Y-67969300D02*
X121849200Y-68469300D01*
X121849200Y-69119300D02*
X121849200Y-68469300D01*
X127174200Y-67969300D02*
X126599200Y-68469300D01*
X125074200Y-67969300D02*
X125699200Y-68469300D01*
X118874200Y-67969300D02*
X120374200Y-67969300D01*
X120949200Y-69119300D02*
X120949200Y-68469300D01*
X125699200Y-69119300D02*
G75*
G03*
X126599200Y-69119300I450000J0D01*
G01*
X120949200Y-69119300D02*
G75*
G03*
X121849200Y-69119300I450000J0D01*
G01*
%TD*%
M02*
