%TF.GenerationSoftware,KiCad,Pcbnew,(6.0.6)*%
%TF.CreationDate,2022-08-01T23:51:54-07:00*%
%TF.ProjectId,Smart Floor Register,536d6172-7420-4466-9c6f-6f7220526567,rev?*%
%TF.SameCoordinates,Original*%
%TF.FileFunction,Paste,Top*%
%TF.FilePolarity,Positive*%
%FSLAX46Y46*%
G04 Gerber Fmt 4.6, Leading zero omitted, Abs format (unit mm)*
G04 Created by KiCad (PCBNEW (6.0.6)) date 2022-08-01 23:51:54*
%MOMM*%
%LPD*%
G01*
G04 APERTURE LIST*
G04 Aperture macros list*
%AMRoundRect*
0 Rectangle with rounded corners*
0 $1 Rounding radius*
0 $2 $3 $4 $5 $6 $7 $8 $9 X,Y pos of 4 corners*
0 Add a 4 corners polygon primitive as box body*
4,1,4,$2,$3,$4,$5,$6,$7,$8,$9,$2,$3,0*
0 Add four circle primitives for the rounded corners*
1,1,$1+$1,$2,$3*
1,1,$1+$1,$4,$5*
1,1,$1+$1,$6,$7*
1,1,$1+$1,$8,$9*
0 Add four rect primitives between the rounded corners*
20,1,$1+$1,$2,$3,$4,$5,0*
20,1,$1+$1,$4,$5,$6,$7,0*
20,1,$1+$1,$6,$7,$8,$9,0*
20,1,$1+$1,$8,$9,$2,$3,0*%
G04 Aperture macros list end*
%ADD10RoundRect,0.237500X0.250000X0.237500X-0.250000X0.237500X-0.250000X-0.237500X0.250000X-0.237500X0*%
%ADD11RoundRect,0.237500X-0.250000X-0.237500X0.250000X-0.237500X0.250000X0.237500X-0.250000X0.237500X0*%
%ADD12RoundRect,0.250000X-0.400000X-0.625000X0.400000X-0.625000X0.400000X0.625000X-0.400000X0.625000X0*%
%ADD13RoundRect,0.237500X-0.237500X0.250000X-0.237500X-0.250000X0.237500X-0.250000X0.237500X0.250000X0*%
%ADD14R,1.200000X2.500000*%
%ADD15RoundRect,0.237500X0.237500X-0.250000X0.237500X0.250000X-0.237500X0.250000X-0.237500X-0.250000X0*%
%ADD16RoundRect,0.237500X0.237500X-0.287500X0.237500X0.287500X-0.237500X0.287500X-0.237500X-0.287500X0*%
%ADD17R,1.524000X0.431800*%
%ADD18R,0.600000X0.450000*%
%ADD19R,1.219200X0.457200*%
%ADD20O,1.219200X0.457200*%
%ADD21R,0.450000X1.380000*%
%ADD22R,1.375000X1.900000*%
%ADD23R,1.475000X2.100000*%
%ADD24R,0.508000X0.889000*%
%ADD25R,0.508000X0.914400*%
%ADD26R,1.900000X2.400000*%
%ADD27R,1.500000X0.550000*%
%ADD28R,0.550000X1.500000*%
G04 APERTURE END LIST*
D10*
%TO.C,R4*%
X122165398Y-120904000D03*
X120340398Y-120904000D03*
%TD*%
D11*
%TO.C,R12*%
X125534698Y-120904000D03*
X127359698Y-120904000D03*
%TD*%
D10*
%TO.C,R7*%
X125880500Y-126238000D03*
X124055500Y-126238000D03*
%TD*%
D12*
%TO.C,R8*%
X122200000Y-116332000D03*
X125300000Y-116332000D03*
%TD*%
D13*
%TO.C,R16*%
X125904566Y-74779500D03*
X125904566Y-76604500D03*
%TD*%
D10*
%TO.C,R13*%
X138027698Y-120904000D03*
X136202698Y-120904000D03*
%TD*%
D14*
%TO.C,S1*%
X107402000Y-72600000D03*
X104902000Y-72600000D03*
X102402000Y-72600000D03*
%TD*%
D13*
%TO.C,C5*%
X144272000Y-71985500D03*
X144272000Y-73810500D03*
%TD*%
%TO.C,C2*%
X129260500Y-86653340D03*
X129260500Y-88478340D03*
%TD*%
D10*
%TO.C,R11*%
X127359698Y-119380000D03*
X125534698Y-119380000D03*
%TD*%
D15*
%TO.C,R22*%
X121695434Y-76604500D03*
X121695434Y-74779500D03*
%TD*%
D16*
%TO.C,L1*%
X138684000Y-73773000D03*
X138684000Y-72023000D03*
%TD*%
D11*
%TO.C,C4*%
X136247500Y-86106000D03*
X138072500Y-86106000D03*
%TD*%
D17*
%TO.C,A4*%
X142494000Y-99346000D03*
X142494000Y-100346000D03*
X142494000Y-101346000D03*
X142494000Y-102346000D03*
%TD*%
D10*
%TO.C,R9*%
X124610500Y-114300000D03*
X122785500Y-114300000D03*
%TD*%
D18*
%TO.C,D1*%
X121954000Y-126238000D03*
X119854000Y-126238000D03*
%TD*%
D17*
%TO.C,A1*%
X105323000Y-99188826D03*
X105323000Y-100188826D03*
X105323000Y-101188826D03*
X105323000Y-102188826D03*
%TD*%
D19*
%TO.C,U4*%
X111660300Y-89596001D03*
D20*
X111660300Y-88646000D03*
X111660300Y-87695999D03*
X109040300Y-87695999D03*
X109040300Y-89596001D03*
%TD*%
D17*
%TO.C,J1*%
X105448000Y-88236827D03*
X105448000Y-89236827D03*
%TD*%
%TO.C,U3*%
X129609498Y-119167001D03*
X129609498Y-119816999D03*
X129609498Y-120467001D03*
X129609498Y-121116999D03*
X133952898Y-121116999D03*
X133952898Y-120467001D03*
X133952898Y-119816999D03*
X133952898Y-119167001D03*
%TD*%
D21*
%TO.C,J3*%
X122500000Y-72944000D03*
X123150000Y-72944000D03*
X123800000Y-72944000D03*
X124450000Y-72944000D03*
X125100000Y-72944000D03*
D22*
X122862500Y-70284000D03*
D23*
X121337500Y-72584000D03*
X126262500Y-72584000D03*
D22*
X124737500Y-70284000D03*
%TD*%
D24*
%TO.C,SW2*%
X116768001Y-143464999D03*
X116768001Y-144965001D03*
X120467999Y-143464999D03*
X120467999Y-144965001D03*
%TD*%
D25*
%TO.C,U6*%
X140528040Y-74295000D03*
X141478000Y-74295000D03*
X142427960Y-74295000D03*
X142427960Y-71501000D03*
X140528040Y-71501000D03*
%TD*%
D17*
%TO.C,U2*%
X113747198Y-119167001D03*
X113747198Y-119816999D03*
X113747198Y-120467001D03*
X113747198Y-121116999D03*
X118090598Y-121116999D03*
X118090598Y-120467001D03*
X118090598Y-119816999D03*
X118090598Y-119167001D03*
%TD*%
D13*
%TO.C,C1*%
X118135500Y-86653340D03*
X118135500Y-88478340D03*
%TD*%
D10*
%TO.C,R2*%
X111497398Y-119380000D03*
X109672398Y-119380000D03*
%TD*%
%TO.C,R17*%
X138354750Y-141224000D03*
X136529750Y-141224000D03*
%TD*%
D11*
%TO.C,R19*%
X107753501Y-141196000D03*
X109578501Y-141196000D03*
%TD*%
%TO.C,R14*%
X136202698Y-119380000D03*
X138027698Y-119380000D03*
%TD*%
D26*
%TO.C,Y1*%
X125680500Y-87565840D03*
X121180500Y-87565840D03*
%TD*%
D17*
%TO.C,J2*%
X142532000Y-88236827D03*
X142532000Y-89236827D03*
%TD*%
%TO.C,A3*%
X142532000Y-105016827D03*
X142532000Y-106016827D03*
X142532000Y-107016827D03*
X142532000Y-108016827D03*
%TD*%
%TO.C,M1*%
X105323000Y-93070827D03*
X105323000Y-94070827D03*
X105323000Y-95070827D03*
%TD*%
D13*
%TO.C,R21*%
X123800000Y-74779500D03*
X123800000Y-76604500D03*
%TD*%
D24*
%TO.C,SW1*%
X139038249Y-145022001D03*
X139038249Y-143521999D03*
X135338251Y-145022001D03*
X135338251Y-143521999D03*
%TD*%
D10*
%TO.C,R10*%
X136294500Y-114808000D03*
X134469500Y-114808000D03*
%TD*%
%TO.C,R15*%
X136294500Y-112014000D03*
X134469500Y-112014000D03*
%TD*%
D11*
%TO.C,R3*%
X109672398Y-120904000D03*
X111497398Y-120904000D03*
%TD*%
D10*
%TO.C,R20*%
X104544500Y-141224000D03*
X102719500Y-141224000D03*
%TD*%
D11*
%TO.C,R18*%
X117737500Y-141139000D03*
X119562500Y-141139000D03*
%TD*%
D17*
%TO.C,A2*%
X105323000Y-105016827D03*
X105323000Y-106016827D03*
X105323000Y-107016827D03*
X105323000Y-108016827D03*
%TD*%
D10*
%TO.C,C3*%
X111402500Y-91186000D03*
X109577500Y-91186000D03*
%TD*%
D19*
%TO.C,U5*%
X135850000Y-87695999D03*
D20*
X135850000Y-88646000D03*
X135850000Y-89596001D03*
X138470000Y-89596001D03*
X138470000Y-87695999D03*
%TD*%
D11*
%TO.C,R5*%
X120340398Y-119380000D03*
X122165398Y-119380000D03*
%TD*%
%TO.C,R6*%
X111355500Y-114808000D03*
X113180500Y-114808000D03*
%TD*%
D24*
%TO.C,SW3*%
X106790002Y-145022001D03*
X106790002Y-143521999D03*
X110490000Y-143521999D03*
X110490000Y-145022001D03*
%TD*%
D11*
%TO.C,R1*%
X111252000Y-112014000D03*
X113077000Y-112014000D03*
%TD*%
D24*
%TO.C,SW4*%
X105481999Y-145022001D03*
X105481999Y-143521999D03*
X101782001Y-145022001D03*
X101782001Y-143521999D03*
%TD*%
D27*
%TO.C,U1*%
X131398000Y-107600000D03*
X131398000Y-106800000D03*
X131398000Y-106000000D03*
X131398000Y-105200000D03*
X131398000Y-104400000D03*
X131398000Y-103600000D03*
X131398000Y-102800000D03*
X131398000Y-102000000D03*
X131398000Y-101200000D03*
X131398000Y-100400000D03*
X131398000Y-99600000D03*
X131398000Y-98800000D03*
X131398000Y-98000000D03*
X131398000Y-97200000D03*
X131398000Y-96400000D03*
X131398000Y-95600000D03*
D28*
X129698000Y-93900000D03*
X128898000Y-93900000D03*
X128098000Y-93900000D03*
X127298000Y-93900000D03*
X126498000Y-93900000D03*
X125698000Y-93900000D03*
X124898000Y-93900000D03*
X124098000Y-93900000D03*
X123298000Y-93900000D03*
X122498000Y-93900000D03*
X121698000Y-93900000D03*
X120898000Y-93900000D03*
X120098000Y-93900000D03*
X119298000Y-93900000D03*
X118498000Y-93900000D03*
X117698000Y-93900000D03*
D27*
X115998000Y-95600000D03*
X115998000Y-96400000D03*
X115998000Y-97200000D03*
X115998000Y-98000000D03*
X115998000Y-98800000D03*
X115998000Y-99600000D03*
X115998000Y-100400000D03*
X115998000Y-101200000D03*
X115998000Y-102000000D03*
X115998000Y-102800000D03*
X115998000Y-103600000D03*
X115998000Y-104400000D03*
X115998000Y-105200000D03*
X115998000Y-106000000D03*
X115998000Y-106800000D03*
X115998000Y-107600000D03*
D28*
X117698000Y-109300000D03*
X118498000Y-109300000D03*
X119298000Y-109300000D03*
X120098000Y-109300000D03*
X120898000Y-109300000D03*
X121698000Y-109300000D03*
X122498000Y-109300000D03*
X123298000Y-109300000D03*
X124098000Y-109300000D03*
X124898000Y-109300000D03*
X125698000Y-109300000D03*
X126498000Y-109300000D03*
X127298000Y-109300000D03*
X128098000Y-109300000D03*
X128898000Y-109300000D03*
X129698000Y-109300000D03*
%TD*%
M02*
