%TF.GenerationSoftware,KiCad,Pcbnew,(6.0.6-0)*%
%TF.CreationDate,2022-08-03T09:40:13-07:00*%
%TF.ProjectId,Smart Floor Register,536d6172-7420-4466-9c6f-6f7220526567,rev?*%
%TF.SameCoordinates,Original*%
%TF.FileFunction,Paste,Top*%
%TF.FilePolarity,Positive*%
%FSLAX46Y46*%
G04 Gerber Fmt 4.6, Leading zero omitted, Abs format (unit mm)*
G04 Created by KiCad (PCBNEW (6.0.6-0)) date 2022-08-03 09:40:13*
%MOMM*%
%LPD*%
G01*
G04 APERTURE LIST*
G04 Aperture macros list*
%AMRoundRect*
0 Rectangle with rounded corners*
0 $1 Rounding radius*
0 $2 $3 $4 $5 $6 $7 $8 $9 X,Y pos of 4 corners*
0 Add a 4 corners polygon primitive as box body*
4,1,4,$2,$3,$4,$5,$6,$7,$8,$9,$2,$3,0*
0 Add four circle primitives for the rounded corners*
1,1,$1+$1,$2,$3*
1,1,$1+$1,$4,$5*
1,1,$1+$1,$6,$7*
1,1,$1+$1,$8,$9*
0 Add four rect primitives between the rounded corners*
20,1,$1+$1,$2,$3,$4,$5,0*
20,1,$1+$1,$4,$5,$6,$7,0*
20,1,$1+$1,$6,$7,$8,$9,0*
20,1,$1+$1,$8,$9,$2,$3,0*%
G04 Aperture macros list end*
%ADD10RoundRect,0.237500X-0.250000X-0.237500X0.250000X-0.237500X0.250000X0.237500X-0.250000X0.237500X0*%
%ADD11RoundRect,0.237500X0.250000X0.237500X-0.250000X0.237500X-0.250000X-0.237500X0.250000X-0.237500X0*%
%ADD12RoundRect,0.250000X-0.400000X-0.625000X0.400000X-0.625000X0.400000X0.625000X-0.400000X0.625000X0*%
%ADD13RoundRect,0.237500X-0.237500X0.250000X-0.237500X-0.250000X0.237500X-0.250000X0.237500X0.250000X0*%
%ADD14R,1.200000X2.500000*%
%ADD15RoundRect,0.237500X0.237500X-0.250000X0.237500X0.250000X-0.237500X0.250000X-0.237500X-0.250000X0*%
%ADD16RoundRect,0.237500X0.237500X-0.287500X0.237500X0.287500X-0.237500X0.287500X-0.237500X-0.287500X0*%
%ADD17R,1.756000X0.965900*%
%ADD18R,1.756000X0.982950*%
%ADD19R,0.600000X0.450000*%
%ADD20R,1.219200X0.457200*%
%ADD21O,1.219200X0.457200*%
%ADD22R,2.012000X1.465900*%
%ADD23R,1.524000X0.431800*%
%ADD24R,0.450000X1.380000*%
%ADD25R,1.375000X1.900000*%
%ADD26R,1.475000X2.100000*%
%ADD27R,0.508000X0.914400*%
%ADD28R,2.400000X1.900000*%
%ADD29R,3.180000X1.270000*%
%ADD30R,0.508000X0.889000*%
%ADD31R,1.500000X0.550000*%
%ADD32R,0.550000X1.500000*%
G04 APERTURE END LIST*
D10*
%TO.C,R4*%
X120340398Y-124587000D03*
X122165398Y-124587000D03*
%TD*%
D11*
%TO.C,R12*%
X127359698Y-124587000D03*
X125534698Y-124587000D03*
%TD*%
%TO.C,R7*%
X126896500Y-130048000D03*
X125071500Y-130048000D03*
%TD*%
D12*
%TO.C,R8*%
X122148000Y-118618000D03*
X125248000Y-118618000D03*
%TD*%
D13*
%TO.C,R16*%
X125904566Y-74779500D03*
X125904566Y-76604500D03*
%TD*%
D10*
%TO.C,R13*%
X136202698Y-124587000D03*
X138027698Y-124587000D03*
%TD*%
D14*
%TO.C,S1*%
X107402000Y-72600000D03*
X104902000Y-72600000D03*
X102402000Y-72600000D03*
%TD*%
D13*
%TO.C,C5*%
X142621000Y-70715500D03*
X142621000Y-72540500D03*
%TD*%
%TO.C,C2*%
X126847600Y-86375400D03*
X126847600Y-88200400D03*
%TD*%
D11*
%TO.C,R11*%
X127359698Y-122809000D03*
X125534698Y-122809000D03*
%TD*%
D15*
%TO.C,R22*%
X121695434Y-76604500D03*
X121695434Y-74779500D03*
%TD*%
D16*
%TO.C,L1*%
X137033000Y-72503000D03*
X137033000Y-70753000D03*
%TD*%
D10*
%TO.C,C4*%
X136247500Y-95504000D03*
X138072500Y-95504000D03*
%TD*%
D17*
%TO.C,A4*%
X142622000Y-103124000D03*
D18*
X142622000Y-104632525D03*
X142622000Y-106132525D03*
X142622000Y-107632525D03*
%TD*%
D11*
%TO.C,R9*%
X124558500Y-116586000D03*
X122733500Y-116586000D03*
%TD*%
D19*
%TO.C,D1*%
X122970000Y-130048000D03*
X120870000Y-130048000D03*
%TD*%
D17*
%TO.C,A1*%
X105062000Y-103124000D03*
D18*
X105062000Y-104632525D03*
X105062000Y-106132525D03*
X105062000Y-107632525D03*
%TD*%
D20*
%TO.C,U4*%
X111660300Y-99502001D03*
D21*
X111660300Y-98552000D03*
X111660300Y-97601999D03*
X109040300Y-97601999D03*
X109040300Y-99502001D03*
%TD*%
D22*
%TO.C,J1*%
X105204000Y-95873352D03*
X105204000Y-97856302D03*
%TD*%
D23*
%TO.C,U3*%
X129609498Y-122723001D03*
X129609498Y-123372999D03*
X129609498Y-124023001D03*
X129609498Y-124672999D03*
X133952898Y-124672999D03*
X133952898Y-124023001D03*
X133952898Y-123372999D03*
X133952898Y-122723001D03*
%TD*%
D24*
%TO.C,J3*%
X122500000Y-72944000D03*
X123150000Y-72944000D03*
X123800000Y-72944000D03*
X124450000Y-72944000D03*
X125100000Y-72944000D03*
D25*
X124737500Y-70284000D03*
X122862500Y-70284000D03*
D26*
X121337500Y-72584000D03*
X126262500Y-72584000D03*
%TD*%
D27*
%TO.C,U6*%
X138877040Y-73025000D03*
X139827000Y-73025000D03*
X140776960Y-73025000D03*
X140776960Y-70231000D03*
X138877040Y-70231000D03*
%TD*%
D23*
%TO.C,U2*%
X113747198Y-122723001D03*
X113747198Y-123372999D03*
X113747198Y-124023001D03*
X113747198Y-124672999D03*
X118090598Y-124672999D03*
X118090598Y-124023001D03*
X118090598Y-123372999D03*
X118090598Y-122723001D03*
%TD*%
D13*
%TO.C,C1*%
X120751600Y-86375400D03*
X120751600Y-88200400D03*
%TD*%
D11*
%TO.C,R2*%
X111497398Y-122885200D03*
X109672398Y-122885200D03*
%TD*%
%TO.C,R17*%
X138354750Y-141224000D03*
X136529750Y-141224000D03*
%TD*%
D10*
%TO.C,R19*%
X107753501Y-141196000D03*
X109578501Y-141196000D03*
%TD*%
%TO.C,R14*%
X136202698Y-122936000D03*
X138027698Y-122936000D03*
%TD*%
D28*
%TO.C,Y1*%
X123799600Y-89524400D03*
X123799600Y-85024400D03*
%TD*%
D22*
%TO.C,J2*%
X142288000Y-95483827D03*
X142288000Y-97466777D03*
%TD*%
D17*
%TO.C,A3*%
X142660000Y-111267475D03*
D18*
X142660000Y-112776000D03*
X142660000Y-114276000D03*
X142660000Y-115776000D03*
%TD*%
D29*
%TO.C,M2*%
X131372000Y-84518000D03*
X131372000Y-87058000D03*
X131372000Y-89598000D03*
%TD*%
%TO.C,M1*%
X115922400Y-89628500D03*
X115922400Y-87088500D03*
X115922400Y-84548500D03*
%TD*%
D13*
%TO.C,R21*%
X123800000Y-74779500D03*
X123800000Y-76604500D03*
%TD*%
D10*
%TO.C,R10*%
X130913500Y-119380000D03*
X132738500Y-119380000D03*
%TD*%
%TO.C,R15*%
X130913500Y-116586000D03*
X132738500Y-116586000D03*
%TD*%
D11*
%TO.C,R3*%
X111497398Y-124510800D03*
X109672398Y-124510800D03*
%TD*%
%TO.C,R20*%
X104544500Y-141224000D03*
X102719500Y-141224000D03*
%TD*%
D10*
%TO.C,R18*%
X117737500Y-141139000D03*
X119562500Y-141139000D03*
%TD*%
D17*
%TO.C,A2*%
X105062000Y-111267475D03*
D18*
X105062000Y-112776000D03*
X105062000Y-114276000D03*
X105062000Y-115776000D03*
%TD*%
D11*
%TO.C,C3*%
X111402500Y-101092000D03*
X109577500Y-101092000D03*
%TD*%
D20*
%TO.C,U5*%
X135850000Y-97093999D03*
D21*
X135850000Y-98044000D03*
X135850000Y-98994001D03*
X138470000Y-98994001D03*
X138470000Y-97093999D03*
%TD*%
D10*
%TO.C,R5*%
X120340398Y-122809000D03*
X122165398Y-122809000D03*
%TD*%
%TO.C,R6*%
X115015000Y-119380000D03*
X116840000Y-119380000D03*
%TD*%
D30*
%TO.C,SW2*%
X116818801Y-143471199D03*
X116818801Y-144971201D03*
X120518799Y-143471199D03*
X120518799Y-144971201D03*
%TD*%
%TO.C,SW3*%
X106790002Y-145022001D03*
X106790002Y-143521999D03*
X110490000Y-145022001D03*
X110490000Y-143521999D03*
%TD*%
D10*
%TO.C,R1*%
X115013100Y-116586000D03*
X116838100Y-116586000D03*
%TD*%
D30*
%TO.C,SW4*%
X105481999Y-145022001D03*
X105481999Y-143521999D03*
X101782001Y-145022001D03*
X101782001Y-143521999D03*
%TD*%
%TO.C,SW1*%
X135614801Y-145022001D03*
X135614801Y-143521999D03*
X139314799Y-143521999D03*
X139314799Y-145022001D03*
%TD*%
D31*
%TO.C,U1*%
X131271000Y-109378000D03*
X131271000Y-108578000D03*
X131271000Y-107778000D03*
X131271000Y-106978000D03*
X131271000Y-106178000D03*
X131271000Y-105378000D03*
X131271000Y-104578000D03*
X131271000Y-103778000D03*
X131271000Y-102978000D03*
X131271000Y-102178000D03*
X131271000Y-101378000D03*
X131271000Y-100578000D03*
X131271000Y-99778000D03*
X131271000Y-98978000D03*
X131271000Y-98178000D03*
X131271000Y-97378000D03*
D32*
X129571000Y-95678000D03*
X128771000Y-95678000D03*
X127971000Y-95678000D03*
X127171000Y-95678000D03*
X126371000Y-95678000D03*
X125571000Y-95678000D03*
X124771000Y-95678000D03*
X123971000Y-95678000D03*
X123171000Y-95678000D03*
X122371000Y-95678000D03*
X121571000Y-95678000D03*
X120771000Y-95678000D03*
X119971000Y-95678000D03*
X119171000Y-95678000D03*
X118371000Y-95678000D03*
X117571000Y-95678000D03*
D31*
X115871000Y-97378000D03*
X115871000Y-98178000D03*
X115871000Y-98978000D03*
X115871000Y-99778000D03*
X115871000Y-100578000D03*
X115871000Y-101378000D03*
X115871000Y-102178000D03*
X115871000Y-102978000D03*
X115871000Y-103778000D03*
X115871000Y-104578000D03*
X115871000Y-105378000D03*
X115871000Y-106178000D03*
X115871000Y-106978000D03*
X115871000Y-107778000D03*
X115871000Y-108578000D03*
X115871000Y-109378000D03*
D32*
X117571000Y-111078000D03*
X118371000Y-111078000D03*
X119171000Y-111078000D03*
X119971000Y-111078000D03*
X120771000Y-111078000D03*
X121571000Y-111078000D03*
X122371000Y-111078000D03*
X123171000Y-111078000D03*
X123971000Y-111078000D03*
X124771000Y-111078000D03*
X125571000Y-111078000D03*
X126371000Y-111078000D03*
X127171000Y-111078000D03*
X127971000Y-111078000D03*
X128771000Y-111078000D03*
X129571000Y-111078000D03*
%TD*%
M02*
